<?xml version="1.0" encoding="utf-8"?>
<!-- Generator: Adobe Illustrator 25.2.0, SVG Export Plug-In . SVG Version: 6.00 Build 0)  -->
<svg version="1.1" id="Layer_1" xmlns="http://www.w3.org/2000/svg" xmlns:xlink="http://www.w3.org/1999/xlink" x="0px" y="0px"
	 width="32px" height="32px" viewBox="0 0 32 32" style="enable-background:new 0 0 32 32;" xml:space="preserve">
<style type="text/css">
	.st0{fill:#00A968;}
</style>
<g>
	<path class="st0" d="M4.7,31.2c0-0.1,0.5-0.7,0.5-0.8c0.3-0.4,0.6-0.9,0.9-1.3c0.2-0.3,2.1-3.3,2.1-3.4c2.4,1.5,5.1,1.4,7.7,0.5
		c3.1-1,6.1-3.2,7.6-6.4c1.4-2.8,2.6-5.7,3.4-8.7c0.4-1.5,0.8-3.1,1.1-4.7c0.2-1,0.4-2,0.5-3c0-0.5,0-1-0.1-1.5
		C28.2,1.6,28,1.2,28,0.8c0,0.7-0.1,1.4-0.3,2.1c-0.2,1-0.3,1.5-0.8,1.9c-0.2,0.3-0.6,0.3-0.9,0.4c-0.6,0.1-1.3,0.3-1.9,0.4
		c-1.5,0.3-2.9,0.6-4.4,0.8C16,6.9,12.2,7.2,9.2,9.6c-0.8,0.6-1.4,1.1-1.9,1.9c-0.8,1.1-1.7,2.4-2,3.7C5,16.4,4.9,17.8,5,19
		c0.1,0.8,0.4,2.5,1.3,3.3c0.1,0.1,0.4-1,0.4-1.1c0.5-2.1,1.3-3.8,2.9-5.8c0.9-1,1.8-2,3-2.7c1.3-0.7,2.7-1.2,4.1-1.6
		c2.5-0.7,4.8-1.7,7.3-2.5c-2.2,0.7-4.4,1.5-6.5,2.6c-2.4,1.2-4.5,2.9-6.4,4.8c-1,0.9-1.7,1.7-2.3,2.5c-0.6,0.9-0.9,1.8-1.3,2.9
		L7,23.7c-0.1,0.3-0.2,0.6-0.4,0.8c-0.9,1.3-1.9,2.8-3,3.8L4.7,31.2z"/>
</g>
</svg>
