<?xml version="1.0" encoding="utf-8"?>
<!-- Generator: Adobe Illustrator 25.4.1, SVG Export Plug-In . SVG Version: 6.00 Build 0)  -->
<svg version="1.1" id="Layer_1" xmlns="http://www.w3.org/2000/svg" xmlns:xlink="http://www.w3.org/1999/xlink" x="0px" y="0px"
	 width="78px" height="78px" viewBox="0 0 78 78" style="enable-background:new 0 0 78 78;" xml:space="preserve">
<g>
	<rect x="48.3" y="19.4" style="fill:#FFFFFF;" width="2.4" height="11.9"/>
	<path style="fill:#FFFFFF;" d="M65.9,17.7C64,17.9,62.1,18,60.3,17c-0.4-0.2-0.6-0.6-0.5-1c0.4-4.3,0.5-6.7-0.3-7.6
		C59,7.8,58,7.6,56.5,7.6c0,0.4,0,0.9,0,1.3c0.1,3.4,0.1,7.4-3.7,9.8v12.6h16.5c0.5-0.3,0.9-0.6,1-1c0.2-0.7-0.2-1.5-0.2-1.5
		c-0.2-0.3-0.2-0.6-0.1-0.9c0.1-0.3,0.4-0.6,0.7-0.7c0.1,0,0.2-0.1,0.3-0.3c0.4-0.9,0-3.1-0.4-4.3c-0.2-0.5,0-1.1,0.5-1.3
		c0.8-0.4,0.4-1.9,0.3-2.4C69.8,17.4,68,17.6,65.9,17.7z"/>
	<path style="fill:#FFFFFF;" d="M37.4,47.7c0-0.9,0.3-1.7,0.9-2.3c-0.9-8.1-7.7-14.2-15.9-14.2c-8.8,0-16,7.2-16,16
		c0,5.1,2.5,9.9,6.6,12.9c1.1,0.8,2.2,4.9,3,8.5c3.4-5.6,4.8-5.4,5.3-5.4c0.4,0,0.8,0,1.1,0c7.8,0,14.5-5.7,15.8-13.4
		C37.7,49.2,37.4,48.5,37.4,47.7z M22.6,36.4c1.9,0,3.5,1.6,3.5,3.5c0,1.9-1.6,3.5-3.5,3.5s-3.5-1.6-3.5-3.5
		C19.2,37.9,20.7,36.4,22.6,36.4z M26.1,58c0,0.6-0.5,1.1-1.1,1.1h-6c-0.6,0-1.1-0.5-1.1-1.1c0-0.6,0.5-1.1,1.1-1.1h0.9V46.4H19
		c-0.6,0-1.1-0.5-1.1-1.1s0.5-1.1,1.1-1.1h6c0.6,0,1.1,0.5,1.1,1.1V58z"/>
	<path style="fill:#FFFFFF;" d="M54.1,47.6c0-6.2-5.1-11.3-11.3-11.3c-1.8,0-3.5,0.4-5,1.2c1.2,2,2.1,4.3,2.5,6.7
		c0.2,0,0.4-0.1,0.6-0.1c1.9,0,3.5,1.6,3.5,3.5c0,1.9-1.6,3.5-3.5,3.5c-0.3,0-0.5,0-0.7-0.1c-0.5,2.3-1.5,4.5-2.8,6.4
		c3.1,1.7,6.9,1.9,10.1,0.5c1-0.5,3.4,0.2,5.7,1c-0.9-2.9-1.1-4.7-0.6-5.5C53.5,51.7,54.1,49.7,54.1,47.6z M48.1,51.1
		c-1.9,0-3.5-1.6-3.5-3.5c0-1.9,1.6-3.5,3.5-3.5c1.9,0,3.5,1.6,3.5,3.5C51.6,49.6,50.1,51.1,48.1,51.1z"/>
	<path d="M73.4,17.9c-0.1-0.1-0.1-0.2-0.2-0.3c-2.3-2.4-5-2.2-7.4-2.1c-1.3,0.1-2.6,0.2-3.7-0.2c0.4-4.8,0.3-7.1-0.9-8.5
		c-1.1-1.2-2.9-1.5-5.6-1.5c-0.6,0-1.1,0.5-1.1,1c0,0.8,0,1.7,0,2.5c0.1,3.6,0.1,6.7-3.4,8.4h-3.8c-0.6,0-1.1,0.5-1.1,1.1v14.1
		c0,0.6,0.5,1.1,1.1,1.1h22.4c0.2,0,0.3,0,0.4-0.1c1.3-0.6,2.1-1.4,2.4-2.4c0.3-0.9,0.2-1.7,0-2.3c0.2-0.2,0.4-0.5,0.6-0.8
		c0.8-1.6,0.3-4-0.1-5.2C74.3,21.4,73.8,19.1,73.4,17.9z M50.7,31.3h-2.4V19.4h2.4V31.3z M71.2,21.3c-0.5,0.3-0.7,0.8-0.5,1.3
		c0.4,1.2,0.8,3.4,0.4,4.3c-0.1,0.2-0.2,0.3-0.3,0.3c-0.3,0.1-0.6,0.3-0.7,0.7c-0.1,0.3-0.1,0.7,0.1,0.9c0,0,0.5,0.8,0.2,1.5
		c-0.1,0.4-0.5,0.7-1,1H52.9V18.7c3.8-2.4,3.8-6.5,3.7-9.8c0-0.4,0-0.9,0-1.3C58,7.6,59,7.8,59.4,8.3c0.8,0.9,0.7,3.3,0.3,7.6
		c0,0.4,0.2,0.8,0.5,1c1.8,1,3.7,0.9,5.6,0.8c2.1-0.1,4-0.3,5.6,1.2C71.6,19.5,72,20.9,71.2,21.3z"/>
	<path d="M56.3,47.6c0-7.4-6-13.4-13.4-13.4c-2.2,0-4.4,0.6-6.3,1.6c-3.3-4.2-8.4-6.8-14.2-6.8c-10,0-18.2,8.1-18.2,18.2
		c0,5.8,2.8,11.3,7.4,14.6c0.7,0.7,2,5.7,2.7,9.9c0.1,0.4,0.4,0.8,0.9,0.9c0.1,0,0.1,0,0.2,0c0.4,0,0.8-0.2,0.9-0.6
		c1.7-3,3.9-6.3,4.8-6.8c0.4,0,0.8,0,1.2,0c5.4,0,10.3-2.4,13.6-6.2c2.1,1.2,4.4,1.9,6.9,1.9c1.9,0,3.8-0.4,5.4-1.1
		c0.6-0.1,3.5,0.7,6.2,1.9c0.1,0.1,0.3,0.1,0.4,0.1c0.3,0,0.5-0.1,0.7-0.3c0.3-0.3,0.4-0.7,0.3-1.1c-0.8-2.3-1.6-5.3-1.5-6
		C55.6,52.4,56.3,50,56.3,47.6z M22.3,63.2c-0.4,0-0.8,0-1.1,0c-0.5,0-1.9-0.1-5.3,5.4c-0.8-3.5-1.9-7.6-3-8.5
		c-4.1-3-6.6-7.8-6.6-12.9c0-8.8,7.2-16,16-16c8.2,0,15,6.1,15.9,14.2c-0.5,0.6-0.9,1.4-0.9,2.3c0,0.8,0.3,1.5,0.7,2.1
		C36.8,57.4,30.2,63.2,22.3,63.2z M53.1,58.9c-2.3-0.9-4.6-1.5-5.7-1c-3.2,1.4-7,1.2-10.1-0.5c1.3-1.9,2.3-4,2.8-6.4
		c0.2,0.1,0.5,0.1,0.7,0.1c1.9,0,3.5-1.6,3.5-3.5c0-1.9-1.6-3.5-3.5-3.5c-0.2,0-0.4,0-0.6,0.1c-0.4-2.4-1.2-4.7-2.5-6.7
		c1.6-0.8,3.3-1.2,5-1.2c6.2,0,11.3,5.1,11.3,11.3c0,2-0.6,4-1.6,5.8C52,54.2,52.2,56,53.1,58.9z M39.5,47.7c0-0.7,0.6-1.3,1.3-1.3
		c0.7,0,1.3,0.6,1.3,1.3S41.5,49,40.8,49C40.1,49,39.5,48.4,39.5,47.7z"/>
	<path d="M22.6,43.3c1.9,0,3.5-1.6,3.5-3.5c0-1.9-1.6-3.5-3.5-3.5s-3.5,1.6-3.5,3.5C19.2,41.8,20.7,43.3,22.6,43.3z M22.6,38.6
		c0.7,0,1.3,0.6,1.3,1.3s-0.6,1.3-1.3,1.3s-1.3-0.6-1.3-1.3S21.9,38.6,22.6,38.6z"/>
	<path d="M48.1,44.2c-1.9,0-3.5,1.6-3.5,3.5c0,1.9,1.6,3.5,3.5,3.5c1.9,0,3.5-1.6,3.5-3.5C51.6,45.8,50.1,44.2,48.1,44.2z M48.1,49
		c-0.7,0-1.3-0.6-1.3-1.3s0.6-1.3,1.3-1.3s1.3,0.6,1.3,1.3S48.9,49,48.1,49z"/>
	<path d="M25,44.2h-6c-0.6,0-1.1,0.5-1.1,1.1s0.5,1.1,1.1,1.1h0.9v10.6H19c-0.6,0-1.1,0.5-1.1,1.1c0,0.6,0.5,1.1,1.1,1.1h6
		c0.6,0,1.1-0.5,1.1-1.1V45.3C26.1,44.7,25.6,44.2,25,44.2z M24,56.9h-1.9V46.4H24V56.9z"/>
</g>
</svg>
