<?xml version="1.0" encoding="utf-8"?>
<!-- Generator: Adobe Illustrator 25.2.1, SVG Export Plug-In . SVG Version: 6.00 Build 0)  -->
<svg version="1.1" id="Layer_1" xmlns="http://www.w3.org/2000/svg" xmlns:xlink="http://www.w3.org/1999/xlink" x="0px" y="0px"
	 width="150px" height="200px" viewBox="0 0 150 200" enable-background="new 0 0 150 200" xml:space="preserve">
<g>
	<path d="M26.1,100c0-12,0-24,0-36c0-9.1,4.3-13.4,13.5-13.5c24.1-0.1,48.3,0.1,72.4-0.1c7.8-0.1,13.2,5.5,13.1,13.1
		c-0.2,24.5,0,49-0.1,73.4c0,7.9-5,12.6-13,12.6c-24.3,0.1-48.6,0.1-72.9,0c-8.3,0-12.9-4.7-13-13.1C26,124.3,26.1,112.1,26.1,100
		C26.1,100,26.1,100,26.1,100z M75,143.8c12,0,24,0,36,0c6.4,0,8.5-2,8.5-8.3c0.1-23.6,0-47.3,0-70.9c0-6.4-1.9-8.5-8.3-8.5
		c-23.6-0.1-47.3-0.1-70.9,0c-6.7,0-8.5,2-8.5,8.8c0,23.3,0,46.6,0,69.9c0,7.2,1.9,9,9.3,9C52.3,143.9,63.6,143.8,75,143.8z"/>
	<path fill="#FFFFFF" d="M75,143.8c-11.3,0-22.6,0-34,0c-7.4,0-9.3-1.8-9.3-9c0-23.3,0-46.6,0-69.9c0-6.8,1.8-8.8,8.5-8.8
		c23.6-0.1,47.3-0.1,70.9,0c6.4,0,8.3,2.1,8.3,8.5c0,23.6,0,47.3,0,70.9c0,6.3-2.1,8.3-8.5,8.3C98.9,143.9,87,143.8,75,143.8z
		 M95.7,80.9c-0.6-0.7-1.1-1.8-1.8-2.1c-0.8-0.3-2.1-0.2-2.7,0.3c-1,0.8-1.6,2.1-2.3,3.2c-5.2,8.9-10.4,17.8-15.6,26.8
		c-3.1,5.4-3.1,5.4-7.9,1.1c-2.3-2.1-4.6-4.3-7.1-6.2c-0.7-0.5-2.6-0.5-3,0c-0.7,0.8-0.8,2.3-0.7,3.5c0.1,0.7,1,1.3,1.6,1.9
		c3.9,3.6,7.8,7.3,11.8,10.8c2.9,2.5,4.3,2.3,6.3-1.1c6.8-11.7,13.5-23.4,20.2-35.1C94.9,83,95.2,82,95.7,80.9z"/>
	<path d="M95.7,80.9c-0.5,1.1-0.8,2.1-1.3,2.9c-6.7,11.7-13.4,23.4-20.2,35.1c-2,3.4-3.4,3.6-6.3,1.1c-4-3.5-7.9-7.2-11.8-10.8
		c-0.6-0.6-1.5-1.2-1.6-1.9c-0.1-1.2,0-2.6,0.7-3.5c0.4-0.5,2.3-0.5,3,0c2.5,1.9,4.8,4.1,7.1,6.2c4.8,4.3,4.7,4.3,7.9-1.1
		c5.2-8.9,10.4-17.9,15.6-26.8c0.7-1.1,1.3-2.4,2.3-3.2c0.6-0.5,1.9-0.6,2.7-0.3C94.6,79.1,95.1,80.1,95.7,80.9z"/>
</g>
</svg>
