<?xml version="1.0" encoding="utf-8"?>
<!-- Generator: Adobe Illustrator 16.0.0, SVG Export Plug-In . SVG Version: 6.00 Build 0)  -->
<!DOCTYPE svg PUBLIC "-//W3C//DTD SVG 1.1//EN" "http://www.w3.org/Graphics/SVG/1.1/DTD/svg11.dtd">
<svg version="1.1" id="Clothing" xmlns="http://www.w3.org/2000/svg" xmlns:xlink="http://www.w3.org/1999/xlink" x="0px" y="0px"
	 width="36px" height="40px" viewBox="0 0 36 40" enable-background="new 0 0 36 40" xml:space="preserve">
<path d="M25.873,33.063H10.234c-0.284,0-0.531-0.248-0.531-0.529V19.157l-1.521,1.521c-0.213,0.213-0.529,0.213-0.744,0
	l-4.988-4.953c-0.105-0.106-0.141-0.247-0.141-0.389c0-0.143,0.07-0.283,0.176-0.39L9.88,7.8c0.07-0.071,0.177-0.106,0.283-0.142
	l3.573-0.708c0.142-0.036,0.318,0,0.424,0.106c0.107,0.106,0.177,0.249,0.213,0.389c0,1.946,1.664,3.503,3.68,3.503
	c2.018,0,3.68-1.557,3.717-3.503c0-0.14,0.069-0.317,0.211-0.389c0.105-0.106,0.283-0.142,0.426-0.106l3.607,0.708c0,0,0,0,0.035,0
	c0.105,0,0.213,0.07,0.284,0.142l7.218,7.218c0.106,0.105,0.141,0.247,0.141,0.389c0,0.142-0.069,0.284-0.141,0.39l-4.953,4.952
	c-0.212,0.213-0.531,0.213-0.742,0l-1.451-1.379v13.162C26.402,32.814,26.154,33.063,25.873,33.063z M10.764,32.002h14.579V18.061
	c0-0.212,0.14-0.424,0.317-0.496c0.213-0.071,0.425-0.034,0.564,0.106l1.912,1.911l4.211-4.211l-6.724-6.723l-2.901-0.566
	c-0.354,2.229-2.334,3.928-4.707,3.928c-2.369,0-4.352-1.7-4.67-3.928l-2.76,0.531C10.552,8.649,10.48,8.686,10.41,8.72
	l-6.829,6.651l4.21,4.211l2.053-2.051c0.143-0.143,0.391-0.214,0.566-0.107c0.213,0.07,0.318,0.283,0.318,0.496v14.082H10.764z"/>
</svg>
