<?xml version="1.0" encoding="utf-8"?>
<!-- Generator: Adobe Illustrator 25.1.0, SVG Export Plug-In . SVG Version: 6.00 Build 0)  -->
<svg version="1.1" id="marker" xmlns="http://www.w3.org/2000/svg" xmlns:xlink="http://www.w3.org/1999/xlink" x="0px" y="0px"
	 viewBox="0 0 30 40" style="enable-background:new 0 0 30 40;" xml:space="preserve">
<style type="text/css">
	.st0{fill:#005EA2;}
	.st1{fill:#FFFFFF;}
</style>
<g>
	<g>
		<path class="st0" d="M15,1.11C7.66,1.11,1.68,7.3,1.68,14.9c0,3.13,2.41,8.31,6.97,14.98c2.54,3.71,5.11,6.93,6.34,8.45
			c1.24-1.51,3.8-4.74,6.34-8.45c4.56-6.67,6.97-11.84,6.97-14.98C28.32,7.3,22.34,1.11,15,1.11z"/>
		<path d="M15,0.11C7.09,0.11,0.68,6.73,0.68,14.9S15,39.89,15,39.89S29.32,23.06,29.32,14.9S22.91,0.11,15,0.11z M1.68,14.9
			C1.68,7.3,7.66,1.11,15,1.11S28.32,7.3,28.32,14.9c0,3.13-2.41,8.31-6.97,14.98c-2.54,3.71-5.11,6.93-6.34,8.45
			c-1.24-1.51-3.8-4.74-6.34-8.45C4.09,23.21,1.68,18.03,1.68,14.9z"/>
	</g>
	<g>
		<path d="M20.62,25.85H9.46c-0.2,0-0.38-0.18-0.38-0.38v-9.55l-1.09,1.09c-0.15,0.15-0.38,0.15-0.53,0L3.9,13.48
			c-0.07-0.08-0.1-0.18-0.1-0.28c0-0.1,0.05-0.2,0.13-0.28l5.28-5.1c0.05-0.05,0.13-0.08,0.2-0.1l2.55-0.51
			c0.1-0.03,0.23,0,0.3,0.08c0.08,0.08,0.13,0.18,0.15,0.28c0,1.39,1.19,2.5,2.63,2.5c1.44,0,2.63-1.11,2.65-2.5
			c0-0.1,0.05-0.23,0.15-0.28c0.07-0.08,0.2-0.1,0.3-0.08l2.57,0.51c0,0,0,0,0.02,0c0.07,0,0.15,0.05,0.2,0.1l5.15,5.15
			c0.08,0.07,0.1,0.18,0.1,0.28s-0.05,0.2-0.1,0.28l-3.53,3.53c-0.15,0.15-0.38,0.15-0.53,0L21,16.08v9.39
			C20.99,25.67,20.82,25.85,20.62,25.85z"/>
		<path class="st1" d="M9.84,25.1h10.4v-9.95c0-0.15,0.1-0.3,0.23-0.35c0.15-0.05,0.3-0.02,0.4,0.08l1.36,1.36l3.01-3l-4.8-4.8
			l-2.07-0.4c-0.25,1.59-1.67,2.8-3.36,2.8c-1.69,0-3.11-1.21-3.33-2.8L9.71,8.41C9.69,8.43,9.63,8.46,9.58,8.48l-4.87,4.75l3,3
			l1.46-1.46c0.1-0.1,0.28-0.15,0.4-0.08c0.15,0.05,0.23,0.2,0.23,0.35V25.1H9.84z"/>
	</g>
</g>
</svg>
