<?xml version="1.0" encoding="utf-8"?>
<!-- Generator: Adobe Illustrator 25.4.1, SVG Export Plug-In . SVG Version: 6.00 Build 0)  -->
<svg version="1.1" id="Layer_1" xmlns="http://www.w3.org/2000/svg" xmlns:xlink="http://www.w3.org/1999/xlink" x="0px" y="0px"
	 width="78px" height="78px" viewBox="0 0 78 78" style="enable-background:new 0 0 78 78;" xml:space="preserve">
<g>
	<path style="fill:#FFFFFF;" d="M39,35.6c3,0,5.4-2.4,5.4-5.4S42,24.7,39,24.7s-5.4,2.4-5.4,5.4S36,35.6,39,35.6z"/>
	<path style="fill:#FFFFFF;" d="M39,42.3c-5.6,0-10.2,4.6-10.2,10.2c0,0.3,0,0.8,0,1.2h20.4c0-0.4,0-0.9,0-1.2
		C49.2,46.8,44.6,42.3,39,42.3z"/>
	<path style="fill:#FFFFFF;" d="M16.2,49.1c3,0,5.4-2.4,5.4-5.4s-2.4-5.4-5.4-5.4s-5.4,2.4-5.4,5.4S13.2,49.1,16.2,49.1z"/>
	<path style="fill:#FFFFFF;" d="M16.2,55.8C10.6,55.8,6,60.4,6,66.1c0,0.3,0,0.8,0,1.2h20.4c0-0.4,0-0.9,0-1.2
		C26.5,60.4,21.9,55.8,16.2,55.8z"/>
	<path style="fill:#FFFFFF;" d="M61.8,49.1c3,0,5.4-2.4,5.4-5.4s-2.4-5.4-5.4-5.4c-3,0-5.4,2.4-5.4,5.4S58.8,49.1,61.8,49.1z"/>
	<path style="fill:#FFFFFF;" d="M61.8,55.8c-5.6,0-10.2,4.6-10.2,10.2c0,0.3,0,0.8,0,1.2H72c0-0.4,0-0.9,0-1.2
		C72,60.4,67.4,55.8,61.8,55.8z"/>
	<path d="M39,37.7c4.2,0,7.6-3.4,7.6-7.6c0-4.2-3.4-7.6-7.6-7.6s-7.6,3.4-7.6,7.6C31.4,34.3,34.8,37.7,39,37.7z M39,24.7
		c3,0,5.4,2.4,5.4,5.4S42,35.6,39,35.6s-5.4-2.4-5.4-5.4S36,24.7,39,24.7z"/>
	<path d="M39,40.1c-6.8,0-12.4,5.6-12.4,12.4c0,0.5,0,1.8,0.1,2.4c0.1,0.5,0.5,0.9,1.1,0.9h22.4c0.5,0,1-0.4,1.1-0.9
		c0.1-0.6,0.1-1.9,0.1-2.4C51.4,45.7,45.8,40.1,39,40.1z M49.2,53.7H28.8c0-0.4,0-0.9,0-1.2c0-5.6,4.6-10.2,10.2-10.2
		s10.2,4.6,10.2,10.2C49.2,52.8,49.2,53.3,49.2,53.7z"/>
	<path d="M39,18.2c0.6,0,1.1-0.5,1.1-1.1V9.7c0-0.6-0.5-1.1-1.1-1.1c-0.6,0-1.1,0.5-1.1,1.1v7.4C37.9,17.7,38.4,18.2,39,18.2z"/>
	<path d="M16.2,51.3c4.2,0,7.6-3.4,7.6-7.6s-3.4-7.6-7.6-7.6c-4.2,0-7.6,3.4-7.6,7.6S12,51.3,16.2,51.3z M16.2,38.2
		c3,0,5.4,2.4,5.4,5.4s-2.4,5.4-5.4,5.4s-5.4-2.4-5.4-5.4S13.2,38.2,16.2,38.2z"/>
	<path d="M16.2,53.6c-6.8,0-12.4,5.6-12.4,12.4c0,0.5,0,1.8,0.1,2.4C4,69,4.5,69.4,5,69.4h22.4c0.5,0,1-0.4,1.1-0.9
		c0.1-0.6,0.1-1.9,0.1-2.4C28.6,59.2,23.1,53.6,16.2,53.6z M26.4,67.3H6c0-0.4,0-0.9,0-1.2c0-5.6,4.6-10.2,10.2-10.2
		s10.2,4.6,10.2,10.2C26.5,66.3,26.5,66.8,26.4,67.3z"/>
	<path d="M28.6,19.3c0.2,0.3,0.6,0.5,0.9,0.5c0.2,0,0.4,0,0.5-0.1c0.5-0.3,0.7-1,0.4-1.5l-3.7-6.4c-0.3-0.5-1-0.7-1.5-0.4
		c-0.5,0.3-0.7,1-0.4,1.5L28.6,19.3z"/>
	<path d="M20.2,25.7c0.2,0.2,0.5,0.4,0.8,0.4c0.2,0,0.5-0.1,0.7-0.3c0.5-0.4,0.5-1.1,0.1-1.5l-4.8-5.6c-0.4-0.5-1.1-0.5-1.5-0.1
		c-0.5,0.4-0.5,1.1-0.1,1.5L20.2,25.7z"/>
	<path d="M61.8,51.3c4.2,0,7.6-3.4,7.6-7.6s-3.4-7.6-7.6-7.6s-7.6,3.4-7.6,7.6S57.6,51.3,61.8,51.3z M61.8,38.2c3,0,5.4,2.4,5.4,5.4
		s-2.4,5.4-5.4,5.4c-3,0-5.4-2.4-5.4-5.4S58.8,38.2,61.8,38.2z"/>
	<path d="M61.8,53.6c-6.8,0-12.4,5.6-12.4,12.4c0,0.5,0,1.8,0.1,2.4c0.1,0.5,0.5,0.9,1.1,0.9H73c0.5,0,1-0.4,1.1-0.9
		c0.1-0.6,0.1-1.9,0.1-2.4C74.2,59.2,68.6,53.6,61.8,53.6z M72,67.3H51.6c0-0.4,0-0.9,0-1.2c0-5.6,4.6-10.2,10.2-10.2
		S72,60.4,72,66.1C72,66.3,72,66.8,72,67.3z"/>
	<path d="M47.9,19.7c0.2,0.1,0.4,0.1,0.5,0.1c0.4,0,0.7-0.2,0.9-0.5l3.7-6.4c0.3-0.5,0.1-1.2-0.4-1.5c-0.5-0.3-1.2-0.1-1.5,0.4
		l-3.7,6.4C47.2,18.7,47.4,19.4,47.9,19.7z"/>
	<path d="M56.9,26.1c0.3,0,0.6-0.1,0.8-0.4l4.8-5.6c0.4-0.5,0.3-1.1-0.1-1.5c-0.5-0.4-1.1-0.3-1.5,0.1l-4.8,5.6
		c-0.4,0.5-0.3,1.1,0.1,1.5C56.4,26,56.7,26.1,56.9,26.1z"/>
</g>
</svg>
