<?xml version="1.0" encoding="utf-8"?>
<!-- Generator: Adobe Illustrator 16.0.0, SVG Export Plug-In . SVG Version: 6.00 Build 0)  -->
<!DOCTYPE svg PUBLIC "-//W3C//DTD SVG 1.1//EN" "http://www.w3.org/Graphics/SVG/1.1/DTD/svg11.dtd">
<svg version="1.1" id="Community" xmlns="http://www.w3.org/2000/svg" xmlns:xlink="http://www.w3.org/1999/xlink" x="0px" y="0px"
	 width="36px" height="40px" viewBox="0 0 36 40" enable-background="new 0 0 36 40" xml:space="preserve">
<title>target group, group, People, Friends, Group Conversation, Team, Community</title>
<path fill="#FFFFFF" d="M31.061,21.711c0.135,0.085,0.273,0.163,0.4,0.258C31.335,21.874,31.194,21.796,31.061,21.711z"/>
<path fill="#FFFFFF" d="M33.973,26.673c0.007,0.11,0.026,0.218,0.027,0.329C34.021,26.892,34.021,26.776,33.973,26.673z"/>
<path fill="#FFFFFF" d="M33.212,23.995c0.004,0.007,0.008,0.014,0.012,0.021C33.22,24.009,33.216,24.002,33.212,23.995z"/>
<path fill="#FFFFFF" d="M29.791,21.074c0.307,0.108,0.6,0.24,0.88,0.39C30.392,21.313,30.098,21.183,29.791,21.074z"/>
<path fill="#FFFFFF" d="M32.656,23.154c0.027,0.035,0.059,0.067,0.085,0.103C32.715,23.222,32.684,23.189,32.656,23.154z"/>
<path fill="#FFFFFF" d="M31.941,22.384c0.069,0.063,0.145,0.121,0.211,0.188C32.086,22.504,32.011,22.447,31.941,22.384z"/>
<path fill="#FFFFFF" d="M33.679,27.469c-0.056,0.021-0.115,0.036-0.179,0.036C33.563,27.505,33.623,27.491,33.679,27.469z"/>
<path fill="#FFFFFF" d="M33.5,27.505c-0.059,0-0.113-0.015-0.166-0.034C33.386,27.492,33.441,27.505,33.5,27.505z"/>
<path fill="#FFFFFF" d="M33.817,27.382c-0.018,0.015-0.036,0.025-0.056,0.038C33.78,27.407,33.801,27.397,33.817,27.382z"/>
<path fill="#FFFFFF" d="M2.666,27.469c-0.052,0.019-0.107,0.033-0.166,0.033C2.559,27.502,2.614,27.489,2.666,27.469z"/>
<path fill="#FFFFFF" d="M26.759,28.049c0.019,0.23,0.032,0.461,0.032,0.693C26.791,28.51,26.779,28.278,26.759,28.049z"/>
<path fill="#FFFFFF" d="M9.208,28.742c0-0.233,0.014-0.465,0.032-0.695C9.22,28.277,9.208,28.509,9.208,28.742z"/>
<path fill="#FFFFFF" d="M8.304,21.721C5.38,21.714,3.006,24.079,3,27.002c0,0.162-0.083,0.299-0.202,0.391h6.521
	c0,0.004-0.001,0.008-0.001,0.011c0.262-1.705,1.016-3.306,2.195-4.591C10.592,22.105,9.464,21.723,8.304,21.721z"/>
<path fill="#FFFFFF" d="M33,27.005c-0.002-1.162-0.387-2.292-1.094-3.215c-1.779-2.321-5.104-2.755-7.422-0.978
	c1.186,1.288,1.938,2.896,2.198,4.605c-0.001-0.009-0.002-0.018-0.003-0.025h6.52C33.081,27.301,33,27.164,33,27.005z"/>
<path fill="#FFFFFF" d="M22.089,15.867c0.005-2.259-1.821-4.095-4.08-4.1c-2.259-0.006-4.095,1.821-4.1,4.08l0.002,0.01
	c0.003,2.258,1.832,4.088,4.09,4.09C20.255,19.947,22.083,18.122,22.089,15.867z"/>
<path fill="#FFFFFF" d="M18.14,21.091c-4.304-0.077-7.855,3.347-7.932,7.651c0,0.134-0.055,0.255-0.142,0.345l0,0h15.866
	c-0.087-0.09-0.142-0.211-0.142-0.345C25.715,24.548,22.332,21.166,18.14,21.091z"/>
<path fill="#FFFFFF" d="M8.298,15.3c-1.495-0.004-2.711,1.205-2.715,2.7c0,0.001,0,0.002-0.001,0.002
	c-0.001,1.497,1.211,2.712,2.708,2.713c1.493,0,2.704-1.208,2.708-2.7C11.002,16.52,9.794,15.304,8.298,15.3z"/>
<path fill="#FFFFFF" d="M33.91,27.273c0.002-0.003,0.004-0.006,0.006-0.009C33.914,27.268,33.912,27.271,33.91,27.273z"/>
<circle fill="#FFFFFF" cx="27.705" cy="18" r="2.708"/>
<path d="M33.91,27.273c-0.025,0.041-0.057,0.077-0.093,0.108C33.854,27.351,33.884,27.314,33.91,27.273z"/>
<path d="M9.24,28.047c0.019-0.216,0.045-0.431,0.078-0.644C9.285,27.617,9.257,27.83,9.24,28.047z"/>
<path d="M26.683,27.418c0.032,0.209,0.058,0.419,0.076,0.631C26.742,27.837,26.715,27.627,26.683,27.418z"/>
<path d="M33.762,27.42c-0.027,0.018-0.053,0.036-0.083,0.049C33.709,27.457,33.734,27.438,33.762,27.42z"/>
<path d="M10.066,29.087c-0.091,0.095-0.218,0.155-0.358,0.155C9.849,29.242,9.975,29.182,10.066,29.087z"/>
<path d="M32.741,23.257c0.174,0.234,0.331,0.481,0.471,0.738C33.07,23.738,32.916,23.491,32.741,23.257z"/>
<path d="M33.916,27.265C33.965,27.188,34,27.102,34,27.005c0-0.001,0-0.002,0-0.003c-0.008,0.037-0.007,0.076-0.022,0.111
	C33.965,27.167,33.944,27.218,33.916,27.265z"/>
<path d="M2.666,27.469c0.049-0.018,0.092-0.045,0.132-0.076l0,0C2.757,27.424,2.713,27.449,2.666,27.469z"/>
<path d="M33.973,26.673c-0.053-0.95-0.311-1.853-0.749-2.657c0.434,0.804,0.695,1.707,0.749,2.655
	C33.973,26.672,33.973,26.672,33.973,26.673z"/>
<path d="M32.152,22.571c0.182,0.183,0.347,0.38,0.504,0.583C32.498,22.951,32.335,22.754,32.152,22.571z"/>
<path d="M31.461,21.969c0.17,0.127,0.325,0.271,0.48,0.415C31.785,22.24,31.632,22.096,31.461,21.969z"/>
<path d="M25.933,29.087c0.091,0.095,0.218,0.155,0.358,0.155C26.15,29.242,26.023,29.182,25.933,29.087L25.933,29.087z"/>
<path d="M30.671,21.464c0.137,0.073,0.26,0.164,0.39,0.247C30.931,21.628,30.808,21.537,30.671,21.464z"/>
<path d="M33.199,27.393c0.041,0.032,0.085,0.061,0.135,0.078C33.285,27.451,33.24,27.425,33.199,27.393L33.199,27.393z"/>
<path d="M33.978,27.113c0.016-0.035,0.015-0.074,0.022-0.111c-0.001-0.111-0.021-0.219-0.027-0.329c0-0.001,0-0.001,0-0.002
	c-0.054-0.948-0.315-1.852-0.749-2.655c-0.004-0.007-0.008-0.014-0.012-0.021c-0.14-0.257-0.297-0.504-0.471-0.738
	c-0.026-0.035-0.058-0.067-0.085-0.103c-0.157-0.203-0.322-0.4-0.504-0.583c-0.066-0.066-0.142-0.124-0.211-0.188
	c-0.155-0.144-0.311-0.288-0.48-0.415c-0.127-0.095-0.266-0.173-0.4-0.258c-0.13-0.083-0.253-0.174-0.39-0.247
	c-0.28-0.149-0.573-0.281-0.88-0.39c1.691-1.151,2.131-3.456,0.98-5.148c-1.148-1.692-3.453-2.132-5.146-0.982
	c-1.691,1.15-2.131,3.455-0.98,5.147c0.265,0.386,0.597,0.72,0.98,0.983c-0.674,0.236-1.303,0.586-1.859,1.035
	c-0.955-0.834-2.078-1.45-3.295-1.811c2.457-1.365,3.344-4.463,1.98-6.921c-1.365-2.458-4.465-3.343-6.922-1.979
	c-2.458,1.365-3.344,4.463-1.979,6.921c0.462,0.832,1.147,1.517,1.979,1.979c-1.217,0.359-2.34,0.977-3.295,1.811
	c-0.557-0.449-1.186-0.799-1.86-1.035c1.694-1.151,2.136-3.457,0.985-5.151c-1.15-1.694-3.457-2.135-5.15-0.985
	s-2.135,3.456-0.984,5.15c0.262,0.387,0.597,0.723,0.984,0.986C3.691,21.96,2.005,24.334,2,27.002c0,0.275,0.224,0.5,0.5,0.5
	c0.059,0,0.113-0.015,0.166-0.033c0.047-0.02,0.092-0.045,0.132-0.076l0,0C2.917,27.301,3,27.164,3,27.002
	c0.006-2.923,2.38-5.288,5.304-5.281c1.16,0.002,2.288,0.385,3.209,1.092c-1.179,1.285-1.933,2.886-2.195,4.591
	c-0.033,0.213-0.059,0.428-0.078,0.644c-0.018,0.23-0.032,0.462-0.032,0.695c0,0.273,0.225,0.5,0.5,0.5
	c0.141,0,0.267-0.061,0.358-0.155c0.087-0.09,0.142-0.211,0.142-0.345c0.077-4.305,3.628-7.729,7.932-7.651
	c4.192,0.075,7.575,3.457,7.651,7.651c0,0.134,0.055,0.255,0.142,0.345l0,0c0.091,0.095,0.218,0.155,0.358,0.155
	c0.275,0,0.5-0.227,0.5-0.5c0-0.232-0.014-0.463-0.032-0.693c-0.019-0.212-0.044-0.422-0.076-0.631
	c-0.26-1.71-1.013-3.317-2.198-4.605c2.317-1.777,5.643-1.344,7.422,0.978c0.707,0.923,1.092,2.053,1.094,3.215
	c0,0.159,0.081,0.296,0.199,0.388l0,0c0.041,0.032,0.086,0.059,0.135,0.078c0.053,0.02,0.107,0.034,0.166,0.034
	c0.063,0,0.123-0.015,0.179-0.036c0.03-0.013,0.056-0.031,0.083-0.049c0.02-0.013,0.038-0.023,0.056-0.038
	c0.036-0.031,0.067-0.067,0.093-0.108c0.002-0.003,0.004-0.006,0.006-0.009C33.944,27.218,33.965,27.167,33.978,27.113z
	 M8.29,20.715c-1.497-0.001-2.709-1.216-2.708-2.713c0.001,0,0.001-0.001,0.001-0.002c0.004-1.495,1.22-2.704,2.715-2.7
	c1.496,0.004,2.704,1.22,2.7,2.715C10.994,19.507,9.783,20.715,8.29,20.715z M18.001,19.947c-2.258-0.002-4.087-1.832-4.09-4.09
	l-0.002-0.01c0.005-2.259,1.841-4.086,4.1-4.08c2.259,0.005,4.085,1.841,4.08,4.1C22.083,18.122,20.255,19.947,18.001,19.947z
	 M27.705,20.708c-1.494,0-2.705-1.212-2.707-2.708c0-1.495,1.213-2.708,2.707-2.708c1.496,0,2.709,1.212,2.709,2.708
	S29.201,20.708,27.705,20.708z"/>
</svg>
