<?xml version="1.0" encoding="utf-8"?>
<!-- Generator: Adobe Illustrator 16.0.0, SVG Export Plug-In . SVG Version: 6.00 Build 0)  -->
<!DOCTYPE svg PUBLIC "-//W3C//DTD SVG 1.1//EN" "http://www.w3.org/Graphics/SVG/1.1/DTD/svg11.dtd">
<svg version="1.1" id="Community" xmlns="http://www.w3.org/2000/svg" xmlns:xlink="http://www.w3.org/1999/xlink" x="0px" y="0px"
	 width="36px" height="40px" viewBox="0 0 36 40" enable-background="new 0 0 36 40" xml:space="preserve">
<title>target group, group, People, Friends, Group Conversation, Team, Community</title>
<path d="M29.791,21.074c1.691-1.151,2.131-3.456,0.98-5.148c-1.148-1.692-3.453-2.132-5.146-0.982
	c-1.691,1.15-2.131,3.455-0.98,5.147c0.264,0.386,0.596,0.72,0.98,0.983c-0.674,0.236-1.303,0.586-1.859,1.035
	c-0.955-0.834-2.078-1.45-3.295-1.81c2.457-1.365,3.344-4.463,1.98-6.921c-1.365-2.458-4.465-3.343-6.922-1.979
	c-2.458,1.365-3.344,4.463-1.979,6.921c0.462,0.832,1.147,1.517,1.979,1.979c-1.217,0.359-2.34,0.976-3.295,1.81
	c-0.557-0.449-1.186-0.799-1.86-1.035c1.694-1.151,2.136-3.457,0.985-5.151c-1.15-1.694-3.457-2.135-5.15-0.985
	s-2.135,3.456-0.984,5.15c0.262,0.387,0.597,0.723,0.984,0.986C3.691,21.96,2.005,24.334,2,27.002c0,0.275,0.224,0.5,0.5,0.5
	s0.5-0.225,0.5-0.5c0.006-2.923,2.38-5.288,5.304-5.281c1.16,0.002,2.288,0.385,3.209,1.092c-1.484,1.617-2.308,3.732-2.305,5.929
	c0,0.274,0.225,0.5,0.5,0.5s0.5-0.226,0.5-0.5c0.077-4.304,3.628-7.729,7.932-7.651c4.192,0.075,7.575,3.457,7.651,7.651
	c0,0.274,0.225,0.5,0.5,0.5s0.5-0.226,0.5-0.5c0.002-2.194-0.818-4.312-2.307-5.929c2.318-1.778,5.643-1.344,7.422,0.977
	c0.707,0.923,1.092,2.053,1.094,3.215c0,0.275,0.227,0.5,0.5,0.5c0.275,0,0.5-0.225,0.5-0.5
	C33.992,24.335,32.307,21.961,29.791,21.074z M5.583,18c0.004-1.495,1.22-2.704,2.715-2.7c1.496,0.004,2.704,1.22,2.7,2.715
	c-0.004,1.492-1.215,2.7-2.708,2.7c-1.497-0.001-2.709-1.216-2.708-2.713C5.583,18.002,5.583,18.001,5.583,18z M13.909,15.847
	c0.005-2.259,1.841-4.086,4.1-4.08c2.259,0.005,4.085,1.841,4.08,4.1c-0.006,2.255-1.834,4.08-4.088,4.08
	c-2.258-0.002-4.087-1.832-4.09-4.09L13.909,15.847L13.909,15.847z M24.998,18c0-1.495,1.213-2.708,2.707-2.708
	c1.496,0,2.709,1.212,2.709,2.708s-1.213,2.708-2.709,2.708C26.211,20.708,25,19.496,24.998,18z"/>
</svg>
