<?xml version="1.0" encoding="utf-8"?>
<!-- Generator: Adobe Illustrator 25.1.0, SVG Export Plug-In . SVG Version: 6.00 Build 0)  -->
<svg version="1.1" id="marker" xmlns="http://www.w3.org/2000/svg" xmlns:xlink="http://www.w3.org/1999/xlink" x="0px" y="0px"
	 viewBox="0 0 30 40" style="enable-background:new 0 0 30 40;" xml:space="preserve">
<style type="text/css">
	.st0{fill:#005EA2;}
	.st1{fill:#FFFFFF;}
</style>
<g>
	<g>
		<path class="st0" d="M15,1.11C7.66,1.11,1.68,7.3,1.68,14.9c0,3.13,2.41,8.31,6.97,14.98c2.54,3.71,5.11,6.93,6.34,8.45
			c1.24-1.51,3.8-4.74,6.34-8.45c4.56-6.67,6.97-11.84,6.97-14.98C28.32,7.3,22.34,1.11,15,1.11z"/>
		<path d="M15,0.11C7.09,0.11,0.68,6.73,0.68,14.9S15,39.89,15,39.89S29.32,23.06,29.32,14.9S22.91,0.11,15,0.11z M1.68,14.9
			C1.68,7.3,7.66,1.11,15,1.11S28.32,7.3,28.32,14.9c0,3.13-2.41,8.31-6.97,14.98c-2.54,3.71-5.11,6.93-6.34,8.45
			c-1.24-1.51-3.8-4.74-6.34-8.45C4.09,23.21,1.68,18.03,1.68,14.9z"/>
	</g>
	<g>
		<path class="st1" d="M24.7,15.08c0.1,0.06,0.2,0.12,0.3,0.19C24.91,15.21,24.8,15.15,24.7,15.08z"/>
		<path class="st1" d="M26.87,18.77c0.01,0.08,0.02,0.16,0.02,0.24C26.9,18.93,26.9,18.85,26.87,18.77z"/>
		<path class="st1" d="M26.3,16.78c0,0.01,0.01,0.01,0.01,0.02C26.31,16.79,26.3,16.79,26.3,16.78z"/>
		<path class="st1" d="M23.76,14.61c0.23,0.08,0.45,0.18,0.65,0.29C24.2,14.79,23.99,14.69,23.76,14.61z"/>
		<path class="st1" d="M25.89,16.16c0.02,0.03,0.04,0.05,0.06,0.08C25.93,16.21,25.91,16.18,25.89,16.16z"/>
		<path class="st1" d="M25.36,15.58c0.05,0.05,0.11,0.09,0.16,0.14C25.46,15.67,25.41,15.63,25.36,15.58z"/>
		<path class="st1" d="M26.65,19.36c-0.04,0.02-0.09,0.03-0.13,0.03C26.56,19.39,26.61,19.38,26.65,19.36z"/>
		<path class="st1" d="M26.51,19.39c-0.04,0-0.08-0.01-0.12-0.03C26.43,19.38,26.47,19.39,26.51,19.39z"/>
		<path class="st1" d="M26.75,19.3c-0.01,0.01-0.03,0.02-0.04,0.03C26.72,19.32,26.74,19.31,26.75,19.3z"/>
		<path class="st1" d="M3.6,19.36c-0.04,0.01-0.08,0.02-0.12,0.02C3.52,19.39,3.56,19.38,3.6,19.36z"/>
		<path class="st1" d="M21.5,19.79c0.01,0.17,0.02,0.34,0.02,0.52C21.53,20.14,21.52,19.96,21.5,19.79z"/>
		<path class="st1" d="M8.46,20.31c0-0.17,0.01-0.35,0.02-0.52C8.47,19.96,8.46,20.14,8.46,20.31z"/>
		<path class="st1" d="M7.79,15.09c-2.17-0.01-3.94,1.75-3.94,3.92c0,0.12-0.06,0.22-0.15,0.29h4.85c0,0,0,0.01,0,0.01
			c0.19-1.27,0.76-2.46,1.63-3.41C9.49,15.38,8.65,15.09,7.79,15.09z"/>
		<path class="st1" d="M26.14,19.02c0-0.86-0.29-1.7-0.81-2.39c-1.32-1.72-3.79-2.05-5.52-0.73c0.88,0.96,1.44,2.15,1.63,3.42
			c0-0.01,0-0.01,0-0.02h4.85C26.2,19.24,26.14,19.14,26.14,19.02z"/>
		<path class="st1" d="M18.03,10.74c0-1.68-1.35-3.04-3.03-3.05c-1.68,0-3.04,1.35-3.05,3.03l0,0.01c0,1.68,1.36,3.04,3.04,3.04
			C16.67,13.77,18.03,12.42,18.03,10.74z"/>
		<path class="st1" d="M15.1,14.62c-3.2-0.06-5.84,2.49-5.89,5.69c0,0.1-0.04,0.19-0.11,0.26l0,0h11.79
			c-0.06-0.07-0.11-0.16-0.11-0.26C20.73,17.19,18.21,14.68,15.1,14.62z"/>
		<path class="st1" d="M7.78,10.32c-1.11,0-2.01,0.9-2.02,2.01c0,0,0,0,0,0c0,1.11,0.9,2.02,2.01,2.02c1.11,0,2.01-0.9,2.01-2.01
			C9.79,11.23,8.9,10.32,7.78,10.32z"/>
		<path class="st1" d="M26.82,19.22C26.82,19.22,26.82,19.21,26.82,19.22C26.82,19.21,26.82,19.22,26.82,19.22z"/>
		<circle class="st1" cx="22.21" cy="12.33" r="2.01"/>
		<path d="M26.82,19.22c-0.02,0.03-0.04,0.06-0.07,0.08C26.78,19.28,26.8,19.25,26.82,19.22z"/>
		<path d="M8.48,19.79c0.01-0.16,0.03-0.32,0.06-0.48C8.52,19.47,8.5,19.63,8.48,19.79z"/>
		<path d="M21.45,19.33c0.02,0.16,0.04,0.31,0.06,0.47C21.49,19.64,21.47,19.48,21.45,19.33z"/>
		<path d="M26.71,19.33c-0.02,0.01-0.04,0.03-0.06,0.04C26.67,19.35,26.69,19.34,26.71,19.33z"/>
		<path d="M9.1,20.57c-0.07,0.07-0.16,0.12-0.27,0.12C8.94,20.68,9.03,20.64,9.1,20.57z"/>
		<path d="M25.95,16.23c0.13,0.17,0.25,0.36,0.35,0.55C26.19,16.59,26.08,16.41,25.95,16.23z"/>
		<path d="M26.82,19.21c0.04-0.06,0.06-0.12,0.06-0.19c0,0,0,0,0,0c-0.01,0.03-0.01,0.06-0.02,0.08
			C26.86,19.14,26.84,19.18,26.82,19.21z"/>
		<path d="M3.6,19.36c0.04-0.01,0.07-0.03,0.1-0.06l0,0C3.67,19.33,3.63,19.35,3.6,19.36z"/>
		<path d="M26.87,18.77c-0.04-0.71-0.23-1.38-0.56-1.97C26.63,17.39,26.83,18.07,26.87,18.77C26.87,18.77,26.87,18.77,26.87,18.77z"
			/>
		<path d="M25.51,15.72c0.14,0.14,0.26,0.28,0.37,0.43C25.77,16.01,25.65,15.86,25.51,15.72z"/>
		<path d="M25,15.28c0.13,0.09,0.24,0.2,0.36,0.31C25.24,15.48,25.13,15.37,25,15.28z"/>
		<path d="M20.89,20.57c0.07,0.07,0.16,0.12,0.27,0.12C21.05,20.68,20.96,20.64,20.89,20.57L20.89,20.57z"/>
		<path d="M24.41,14.9c0.1,0.05,0.19,0.12,0.29,0.18C24.61,15.02,24.51,14.96,24.41,14.9z"/>
		<path d="M26.29,19.31c0.03,0.02,0.06,0.05,0.1,0.06C26.35,19.35,26.32,19.33,26.29,19.31L26.29,19.31z"/>
		<path d="M26.87,19.1c0.01-0.03,0.01-0.05,0.02-0.08c0-0.08-0.02-0.16-0.02-0.24c0,0,0,0,0,0c-0.04-0.7-0.23-1.38-0.56-1.97
			c0-0.01-0.01-0.01-0.01-0.02c-0.1-0.19-0.22-0.37-0.35-0.55c-0.02-0.03-0.04-0.05-0.06-0.08c-0.12-0.15-0.24-0.3-0.37-0.43
			c-0.05-0.05-0.11-0.09-0.16-0.14c-0.12-0.11-0.23-0.21-0.36-0.31c-0.09-0.07-0.2-0.13-0.3-0.19c-0.1-0.06-0.19-0.13-0.29-0.18
			c-0.21-0.11-0.43-0.21-0.65-0.29c1.26-0.86,1.58-2.57,0.73-3.83c-0.85-1.26-2.57-1.58-3.82-0.73c-1.26,0.85-1.58,2.57-0.73,3.83
			c0.2,0.29,0.44,0.54,0.73,0.73c-0.5,0.18-0.97,0.44-1.38,0.77c-0.71-0.62-1.54-1.08-2.45-1.35c1.83-1.01,2.49-3.32,1.47-5.14
			c-1.01-1.83-3.32-2.48-5.14-1.47c-1.83,1.01-2.49,3.32-1.47,5.14c0.34,0.62,0.85,1.13,1.47,1.47c-0.9,0.27-1.74,0.73-2.45,1.35
			c-0.41-0.33-0.88-0.59-1.38-0.77c1.26-0.86,1.59-2.57,0.73-3.83C9.2,9.52,7.49,9.2,6.23,10.05c-1.26,0.85-1.59,2.57-0.73,3.83
			c0.19,0.29,0.44,0.54,0.73,0.73c-1.87,0.66-3.12,2.42-3.13,4.41c0,0.2,0.17,0.37,0.37,0.37c0.04,0,0.08-0.01,0.12-0.02
			c0.03-0.01,0.07-0.03,0.1-0.06l0,0c0.09-0.07,0.15-0.17,0.15-0.29c0-2.17,1.77-3.93,3.94-3.92c0.86,0,1.7,0.29,2.38,0.81
			c-0.88,0.95-1.44,2.14-1.63,3.41c-0.02,0.16-0.04,0.32-0.06,0.48c-0.01,0.17-0.02,0.34-0.02,0.52c0,0.2,0.17,0.37,0.37,0.37
			c0.1,0,0.2-0.05,0.27-0.12c0.06-0.07,0.11-0.16,0.11-0.26c0.06-3.2,2.7-5.74,5.89-5.69c3.12,0.06,5.63,2.57,5.69,5.69
			c0,0.1,0.04,0.19,0.11,0.26l0,0c0.07,0.07,0.16,0.12,0.27,0.12c0.2,0,0.37-0.17,0.37-0.37c0-0.17-0.01-0.34-0.02-0.52
			c-0.01-0.16-0.03-0.31-0.06-0.47c-0.19-1.27-0.75-2.47-1.63-3.42c1.72-1.32,4.19-1,5.52,0.73c0.53,0.69,0.81,1.53,0.81,2.39
			c0,0.12,0.06,0.22,0.15,0.29l0,0c0.03,0.02,0.06,0.04,0.1,0.06c0.04,0.01,0.08,0.03,0.12,0.03c0.05,0,0.09-0.01,0.13-0.03
			c0.02-0.01,0.04-0.02,0.06-0.04c0.01-0.01,0.03-0.02,0.04-0.03c0.03-0.02,0.05-0.05,0.07-0.08c0,0,0,0,0-0.01
			C26.84,19.18,26.86,19.14,26.87,19.1z M7.78,14.34c-1.11,0-2.01-0.9-2.01-2.02c0,0,0,0,0,0c0-1.11,0.91-2.01,2.02-2.01
			c1.11,0,2.01,0.91,2.01,2.02C9.79,13.45,8.89,14.34,7.78,14.34z M15,13.77c-1.68,0-3.04-1.36-3.04-3.04l0-0.01
			c0-1.68,1.37-3.04,3.05-3.03c1.68,0,3.04,1.37,3.03,3.05C18.03,12.42,16.67,13.77,15,13.77z M22.21,14.34
			c-1.11,0-2.01-0.9-2.01-2.01c0-1.11,0.9-2.01,2.01-2.01c1.11,0,2.01,0.9,2.01,2.01S23.32,14.34,22.21,14.34z"/>
	</g>
</g>
</svg>
