<?xml version="1.0" encoding="utf-8"?>
<!-- Generator: Adobe Illustrator 16.0.0, SVG Export Plug-In . SVG Version: 6.00 Build 0)  -->
<!DOCTYPE svg PUBLIC "-//W3C//DTD SVG 1.1//EN" "http://www.w3.org/Graphics/SVG/1.1/DTD/svg11.dtd">
<svg version="1.1" id="Directory" xmlns="http://www.w3.org/2000/svg" xmlns:xlink="http://www.w3.org/1999/xlink" x="0px" y="0px"
	 width="36px" height="40px" viewBox="0 0 36 40" enable-background="new 0 0 36 40" xml:space="preserve">
<g>
	<path d="M29.814,4.066H7.662c-0.778,0-1.411,0.633-1.411,1.411v1.05H5.2c-0.235,0-0.427,0.191-0.427,0.427
		c0,0.236,0.19,0.427,0.427,0.427h1.05v2.839H5.2c-0.235,0-0.427,0.191-0.427,0.427c0,0.234,0.19,0.426,0.427,0.426h1.05v2.84H5.2
		c-0.235,0-0.427,0.191-0.427,0.427c0,0.234,0.19,0.426,0.427,0.426h1.05v2.84H5.2c-0.235,0-0.427,0.191-0.427,0.427
		c0,0.234,0.19,0.426,0.427,0.426h1.05v2.84H5.2c-0.235,0-0.427,0.19-0.427,0.426c0,0.236,0.19,0.426,0.427,0.426h1.05v2.843H5.2
		c-0.235,0-0.427,0.19-0.427,0.426s0.19,0.427,0.427,0.427h1.05v2.84H5.2c-0.235,0-0.427,0.189-0.427,0.426s0.19,0.426,0.427,0.426
		h1.05v2.841H5.2c-0.235,0-0.427,0.19-0.427,0.427c0,0.235,0.19,0.426,0.427,0.426h1.05v1.297c0,0.777,0.633,1.41,1.411,1.41h22.153
		c0.778,0,1.412-0.633,1.412-1.41V5.478C31.227,4.699,30.594,4.066,29.814,4.066z M10.795,4.919h19.02c0.309,0,0.56,0.25,0.56,0.559
		v29.045c0,0.309-0.251,0.56-0.56,0.56h-19.02V4.919z M7.104,33.227h0.559c0.234,0,0.426-0.19,0.426-0.427
		c0-0.235-0.191-0.426-0.426-0.426H7.104v-2.841h0.559c0.234,0,0.426-0.19,0.426-0.426c0-0.236-0.191-0.426-0.426-0.426H7.104
		v-2.841h0.559c0.234,0,0.426-0.19,0.426-0.426s-0.191-0.426-0.426-0.426H7.104v-2.843h0.559c0.234,0,0.426-0.189,0.426-0.426
		s-0.191-0.426-0.426-0.426H7.104v-2.84h0.559c0.234,0,0.426-0.191,0.426-0.426c0-0.235-0.191-0.427-0.426-0.427H7.104v-2.84h0.559
		c0.234,0,0.426-0.191,0.426-0.426s-0.191-0.427-0.426-0.427H7.104v-2.84h0.559c0.234,0,0.426-0.191,0.426-0.426
		s-0.191-0.427-0.426-0.427H7.104V7.381h0.559c0.234,0,0.426-0.191,0.426-0.427c0-0.236-0.191-0.427-0.426-0.427H7.104v-1.05
		c0-0.309,0.25-0.559,0.559-0.559h2.281v30.163H7.662c-0.309,0-0.559-0.251-0.559-0.56V33.227z"/>
	<path d="M23.246,20.189c-0.1,0-0.194,0.034-0.271,0.098c-0.705,0.58-1.598,0.898-2.514,0.898c-0.917,0-1.811-0.318-2.513-0.897
		c-0.076-0.063-0.173-0.099-0.272-0.099c-2.093,0-3.795,1.702-3.795,3.795v2.17c0,0.234,0.191,0.426,0.426,0.426h12.309
		c0.234,0,0.426-0.189,0.426-0.426v-2.17C27.041,21.893,25.339,20.189,23.246,20.189z M17.533,21.046
		c0.834,0.64,1.871,0.992,2.929,0.992s2.095-0.353,2.929-0.992c1.549,0.075,2.799,1.38,2.799,2.938v1.744H14.734v-1.744
		C14.734,22.426,15.984,21.121,17.533,21.046z"/>
	<path d="M20.461,20.18c1.864,0,3.381-1.516,3.381-3.38c0-1.863-1.517-3.38-3.381-3.38c-1.863,0-3.379,1.517-3.379,3.38
		C17.082,18.664,18.598,20.18,20.461,20.18z M20.461,14.272c1.395,0,2.529,1.134,2.529,2.527c0,1.395-1.135,2.528-2.529,2.528
		s-2.527-1.134-2.527-2.528C17.934,15.406,19.066,14.272,20.461,14.272z"/>
</g>
</svg>
