<?xml version="1.0" encoding="utf-8"?>
<!-- Generator: Adobe Illustrator 25.2.1, SVG Export Plug-In . SVG Version: 6.00 Build 0)  -->
<svg version="1.1" id="Layer_1" xmlns="http://www.w3.org/2000/svg" xmlns:xlink="http://www.w3.org/1999/xlink" x="0px" y="0px"
	 width="150px" height="200px" viewBox="0 0 150 200" enable-background="new 0 0 150 200" xml:space="preserve">
<g>
	<path d="M133.4,42.3c-1-1.3-2.5-2.1-4.3-2.1c-0.7,0-1.5,0.1-2.2,0.4c-12.3,3.8-25.6,8.3-40.8,13.6c-1.8,0.7-3.1,1.9-3.6,3.5
		c-0.5,1.8,0,3.8,1.4,5.6c0.8,1,1.7,2,2.6,3c0.4,0.4,0.8,0.9,1.2,1.3c0.3,0.3,0.3,0.8,0.1,1.2L75.5,87.8c-0.2,0.3-0.5,0.5-0.8,0.5
		s-0.7-0.2-0.8-0.5L61.4,68.7c-0.2-0.4-0.2-0.9,0.1-1.2l0.6-0.7c0.4-0.5,0.8-0.9,1.2-1.3c2.9-3,4.1-5.6,3.7-7.4
		c-0.5-1.9-2.8-3.6-6.9-5c-3.1-1.1-6.3-2.1-9.4-3.2C42,47,33.2,44,24.4,41.4c-0.9-0.3-1.9-0.4-3-0.4c-2,0-3.8,0.5-4.5,1.2
		c-1.2,1.2-1.7,4.9-0.9,7.5c2.7,9.2,5.9,18.5,9,27.5l1.8,5.2c2.5,7.4,4.1,9.8,6.3,9.8c2.1,0,5.3-2.1,9.6-5.2
		c0.2-0.1,0.4-0.2,0.6-0.2c0.1,0,0.1,0,0.2,0c0.3,0.1,0.5,0.2,0.7,0.5c0.8,1.5,1.7,3,2.6,4.5c1.9,3.2,3.8,6.5,5.4,9.9
		c6.5,14.3,9.9,30.8,10.2,50.5c0.1,5.6,1.8,7.4,7.5,7.5c1.7,0,3.3,0,5,0c1.7,0,3.4,0,5,0c5.5-0.1,7.2-1.7,7.7-7.4l0.2-2.9
		c0.7-8.5,1.4-17.4,2.9-25.9c2.5-14,7.6-25.8,15.5-36.2c0.2-0.2,0.4-0.4,0.7-0.4c0,0,0.1,0,0.1,0c0.2,0,0.5,0.1,0.7,0.3
		c0.5,0.4,0.9,0.8,1.3,1.2c0.8,0.7,1.5,1.4,2.3,2c1.5,1.3,3.2,2,4.7,2c2.3,0,4.1-1.5,5-4.1c5.4-15.4,9.7-28.2,13.4-40.3
		C134.7,45.8,134.5,43.8,133.4,42.3z M82.4,154.4c-0.2,0.2-0.5,0.3-0.7,0.3h-13c-0.5,0-0.9-0.4-1-0.9c-0.4-3.1-0.7-6.2-1.1-9.3
		c-0.8-6.9-1.5-13.5-2.6-20.1c-2.8-15.6-8.2-28.7-16.5-39.8c-2.2-3-3.5-4.4-4.5-4.4c-1.1,0-2.9,1.6-5,3.7c-0.5,0.5-1.1,1-1.9,1.7
		c-0.4,0.3-0.8,0.7-1.4,1.2c-0.2,0.2-0.4,0.3-0.7,0.3c-0.1,0-0.2,0-0.3,0c-0.3-0.1-0.6-0.3-0.7-0.6L19.6,46.3c-0.1-0.4,0-0.8,0.2-1
		c0.2-0.2,0.4-0.3,0.7-0.3c0.1,0,0.2,0,0.3,0.1l40,13.3c0.3,0.1,0.5,0.3,0.6,0.7c0.1,0.3,0,0.6-0.2,0.9c-3.3,4.3-5,6.5-5,8.4
		c0,1.9,1.5,4.1,4.6,8.4l0.1,0.1c10.8,14.9,17.1,32.5,20,55.3c0.6,4.7,0.9,9.4,1.2,14.4c0.1,2.3,0.3,4.7,0.5,7.1
		C82.7,153.9,82.6,154.2,82.4,154.4z M129.6,46.3l-13.4,40.3c-0.1,0.3-0.4,0.6-0.7,0.7c-0.1,0-0.2,0-0.2,0c-0.3,0-0.5-0.1-0.7-0.3
		l-1.8-1.7c-1.1-1-2-1.8-2.9-2.7c-1.7-1.6-2.7-2.3-3.5-2.3c-0.8,0-1.8,0.8-3.4,2.8c-6.8,8.4-11.7,18.6-15.7,32.2
		c-0.2,0.6-0.4,1.2-0.7,2c-0.2,0.4-0.3,0.9-0.6,1.6c-0.1,0.4-0.5,0.7-0.9,0.7c0,0,0,0,0,0c-0.4,0-0.8-0.3-0.9-0.7
		c-0.6-2-1.2-4-1.8-5.8c-1.5-4.8-2.9-9.3-4.1-13.8c-0.4-1.6-0.4-4.1,0.6-5.9l0.1-0.1c3.9-6.8,8-13.7,12.5-20.2L92,72
		c1.5-2.1,2.3-3.3,2.2-4.1c-0.1-0.9-1.4-2.3-3.4-4.3c-0.6-0.6-1.2-1.3-1.9-2.1c-0.4-0.4-0.8-0.9-1.2-1.4c-0.2-0.3-0.3-0.6-0.2-0.9
		c0.1-0.3,0.3-0.6,0.6-0.7L128.4,45c0.1,0,0.2-0.1,0.3-0.1c0.3,0,0.5,0.1,0.7,0.3C129.7,45.5,129.8,45.9,129.6,46.3z"/>
	<path fill="#FFFFFF" d="M81,132.1c-2.8-22.8-9.2-40.3-20-55.3L61,76.8c-3.1-4.3-4.7-6.5-4.6-8.4c0-1.9,1.7-4.1,5-8.4
		c0.2-0.3,0.3-0.6,0.2-0.9c-0.1-0.3-0.3-0.6-0.6-0.7l-40-13.3c-0.1,0-0.2-0.1-0.3-0.1c-0.3,0-0.5,0.1-0.7,0.3
		c-0.3,0.3-0.4,0.7-0.2,1l13.5,40.2c0.1,0.3,0.4,0.6,0.7,0.6c0.1,0,0.2,0,0.3,0c0.2,0,0.5-0.1,0.7-0.3c0.5-0.5,1-0.9,1.4-1.2
		c0.7-0.6,1.3-1.1,1.9-1.7c2.2-2.1,3.9-3.7,5-3.7c1,0,2.3,1.4,4.5,4.4c8.4,11.1,13.8,24.1,16.5,39.8c1.2,6.6,1.9,13.1,2.6,20.1
		c0.3,3.1,0.7,6.2,1.1,9.3c0.1,0.5,0.5,0.9,1,0.9h13c0.3,0,0.5-0.1,0.7-0.3s0.3-0.5,0.3-0.8c-0.2-2.4-0.3-4.8-0.5-7.1
		C81.9,141.6,81.6,136.9,81,132.1z"/>
	<path fill="#FFFFFF" d="M128.7,45c-0.1,0-0.2,0-0.3,0.1L88.2,58.5c-0.3,0.1-0.6,0.4-0.6,0.7c-0.1,0.3,0,0.7,0.2,0.9
		c0.5,0.5,0.9,1,1.2,1.4c0.7,0.8,1.3,1.5,1.9,2.1c2,2,3.3,3.4,3.4,4.3c0.1,0.8-0.7,2-2.2,4.1l-0.6,0.9c-4.6,6.5-8.6,13.5-12.5,20.2
		l-0.1,0.1c-1,1.8-1,4.3-0.6,5.9c1.2,4.5,2.6,9,4.1,13.8c0.6,1.9,1.2,3.8,1.8,5.8c0.1,0.4,0.5,0.7,0.9,0.7c0,0,0,0,0,0
		c0.4,0,0.8-0.3,0.9-0.7c0.2-0.6,0.4-1.1,0.6-1.6c0.3-0.8,0.5-1.4,0.7-2c3.9-13.6,8.9-23.8,15.7-32.2c1.6-2,2.6-2.8,3.4-2.8
		c0.8,0,1.8,0.7,3.5,2.3c0.9,0.9,1.8,1.7,2.9,2.7l1.8,1.7c0.2,0.2,0.4,0.3,0.7,0.3c0.1,0,0.2,0,0.2,0c0.3-0.1,0.6-0.3,0.7-0.7
		l13.4-40.3c0.1-0.4,0-0.8-0.2-1C129.2,45.1,129,45,128.7,45z"/>
</g>
</svg>
