<?xml version="1.0" encoding="utf-8"?>
<!-- Generator: Adobe Illustrator 25.2.1, SVG Export Plug-In . SVG Version: 6.00 Build 0)  -->
<svg version="1.1" id="Layer_1" xmlns="http://www.w3.org/2000/svg" xmlns:xlink="http://www.w3.org/1999/xlink" x="0px" y="0px"
	 width="150px" height="200px" viewBox="0 0 150 200" enable-background="new 0 0 150 200" xml:space="preserve">
<g>
	<g>
		<path fill="#FFFFFF" d="M31.2,50c0,6.8,0.2,13.7,0,20.5c-0.3,9.6,9.5,11.9,15.7,8.9c2.8-1.3,4.2-3.8,4.3-6.9
			c0.1-9.8,0.1-19.7,0-29.5c0-3.4-2.6-5.8-5.6-5.9c-2.9-0.1-5.7,2.3-6.1,5.6c-0.3,2.3-0.1,4.7-0.1,7c0,6.3,0,12.7,0,19
			c0,1.8-0.1,3.8,3.2,3.6c0.1-1.5,0.4-2.9,0.4-4.4c0-4.8,0-9.7,0-14.5c0-1.2-0.1-2.4,0.3-3.5c0.3-0.8,1.3-1.7,2-1.8
			c0.7-0.1,1.8,0.7,2.3,1.4c0.5,0.6,0.5,1.6,0.5,2.4c0,6.3,0.2,12.7-0.1,19c-0.2,4.5-4,7.4-8.2,6.7c-2.9-0.5-5.1-2.8-5.6-6.3
			c-0.3-2-0.2-4-0.2-6c0-6.2,0.3-12.3-0.1-18.5c-0.1-1.9,0-3.6,0.4-5.2c-0.7,1-1.4,2.8-2.5,3.2c-0.5,0.2-1,0.5-1.4,0.8
			c0.1,0.1,0.2,0.3,0.2,0.4C31.2,47.3,31.2,48.7,31.2,50z"/>
		<path fill="#FFFFFF" d="M118.8,126.5c0-12,0-24,0-36c0-12,0-23.9,0-36.5c-10.2-0.6-19.8-0.2-29.3-0.3c-9.6-0.1-19.2,0-29.1,0
			c-0.2-1.6-0.3-2.6-0.4-3.7c0.6-0.3,1-0.7,1.5-0.8c1.3-0.1,2.7-0.2,4-0.2c16,0,32,0,48,0c0.1-0.4,0.1-0.7,0.1-1.1
			c0.1-1.2-0.1-2.4-0.7-3.4c-1.1,1.3-2.7,1.4-4,0.3c-1.9-1.7-4-1.4-6.1-1.4c-12.2,0-24.3,0-36.5,0c-1.8,0-3.6,0-6,0
			c-0.3-1.9-0.5-3.2-0.7-4.5c0,0,0.1,0,0.1-0.1c-0.7-0.3-1.4-0.5-2.3-0.5c-0.7,0-1.3,0.1-1.8,0.3c-0.1-0.1-0.1-0.2-0.2-0.3
			c0.7,1.5,1,3.2,1,5.2c-0.1,9.2,0,18.3-0.1,27.5c-0.1,8.4-5.8,14.1-14,14.4c-5.6,0.2-10.3-1.8-13.2-5.3c-0.1,0.8-0.4,1.7-0.7,2.5
			c-0.6,1.4-0.5,2.6,0,3.6c0-0.2,0.1-0.4,0.1-0.5c4.7,1.4,4.7,1.4,4.8,5.7c0,18.3,0,36.6,0,54.9c0,3.1-0.6,6.3,1.7,9
			c0.5,0.6,0.1,2.1,0.1,3.7l0.5,0.2c0.9,0.2,1.8,0.2,2.7,0c0.2-0.1,0.3-0.1,0.5-0.2c0-0.4,0-0.9,0-1.4c0.1-21,0.1-42,0.1-63
			c0-1.6,0-3.3,0-5.3c1.8,0,3.2,0,5.1,0c0,24.3,0,48.4,0,72.8c5.4,1.2,10.4,0.5,15.3,0.6c4.8,0.1,9.7,0,14.5,0c5,0,10,0,15,0
			c4.8,0,9.7,0,14.5,0c4.9,0,9.9-0.1,15.5-0.2C119.1,150.4,118.8,138.5,118.8,126.5z M108.9,118.9c0,0.7-0.8,1.9-1.6,2.2
			c-1.2,0.5-2.6,0.4-3.9,0.5c-7.5,0-15,0-22.4,0c-7,0-14,0-20.9,0c-1.3,0-2.8,0.2-3.9-0.3c-0.9-0.3-2.1-1.5-2.1-2.3
			c0-0.8,1.1-1.9,2-2.4c0.8-0.4,1.9-0.2,2.9-0.2c15,0,29.9,0,44.9,0c1.2,0,2.4-0.1,3.4,0.4C108,117.1,108.9,118.2,108.9,118.9z
			 M64.7,64.2c1-0.5,2.2-0.6,3.4-0.6c9,0,17.9,0,26.9,0c0.8,0,1.8-0.1,2.4,0.4c0.8,0.6,1.8,1.7,1.8,2.5c-0.1,0.8-1.3,1.9-2.2,2.1
			c-1.9,0.3-4,0.2-5.9,0.2c-3.3,0-6.6,0-9.9,0c-4.3,0-8.6,0-12.9,0c-1.1,0-2.4,0-3.4-0.4C64,68,63.2,67,63.3,66.5
			C63.4,65.7,64,64.6,64.7,64.2z M68.6,74.3c4.3,0,8.6,0,12.9,0c4.3,0,8.6,0,12.9,0c1,0,2.1-0.1,2.9,0.3c0.8,0.4,1.6,1.3,1.7,2.1
			c0.1,0.8-0.6,1.9-1.3,2.3c-1,0.5-2.2,0.5-3.4,0.5c-8.6,0-17.3,0-25.9,0c-2.1,0-4.6,0.3-5.3-2.5C62.7,75.3,64.7,74.3,68.6,74.3z
			 M56.6,84.7c1-0.1,2-0.1,3-0.1c14.5,0,28.9,0,43.4,0c1.5,0,3,0.1,4.4,0.6c0.7,0.3,1.5,1.5,1.5,2.2c-0.1,0.8-1,1.8-1.7,2.1
			c-1.2,0.4-2.6,0.3-3.9,0.3c-7.3,0-14.6,0-21.9,0c-7,0-14,0-20.9,0c-1.2,0-2.3,0-3.5,0c-1.4-0.1-2.7-0.5-2.9-2.1
			C53.8,85.7,54.9,84.9,56.6,84.7z M108.9,97.9c0,0.7-0.8,1.9-1.6,2.2c-1.2,0.5-2.6,0.4-3.9,0.4c-7.3,0-14.6,0-21.9,0
			c-7.3,0-14.6,0-21.9,0c-1.3,0-2.7,0-3.9-0.4C54.9,99.8,54,98.7,54,98c0-0.7,0.8-1.9,1.5-2.2c1-0.5,2.3-0.4,3.4-0.4
			c15,0,29.9,0,44.9,0c1.2,0,2.4-0.1,3.4,0.4C108,96.1,108.8,97.1,108.9,97.9z M57.1,105.8c1.3-0.2,2.7-0.1,4-0.2
			c13.7,0,27.3,0,41,0c1.7,0,3.4,0,4.9,0.5c0.8,0.3,1.7,1.5,1.8,2.4c0.1,0.6-1.1,1.7-1.9,1.9c-1.2,0.4-2.6,0.3-4,0.3
			c-7.3,0-14.7,0-22,0c-6.8,0-13.7,0-20.5,0c-1,0-2,0-3,0c-1.7-0.1-3.6-0.1-3.6-2.4C53.9,106.4,55.6,106,57.1,105.8z M107,152.7
			c-1.8,0.4-3.6,0.6-5.4,0.6c-6.8,0.1-13.7,0-20.5,0c-7,0-14,0-21,0c-1.5,0-3.1,0-4.4-0.6c-0.8-0.3-1.6-1.6-1.7-2.5
			c-0.1-0.6,1.1-1.5,1.9-1.8c0.9-0.3,2-0.2,3-0.2c15,0,30,0,45,0c1,0,2.1-0.2,2.9,0.2c0.9,0.5,1.7,1.5,2,2.4
			C109,151.3,107.8,152.6,107,152.7z M107.2,142.2c-1.2,0.4-2.6,0.4-3.9,0.4c-7.3,0-14.6,0-21.9,0c-7.1,0-14.3,0-21.4,0
			c-1.2,0-2.3,0-3.5-0.1c-1.5-0.1-2.8-1-2.4-2.5c0.2-1,1.5-1.9,2.6-2.4c0.8-0.4,2-0.2,3-0.2c14.6,0,29.3,0,43.9,0
			c1.3,0,2.7,0,3.9,0.5c0.7,0.3,1.6,1.4,1.5,2.2C108.8,140.9,108,142,107.2,142.2z M108.9,129.8c-0.6,2.6-2.8,2.5-4.8,2.5
			c-15.1,0-30.2,0-45.3,0c-0.5,0-1,0-1.5-0.1c-1.7-0.3-3.5-0.5-3.4-2.8c0.1-2.3,2.1-2.2,3.7-2.3c8,0,15.9,0,23.9,0
			c7.5,0,14.9,0,22.4,0C107.6,127.2,109.3,128.1,108.9,129.8z"/>
	</g>
	<g>
		<path d="M124.1,58.4c0-7.2-2-9.2-9.2-9.2c-0.5,0-1,0-1.5,0c-16,0-32,0-48,0c-1.3,0-2.7,0-4,0.2c-0.4,0-0.9,0.4-1.5,0.8
			c0.1,1.1,0.2,2.1,0.4,3.7c9.9,0,19.5-0.1,29.1,0c9.6,0.1,19.2-0.3,29.3,0.3c0,12.5,0,24.5,0,36.5c0,12,0,24,0,36
			c0,11.9,0.2,23.8-0.2,36.4c-5.6,0.1-10.5,0.2-15.5,0.2c-4.8,0-9.7,0-14.5,0c-5,0-10,0-15,0c-4.8,0-9.7,0.1-14.5,0
			c-4.9-0.1-9.9,0.6-15.3-0.6c0-24.4,0-48.5,0-72.8c-2,0-3.3,0-5.1,0c0,2,0,3.7,0,5.3c0,21,0.1,42-0.1,63c0,0.5,0,0.9,0,1.4
			c0.2,3.1,1,5.9,3.3,8.2c26.3,0,52.7,0,79,0c2-2.7,3.1-5.6,3.1-9.2C124,125,124.1,91.7,124.1,58.4z"/>
		<path d="M42.2,85.6c8.3-0.3,13.9-6,14-14.4c0.1-9.2,0-18.3,0.1-27.5c0-1.9-0.3-3.6-1-5.2c-0.7-1.5-1.8-2.8-3.2-4
			c-0.8-0.6-1.4-1.4-2.1-2.1c-3,0-6,0-9,0c-3.7,2.4-5.8,5.4-6.7,9.2c-0.4,1.6-0.5,3.3-0.4,5.2c0.3,6.1,0.1,12.3,0.1,18.5
			c0,2-0.1,4,0.2,6c0.5,3.4,2.7,5.7,5.6,6.3c4.1,0.7,8-2.2,8.2-6.7c0.2-6.3,0.1-12.7,0.1-19c0-0.8-0.1-1.8-0.5-2.4
			c-0.5-0.7-1.6-1.5-2.3-1.4c-0.8,0.1-1.7,1-2,1.8c-0.4,1-0.3,2.3-0.3,3.5c0,4.8,0,9.7,0,14.5c0,1.4-0.2,2.8-0.4,4.4
			c-3.3,0.1-3.2-1.9-3.2-3.6c0-6.3,0-12.7,0-19c0-2.3-0.1-4.7,0.1-7c0.4-3.3,3.2-5.7,6.1-5.6c3,0.1,5.6,2.5,5.6,5.9
			c0.1,9.8,0.1,19.7,0,29.5c0,3.1-1.5,5.5-4.3,6.9c-6.2,3-16,0.8-15.7-8.9c0.2-6.8,0.1-13.7,0-20.5c0-1.3,0-2.7-0.4-3.9
			c-0.1-0.1-0.1-0.3-0.2-0.4c-0.5-0.6-1.3-1-2-1.1c-0.6-0.1-1.5,0.7-1.9,1.3c-0.4,0.6-0.6,1.6-0.6,2.4c0,8-0.3,16,0.1,24
			c0.2,3.2,1.2,5.9,3,8.1C31.9,83.9,36.6,85.9,42.2,85.6z"/>
		<path d="M33.2,146.5c0-18.3,0-36.6,0-54.9c0-4.3-0.1-4.3-4.8-5.7c0,0.2-0.1,0.4-0.1,0.5c-0.2,1-0.3,1.9-0.3,2.8
			c0,20.5,0,40.9,0,61.4c0,0.8,0,1.7,0.1,2.5c0.7,3.4,2.5,5.7,6.9,6.3c0,0,0-0.1,0-0.1c0-1.6,0.5-3.1-0.1-3.7
			C32.6,152.7,33.2,149.6,33.2,146.5z"/>
		<path d="M53.9,87.6c0.1,1.7,1.4,2.1,2.9,2.1c1.2,0.1,2.3,0,3.5,0c7,0,14,0,20.9,0c7.3,0,14.6,0,21.9,0c1.3,0,2.7,0.1,3.9-0.3
			c0.8-0.2,1.7-1.3,1.7-2.1c0-0.7-0.8-1.9-1.5-2.2c-1.4-0.5-2.9-0.6-4.4-0.6c-14.5,0-28.9,0-43.4,0c-1,0-2,0-3,0.1
			C54.9,84.9,53.8,85.7,53.9,87.6z"/>
		<path d="M107.2,95.8c-1-0.4-2.3-0.4-3.4-0.4c-15,0-29.9,0-44.9,0c-1.1,0-2.4,0-3.4,0.4C54.8,96.1,54,97.2,54,98
			c0,0.7,0.9,1.9,1.6,2.1c1.2,0.4,2.6,0.4,3.9,0.4c7.3,0,14.6,0,21.9,0c7.3,0,14.6,0,21.9,0c1.3,0,2.7,0,3.9-0.4
			c0.7-0.3,1.6-1.4,1.6-2.2C108.8,97.1,108,96.1,107.2,95.8z"/>
		<path d="M107.2,116.8c-1-0.4-2.3-0.4-3.4-0.4c-15,0-29.9,0-44.9,0c-1,0-2.1-0.2-2.9,0.2c-0.9,0.5-2,1.6-2,2.4c0,0.8,1.2,2,2.1,2.3
			c1.2,0.4,2.6,0.3,3.9,0.3c7,0,14,0,20.9,0c7.5,0,15,0,22.4,0c1.3,0,2.7,0,3.9-0.5c0.7-0.3,1.6-1.4,1.6-2.2
			C108.9,118.2,108,117.1,107.2,116.8z"/>
		<path d="M107.3,137.9c-1.2-0.5-2.6-0.5-3.9-0.5c-14.6,0-29.3,0-43.9,0c-1,0-2.1-0.2-3,0.2c-1,0.5-2.4,1.4-2.6,2.4
			c-0.3,1.5,0.9,2.4,2.4,2.5c1.2,0.1,2.3,0.1,3.5,0.1c7.1,0,14.3,0,21.4,0c7.3,0,14.6,0,21.9,0c1.3,0,2.7,0.1,3.9-0.4
			c0.7-0.3,1.6-1.4,1.6-2.1C108.9,139.4,108,138.2,107.3,137.9z"/>
		<path d="M57.5,110.8c1,0,2,0,3,0c6.8,0,13.7,0,20.5,0c7.3,0,14.7,0,22,0c1.3,0,2.7,0.1,4-0.3c0.8-0.2,1.9-1.3,1.9-1.9
			c-0.1-0.9-1-2.2-1.8-2.4c-1.5-0.5-3.3-0.5-4.9-0.5c-13.7,0-27.3,0-41,0c-1.3,0-2.7,0-4,0.2c-1.5,0.2-3.1,0.6-3.2,2.5
			C53.9,110.7,55.8,110.7,57.5,110.8z"/>
		<path d="M104,127.2c-7.5,0-14.9,0-22.4,0c-8,0-15.9,0-23.9,0c-1.7,0-3.6-0.1-3.7,2.3c-0.1,2.3,1.7,2.5,3.4,2.8
			c0.5,0.1,1,0.1,1.5,0.1c15.1,0,30.2,0,45.3,0c2,0,4.2,0.1,4.8-2.5C109.3,128.1,107.6,127.2,104,127.2z"/>
		<path d="M106.8,148.5c-0.8-0.4-2-0.2-2.9-0.2c-15,0-30,0-45,0c-1,0-2.1-0.2-3,0.2c-0.8,0.3-2,1.3-1.9,1.8c0.1,0.9,0.9,2.2,1.7,2.5
			c1.3,0.5,2.9,0.5,4.4,0.6c7,0,14,0,21,0c6.8,0,13.7,0,20.5,0c1.8,0,3.7-0.1,5.4-0.6c0.8-0.2,1.9-1.4,1.8-1.9
			C108.6,149.9,107.7,148.9,106.8,148.5z"/>
		<path d="M66.3,43.5c12.2,0,24.3,0,36.5,0c2.1,0,4.2-0.3,6.1,1.4c1.2,1.1,2.8,1,4-0.3c0.1-0.1,0.2-0.2,0.2-0.3
			c-1.7-4.8-2.9-5.9-7.5-6c-14.8-0.1-29.7,0-44.5,0c-0.4,0-0.8,0.3-1.4,0.6c0,0-0.1,0-0.1,0.1c0.2,1.3,0.4,2.6,0.7,4.5
			C62.7,43.5,64.5,43.5,66.3,43.5z"/>
		<path d="M64.7,68.3c1,0.4,2.3,0.4,3.4,0.4c4.3,0,8.6,0,12.9,0c3.3,0,6.6,0,9.9,0c2,0,4,0.2,5.9-0.2c0.9-0.2,2.1-1.3,2.2-2.1
			c0.1-0.8-0.9-1.9-1.8-2.5c-0.6-0.4-1.6-0.3-2.4-0.4c-9,0-17.9,0-26.9,0c-1.1,0-2.4,0.1-3.4,0.6c-0.7,0.4-1.3,1.4-1.4,2.3
			C63.2,67,64,68,64.7,68.3z"/>
		<path d="M63.2,77c0.7,2.8,3.2,2.5,5.3,2.5c8.6,0,17.3,0,25.9,0c1.1,0,2.4,0,3.4-0.5c0.7-0.4,1.4-1.5,1.3-2.3
			c-0.1-0.7-0.9-1.7-1.7-2.1c-0.8-0.4-1.9-0.2-2.9-0.3c-4.3,0-8.6,0-12.9,0c-4.3,0-8.6,0-12.9,0C64.7,74.3,62.7,75.3,63.2,77z"/>
	</g>
</g>
</svg>
