<?xml version="1.0" encoding="utf-8"?>
<!-- Generator: Adobe Illustrator 25.2.3, SVG Export Plug-In . SVG Version: 6.00 Build 0)  -->
<svg version="1.1" id="Layer_1" xmlns="http://www.w3.org/2000/svg" xmlns:xlink="http://www.w3.org/1999/xlink" x="0px" y="0px"
	 width="36px" height="40px" viewBox="0 0 36 40" style="enable-background:new 0 0 36 40;" xml:space="preserve">
<style type="text/css">
	.st0{fill:#FFFFFF;}
</style>
<g>
	<g>
		<path class="st0" d="M8.6,9.3c0,1.5,0,2.9,0,4.4c-0.1,2,2,2.5,3.4,1.9c0.6-0.3,0.9-0.8,0.9-1.5c0-2.1,0-4.2,0-6.3
			c0-0.7-0.6-1.2-1.2-1.3c-0.6,0-1.2,0.5-1.3,1.2c-0.1,0.5,0,1,0,1.5c0,1.3,0,2.7,0,4.1c0,0.4,0,0.8,0.7,0.8c0-0.3,0.1-0.6,0.1-0.9
			c0-1,0-2.1,0-3.1c0-0.3,0-0.5,0.1-0.7c0.1-0.2,0.3-0.4,0.4-0.4c0.1,0,0.4,0.1,0.5,0.3c0.1,0.1,0.1,0.3,0.1,0.5c0,1.3,0,2.7,0,4.1
			c0,1-0.9,1.6-1.7,1.4c-0.6-0.1-1.1-0.6-1.2-1.3c-0.1-0.4,0-0.9,0-1.3c0-1.3,0.1-2.6,0-3.9c0-0.4,0-0.8,0.1-1.1
			C9.2,7.7,9,8.1,8.8,8.2c-0.1,0-0.2,0.1-0.3,0.2c0,0,0,0.1,0,0.1C8.6,8.7,8.6,9,8.6,9.3z"/>
		<path class="st0" d="M27.3,25.6c0-2.6,0-5.1,0-7.7s0-5.1,0-7.8c-2.2-0.1-4.2,0-6.3-0.1c-2,0-4.1,0-6.2,0c0-0.3-0.1-0.6-0.1-0.8
			c0.1-0.1,0.2-0.1,0.3-0.2c0.3,0,0.6,0,0.9,0c3.4,0,6.8,0,10.2,0c0-0.1,0-0.1,0-0.2c0-0.3,0-0.5-0.1-0.7c-0.2,0.3-0.6,0.3-0.9,0.1
			c-0.4-0.4-0.9-0.3-1.3-0.3c-2.6,0-5.2,0-7.8,0c-0.4,0-0.8,0-1.3,0c-0.1-0.4-0.1-0.7-0.1-1c0,0,0,0,0,0c-0.1-0.1-0.3-0.1-0.5-0.1
			c-0.1,0-0.3,0-0.4,0.1c0,0,0,0,0-0.1C14,7.1,14,7.5,14,7.9c0,2,0,3.9,0,5.9c0,1.8-1.2,3-3,3.1c-1.2,0-2.2-0.4-2.8-1.1
			c0,0.2-0.1,0.4-0.1,0.5c-0.1,0.3-0.1,0.6,0,0.8c0,0,0-0.1,0-0.1c1,0.3,1,0.3,1,1.2c0,3.9,0,7.8,0,11.7c0,0.7-0.1,1.3,0.4,1.9
			c0.1,0.1,0,0.4,0,0.8l0.1,0c0.2,0,0.4,0,0.6,0c0,0,0.1,0,0.1,0c0-0.1,0-0.2,0-0.3c0-4.5,0-9,0-13.4c0-0.3,0-0.7,0-1.1
			c0.4,0,0.7,0,1.1,0c0,5.2,0,10.3,0,15.5c1.2,0.3,2.2,0.1,3.3,0.1c1,0,2.1,0,3.1,0c1.1,0,2.1,0,3.2,0c1,0,2.1,0,3.1,0
			c1,0,2.1,0,3.3,0C27.4,30.7,27.3,28.2,27.3,25.6z M25.2,24c0,0.1-0.2,0.4-0.3,0.5c-0.3,0.1-0.6,0.1-0.8,0.1c-1.6,0-3.2,0-4.8,0
			c-1.5,0-3,0-4.5,0c-0.3,0-0.6,0-0.8-0.1c-0.2-0.1-0.4-0.3-0.4-0.5c0-0.2,0.2-0.4,0.4-0.5c0.2-0.1,0.4,0,0.6,0c3.2,0,6.4,0,9.6,0
			c0.3,0,0.5,0,0.7,0.1C25,23.6,25.2,23.9,25.2,24z M15.8,12.3c0.2-0.1,0.5-0.1,0.7-0.1c1.9,0,3.8,0,5.7,0c0.2,0,0.4,0,0.5,0.1
			c0.2,0.1,0.4,0.4,0.4,0.5c0,0.2-0.3,0.4-0.5,0.4c-0.4,0.1-0.9,0-1.3,0c-0.7,0-1.4,0-2.1,0c-0.9,0-1.8,0-2.8,0
			c-0.2,0-0.5,0-0.7-0.1c-0.2-0.1-0.4-0.3-0.3-0.4C15.5,12.7,15.6,12.4,15.8,12.3z M16.6,14.5c0.9,0,1.8,0,2.8,0s1.8,0,2.8,0
			c0.2,0,0.4,0,0.6,0.1c0.2,0.1,0.3,0.3,0.4,0.4c0,0.2-0.1,0.4-0.3,0.5c-0.2,0.1-0.5,0.1-0.7,0.1c-1.8,0-3.7,0-5.5,0
			c-0.4,0-1,0.1-1.1-0.5C15.4,14.7,15.8,14.5,16.6,14.5z M14.1,16.7c0.2,0,0.4,0,0.6,0c3.1,0,6.2,0,9.3,0c0.3,0,0.6,0,0.9,0.1
			c0.1,0.1,0.3,0.3,0.3,0.5c0,0.2-0.2,0.4-0.4,0.4c-0.3,0.1-0.6,0.1-0.8,0.1c-1.6,0-3.1,0-4.7,0c-1.5,0-3,0-4.5,0
			c-0.3,0-0.5,0-0.7,0c-0.3,0-0.6-0.1-0.6-0.4C13.5,16.9,13.7,16.8,14.1,16.7z M25.2,19.5c0,0.1-0.2,0.4-0.3,0.5
			c-0.3,0.1-0.6,0.1-0.8,0.1c-1.6,0-3.1,0-4.7,0s-3.1,0-4.7,0c-0.3,0-0.6,0-0.8-0.1c-0.2-0.1-0.4-0.3-0.4-0.4c0-0.1,0.2-0.4,0.3-0.5
			C14,19,14.3,19,14.6,19c3.2,0,6.4,0,9.6,0c0.3,0,0.5,0,0.7,0.1C25,19.1,25.2,19.4,25.2,19.5z M14.2,21.2c0.3,0,0.6,0,0.9,0
			c2.9,0,5.8,0,8.7,0c0.4,0,0.7,0,1,0.1c0.2,0.1,0.4,0.3,0.4,0.5c0,0.1-0.2,0.4-0.4,0.4c-0.3,0.1-0.6,0.1-0.9,0.1
			c-1.6,0-3.1,0-4.7,0c-1.5,0-2.9,0-4.4,0c-0.2,0-0.4,0-0.6,0c-0.4,0-0.8,0-0.8-0.5C13.5,21.3,13.8,21.3,14.2,21.2z M24.8,31.2
			c-0.4,0.1-0.8,0.1-1.2,0.1c-1.5,0-2.9,0-4.4,0c-1.5,0-3,0-4.5,0c-0.3,0-0.7,0-0.9-0.1c-0.2-0.1-0.3-0.3-0.4-0.5
			c0-0.1,0.2-0.3,0.4-0.4c0.2-0.1,0.4,0,0.6,0c3.2,0,6.4,0,9.6,0c0.2,0,0.4,0,0.6,0c0.2,0.1,0.4,0.3,0.4,0.5
			C25.2,30.9,25,31.2,24.8,31.2z M24.9,29c-0.3,0.1-0.6,0.1-0.8,0.1c-1.6,0-3.1,0-4.7,0c-1.5,0-3.1,0-4.6,0c-0.3,0-0.5,0-0.7,0
			c-0.3,0-0.6-0.2-0.5-0.5c0-0.2,0.3-0.4,0.6-0.5c0.2-0.1,0.4,0,0.6,0c3.1,0,6.3,0,9.4,0c0.3,0,0.6,0,0.8,0.1
			c0.1,0.1,0.3,0.3,0.3,0.5C25.2,28.7,25,28.9,24.9,29z M25.2,26.3c-0.1,0.6-0.6,0.5-1,0.5c-3.2,0-6.4,0-9.7,0c-0.1,0-0.2,0-0.3,0
			c-0.4-0.1-0.7-0.1-0.7-0.6c0-0.5,0.4-0.5,0.8-0.5c1.7,0,3.4,0,5.1,0c1.6,0,3.2,0,4.8,0C24.9,25.8,25.3,26,25.2,26.3z"/>
	</g>
	<g>
		<path d="M28.5,11.1c0-1.5-0.4-2-2-2c-0.1,0-0.2,0-0.3,0c-3.4,0-6.8,0-10.2,0c-0.3,0-0.6,0-0.9,0c-0.1,0-0.2,0.1-0.3,0.2
			c0,0.2,0,0.4,0.1,0.8c2.1,0,4.2,0,6.2,0c2,0,4.1-0.1,6.3,0.1c0,2.7,0,5.2,0,7.8s0,5.1,0,7.7c0,2.5,0,5.1,0,7.8c-1.2,0-2.2,0-3.3,0
			c-1,0-2.1,0-3.1,0c-1.1,0-2.1,0-3.2,0c-1,0-2.1,0-3.1,0c-1,0-2.1,0.1-3.3-0.1c0-5.2,0-10.4,0-15.5c-0.4,0-0.7,0-1.1,0
			c0,0.4,0,0.8,0,1.1c0,4.5,0,9,0,13.4c0,0.1,0,0.2,0,0.3c0,0.7,0.2,1.3,0.7,1.7c5.6,0,11.2,0,16.9,0c0.4-0.6,0.7-1.2,0.7-2
			C28.4,25.3,28.5,18.2,28.5,11.1z"/>
		<path d="M11,16.9c1.8-0.1,3-1.3,3-3.1c0-2,0-3.9,0-5.9c0-0.4-0.1-0.8-0.2-1.1c-0.1-0.3-0.4-0.6-0.7-0.9c-0.2-0.1-0.3-0.3-0.4-0.4
			c-0.6,0-1.3,0-1.9,0c-0.8,0.5-1.2,1.2-1.4,2C9.2,7.9,9.2,8.2,9.2,8.6c0.1,1.3,0,2.6,0,3.9c0,0.4,0,0.9,0,1.3
			c0.1,0.7,0.6,1.2,1.2,1.3c0.9,0.1,1.7-0.5,1.7-1.4c0-1.3,0-2.7,0-4.1c0-0.2,0-0.4-0.1-0.5c-0.1-0.1-0.3-0.3-0.5-0.3
			c-0.2,0-0.4,0.2-0.4,0.4c-0.1,0.2-0.1,0.5-0.1,0.7c0,1,0,2.1,0,3.1c0,0.3,0,0.6-0.1,0.9c-0.7,0-0.7-0.4-0.7-0.8c0-1.3,0-2.7,0-4.1
			c0-0.5,0-1,0-1.5c0.1-0.7,0.7-1.2,1.3-1.2c0.6,0,1.2,0.5,1.2,1.3c0,2.1,0,4.2,0,6.3c0,0.7-0.3,1.2-0.9,1.5
			c-1.3,0.6-3.4,0.2-3.4-1.9c0-1.5,0-2.9,0-4.4c0-0.3,0-0.6-0.1-0.8c0,0,0-0.1,0-0.1C8.4,8.3,8.2,8.2,8.1,8.2C8,8.1,7.8,8.3,7.7,8.4
			C7.6,8.6,7.6,8.8,7.6,8.9c0,1.7-0.1,3.4,0,5.1c0,0.7,0.3,1.3,0.6,1.7C8.8,16.5,9.8,17,11,16.9z"/>
		<path d="M9.1,29.9c0-3.9,0-7.8,0-11.7c0-0.9,0-0.9-1-1.2c0,0,0,0.1,0,0.1C8,17.3,8,17.5,8,17.7c0,4.4,0,8.7,0,13.1
			c0,0.2,0,0.4,0,0.5c0.1,0.7,0.5,1.2,1.5,1.3v0c0-0.3,0.1-0.7,0-0.8C8.9,31.2,9.1,30.6,9.1,29.9z"/>
		<path d="M13.5,17.3c0,0.4,0.3,0.4,0.6,0.4c0.3,0,0.5,0,0.7,0c1.5,0,3,0,4.5,0c1.6,0,3.1,0,4.7,0c0.3,0,0.6,0,0.8-0.1
			c0.2,0,0.4-0.3,0.4-0.4c0-0.1-0.2-0.4-0.3-0.5c-0.3-0.1-0.6-0.1-0.9-0.1c-3.1,0-6.2,0-9.3,0c-0.2,0-0.4,0-0.6,0
			C13.7,16.8,13.5,16.9,13.5,17.3z"/>
		<path d="M24.9,19.1C24.6,19,24.4,19,24.1,19c-3.2,0-6.4,0-9.6,0c-0.2,0-0.5,0-0.7,0.1c-0.1,0.1-0.3,0.3-0.3,0.5
			c0,0.1,0.2,0.4,0.3,0.4c0.3,0.1,0.6,0.1,0.8,0.1c1.6,0,3.1,0,4.7,0s3.1,0,4.7,0c0.3,0,0.6,0,0.8-0.1c0.1-0.1,0.3-0.3,0.3-0.5
			C25.2,19.4,25,19.1,24.9,19.1z"/>
		<path d="M24.9,23.6c-0.2-0.1-0.5-0.1-0.7-0.1c-3.2,0-6.4,0-9.6,0c-0.2,0-0.4,0-0.6,0c-0.2,0.1-0.4,0.3-0.4,0.5s0.3,0.4,0.4,0.5
			c0.3,0.1,0.6,0.1,0.8,0.1c1.5,0,3,0,4.5,0c1.6,0,3.2,0,4.8,0c0.3,0,0.6,0,0.8-0.1c0.1-0.1,0.3-0.3,0.3-0.5
			C25.2,23.9,25,23.6,24.9,23.6z"/>
		<path d="M24.9,28.1C24.6,28,24.3,28,24.1,28c-3.1,0-6.3,0-9.4,0c-0.2,0-0.4,0-0.6,0c-0.2,0.1-0.5,0.3-0.6,0.5
			C13.4,28.8,13.7,29,14,29c0.3,0,0.5,0,0.7,0c1.5,0,3.1,0,4.6,0c1.6,0,3.1,0,4.7,0c0.3,0,0.6,0,0.8-0.1c0.1-0.1,0.3-0.3,0.3-0.4
			C25.2,28.4,25,28.1,24.9,28.1z"/>
		<path d="M14.3,22.3c0.2,0,0.4,0,0.6,0c1.5,0,2.9,0,4.4,0c1.6,0,3.1,0,4.7,0c0.3,0,0.6,0,0.9-0.1c0.2,0,0.4-0.3,0.4-0.4
			c0-0.2-0.2-0.5-0.4-0.5c-0.3-0.1-0.7-0.1-1-0.1c-2.9,0-5.8,0-8.7,0c-0.3,0-0.6,0-0.9,0c-0.3,0-0.7,0.1-0.7,0.5
			C13.5,22.3,13.9,22.3,14.3,22.3z"/>
		<path d="M24.2,25.8c-1.6,0-3.2,0-4.8,0c-1.7,0-3.4,0-5.1,0c-0.4,0-0.8,0-0.8,0.5c0,0.5,0.4,0.5,0.7,0.6c0.1,0,0.2,0,0.3,0
			c3.2,0,6.4,0,9.7,0c0.4,0,0.9,0,1-0.5C25.3,26,24.9,25.8,24.2,25.8z"/>
		<path d="M24.8,30.3c-0.2-0.1-0.4,0-0.6,0c-3.2,0-6.4,0-9.6,0c-0.2,0-0.4,0-0.6,0c-0.2,0.1-0.4,0.3-0.4,0.4c0,0.2,0.2,0.5,0.4,0.5
			c0.3,0.1,0.6,0.1,0.9,0.1c1.5,0,3,0,4.5,0c1.5,0,2.9,0,4.4,0c0.4,0,0.8,0,1.2-0.1c0.2,0,0.4-0.3,0.4-0.4
			C25.2,30.6,25,30.4,24.8,30.3z"/>
		<path d="M16.1,7.9c2.6,0,5.2,0,7.8,0c0.4,0,0.9-0.1,1.3,0.3c0.3,0.2,0.6,0.2,0.9-0.1c0,0,0,0,0-0.1c-0.4-1-0.6-1.3-1.6-1.3
			c-3.2,0-6.3,0-9.5,0c-0.1,0-0.2,0.1-0.3,0.1c0,0,0,0,0,0c0,0.3,0.1,0.6,0.1,1C15.4,7.9,15.7,7.9,16.1,7.9z"/>
		<path d="M15.8,13.2c0.2,0.1,0.5,0.1,0.7,0.1c0.9,0,1.8,0,2.8,0c0.7,0,1.4,0,2.1,0c0.4,0,0.9,0,1.3,0c0.2,0,0.4-0.3,0.5-0.4
			c0-0.2-0.2-0.4-0.4-0.5c-0.1-0.1-0.3-0.1-0.5-0.1c-1.9,0-3.8,0-5.7,0c-0.2,0-0.5,0-0.7,0.1c-0.1,0.1-0.3,0.3-0.3,0.5
			C15.5,12.9,15.6,13.1,15.8,13.2z"/>
		<path d="M15.5,15.1c0.1,0.6,0.7,0.5,1.1,0.5c1.8,0,3.7,0,5.5,0c0.2,0,0.5,0,0.7-0.1c0.1-0.1,0.3-0.3,0.3-0.5
			c0-0.1-0.2-0.4-0.4-0.4s-0.4,0-0.6-0.1c-0.9,0-1.8,0-2.8,0c-0.9,0-1.8,0-2.8,0C15.8,14.5,15.4,14.7,15.5,15.1z"/>
	</g>
</g>
</svg>
