<?xml version="1.0" encoding="utf-8"?>
<!-- Generator: Adobe Illustrator 26.0.1, SVG Export Plug-In . SVG Version: 6.00 Build 0)  -->
<svg version="1.1" id="Layer_2_copy" xmlns="http://www.w3.org/2000/svg" xmlns:xlink="http://www.w3.org/1999/xlink" x="0px"
	 y="0px" viewBox="0 0 36 40" style="enable-background:new 0 0 36 40;" xml:space="preserve">
<style type="text/css">
	.st0{fill:#FFFFFF;}
</style>
<polygon class="st0" points="6,15.8 17.5,22 29,15.8 17.5,9.5 "/>
<polygon class="st0" points="9.5,18.9 9.5,26.2 17.5,30.5 25.5,26.2 25.5,18.9 17.5,23.2 "/>
<path d="M17.5,8.4l-8.8,4.8l-4.9,2.6l4.7,2.5v8.5l9,5.1l9-4.9v-0.2v-8.3l3.6-2l1,0.5v9.2v0.1h1v-0.1v-9.8L17.5,8.4z M9.5,26.2v-7.3
	l8,4.3l8-4.3v7.3l-8,4.3L9.5,26.2z M17.5,22L6,15.8l11.5-6.3L29,15.8L17.5,22z"/>
</svg>
