<?xml version="1.0" encoding="utf-8"?>
<!-- Generator: Adobe Illustrator 26.0.1, SVG Export Plug-In . SVG Version: 6.00 Build 0)  -->
<svg version="1.1" id="marker" xmlns="http://www.w3.org/2000/svg" xmlns:xlink="http://www.w3.org/1999/xlink" x="0px" y="0px"
	 viewBox="0 0 30 40" style="enable-background:new 0 0 30 40;" xml:space="preserve">
<style type="text/css">
	.st0{fill:#005EA2;}
	.st1{fill:#FFFFFF;}
</style>
<path d="M15,0.1C7.1,0.1,0.7,6.7,0.7,14.9s14.3,25,14.3,25s14.3-16.8,14.3-25S22.9,0.1,15,0.1z M1.7,14.9c0-7.6,6-13.8,13.3-13.8
	s13.3,6.2,13.3,13.8c0,3.1-2.4,8.3-7,15c-2.5,3.7-5.1,6.9-6.3,8.4c-1.2-1.5-3.8-4.7-6.3-8.5C4.1,23.2,1.7,18,1.7,14.9z"/>
<path class="st0" d="M15,1.1C7.7,1.1,1.7,7.3,1.7,14.9c0,3.1,2.4,8.3,7,15c2.5,3.7,5.1,6.9,6.3,8.5c1.2-1.5,3.8-4.7,6.3-8.5
	c4.6-6.7,7-11.8,7-15C28.3,7.3,22.3,1.1,15,1.1z"/>
<polygon class="st1" points="5.1,13.4 14.6,18.5 24.2,13.4 14.6,8.2 "/>
<polygon class="st1" points="8,16 8,22 14.6,25.6 21.3,22 21.3,16 14.6,19.5 "/>
<path d="M14.6,7.2l-7.3,4l-4,2.2l3.9,2.1v7.1l7.5,4.2l7.5-4.1v-0.2v-6.9l3-1.7l0.8,0.4V22v0.1h0.8V22v-8.1L14.6,7.2z M8,22V16
	l6.6,3.6l6.6-3.6V22l-6.6,3.6L8,22z M14.6,18.5l-9.5-5.1l9.5-5.2l9.5,5.2L14.6,18.5z"/>
</svg>
