<?xml version="1.0" encoding="utf-8"?>
<!-- Generator: Adobe Illustrator 16.0.0, SVG Export Plug-In . SVG Version: 6.00 Build 0)  -->
<!DOCTYPE svg PUBLIC "-//W3C//DTD SVG 1.1//EN" "http://www.w3.org/Graphics/SVG/1.1/DTD/svg11.dtd">
<svg version="1.1" id="Employment" xmlns="http://www.w3.org/2000/svg" xmlns:xlink="http://www.w3.org/1999/xlink" x="0px" y="0px"
	 width="36px" height="40px" viewBox="0 0 36 40" enable-background="new 0 0 36 40" xml:space="preserve">
<path d="M28.727,10.226l-4.795,2.995l0.619,0.995L22.948,14.8l-2.604-0.93c-0.297-0.106-0.607-0.16-0.922-0.16
	c-0.429,0-0.855,0.103-1.238,0.297c-0.515-0.116-1.041-0.175-1.567-0.175c-0.696,0-1.386,0.102-2.015,0.296
	c-0.944,0.083-1.908,0.125-2.861,0.125H11.62l0.745-1.226l-4.828-2.934l-0.19,0.313l-4.904,8.069l0.005,0.002l-1.191,1.962
	l4.829,2.936l0.786-1.295l0.503,0.369C6.926,23.213,7.12,24.213,7.85,24.75c0.297,0.216,0.66,0.336,1.026,0.339
	c-0.03,0.384,0.065,0.763,0.278,1.091c0.255,0.394,0.647,0.661,1.107,0.758c0.119,0.025,0.242,0.039,0.364,0.039
	c0.128,0,0.254-0.015,0.377-0.041c0.073,0.854,0.772,1.551,1.74,1.606c0.278,0,0.552-0.065,0.797-0.188
	c0.151,0.813,0.872,1.436,1.741,1.436c0.398-0.002,0.789-0.146,1.1-0.4l0.992-0.814l1.333,0.96c0.281,0.202,0.611,0.309,0.959,0.309
	c0.525,0,1.025-0.255,1.335-0.683c0.151-0.215,0.252-0.457,0.29-0.713c0.207,0.084,0.429,0.127,0.652,0.127
	c0.619,0,1.181-0.314,1.5-0.842c0.162-0.271,0.25-0.576,0.254-0.889c0.086,0.014,0.171,0.02,0.256,0.02
	c0.771,0,1.462-0.516,1.683-1.256c0.068-0.233,0.089-0.479,0.06-0.722c0.839-0.052,1.527-0.726,1.591-1.575
	c0.005-0.074,0.005-0.146,0.001-0.223l1.787-1.639l0.877,1.404l4.796-2.996L28.727,10.226z"/>
<rect x="1.697" y="14.854" transform="matrix(-0.5194 0.8545 -0.8545 -0.5194 24.6406 19.6092)" fill="#FFFFFF" width="10.218" height="3.759"/>
<rect x="24.605" y="14.66" transform="matrix(-0.5299 -0.8481 0.8481 -0.5299 30.8564 50.1857)" fill="#FFFFFF" width="9.468" height="3.761"/>
<path fill="#FFFFFF" d="M26.923,22.135c-0.075-0.098-0.165-0.188-0.266-0.271l-6.798-5.517l-0.105,0.061
	c-0.845,0.478-1.803,0.731-2.774,0.731c-0.519,0-1.035-0.072-1.535-0.214c-0.118-0.033-0.188-0.157-0.155-0.274
	c0.021-0.069,0.071-0.125,0.14-0.149c1.053-0.378,2.053-0.892,2.973-1.527c0.301-0.207,0.652-0.317,1.09-0.317
	c0.003,0,0.007,0,0.01,0c0.181,0.008,0.356,0.043,0.526,0.104l2.928,1.045l2.109-0.772l3.496,5.598L26.923,22.135z"/>
<path fill="#FFFFFF" d="M20.08,20.274c-0.155,0-0.301,0.076-0.389,0.203c-0.146,0.208-0.098,0.501,0.108,0.652l4.619,3.319
	c0.171,0.13,0.281,0.319,0.312,0.532c0.029,0.215-0.026,0.427-0.157,0.6c-0.153,0.202-0.39,0.318-0.646,0.318
	c-0.16,0-0.318-0.049-0.447-0.139l-4.364-3.136c-0.081-0.06-0.177-0.088-0.274-0.088c-0.15,0-0.296,0.073-0.385,0.198
	c-0.149,0.211-0.101,0.508,0.109,0.658l3.854,2.77c0.367,0.251,0.465,0.755,0.218,1.124c-0.152,0.222-0.402,0.354-0.672,0.354
	c-0.16,0-0.318-0.049-0.49-0.168l-3.631-2.605c-0.076-0.049-0.164-0.075-0.253-0.075c-0.161,0-0.311,0.082-0.399,0.22
	c-0.127,0.202-0.084,0.471,0.111,0.629l2.766,1.988c0.146,0.113,0.24,0.275,0.265,0.461s-0.024,0.369-0.14,0.518
	c-0.133,0.172-0.336,0.271-0.553,0.271c-0.14,0-0.271-0.04-0.379-0.111l-1.303-0.936c0.356-0.82,0.033-1.797-0.769-2.234
	c-0.256-0.142-0.549-0.216-0.842-0.216c-0.067,0-0.136,0.005-0.203,0.013c-0.017-0.86-0.67-1.604-1.551-1.705
	c-0.041-0.004-0.082-0.008-0.125-0.01c0.043-0.383-0.039-0.766-0.24-1.1c-0.24-0.402-0.623-0.688-1.078-0.798
	c-0.139-0.034-0.281-0.054-0.424-0.054c-0.344,0-0.68,0.104-0.965,0.289c-0.166-0.795-0.879-1.396-1.736-1.396
	c-0.4,0.005-0.789,0.147-1.094,0.399l-0.899,0.742L7.36,21.268l3.693-6.077c0.233,0.005,0.699,0.007,0.7,0.007
	c0.996,0,2.004-0.045,3.035-0.142c0.587-0.184,1.199-0.277,1.819-0.279l-0.002-0.18c0.002,0,0.006,0,0.009,0l0.01,0.18
	c0.101,0,0.199,0.002,0.298,0.007c-0.58,0.326-1.188,0.603-1.809,0.827c-0.295,0.106-0.529,0.32-0.662,0.602
	c-0.133,0.282-0.146,0.6-0.042,0.894c0.128,0.353,0.419,0.625,0.778,0.727c0.584,0.166,1.188,0.25,1.795,0.25
	c0.949,0,1.902-0.21,2.766-0.61l6.311,5.124c0.156,0.131,0.252,0.314,0.271,0.519c0.019,0.198-0.045,0.396-0.177,0.55
	c-0.145,0.173-0.354,0.271-0.58,0.271c-0.154,0-0.305-0.047-0.428-0.135l-4.791-3.441C20.271,20.304,20.18,20.274,20.08,20.274z"/>
<path fill="#FFFFFF" d="M14.742,27.414l1.094-0.902c0.13-0.104,0.292-0.169,0.459-0.178l0.06-0.182l0,0l0.02,0.18
	c0.216,0.009,0.415,0.102,0.561,0.259c0.147,0.159,0.224,0.366,0.215,0.583c-0.01,0.227-0.114,0.438-0.287,0.582l-1.09,0.902
	c-0.146,0.117-0.32,0.179-0.506,0.179c-0.246,0-0.477-0.108-0.629-0.302C14.362,28.195,14.411,27.693,14.742,27.414z"/>
<path fill="#FFFFFF" d="M12.229,26.166l1.646-1.359c0.135-0.106,0.296-0.171,0.469-0.182l0.041-0.172h0.002v0.171
	c0.43,0,0.784,0.336,0.807,0.765c0.015,0.256-0.09,0.497-0.286,0.662l-1.651,1.362c-0.144,0.12-0.326,0.187-0.513,0.187
	c-0.242,0-0.47-0.105-0.625-0.293C11.836,26.962,11.886,26.45,12.229,26.166z"/>
<path fill="#FFFFFF" d="M8.367,22.714l1.164-0.963c0.13-0.104,0.296-0.17,0.466-0.181l-0.012-0.18l0.091,0.18
	c0.444,0.021,0.792,0.396,0.772,0.843c-0.01,0.226-0.115,0.438-0.287,0.584l-1.164,0.958c-0.143,0.109-0.313,0.169-0.494,0.169
	c-0.252,0-0.485-0.114-0.639-0.313C8.005,23.475,8.052,22.991,8.367,22.714z"/>
<path fill="#FFFFFF" d="M10.103,24.602l2.109-1.74c0.131-0.109,0.301-0.176,0.475-0.186l0.037-0.173
	c0.002,0,0.002,0.001,0.002,0.001v0.171c0.432,0,0.787,0.339,0.808,0.769c0.012,0.256-0.099,0.502-0.293,0.664l-2.106,1.738
	c-0.146,0.118-0.32,0.182-0.509,0.182c-0.245,0-0.474-0.107-0.628-0.297C9.72,25.389,9.769,24.883,10.103,24.602z"/>
</svg>
