<?xml version="1.0" encoding="utf-8"?>
<!-- Generator: Adobe Illustrator 25.1.0, SVG Export Plug-In . SVG Version: 6.00 Build 0)  -->
<svg version="1.1" id="marker" xmlns="http://www.w3.org/2000/svg" xmlns:xlink="http://www.w3.org/1999/xlink" x="0px" y="0px"
	 viewBox="0 0 30 40" style="enable-background:new 0 0 30 40;" xml:space="preserve">
<style type="text/css">
	.st0{fill:#005EA2;}
	.st1{fill:#FFFFFF;}
</style>
<g>
	<g>
		<path class="st0" d="M15,1.11C7.66,1.11,1.68,7.3,1.68,14.9c0,3.13,2.41,8.31,6.97,14.98c2.54,3.71,5.11,6.93,6.34,8.45
			c1.24-1.51,3.8-4.74,6.34-8.45c4.56-6.67,6.97-11.84,6.97-14.98C28.32,7.3,22.34,1.11,15,1.11z"/>
		<path d="M15,0.11C7.09,0.11,0.68,6.73,0.68,14.9S15,39.89,15,39.89S29.32,23.06,29.32,14.9S22.91,0.11,15,0.11z M1.68,14.9
			C1.68,7.3,7.66,1.11,15,1.11S28.32,7.3,28.32,14.9c0,3.13-2.41,8.31-6.97,14.98c-2.54,3.71-5.11,6.93-6.34,8.45
			c-1.24-1.51-3.8-4.74-6.34-8.45C4.09,23.21,1.68,18.03,1.68,14.9z"/>
	</g>
	<g>
		<path d="M22.93,9.33l-3.55,2.22l0.46,0.74l-1.19,0.43l-1.93-0.69c-0.22-0.08-0.45-0.12-0.68-0.12c-0.32,0-0.63,0.08-0.92,0.22
			c-0.38-0.09-0.77-0.13-1.16-0.13c-0.51,0-1.03,0.08-1.49,0.22c-0.7,0.06-1.41,0.09-2.12,0.09h-0.09l0.55-0.91L7.26,9.23L7.12,9.46
			l-3.63,5.97l0,0l-0.88,1.45l3.57,2.17l0.58-0.96l0.37,0.27c-0.33,0.57-0.19,1.3,0.35,1.7c0.22,0.16,0.49,0.25,0.76,0.25
			c-0.02,0.28,0.05,0.56,0.21,0.81c0.19,0.29,0.48,0.49,0.82,0.56c0.09,0.02,0.18,0.03,0.27,0.03c0.09,0,0.19-0.01,0.28-0.03
			c0.05,0.63,0.57,1.15,1.29,1.19c0.21,0,0.41-0.05,0.59-0.14c0.11,0.6,0.64,1.06,1.29,1.06c0.29,0,0.58-0.11,0.81-0.3l0.73-0.6
			l0.99,0.71c0.21,0.15,0.45,0.23,0.71,0.23c0.39,0,0.76-0.19,0.99-0.51c0.11-0.16,0.19-0.34,0.21-0.53
			c0.15,0.06,0.32,0.09,0.48,0.09c0.46,0,0.87-0.23,1.11-0.62c0.12-0.2,0.18-0.43,0.19-0.66c0.06,0.01,0.13,0.01,0.19,0.01
			c0.57,0,1.08-0.38,1.24-0.93c0.05-0.17,0.07-0.35,0.04-0.53c0.62-0.04,1.13-0.54,1.18-1.16c0-0.05,0-0.11,0-0.16l1.32-1.21
			l0.65,1.04l3.55-2.22L22.93,9.33z"/>
		
			<rect x="2.94" y="12.75" transform="matrix(0.5194 -0.8545 0.8545 0.5194 -8.8518 12.5375)" class="st1" width="7.56" height="2.78"/>
		
			<rect x="21.99" y="10.49" transform="matrix(0.8481 -0.5299 0.5299 0.8481 -3.8625 14.517)" class="st1" width="2.78" height="7"/>
		<path class="st1" d="M21.6,18.13c-0.06-0.07-0.12-0.14-0.2-0.2l-5.03-4.08L16.3,13.9c-0.62,0.35-1.33,0.54-2.05,0.54
			c-0.38,0-0.77-0.05-1.14-0.16c-0.09-0.02-0.14-0.12-0.11-0.2c0.02-0.05,0.05-0.09,0.1-0.11c0.78-0.28,1.52-0.66,2.2-1.13
			c0.22-0.15,0.48-0.23,0.81-0.23c0,0,0.01,0,0.01,0c0.13,0.01,0.26,0.03,0.39,0.08l2.17,0.77l1.56-0.57l2.59,4.14L21.6,18.13z"/>
		<path class="st1" d="M16.54,16.76c-0.11,0-0.22,0.06-0.29,0.15c-0.11,0.15-0.07,0.37,0.08,0.48l3.42,2.45
			c0.13,0.1,0.21,0.24,0.23,0.39c0.02,0.16-0.02,0.32-0.12,0.44c-0.11,0.15-0.29,0.24-0.48,0.24c-0.12,0-0.24-0.04-0.33-0.1
			l-3.23-2.32c-0.06-0.04-0.13-0.07-0.2-0.07c-0.11,0-0.22,0.05-0.28,0.15c-0.11,0.16-0.07,0.38,0.08,0.49l2.85,2.05
			c0.27,0.19,0.34,0.56,0.16,0.83c-0.11,0.16-0.3,0.26-0.5,0.26c-0.12,0-0.24-0.04-0.36-0.12l-2.69-1.93
			c-0.06-0.04-0.12-0.06-0.19-0.06c-0.12,0-0.23,0.06-0.3,0.16c-0.09,0.15-0.06,0.35,0.08,0.47l2.05,1.47
			c0.11,0.08,0.18,0.2,0.2,0.34s-0.02,0.27-0.1,0.38c-0.1,0.13-0.25,0.2-0.41,0.2c-0.1,0-0.2-0.03-0.28-0.08l-0.96-0.69
			c0.26-0.61,0.02-1.33-0.57-1.65c-0.19-0.11-0.41-0.16-0.62-0.16c-0.05,0-0.1,0-0.15,0.01c-0.01-0.64-0.5-1.19-1.15-1.26
			c-0.03,0-0.06-0.01-0.09-0.01c0.03-0.28-0.03-0.57-0.18-0.81c-0.18-0.3-0.46-0.51-0.8-0.59c-0.1-0.03-0.21-0.04-0.31-0.04
			c-0.25,0-0.5,0.08-0.71,0.21c-0.12-0.59-0.65-1.03-1.28-1.03c-0.3,0-0.58,0.11-0.81,0.3l-0.66,0.55l-0.5-0.36L9.86,13
			c0.17,0,0.52,0.01,0.52,0.01c0.74,0,1.48-0.03,2.24-0.11c0.43-0.14,0.89-0.2,1.35-0.21l0-0.13c0,0,0,0,0.01,0l0.01,0.13
			c0.07,0,0.15,0,0.22,0.01c-0.43,0.24-0.88,0.45-1.34,0.61c-0.22,0.08-0.39,0.24-0.49,0.45c-0.1,0.21-0.11,0.44-0.03,0.66
			c0.09,0.26,0.31,0.46,0.58,0.54c0.43,0.12,0.88,0.18,1.33,0.18c0.7,0,1.41-0.16,2.05-0.45l4.67,3.79c0.12,0.1,0.19,0.23,0.2,0.38
			c0.01,0.15-0.03,0.29-0.13,0.41c-0.11,0.13-0.26,0.2-0.43,0.2c-0.11,0-0.23-0.03-0.32-0.1l-3.54-2.54
			C16.68,16.78,16.61,16.76,16.54,16.76z"/>
		<path class="st1" d="M12.59,22.04l0.81-0.67c0.1-0.08,0.22-0.12,0.34-0.13l0.04-0.13l0,0l0.01,0.13c0.16,0.01,0.31,0.08,0.41,0.19
			c0.11,0.12,0.17,0.27,0.16,0.43c-0.01,0.17-0.08,0.32-0.21,0.43l-0.81,0.67c-0.11,0.09-0.24,0.13-0.37,0.13
			c-0.18,0-0.35-0.08-0.47-0.22C12.31,22.62,12.34,22.24,12.59,22.04z"/>
		<path class="st1" d="M10.73,21.11l1.22-1.01c0.1-0.08,0.22-0.13,0.35-0.13l0.03-0.13h0v0.13c0.32,0,0.58,0.25,0.6,0.57
			c0.01,0.19-0.07,0.37-0.21,0.49l-1.22,1.01c-0.11,0.09-0.24,0.14-0.38,0.14c-0.18,0-0.35-0.08-0.46-0.22
			C10.44,21.7,10.48,21.32,10.73,21.11z"/>
		<path class="st1" d="M7.87,18.56l0.86-0.71c0.1-0.08,0.22-0.13,0.34-0.13l-0.01-0.13l0.07,0.13c0.33,0.02,0.59,0.29,0.57,0.62
			c-0.01,0.17-0.09,0.32-0.21,0.43l-0.86,0.71C8.53,19.56,8.4,19.6,8.27,19.6c-0.19,0-0.36-0.08-0.47-0.23
			C7.61,19.12,7.64,18.77,7.87,18.56z"/>
		<path class="st1" d="M9.16,19.96l1.56-1.29c0.1-0.08,0.22-0.13,0.35-0.14l0.03-0.13c0,0,0,0,0,0v0.13c0.32,0,0.58,0.25,0.6,0.57
			c0.01,0.19-0.07,0.37-0.22,0.49l-1.56,1.29c-0.11,0.09-0.24,0.13-0.38,0.13c-0.18,0-0.35-0.08-0.46-0.22
			C8.88,20.54,8.91,20.17,9.16,19.96z"/>
	</g>
</g>
</svg>
