<?xml version="1.0" encoding="utf-8"?>
<!-- Generator: Adobe Illustrator 25.2.1, SVG Export Plug-In . SVG Version: 6.00 Build 0)  -->
<svg version="1.1" id="Layer_1" xmlns="http://www.w3.org/2000/svg" xmlns:xlink="http://www.w3.org/1999/xlink" x="0px" y="0px"
	 width="150px" height="200px" viewBox="0 0 150 200" enable-background="new 0 0 150 200" xml:space="preserve">
<g>
	<path fill="#FFFFFF" d="M141,106.9c-0.3-6.4-3.3-11.7-9-15.3c-1.2-0.8-2.3-1.7-3.5-2.6c7.6-10.1,8.7-17.8,3.8-25.2
		c-4.2-6.3-12.1-9.5-19.8-7.1c-11.8,3.6-14.6,12.7-12.8,24.7c-9.2-4-16.9-2.5-21.8,5.5c-4.6,7.6-2,14.7,4.3,20.5
		c-2.6,2.3-5,4.5-7.4,6.7c-2-2.8-3.8-5.3-5.7-8.1c5.6-7.1,6.7-13.7,2.5-20.1c-2.1-3.1-5.3-4.6-8.5-5.9c-4.7-1.9-9,0.2-13.9,2.3
		c1.5-5.2,2.4-9.8,0.4-14.8c-2-4.7-5.2-8.1-9.8-10.2c-6.7-3-16.3-1.1-20.6,4.4c-1.9,2.5-3.6,5.8-4.1,8.9c-0.5,3.3-0.2,7.1,0.9,10.3
		c1,3,3.4,5.4,5.2,8.1c-0.1,0.2-0.2,0.4-0.3,0.5c-0.5,0.4-1,0.8-1.6,1.1c-7.3,4.5-10.7,11-10.5,19.6c0.2,9.5,0.1,19,0.1,28.5
		c0,1.8,0.2,3.5,0.4,5.4c44.1,0,87.6,0,131.2,0c0.3-1,0.6-1.6,0.6-2.2C141.1,130.2,141.4,118.5,141,106.9z"/>
	<path d="M49.2,82.3c4.9-2.1,9.2-4.2,13.9-2.3c3.2,1.3,6.4,2.8,8.5,5.9c4.2,6.4,3.1,13-2.5,20.1c1.9,2.8,3.7,5.3,5.7,8.1
		c2.4-2.2,4.8-4.4,7.4-6.7c-6.3-5.8-8.9-12.9-4.3-20.5c4.9-8,12.6-9.5,21.8-5.5c-1.8-12,1-21.1,12.8-24.7c7.7-2.4,15.6,0.8,19.8,7.1
		c4.9,7.4,3.8,15.1-3.8,25.2c1.2,0.9,2.3,1.8,3.5,2.6c5.7,3.6,8.7,8.9,9,15.3c0.4,11.6,0.1,23.3,0.1,35c0,0.6-0.3,1.2-0.6,2.2
		c-43.6,0-87.1,0-131.2,0c-0.2-1.9-0.4-3.6-0.4-5.4c0-9.5,0.1-19-0.1-28.5c-0.2-8.6,3.2-15.1,10.5-19.6c0.6-0.3,1.1-0.7,1.6-1.1
		c0.1-0.1,0.2-0.3,0.3-0.5c-1.8-2.7-4.2-5.1-5.2-8.1c-1.1-3.2-1.4-7-0.9-10.3c0.5-3.1,2.2-6.4,4.1-8.9c4.3-5.5,13.9-7.4,20.6-4.4
		c4.6,2.1,7.8,5.5,9.8,10.2C51.6,72.5,50.7,77.1,49.2,82.3z M48.9,107.5c-1.7-3.3-3.6-6.4-4.8-9.7c-1.5-4-2-4.9-6.1-5.1
		c-3.3-0.2-6.7-0.2-10,0c-7.9,0.4-15.2,8-15.1,15.8c0.1,9.3,0,18.6,0,28c0,1.3,0.4,2.5,0.6,4c9.1,0.1,17.8,0.5,27.1-0.3
		c0-5.4-0.2-10.4,0.1-15.3c0.2-2.9,0.6-6.1,1.9-8.6C44.3,113,46.9,110.3,48.9,107.5z M106.6,94.5c-0.7,2.5-1.1,5.1-2.2,7.3
		c-1.1,2.1-2.9,3.9-4.4,5.9c6.8,5.2,9.6,11.7,9,19.8c-0.3,4.1,0,8.2,0,12.7c9.5,0.5,18.4,0.5,26.9,0.1c0.5-1,0.7-1.3,0.7-1.6
		c0-10.6,0.4-21.3-0.1-31.9c-0.2-5.1-3.1-9.3-8-11.9c-6.4-3.5-13.2-2.5-19.9-1.5C108,93.4,107.3,94.1,106.6,94.5z M104.7,140.2
		c0-6.5,0.4-12.3-0.1-18.1c-0.6-7-6-11.7-13-12.3c-5.2-0.4-11.7,3.5-13.3,8.6c-2.2,7.1-1.3,14.3-0.9,21.7
		C86.6,140.2,95.3,140.2,104.7,140.2z M72.2,140.2c0-6.8,0.6-13-0.2-19c-1.2-8.6-7.8-11.4-13.6-11.1c-7.5,0.4-12.6,4.6-13.4,13.4
		c-0.4,4.8-0.1,9.6,0,14.4c0,0.8,0.4,1.5,0.7,2.4C54.7,140.2,63.4,140.2,72.2,140.2z M103.2,74c-0.1,7,6.5,14,13.5,14.2
		c7.3,0.2,14.8-6.8,14.8-14.1c0-7.2-6.4-13.5-13.9-13.6C108.8,60.3,104.3,66.4,103.2,74z M32.5,60.5c-7.7,0-14.4,6.5-14.2,13.8
		c0.2,7.1,7.2,13.9,14.4,13.9c7,0.1,14-7.2,13.8-14.4C46.4,66.4,40.1,60.5,32.5,60.5z M48,94.1c-0.2,6.3,4.4,11.3,10.6,11.4
		c6.3,0.1,11.1-4.6,11.2-10.8c0.1-5.9-4.7-10.8-10.6-10.9C53.2,83.6,48.2,88.2,48,94.1z M101.8,94.8c0.1-6.2-4.7-11.1-10.9-11.1
		c-5.8,0-10.8,5-10.9,10.8c0,6,4.6,10.8,10.5,11C96.9,105.6,101.8,101,101.8,94.8z"/>
</g>
</svg>
