<?xml version="1.0" encoding="utf-8"?>
<!-- Generator: Adobe Illustrator 25.2.0, SVG Export Plug-In . SVG Version: 6.00 Build 0)  -->
<svg version="1.1" id="Layer_3" xmlns="http://www.w3.org/2000/svg" xmlns:xlink="http://www.w3.org/1999/xlink" x="0px" y="0px"
	 viewBox="0 0 36 40" style="enable-background:new 0 0 36 40;" xml:space="preserve">
<style type="text/css">
	.st0{fill:#FFFFFF;}
</style>
<g>
	<path class="st0" d="M22.1,37.1c-0.4,0-0.7-0.1-1.1-0.2c-1-0.3-2-0.5-3-0.5c-1,0-2.1,0.2-3.2,0.5c-0.3,0.1-0.7,0.2-1,0.2
		c-0.8,0-1.6-0.3-2.3-0.9c-4.9-4.3-7.5-8.7-7.9-13.9c-0.2-2.2,0-4.2,0.4-6.2c0.7-3,3-5,6.5-5.6c0.3-0.1,0.7-0.1,1-0.1
		c0.9,0,1.8,0.2,2.7,0.4c0.4,0.1,0.8,0.2,1.3,0.3c0.3,0.1,0.6,0.1,0.9,0.1c-0.2-0.4-0.5-0.7-0.9-1c-0.2-0.1-0.4-0.3-0.6-0.4
		c-0.6-0.3-0.9-0.5-1-0.9c-0.1-0.4,0.1-0.7,0.4-1.2c0.1-0.2,0.3-0.5,0.4-0.7L15.3,6l1,1.5c0.9-2.8,3.4-3.6,5.6-3.9
		c1-0.2,2-0.3,3-0.5l2.1-0.3l-0.2,0.7c-0.1,0.4-0.2,0.8-0.3,1.2c-0.2,0.9-0.5,1.8-0.8,2.7c-0.7,2-2.3,3.2-5,3.5l-2.1,0.2
		c0,0.1,0.1,0.2,0.1,0.2c0,0,0,0,0,0c0,0,0,0,0.1,0c0.1,0,0.3,0,0.6-0.1c0.6-0.1,1.1-0.2,1.7-0.3c0.8-0.2,1.7-0.4,2.5-0.5
		c0.3,0,0.7-0.1,1-0.1c3.5,0,6.8,2.6,7.5,6.1c1.2,5.9-0.1,11.2-3.8,15.8c-1.2,1.4-2.5,2.7-3.6,3.8C23.8,36.7,23,37.1,22.1,37.1z"/>
	<path d="M26.2,3.4c-0.4,1.3-0.6,2.6-1.1,3.9c-0.7,2.1-2.5,2.9-4.6,3.1c-0.9,0.1-1.8,0.2-2.7,0.3c0.2,0.9,0.3,1.2,0.8,1.2
		c0.2,0,0.4,0,0.6-0.1c1.4-0.3,2.8-0.6,4.2-0.8c0.3,0,0.6-0.1,1-0.1c3.3,0,6.3,2.4,7,5.7c1.2,5.7,0,10.9-3.7,15.4
		c-1.1,1.3-2.3,2.5-3.6,3.7c-0.6,0.5-1.3,0.9-2,0.9c-0.3,0-0.6,0-0.9-0.2c-1.1-0.4-2.1-0.5-3.2-0.5c-1.1,0-2.2,0.2-3.3,0.5
		c-0.3,0.1-0.6,0.1-0.8,0.1c-0.7,0-1.4-0.3-1.9-0.8C7.8,32.2,4.7,28,4.2,22.3c-0.2-2,0-4.1,0.4-6C5.4,13,8,11.5,10.7,11
		c0.3-0.1,0.6-0.1,0.9-0.1c1.3,0,2.6,0.5,3.9,0.7c0.6,0.1,1.1,0.2,1.7,0.3c-0.2-0.9-0.7-1.5-1.4-2c-0.2-0.2-0.5-0.3-0.7-0.4
		C14.2,9,14.2,9,14.7,8.1c0.2-0.3,0.4-0.7,0.6-1.1c0.4,0.6,0.7,1.1,1.1,1.8c0.5-3.2,2.7-4.3,5.4-4.7C23.3,3.8,24.7,3.6,26.2,3.4
		 M27.6,2.2l-1.5,0.2l-1.4,0.2c-1,0.1-2,0.3-2.9,0.5c-2.1,0.3-4.4,1-5.6,3.4L15.3,5l-0.8,1.5c-0.1,0.1-0.1,0.3-0.2,0.4
		c-0.1,0.2-0.2,0.5-0.4,0.7c-0.3,0.6-0.6,1-0.5,1.6c0.2,0.6,0.6,0.8,1.3,1.2c0.1,0,0.1,0.1,0.2,0.1c-0.1,0-0.3-0.1-0.4-0.1
		c-0.9-0.2-1.8-0.4-2.8-0.4c-0.4,0-0.8,0-1.1,0.1c-3.7,0.7-6.2,2.8-6.9,6c-0.5,2.1-0.6,4.2-0.5,6.4c0.5,5.3,3,9.8,8.1,14.2
		c0.8,0.7,1.7,1,2.6,1c0.4,0,0.8-0.1,1.2-0.2c1-0.3,2-0.5,3-0.5c1,0,1.9,0.2,2.9,0.5c0.4,0.1,0.8,0.2,1.2,0.2c1,0,1.9-0.4,2.7-1.1
		c1.1-1.1,2.5-2.4,3.7-3.8c3.9-4.7,5.2-10.2,3.9-16.2c-0.8-3.7-4.1-6.4-7.8-6.5c0.7-0.6,1.2-1.3,1.5-2.3c0.3-0.9,0.6-1.9,0.8-2.8
		c0.1-0.4,0.2-0.8,0.3-1.2L27.6,2.2L27.6,2.2z"/>
</g>
</svg>
