<?xml version="1.0" encoding="utf-8"?>
<!-- Generator: Adobe Illustrator 25.2.0, SVG Export Plug-In . SVG Version: 6.00 Build 0)  -->
<svg version="1.1" id="Layer_3" xmlns="http://www.w3.org/2000/svg" xmlns:xlink="http://www.w3.org/1999/xlink" x="0px" y="0px"
	 viewBox="0 0 30 40" style="enable-background:new 0 0 30 40;" xml:space="preserve">
<style type="text/css">
	.st0{fill:#005EA2;}
	.st1{fill:#FFFFFF;}
</style>
<g>
	<g>
		<path class="st0" d="M15,1.1C7.7,1.1,1.7,7.3,1.7,14.9c0,3.1,2.4,8.3,7,15c2.5,3.7,5.1,6.9,6.3,8.4c1.2-1.5,3.8-4.7,6.3-8.4
			c4.6-6.7,7-11.8,7-15C28.3,7.3,22.3,1.1,15,1.1z"/>
		<path d="M15,0.1C7.1,0.1,0.7,6.7,0.7,14.9s14.3,25,14.3,25s14.3-16.8,14.3-25S22.9,0.1,15,0.1z M1.7,14.9c0-7.6,6-13.8,13.3-13.8
			s13.3,6.2,13.3,13.8c0,3.1-2.4,8.3-7,15c-2.5,3.7-5.1,6.9-6.3,8.4c-1.2-1.5-3.8-4.7-6.3-8.4C4.1,23.2,1.7,18,1.7,14.9z"/>
	</g>
	<g>
		<path class="st1" d="M17.8,28.5c-0.3,0-0.5-0.1-0.8-0.1c-0.7-0.2-1.4-0.3-2.1-0.3c-0.7,0-1.5,0.1-2.2,0.3
			c-0.2,0.1-0.5,0.1-0.7,0.1c-0.6,0-1.1-0.2-1.6-0.6c-3.4-3-5.2-6.1-5.5-9.7c-0.1-1.5,0-2.9,0.3-4.3c0.5-2.1,2.1-3.5,4.5-3.9
			c0.2-0.1,0.5-0.1,0.7-0.1c0.6,0,1.3,0.1,1.9,0.3c0.3,0.1,0.6,0.1,0.9,0.2c0.2,0.1,0.4,0.1,0.6,0.1c-0.1-0.3-0.3-0.5-0.6-0.7
			c-0.1-0.1-0.3-0.2-0.4-0.3c-0.4-0.2-0.6-0.3-0.7-0.6s0.1-0.5,0.3-0.8c0.1-0.1,0.2-0.3,0.3-0.5l0.4-0.7l0.7,1
			c0.6-2,2.4-2.5,3.9-2.7c0.7-0.1,1.4-0.2,2.1-0.3l1.5-0.2l-0.1,0.5c-0.1,0.3-0.1,0.6-0.2,0.8c-0.1,0.6-0.3,1.3-0.6,1.9
			c-0.5,1.4-1.6,2.2-3.5,2.4l-1.5,0.1c0,0.1,0.1,0.1,0.1,0.1l0,0c0,0,0,0,0.1,0s0.2,0,0.4-0.1c0.4-0.1,0.8-0.1,1.2-0.2
			c0.6-0.1,1.2-0.3,1.7-0.3c0.2,0,0.5-0.1,0.7-0.1c2.4,0,4.7,1.8,5.2,4.3c0.8,4.1-0.1,7.8-2.7,11c-0.8,1-1.7,1.9-2.5,2.7
			C19,28.2,18.4,28.5,17.8,28.5z"/>
		<path d="M20.7,5c-0.3,0.9-0.4,1.8-0.8,2.7c-0.5,1.5-1.7,2-3.2,2.2c-0.6,0.1-1.3,0.1-1.9,0.2c0.1,0.6,0.2,0.8,0.6,0.8
			c0.1,0,0.3,0,0.4-0.1c1-0.2,2-0.4,2.9-0.6c0.2,0,0.4-0.1,0.7-0.1c2.3,0,4.4,1.7,4.9,4c0.8,4,0,7.6-2.6,10.7
			c-0.8,0.9-1.6,1.7-2.5,2.6c-0.4,0.3-0.9,0.6-1.4,0.6c-0.2,0-0.4,0-0.6-0.1c-0.8-0.3-1.5-0.3-2.2-0.3s-1.5,0.1-2.3,0.3
			c-0.2,0.1-0.4,0.1-0.6,0.1c-0.5,0-1-0.2-1.3-0.6c-2.9-2.4-5.1-5.4-5.4-9.3c-0.1-1.4,0-2.9,0.3-4.2c0.6-2.3,2.4-3.3,4.3-3.7
			c0.2-0.1,0.4-0.1,0.6-0.1c0.9,0,1.8,0.3,2.7,0.5c0.4,0.1,0.8,0.1,1.2,0.2c-0.1-0.6-0.5-1-1-1.4c-0.1-0.1-0.3-0.2-0.5-0.3
			c-0.6-0.3-0.6-0.3-0.3-1c0.1-0.2,0.3-0.5,0.4-0.8c0.3,0.4,0.5,0.8,0.8,1.3c0.3-2.2,1.9-3,3.8-3.3C18.6,5.3,19.6,5.1,20.7,5
			 M21.6,4.2l-1,0.1l-1,0.1c-0.7,0.1-1.4,0.2-2,0.3c-1.5,0.2-3.1,0.7-3.9,2.4l-0.6-1l-0.6,1c-0.1,0.1-0.1,0.2-0.1,0.3
			c-0.1,0.1-0.1,0.3-0.3,0.5c-0.2,0.4-0.4,0.7-0.3,1.1c0.1,0.4,0.4,0.6,0.9,0.8c0.1,0,0.1,0.1,0.1,0.1c-0.1,0-0.2-0.1-0.3-0.1
			c-0.6-0.1-1.3-0.3-2-0.3c-0.3,0-0.6,0-0.8,0.1c-2.6,0.5-4.3,2-4.8,4.2c-0.3,1.5-0.4,2.9-0.3,4.5c0.3,3.7,2.1,6.8,5.7,9.9
			c0.6,0.5,1.2,0.7,1.8,0.7c0.3,0,0.6-0.1,0.8-0.1c0.7-0.2,1.4-0.3,2.1-0.3s1.3,0.1,2,0.3c0.3,0.1,0.6,0.1,0.8,0.1
			c0.7,0,1.3-0.3,1.9-0.8c0.8-0.8,1.7-1.7,2.6-2.7c2.7-3.3,3.6-7.1,2.7-11.3c-0.6-2.6-2.9-4.5-5.4-4.5c0.5-0.4,0.8-0.9,1-1.6
			c0.2-0.6,0.4-1.3,0.6-2c0.1-0.3,0.1-0.6,0.2-0.8L21.6,4.2L21.6,4.2z"/>
	</g>
</g>
</svg>
