<?xml version="1.0" encoding="utf-8"?>
<!-- Generator: Adobe Illustrator 25.1.0, SVG Export Plug-In . SVG Version: 6.00 Build 0)  -->
<svg version="1.1" id="marker" xmlns="http://www.w3.org/2000/svg" xmlns:xlink="http://www.w3.org/1999/xlink" x="0px" y="0px"
	 viewBox="0 0 30 40" style="enable-background:new 0 0 30 40;" xml:space="preserve">
<style type="text/css">
	.st0{fill:#005EA2;}
	.st1{fill:#FFFFFF;}
</style>
<g>
	<g>
		<path class="st0" d="M15,1.11C7.66,1.11,1.68,7.3,1.68,14.9c0,3.13,2.41,8.31,6.97,14.98c2.54,3.71,5.11,6.93,6.34,8.45
			c1.24-1.51,3.8-4.74,6.34-8.45c4.56-6.67,6.97-11.84,6.97-14.98C28.32,7.3,22.34,1.11,15,1.11z"/>
		<path d="M15,0.11C7.09,0.11,0.68,6.73,0.68,14.9S15,39.89,15,39.89S29.32,23.06,29.32,14.9S22.91,0.11,15,0.11z M1.68,14.9
			C1.68,7.3,7.66,1.11,15,1.11S28.32,7.3,28.32,14.9c0,3.13-2.41,8.31-6.97,14.98c-2.54,3.71-5.11,6.93-6.34,8.45
			c-1.24-1.51-3.8-4.74-6.34-8.45C4.09,23.21,1.68,18.03,1.68,14.9z"/>
	</g>
	<g>
		<path d="M18.82,5.26c-0.18,0-0.33,0.13-0.36,0.3v22.86c0,0.67,0.54,1.22,1.21,1.25h0.03c0.67,0,1.22-0.54,1.22-1.22V18
			c0.95-0.17,1.62-1.01,1.58-1.97V9.06c0.04-2.06-1.6-3.76-3.65-3.8C18.85,5.26,18.84,5.26,18.82,5.26z"/>
		<path class="st1" d="M21.82,16.03c0.06,0.7-0.46,1.31-1.16,1.36c-0.03,0-0.06,0-0.09,0c-0.17,0-0.32,0.13-0.34,0.3v10.77
			c0.02,0.16-0.03,0.31-0.13,0.44c-0.09,0.11-0.24,0.18-0.38,0.17c-0.32-0.02-0.57-0.3-0.54-0.62c0-0.01,0-0.02,0-0.02V5.88
			c1.59,0.15,2.64,1.44,2.64,3.18L21.82,16.03L21.82,16.03L21.82,16.03z"/>
		<path d="M13.3,11.48v-1.09l0,0l-0.12-4.25c0.01-0.24-0.09-0.48-0.26-0.65c-0.15-0.14-0.35-0.22-0.56-0.22
			c-0.45,0.02-0.8,0.41-0.78,0.86c0,0.01,0,0.02,0,0.03L11.5,9.97c0,0.1-0.02,0.15-0.08,0.15c-0.05,0-0.08-0.05-0.08-0.15l0,0
			L11.2,6.15c0.04-0.46-0.31-0.85-0.76-0.89c-0.01,0-0.01,0-0.02,0c-0.22-0.02-0.43,0.06-0.58,0.21C9.67,5.65,9.58,5.89,9.59,6.13
			L9.43,9.98l0,0c0,0.1-0.02,0.15-0.08,0.15c-0.05,0-0.08-0.05-0.08-0.16L9.22,6.16C9.26,5.7,8.92,5.3,8.47,5.26
			c-0.01,0-0.02,0-0.02,0C8.24,5.26,8.04,5.33,7.89,5.48C7.72,5.66,7.63,5.89,7.63,6.13l-0.15,4.25v1.1c0,1.16,0.68,2.2,1.74,2.68
			L9.08,28.32c0,0.73,0.59,1.32,1.31,1.32c0.73,0,1.31-0.59,1.31-1.32l-0.16-14.16C12.62,13.7,13.3,12.64,13.3,11.48z"/>
		<path class="st1" d="M11.18,13.67c-0.12,0.04-0.21,0.16-0.22,0.29l0.13,14.36c0,0.39-0.32,0.71-0.71,0.71
			c-0.39,0-0.71-0.32-0.71-0.71l0,0l0.15-14.38c-0.02-0.14-0.11-0.25-0.24-0.29c-0.93-0.33-1.56-1.2-1.58-2.19v-1.08l0.19-4.25l0,0
			c0-0.09,0.03-0.17,0.09-0.23c0.03-0.03,0.08-0.05,0.12-0.04c0.17,0,0.19,0.24,0.19,0.29l0.08,3.81c-0.05,0.38,0.22,0.72,0.6,0.76
			c0.38,0.04,0.72-0.22,0.76-0.6c0.01-0.05,0.01-0.11,0-0.16l0.15-3.85l0,0c0-0.08,0.03-0.15,0.08-0.21
			c0.03-0.03,0.08-0.05,0.12-0.04c0.17,0,0.18,0.24,0.18,0.29l0,0l0.15,3.81c-0.05,0.38,0.23,0.72,0.6,0.76
			c0.38,0.04,0.72-0.22,0.76-0.6c0.01-0.05,0.01-0.11,0-0.16l0.08-3.81c0-0.05,0-0.28,0.18-0.29c0.05,0,0.09,0.01,0.12,0.04
			c0.05,0.06,0.08,0.14,0.07,0.23h0.02l0.18,4.25v1.08C12.77,12.46,12.13,13.35,11.18,13.67z"/>
	</g>
</g>
</svg>
