<?xml version="1.0" encoding="utf-8"?>
<!-- Generator: Adobe Illustrator 16.0.0, SVG Export Plug-In . SVG Version: 6.00 Build 0)  -->
<!DOCTYPE svg PUBLIC "-//W3C//DTD SVG 1.1//EN" "http://www.w3.org/Graphics/SVG/1.1/DTD/svg11.dtd">
<svg version="1.1" id="Food" xmlns="http://www.w3.org/2000/svg" xmlns:xlink="http://www.w3.org/1999/xlink" x="0px" y="0px"
	 width="36px" height="40px" viewBox="0 0 36 40" enable-background="new 0 0 36 40" xml:space="preserve">
<g>
	<path d="M22.536,5.51c-0.213-0.005-0.396,0.15-0.425,0.36v27.144c0.004,0.801,0.641,1.454,1.44,1.479h0.04
		c0.799,0,1.448-0.646,1.451-1.445V20.63c1.124-0.202,1.928-1.202,1.88-2.343v-8.268c0.048-2.442-1.894-4.46-4.336-4.508
		C22.57,5.51,22.553,5.51,22.536,5.51z M26.09,18.287c0.066,0.828-0.551,1.553-1.378,1.619c-0.036,0.002-0.071,0.004-0.106,0.004
		c-0.207-0.004-0.383,0.154-0.4,0.36v12.782c0.021,0.188-0.037,0.373-0.16,0.517c-0.111,0.135-0.281,0.211-0.457,0.205
		c-0.381-0.023-0.672-0.353-0.648-0.732c0.002-0.01,0.002-0.02,0.004-0.027V6.247c1.886,0.177,3.137,1.714,3.137,3.771v8.268
		L26.09,18.287L26.09,18.287z"/>
	<path d="M15.979,12.887v-1.292l0,0l-0.145-5.051c0.007-0.289-0.104-0.569-0.303-0.777c-0.178-0.172-0.416-0.265-0.663-0.257
		c-0.539,0.026-0.954,0.485-0.929,1.024c0,0.011,0.002,0.022,0.002,0.033l-0.092,4.531c0,0.12-0.026,0.183-0.091,0.183
		c-0.063,0-0.091-0.063-0.091-0.183l0,0l-0.178-4.531c0.042-0.542-0.363-1.014-0.904-1.056c-0.007,0-0.014-0.001-0.021-0.001
		c-0.256-0.019-0.508,0.072-0.69,0.251c-0.201,0.208-0.312,0.488-0.304,0.777l-0.184,4.571l0,0c0,0.12-0.027,0.183-0.091,0.183
		s-0.091-0.063-0.091-0.188l-0.063-4.532c0.045-0.541-0.356-1.016-0.897-1.061c-0.011,0-0.021-0.001-0.028-0.001
		C9.97,5.501,9.731,5.593,9.554,5.767c-0.2,0.208-0.31,0.488-0.303,0.777l-0.177,5.04v1.303c0.002,1.373,0.81,2.616,2.063,3.177
		l-0.164,16.823c0,0.861,0.696,1.561,1.559,1.561c0.861,0,1.561-0.698,1.561-1.561l-0.188-16.811
		C15.168,15.522,15.983,14.269,15.979,12.887z M13.468,15.493c-0.147,0.05-0.25,0.187-0.257,0.343l0.16,17.051
		c0,0.465-0.376,0.84-0.84,0.84c-0.465,0-0.84-0.375-0.84-0.84l0,0l0.183-17.068c-0.019-0.161-0.131-0.296-0.285-0.343
		c-1.104-0.389-1.854-1.423-1.875-2.595v-1.28l0.224-5.04l0,0C9.936,6.459,9.975,6.36,10.046,6.287
		c0.041-0.036,0.095-0.054,0.147-0.051c0.205,0,0.224,0.286,0.224,0.349l0.092,4.52c-0.054,0.448,0.267,0.854,0.716,0.908
		c0.446,0.053,0.854-0.267,0.907-0.715c0.007-0.064,0.007-0.129,0-0.193l0.183-4.572l0,0c0.002-0.09,0.033-0.177,0.092-0.246
		c0.039-0.036,0.09-0.054,0.143-0.051c0.206,0,0.219,0.286,0.219,0.343l0,0l0.183,4.52c-0.054,0.448,0.268,0.854,0.715,0.908
		c0.448,0.053,0.854-0.267,0.908-0.715c0.008-0.064,0.008-0.129,0-0.193l0.092-4.526c0-0.057,0-0.337,0.217-0.343
		c0.054-0.004,0.104,0.015,0.144,0.051c0.062,0.076,0.092,0.172,0.086,0.269h0.027l0.213,5.04v1.28
		C15.346,14.056,14.59,15.109,13.468,15.493z"/>
</g>
</svg>
