<?xml version="1.0" encoding="utf-8"?>
<!-- Generator: Adobe Illustrator 25.1.0, SVG Export Plug-In . SVG Version: 6.00 Build 0)  -->
<svg version="1.1" id="marker" xmlns="http://www.w3.org/2000/svg" xmlns:xlink="http://www.w3.org/1999/xlink" x="0px" y="0px"
	 viewBox="0 0 30 40" style="enable-background:new 0 0 30 40;" xml:space="preserve">
<style type="text/css">
	.st0{fill:#005EA2;}
	.st1{fill:none;}
	.st2{fill:#FFFFFF;}
</style>
<g>
	<g>
		<path class="st0" d="M15,1.11C7.66,1.11,1.68,7.3,1.68,14.9c0,3.13,2.41,8.31,6.97,14.98c2.54,3.71,5.11,6.93,6.34,8.45
			c1.24-1.51,3.8-4.74,6.34-8.45c4.56-6.67,6.97-11.84,6.97-14.98C28.32,7.3,22.34,1.11,15,1.11z"/>
		<path d="M15,0.11C7.09,0.11,0.68,6.73,0.68,14.9S15,39.89,15,39.89S29.32,23.06,29.32,14.9S22.91,0.11,15,0.11z M1.68,14.9
			C1.68,7.3,7.66,1.11,15,1.11S28.32,7.3,28.32,14.9c0,3.13-2.41,8.31-6.97,14.98c-2.54,3.71-5.11,6.93-6.34,8.45
			c-1.24-1.51-3.8-4.74-6.34-8.45C4.09,23.21,1.68,18.03,1.68,14.9z"/>
	</g>
	<g>
		<rect x="13.56" y="18.52" class="st1" width="2.88" height="4.58"/>
		<path d="M24.08,14.58h-2.57V8.75l1.32,0.66c0.04,0.02,0.08,0.03,0.12,0.03c0.1,0,0.19-0.06,0.24-0.15
			c0.03-0.06,0.04-0.13,0.01-0.2c-0.02-0.07-0.07-0.12-0.13-0.15l-7.94-3.97C15.08,4.95,15.04,4.94,15,4.94
			c-0.04,0-0.08,0.01-0.12,0.03L6.94,8.94C6.88,8.97,6.83,9.02,6.81,9.09c-0.02,0.07-0.02,0.14,0.01,0.2
			c0.05,0.09,0.14,0.15,0.24,0.15c0.04,0,0.08-0.01,0.12-0.03l1.32-0.66v5.83H5.92c-0.15,0-0.26,0.12-0.26,0.26v8.51
			c0,0.15,0.12,0.26,0.26,0.26h18.16c0.15,0,0.26-0.12,0.26-0.26v-8.51C24.34,14.7,24.22,14.58,24.08,14.58z M9.02,8.49L15,5.5
			l5.98,2.99v6.1H9.02V8.49z M16.44,23.1h-2.88v-4.58h2.88V23.1z M23.81,23.1h-6.85v-4.84c0-0.14-0.12-0.26-0.26-0.26h-3.4
			c-0.15,0-0.26,0.12-0.26,0.26v4.84H6.19v-7.98h17.63V23.1z"/>
		<path class="st2" d="M6.19,23.1h6.85v-4.84c0-0.14,0.12-0.26,0.26-0.26h3.4c0.14,0,0.26,0.12,0.26,0.26v4.84h6.85v-7.98H6.19V23.1
			z M18.71,17.69c0-0.14,0.12-0.26,0.26-0.26h2.84c0.15,0,0.26,0.12,0.26,0.26v3.12c0,0.14-0.12,0.26-0.26,0.26h-2.84
			c-0.14,0-0.26-0.12-0.26-0.26V17.69z M7.93,17.69c0-0.14,0.12-0.26,0.26-0.26h2.84c0.14,0,0.26,0.12,0.26,0.26v3.12
			c0,0.14-0.12,0.26-0.26,0.26H8.19c-0.15,0-0.26-0.12-0.26-0.26V17.69z"/>
		<path class="st2" d="M20.98,8.49L15,5.5L9.02,8.49v6.1h11.96V8.49z M14.13,12.86c0,0.15-0.12,0.26-0.26,0.26h-2.84
			c-0.15,0-0.26-0.12-0.26-0.26V9.74c0-0.15,0.12-0.26,0.26-0.26h2.84c0.14,0,0.26,0.12,0.26,0.26V12.86z M19.23,12.86
			c0,0.15-0.12,0.26-0.26,0.26h-2.84c-0.14,0-0.26-0.12-0.26-0.26V9.74c0-0.15,0.12-0.26,0.26-0.26h2.84c0.15,0,0.26,0.12,0.26,0.26
			V12.86z"/>
		<path d="M18.97,21.07h2.84c0.15,0,0.26-0.12,0.26-0.26v-3.12c0-0.15-0.12-0.26-0.26-0.26h-2.84c-0.15,0-0.26,0.12-0.26,0.26v3.12
			C18.71,20.95,18.83,21.07,18.97,21.07z M19.23,17.95h2.31v2.59h-2.31V17.95z"/>
		<path d="M8.19,21.07h2.84c0.15,0,0.26-0.12,0.26-0.26v-3.12c0-0.15-0.12-0.26-0.26-0.26H8.19c-0.15,0-0.26,0.12-0.26,0.26v3.12
			C7.93,20.95,8.05,21.07,8.19,21.07z M8.45,17.95h2.31v2.59H8.45V17.95z"/>
		<path d="M13.86,9.48h-2.84c-0.15,0-0.26,0.12-0.26,0.26v3.12c0,0.15,0.12,0.26,0.26,0.26h2.84c0.15,0,0.26-0.12,0.26-0.26V9.74
			C14.13,9.6,14.01,9.48,13.86,9.48z M13.6,12.6h-2.31v-2.59h2.31V12.6z"/>
		<path d="M18.97,9.48h-2.84c-0.15,0-0.26,0.12-0.26,0.26v3.12c0,0.15,0.12,0.26,0.26,0.26h2.84c0.15,0,0.26-0.12,0.26-0.26V9.74
			C19.23,9.6,19.12,9.48,18.97,9.48z M18.71,12.6H16.4v-2.59h2.31V12.6z"/>
	</g>
</g>
</svg>
