<?xml version="1.0" encoding="utf-8"?>
<!-- Generator: Adobe Illustrator 16.0.0, SVG Export Plug-In . SVG Version: 6.00 Build 0)  -->
<!DOCTYPE svg PUBLIC "-//W3C//DTD SVG 1.1//EN" "http://www.w3.org/Graphics/SVG/1.1/DTD/svg11.dtd">
<svg version="1.1" id="Housing" xmlns="http://www.w3.org/2000/svg" xmlns:xlink="http://www.w3.org/1999/xlink" x="0px" y="0px"
	 width="36px" height="40px" viewBox="0 0 36 40" enable-background="new 0 0 36 40" xml:space="preserve">
<rect x="15.612" y="27.025" fill="none" width="4.773" height="7.596"/>
<path d="M33.061,20.503h-4.269v-9.679l2.19,1.096c0.061,0.03,0.127,0.046,0.193,0.046c0.167,0,0.318-0.093,0.393-0.242
	c0.051-0.104,0.06-0.223,0.022-0.333c-0.034-0.111-0.114-0.201-0.219-0.253L18.194,4.55C18.136,4.52,18.067,4.503,18,4.503
	S17.867,4.52,17.806,4.55L4.629,11.138C4.523,11.19,4.445,11.28,4.41,11.391c-0.039,0.11-0.03,0.229,0.023,0.333
	c0.076,0.149,0.225,0.242,0.392,0.242c0.067,0,0.131-0.016,0.194-0.046l2.19-1.096v9.679H2.94c-0.242,0-0.438,0.198-0.438,0.438
	v14.117c0,0.242,0.197,0.438,0.438,0.438h30.121c0.242,0,0.438-0.196,0.438-0.438V20.941C33.499,20.698,33.302,20.503,33.061,20.503
	z M8.083,10.389l9.916-4.957l9.916,4.957v10.115H8.083V10.389z M20.385,34.621h-4.773v-7.596h4.773V34.621z M32.62,34.621H21.26
	v-8.033c0-0.24-0.197-0.438-0.437-0.438h-5.648c-0.241,0-0.438,0.197-0.438,0.438v8.033H3.378V21.379H32.62V34.621z"/>
<path fill="#FFFFFF" d="M3.378,34.621h11.359v-8.033c0-0.24,0.197-0.438,0.438-0.438h5.648c0.239,0,0.437,0.197,0.437,0.438v8.033
	h11.36V21.379H3.378V34.621z M24.148,25.646c0-0.24,0.195-0.437,0.438-0.437h4.706c0.241,0,0.438,0.192,0.438,0.437v5.178
	c0,0.24-0.195,0.438-0.438,0.438h-4.706c-0.239,0-0.438-0.197-0.438-0.438V25.646z M6.267,25.646c0-0.24,0.196-0.437,0.438-0.437
	h4.706c0.24,0,0.438,0.192,0.438,0.437v5.178c0,0.24-0.195,0.438-0.438,0.438H6.705c-0.241,0-0.438-0.197-0.438-0.438V25.646z"/>
<path fill="#FFFFFF" d="M27.915,10.389l-9.916-4.957l-9.916,4.957v10.115h19.832V10.389z M16.554,17.646
	c0,0.241-0.195,0.438-0.438,0.438h-4.705c-0.241,0-0.438-0.196-0.438-0.438V12.47c0-0.241,0.195-0.438,0.438-0.438h4.705
	c0.24,0,0.438,0.196,0.438,0.438V17.646z M25.025,17.646c0,0.241-0.195,0.438-0.438,0.438h-4.705c-0.239,0-0.438-0.196-0.438-0.438
	V12.47c0-0.241,0.195-0.438,0.438-0.438h4.705c0.241,0,0.438,0.196,0.438,0.438V17.646z"/>
<path d="M24.587,31.262h4.706c0.242,0,0.438-0.197,0.438-0.438v-5.178c0-0.244-0.196-0.437-0.438-0.437h-4.706
	c-0.243,0-0.438,0.196-0.438,0.437v5.178C24.148,31.064,24.348,31.262,24.587,31.262z M25.023,26.084h3.832v4.303h-3.832V26.084z"/>
<path d="M6.705,31.262h4.706c0.243,0,0.438-0.197,0.438-0.438v-5.178c0-0.244-0.198-0.437-0.438-0.437H6.705
	c-0.242,0-0.438,0.196-0.438,0.437v5.178C6.267,31.064,6.464,31.262,6.705,31.262z M7.142,26.084h3.832v4.303H7.142V26.084z"/>
<path d="M16.116,12.032h-4.705c-0.243,0-0.438,0.197-0.438,0.438v5.176c0,0.242,0.197,0.438,0.438,0.438h4.705
	c0.243,0,0.438-0.197,0.438-0.438V12.47C16.554,12.228,16.356,12.032,16.116,12.032z M15.679,17.21h-3.83v-4.302h3.83V17.21z"/>
<path d="M24.587,12.032h-4.705c-0.243,0-0.438,0.197-0.438,0.438v5.176c0,0.242,0.199,0.438,0.438,0.438h4.705
	c0.243,0,0.438-0.197,0.438-0.438V12.47C25.025,12.228,24.828,12.032,24.587,12.032z M24.148,17.21h-3.83v-4.302h3.83V17.21z"/>
</svg>
