<?xml version="1.0" encoding="utf-8"?>
<!-- Generator: Adobe Illustrator 16.0.0, SVG Export Plug-In . SVG Version: 6.00 Build 0)  -->
<!DOCTYPE svg PUBLIC "-//W3C//DTD SVG 1.1//EN" "http://www.w3.org/Graphics/SVG/1.1/DTD/svg11.dtd">
<svg version="1.1" id="Housing" xmlns="http://www.w3.org/2000/svg" xmlns:xlink="http://www.w3.org/1999/xlink" x="0px" y="0px"
	 width="36px" height="40px" viewBox="0 0 36 40" enable-background="new 0 0 36 40" xml:space="preserve">
<path d="M2.94,35.496c-0.241,0-0.438-0.195-0.438-0.438V20.941c0-0.24,0.196-0.438,0.438-0.438h4.269v-9.679l-2.19,1.096
	c-0.063,0.03-0.127,0.046-0.194,0.046c-0.167,0-0.316-0.093-0.392-0.242c-0.053-0.104-0.062-0.223-0.023-0.333
	c0.035-0.111,0.113-0.201,0.219-0.253L17.806,4.55c0.061-0.03,0.127-0.047,0.194-0.047s0.136,0.017,0.194,0.047l13.178,6.588
	c0.104,0.052,0.184,0.142,0.219,0.253c0.037,0.11,0.028,0.229-0.023,0.333c-0.074,0.149-0.225,0.242-0.392,0.242
	c-0.067,0-0.133-0.016-0.194-0.046l-2.19-1.096v9.679h4.269c0.241,0,0.438,0.195,0.438,0.438v14.117
	c0,0.242-0.196,0.438-0.438,0.438H2.94z M20.823,26.15c0.24,0,0.437,0.197,0.437,0.438v8.033h11.36V21.379H3.378v13.242h11.359
	v-8.033c0-0.24,0.197-0.438,0.438-0.438H20.823z M15.612,34.621h4.773v-7.596h-4.773V34.621z M8.083,10.389v10.115h19.832V10.389
	l-9.916-4.957L8.083,10.389z M24.587,31.262c-0.24,0-0.438-0.197-0.438-0.438v-5.178c0-0.24,0.195-0.436,0.438-0.436h4.706
	c0.241,0,0.438,0.193,0.438,0.436v5.178c0,0.24-0.196,0.438-0.438,0.438H24.587z M25.024,30.387h3.832v-4.303h-3.832V30.387z
	 M6.705,31.262c-0.241,0-0.438-0.197-0.438-0.438v-5.178c0-0.24,0.196-0.436,0.438-0.436h4.706c0.24,0,0.438,0.193,0.438,0.436
	v5.178c0,0.24-0.195,0.438-0.438,0.438H6.705z M7.142,30.387h3.832v-4.303H7.142V30.387z M19.882,18.084
	c-0.24,0-0.438-0.196-0.438-0.438v-5.176c0-0.241,0.195-0.438,0.438-0.438h4.705c0.241,0,0.438,0.196,0.438,0.438v5.176
	c0,0.241-0.195,0.438-0.438,0.438H19.882z M20.319,17.21h3.83v-4.302h-3.83V17.21z M11.411,18.084c-0.241,0-0.438-0.196-0.438-0.438
	v-5.176c0-0.241,0.195-0.438,0.438-0.438h4.705c0.24,0,0.438,0.196,0.438,0.438v5.176c0,0.241-0.195,0.438-0.438,0.438H11.411z
	 M11.849,17.21h3.83v-4.302h-3.83V17.21z"/>
</svg>
