<?xml version="1.0" encoding="utf-8"?>
<!-- Generator: Adobe Illustrator 25.1.0, SVG Export Plug-In . SVG Version: 6.00 Build 0)  -->
<svg version="1.1" id="marker" xmlns="http://www.w3.org/2000/svg" xmlns:xlink="http://www.w3.org/1999/xlink" x="0px" y="0px"
	 viewBox="0 0 30 40" style="enable-background:new 0 0 30 40;" xml:space="preserve">
<style type="text/css">
	.st0{fill:#005EA2;}
	.st1{fill:#FFFFFF;}
</style>
<g>
	<g>
		<path class="st0" d="M15,1.11C7.66,1.11,1.68,7.3,1.68,14.9c0,3.13,2.41,8.31,6.97,14.98c2.54,3.71,5.11,6.93,6.34,8.45
			c1.24-1.51,3.8-4.74,6.34-8.45c4.56-6.67,6.97-11.84,6.97-14.98C28.32,7.3,22.34,1.11,15,1.11z"/>
		<path d="M15,0.11C7.09,0.11,0.68,6.73,0.68,14.9S15,39.89,15,39.89S29.32,23.06,29.32,14.9S22.91,0.11,15,0.11z M1.68,14.9
			C1.68,7.3,7.66,1.11,15,1.11S28.32,7.3,28.32,14.9c0,3.13-2.41,8.31-6.97,14.98c-2.54,3.71-5.11,6.93-6.34,8.45
			c-1.24-1.51-3.8-4.74-6.34-8.45C4.09,23.21,1.68,18.03,1.68,14.9z"/>
	</g>
	<g>
		<path d="M11.02,27.47c-0.26,0-0.48-0.21-0.48-0.47v-0.92c0-0.26,0.21-0.47,0.48-0.47h0.72L13,24.35v-1.03
			c0-0.26,0.21-0.48,0.47-0.48h0.44V9.74H7.37l3.1,7.61l0.07,0.02c0.2,0.06,0.35,0.24,0.35,0.45v0.92c0,0.26-0.21,0.47-0.47,0.47
			h-0.06l-0.09,0.04L9.22,20.3c-0.09,0.09-0.21,0.14-0.34,0.14H4.91c-0.12,0-0.25-0.05-0.34-0.14l-1.08-1.08H3.44
			c-0.31,0-0.53-0.21-0.53-0.47v-0.92c0-0.21,0.14-0.4,0.34-0.45l0.06-0.02l3.1-7.61H4.91c-0.26,0-0.47-0.21-0.47-0.47V8.65
			c0-0.24,0.18-0.44,0.41-0.47l8.81-1.17l0.03-0.04c0.32-0.4,0.8-0.62,1.3-0.62c0.51,0,0.98,0.23,1.31,0.62l0.03,0.04l8.81,1.17
			c0.23,0.03,0.41,0.23,0.41,0.47v0.61c0,0.26-0.21,0.47-0.47,0.47h-1.51l3.1,7.61l0.06,0.02c0.21,0.06,0.35,0.24,0.35,0.45v0.92
			c0,0.26-0.21,0.47-0.47,0.47h-0.06l-0.09,0.04l-1.04,1.04c-0.09,0.09-0.21,0.14-0.34,0.14h-3.97c-0.12,0-0.25-0.05-0.34-0.14
			l-1.08-1.08h-0.06c-0.31,0-0.53-0.21-0.53-0.47v-0.92c0-0.21,0.14-0.4,0.35-0.45l0.07-0.02l3.1-7.61h-6.54v13.12h0.44
			c0.26,0,0.48,0.21,0.48,0.48v1.03l1.25,1.25h0.72c0.26,0,0.47,0.21,0.47,0.47V27c0,0.26-0.21,0.47-0.47,0.47L11.02,27.47
			L11.02,27.47z M20.21,17.35h5.77l-2.89-7.08L20.21,17.35z M4.01,17.35h5.77L6.9,10.27L4.01,17.35z"/>
		<polygon class="st1" points="13.5,24.75 12.28,25.98 11.19,26.28 11.19,26.83 18.8,26.83 18.8,26.28 17.66,25.95 16.46,24.72 
			16.34,24.49 16.36,23.49 13.64,23.49 13.64,24.55 13.56,24.7 13.55,24.7 		"/>
		<path class="st1" d="M14.55,22.83h0.89V9.37L15.28,9.4C15.19,9.42,15.09,9.43,15,9.43c-0.09,0-0.19-0.01-0.28-0.03l-0.17-0.03
			L14.55,22.83L14.55,22.83z"/>
		<polygon class="st1" points="19.75,18.51 20.24,18.85 21.18,19.79 25.02,19.79 25.98,18.84 26.45,18.5 26.45,17.99 19.75,17.99 
			19.75,18.51 		"/>
		<polygon class="st1" points="3.55,18.51 4.04,18.85 4.98,19.79 8.82,19.79 9.77,18.84 10.25,18.5 10.25,17.99 3.55,17.99 		"/>
		<path class="st1" d="M16.37,7.84c0.01,0.07,0.02,0.13,0.02,0.2c0,0.3-0.1,0.59-0.29,0.83l-0.17,0.22h8.98V8.84L24.8,8.78
			l-8.46-1.13L16.37,7.84z"/>
		<circle class="st1" cx="15" cy="8.04" r="1.06"/>
		<path class="st1" d="M5.08,8.8v0.26l0.14,0.04h8.84l-0.17-0.22c-0.19-0.25-0.29-0.54-0.29-0.83c0-0.07,0.01-0.14,0.02-0.21
			l0.03-0.18L5.08,8.8z"/>
	</g>
</g>
</svg>
