<?xml version="1.0" encoding="utf-8"?>
<!-- Generator: Adobe Illustrator 25.2.1, SVG Export Plug-In . SVG Version: 6.00 Build 0)  -->
<svg version="1.1" id="Layer_1" xmlns="http://www.w3.org/2000/svg" xmlns:xlink="http://www.w3.org/1999/xlink" x="0px" y="0px"
	 width="150px" height="200px" viewBox="0 0 150 200" enable-background="new 0 0 150 200" xml:space="preserve">
<g>
	<path d="M123.6,91.7c-3.5-3.5-7.8-6.1-11.9-9c-1.5-1.1-2.9-1.8-3-4.1c-0.5-7.5-4-13.7-9-19C89.7,49.4,77.3,45,64.8,44.8
		C50,44.9,38.2,48.7,28.3,57.6c-13.6,12.2-15.4,31.6-3.3,45.6c1.8,2.1,2.5,4.2,2.4,6.8c-0.1,3-0.1,6,0.1,9c0.3,3.9,2.2,5,5.7,3.4
		c1.1-0.5,2.1-1.1,3.1-1.6c4.5-2.4,4.6-2.4,6.1,2.3c2.3,7.3,6.6,13.1,12.5,17.7c11.6,8.9,24.8,11.7,39.1,10.2c3.9-0.4,8-2.5,11.7-2
		c3.7,0.6,7.1,3.5,10.6,5.3c3.7,1.8,5.7,0.7,6-3.4c0.2-2.8,0.2-5.7,0.1-8.5c-0.2-3,0.8-5.3,2.8-7.6
		C136.2,121.7,135.6,103.9,123.6,91.7z M37.8,112.8c-0.7,0.5-1.5,0.8-2.2,1.2c-1.2,0.6-1.7,0.4-1.9-1.1c-0.8-6.9-2.4-11.1-6.1-16.8
		c-7.4-11.4-5.1-25.6,5.6-34.6c8.5-7.2,18.5-10.2,29.5-10.4c8.9-0.2,17.2,2,24.8,6.6c20,11.9,20.2,36,0.5,48.4
		c-11.7,7.3-24.4,8.8-37.5,5.3C45.7,110.1,41.8,109.9,37.8,112.8z M119.9,131.4c-3.1,3.2-4.1,6.6-3.7,10.8c0.1,1,0,2,0,3
		c-0.1,1.4-0.8,1.9-1.9,1c-5.5-4.5-11.3-3.2-17.7-1.9c-13.5,2.6-26.5,0.6-37.9-8.1c-5.2-4-8.8-9-10.7-15.3c-0.8-2.7-0.4-3.2,2.5-2.7
		c9.1,1.8,18.2,1.7,27.2-0.8c0.6-0.2,1.4-0.2,1.9-0.5c5.5-3,11.5-2.9,17.5-2.7c1.7,0,3.3,0,5-0.2c1.7-0.3,2.8-1.6,2.4-3.2
		c-0.3-1-1.5-2-2.5-2.7c-1.3-0.9-3.9,1-4.3-1.3c-0.2-1,2.3-2.3,3.1-3.7c2.4-4,4.7-8,6.7-12.2c1-2.1,1.6-2.5,3.5-1.3
		c9.3,5.8,15.6,13.4,15.7,27.7C126.8,121.3,124.2,126.9,119.9,131.4z"/>
	<path fill="#FFFFFF" d="M87.9,106.1c19.8-12.3,19.5-36.4-0.5-48.4c-7.6-4.6-15.9-6.7-24.8-6.6c-11,0.1-21,3.1-29.5,10.4
		c-10.7,9-12.9,23.2-5.6,34.6c3.7,5.8,5.3,9.9,6.1,16.8c0.2,1.5,0.7,1.7,1.9,1.1c0.7-0.4,1.5-0.7,2.2-1.2c4-3,7.9-2.7,12.6-1.4
		C63.5,114.9,76.2,113.4,87.9,106.1z M35.9,73.5c0.2-1.2,1.5-2.3,2.6-3.1c0.7-0.5,1.9-0.2,2.9-0.2c10.6,0,21.2,0,31.9,0
		c1,0,2,0,3,0.2c1.8,0.4,3.3,1.6,2.8,3.4c-0.3,1.1-1.9,2.4-3.1,2.5c-3.6,0.3-7.3,0.2-10.9,0.2c-2.5,0-5,0-7.5,0
		c-5.3,0-10.6,0-15.9,0c-1,0-2,0-3-0.1C37,76.1,35.6,75,35.9,73.5z M41.9,92.1c-0.9-0.4-1.9-1.6-2-2.5c-0.1-0.9,0.8-2.2,1.6-2.7
		c1.1-0.6,2.5-0.7,3.8-0.7c8.1-0.1,16.2,0,24.4,0c0.5,0,1,0,1.5,0c2.6,0.3,4.3,1.7,4,3.5c-0.4,2.2-2.1,2.7-4.1,2.7
		c-4.6,0-9.3,0-13.9,0c0,0,0,0,0,0c-4,0-8,0-11.9,0C44.2,92.4,42.9,92.6,41.9,92.1z"/>
	<path fill="#FFFFFF" d="M110.9,89.8c-2-1.2-2.6-0.8-3.5,1.3c-1.9,4.2-4.3,8.2-6.7,12.2c-0.8,1.4-3.3,2.7-3.1,3.7
		c0.4,2.2,3,0.4,4.3,1.3c1,0.7,2.2,1.6,2.5,2.7c0.4,1.6-0.7,2.9-2.4,3.2c-1.6,0.3-3.3,0.3-5,0.2c-6-0.1-12-0.3-17.5,2.7
		c-0.6,0.3-1.3,0.3-1.9,0.5c-9,2.5-18.1,2.6-27.2,0.8c-2.9-0.6-3.3-0.1-2.5,2.7c1.9,6.3,5.5,11.3,10.7,15.3
		c11.4,8.7,24.4,10.7,37.9,8.1c6.5-1.3,12.2-2.6,17.7,1.9c1.1,0.9,1.8,0.3,1.9-1c0-1,0.1-2,0-3c-0.4-4.2,0.6-7.5,3.7-10.8
		c4.3-4.5,6.9-10.2,6.8-14C126.5,103.1,120.3,95.5,110.9,89.8z M106,130c-0.3,1.1-2,2.2-3.2,2.4c-2.3,0.4-4.6,0.1-6.9,0.2
		c-2.7,0-5.3,0-8,0c-4,0-8,0-11.9,0c-1,0-2.1,0.2-2.9-0.2c-0.9-0.4-2.3-1.4-2.3-2.2c0-1.1,0.9-2.4,1.7-3.2c0.6-0.6,1.9-0.6,2.8-0.6
		c8.6,0,17.2,0,25.9,0c0.7,0,1.3,0.1,2,0.3C104.9,127.1,106.6,128,106,130z"/>
	<path d="M57.6,76.4c2.5,0,5,0,7.5,0c3.7,0,7.3,0.2,10.9-0.2c1.1-0.1,2.8-1.4,3.1-2.5c0.5-1.8-1-3-2.8-3.4c-1-0.2-2-0.2-3-0.2
		c-10.6,0-21.2,0-31.9,0c-1,0-2.2-0.2-2.9,0.2c-1.1,0.8-2.4,1.9-2.6,3.1c-0.3,1.6,1.1,2.7,2.8,2.9c1,0.1,2,0.1,3,0.1
		C47,76.4,52.3,76.4,57.6,76.4z"/>
	<path d="M57.3,92.4C57.3,92.4,57.3,92.4,57.3,92.4c4.6,0,9.3,0,13.9,0c2,0,3.7-0.5,4.1-2.7c0.3-1.7-1.5-3.2-4-3.5
		c-0.5-0.1-1,0-1.5,0c-8.1,0-16.2,0-24.4,0c-1.3,0-2.7,0.1-3.8,0.7c-0.8,0.5-1.7,1.8-1.6,2.7c0.1,0.9,1.1,2,2,2.5
		c1,0.5,2.3,0.3,3.4,0.3C49.3,92.5,53.3,92.4,57.3,92.4z"/>
	<path d="M103.2,126.6c-0.6-0.2-1.3-0.3-2-0.3c-8.6,0-17.2,0-25.9,0c-1,0-2.2,0.1-2.8,0.6c-0.9,0.8-1.7,2.1-1.7,3.2
		c0,0.7,1.3,1.7,2.3,2.2c0.8,0.4,1.9,0.2,2.9,0.2c4,0,8,0,11.9,0c2.7,0,5.3,0,8,0c2.3,0,4.7,0.2,6.9-0.2c1.2-0.2,2.9-1.3,3.2-2.4
		C106.6,128,104.9,127.1,103.2,126.6z"/>
</g>
</svg>
