<?xml version="1.0" encoding="utf-8"?>
<!-- Generator: Adobe Illustrator 16.0.0, SVG Export Plug-In . SVG Version: 6.00 Build 0)  -->
<!DOCTYPE svg PUBLIC "-//W3C//DTD SVG 1.1//EN" "http://www.w3.org/Graphics/SVG/1.1/DTD/svg11.dtd">
<svg version="1.1" id="Legal" xmlns="http://www.w3.org/2000/svg" xmlns:xlink="http://www.w3.org/1999/xlink" x="0px" y="0px"
	 width="36px" height="40px" viewBox="0 0 36 40" enable-background="new 0 0 36 40" xml:space="preserve">
<path d="M12.805,33.807c-0.343,0-0.621-0.277-0.621-0.619v-1.199c0-0.342,0.278-0.619,0.621-0.619h0.941l1.635-1.635v-1.34
	c0-0.344,0.278-0.621,0.62-0.621h0.579V10.629H8.032l4.055,9.953l0.086,0.023c0.266,0.074,0.451,0.317,0.451,0.593v1.198
	c0,0.343-0.277,0.619-0.618,0.619h-0.073l-0.123,0.055l-1.362,1.365c-0.117,0.113-0.276,0.182-0.439,0.182H4.813
	c-0.162,0-0.321-0.067-0.438-0.184l-1.417-1.418H2.885c-0.41,0-0.688-0.276-0.688-0.619v-1.198c0-0.274,0.186-0.519,0.45-0.593
	l0.084-0.023l4.057-9.953H4.813c-0.342,0-0.619-0.276-0.619-0.619V9.211c0-0.31,0.23-0.572,0.537-0.613l11.518-1.535l0.045-0.056
	c0.423-0.517,1.044-0.813,1.705-0.813c0.662,0,1.283,0.297,1.707,0.813l0.045,0.056l11.518,1.535
	c0.307,0.041,0.537,0.305,0.537,0.613v0.799c0,0.343-0.277,0.619-0.619,0.619h-1.975l4.057,9.953l0.084,0.024
	c0.268,0.074,0.451,0.316,0.451,0.592v1.199c0,0.342-0.277,0.619-0.619,0.619h-0.074l-0.121,0.053l-1.363,1.365
	c-0.117,0.114-0.275,0.183-0.439,0.183h-5.193c-0.162,0-0.324-0.067-0.439-0.185l-1.416-1.416h-0.074
	c-0.41,0-0.688-0.277-0.688-0.619v-1.199c0-0.274,0.186-0.518,0.451-0.592l0.086-0.024l4.055-9.953h-8.549v17.144h0.58
	c0.342,0,0.621,0.278,0.621,0.621v1.34l1.633,1.636h0.943c0.342,0,0.619,0.276,0.619,0.618v1.201c0,0.34-0.277,0.619-0.619,0.619
	H12.805L12.805,33.807z M16.045,30.256l-1.605,1.604l-1.416,0.394v0.715h9.949v-0.715l-1.492-0.437l-1.572-1.604l-0.15-0.302
	l0.018-1.299h-3.552v1.38l-0.111,0.196h-0.008L16.045,30.256z M17.419,27.75h1.159V10.148l-0.214,0.044
	c-0.119,0.023-0.24,0.037-0.365,0.037c-0.124,0-0.246-0.014-0.363-0.037l-0.216-0.044V27.75L17.419,27.75z M24.213,22.092
	l0.641,0.452l1.229,1.231h5.012l1.252-1.252l0.617-0.433v-0.674h-8.75V22.092z M3.034,22.092l0.642,0.452l1.228,1.231h5.013
	l1.253-1.252l0.617-0.433v-0.674H3.035L3.034,22.092L3.034,22.092z M24.816,20.579h7.543l-3.771-9.258L24.816,20.579z M3.637,20.579
	h7.545L7.41,11.321L3.637,20.579z M19.789,8.146c0.014,0.087,0.027,0.174,0.027,0.267c0,0.391-0.131,0.769-0.375,1.09L19.225,9.79
	h11.74V9.453l-0.156-0.07L19.754,7.909L19.789,8.146z M17.999,7.032c-0.76,0-1.378,0.619-1.378,1.38c0,0.76,0.618,1.378,1.378,1.378
	c0.759,0,1.378-0.618,1.378-1.378C19.377,7.651,18.758,7.032,17.999,7.032z M5.031,9.403V9.74l0.181,0.05h11.561l-0.217-0.288
	c-0.244-0.321-0.375-0.7-0.375-1.09c0-0.093,0.016-0.18,0.028-0.268l0.035-0.236L5.031,9.403z"/>
</svg>
