<?xml version="1.0" encoding="utf-8"?>
<!-- Generator: Adobe Illustrator 25.2.3, SVG Export Plug-In . SVG Version: 6.00 Build 0)  -->
<svg version="1.1" id="Layer_1_copy" xmlns="http://www.w3.org/2000/svg" xmlns:xlink="http://www.w3.org/1999/xlink" x="0px"
	 y="0px" width="36px" height="40px" viewBox="0 0 36 40" style="enable-background:new 0 0 36 40;" xml:space="preserve">
<style type="text/css">
	.st0{fill:none;}
	.st1{fill:#FFFFFF;}
</style>
<g>
	<path class="st0" d="M17.9,14.6C17.9,14.6,17.9,14.6,17.9,14.6c0.8,0,1.3-0.4,1.4-1.2C19.2,12.1,18.5,12,18,12h0
		c-0.8,0-1.3,0.5-1.4,1.3C16.6,14,17.1,14.6,17.9,14.6z"/>
	<g>
		<path class="st1" d="M27.5,29.6c-0.1-0.2-0.2-0.4-0.3-0.6c-0.4-1.3-0.9-2.9-1.5-4.5c-0.1-0.3-0.2-0.5-0.2-0.7
			c-0.3-1.1-0.5-1.4-2.1-1.4c-0.2,0-0.8,0-0.8,0c-0.3,0-0.6,0-0.7-0.2c-0.1-0.1-0.1-0.3-0.1-0.5c0.1-0.1,0.2-0.1,0.3-0.2h-0.9
			c-0.4,0.6-0.7,1.4-1,2.1c-0.1,0.3-0.3,0.7-0.4,1c-0.4,1-1,1.4-1.9,1.4h0c-0.9,0-1.4-0.4-1.8-1.4c-0.4-1-0.8-2-1.2-3l0-0.1h-1.1
			c0.2,0.2,0.2,0.4,0.2,0.6c0,0.1,0,0.2-0.4,0.2c-0.1,0-0.2,0-0.3,0c-0.1,0-0.3,0-0.4,0c-0.1,0-0.2,0-0.3,0c-0.1,0-0.2,0-0.4,0
			c-1.2,0-1.6,0.9-1.8,1.5c-0.7,2.3-1.5,4.6-2.1,6.4c-0.2,0.5-0.3,1.1,0.1,1.4c0.1,0.1,0.2,0.2,0.4,0.2c0.2,0,0.4,0.1,0.7,0.1
			c1.7,0,3.4,0,5.1,0c1.3,0,6.2,0,6.2,0c0.4,0,1,0,1.5,0.1c0.2,0,0.4,0.1,0.4,0.4c0,0.2-0.1,0.3-0.2,0.4c0,0,0,0,0,0h3.1
			c-0.2-0.1-0.3-0.2-0.3-0.3c0-0.2,0.1-0.3,0.5-0.5c0.1,0,0.2,0,0.3,0c0.1,0,0.2,0,0.4,0c0.1,0,0.3,0,0.4,0c0.2,0,0.7,0,0.9-0.6
			C28,30.8,27.7,30.2,27.5,29.6z"/>
		<path class="st1" d="M16.1,21.7l0.8,2c0,0.1,0.1,0.1,0.1,0.2c0.1,0.4,0.3,1,1,1h0c0.7,0,0.9-0.6,1-1l0.1-0.2l1.2-3.1
			c0.7-1.8,1.5-3.7,2.2-5.5c0.3-0.8,0.4-1.5,0.4-2.2c0-1.8-0.6-3.1-2-4C20,8.3,19,8,18,8c-1.1,0-2.2,0.4-3.2,1.1
			c-1.7,1.3-2.2,3.5-1.3,5.8C14.3,17.2,15.2,19.5,16.1,21.7z M18,10.8c1.3,0,2.5,1.3,2.5,2.5c0,1.3-1.2,2.5-2.5,2.5h0
			c-0.6,0-1.3-0.3-1.8-0.8c-0.5-0.5-0.8-1.2-0.7-1.8C15.5,11.9,16.7,10.8,18,10.8z"/>
	</g>
	<g>
		<path d="M22.2,32c-0.5-0.1-1-0.1-1.5-0.1c0,0-5,0-6.2,0c-1.7,0-3.4,0-5.1,0c-0.3,0-0.5,0-0.7-0.1c-0.1,0-0.3-0.1-0.4-0.2
			c-0.4-0.4-0.3-0.9-0.1-1.4c0.6-1.7,1.4-4,2.1-6.4c0.2-0.7,0.6-1.5,1.8-1.5c0.1,0,0.2,0,0.4,0c0.1,0,0.2,0,0.3,0c0.1,0,0.3,0,0.4,0
			c0.1,0,0.2,0,0.3,0c0.4,0,0.4,0,0.4-0.2c0-0.3,0-0.5-0.2-0.6c-0.1-0.1-0.1-0.1-0.2-0.2c-0.1,0-0.1-0.1-0.2-0.1l-0.1,0
			c-0.3-0.1-0.6-0.2-0.9-0.2c-1.2,0-2.4,0.8-2.8,1.8c-0.8,2.4-1.6,4.9-2.4,7.3l-0.1,0.2c-0.3,1-0.4,1.7-0.1,2
			C7.3,32.8,7.9,33,8.9,33c0.8,0,1.5,0,2.3,0c0.6,0,3,0,3.6,0l5.9,0c0.5,0,1.1,0,1.6-0.2c0,0,0.1,0,0.1-0.1c0,0,0,0,0,0
			c0.2-0.1,0.2-0.2,0.2-0.4C22.6,32.1,22.4,32,22.2,32z"/>
		<path d="M29,31.1c-0.7-2.1-1.4-4.2-2-6.2l-0.8-2.4c-0.2-0.6-0.5-1-1-1l-0.2,0c-0.5-0.1-1-0.2-1.5-0.2c-0.6,0-1,0.1-1.4,0.4
			c-0.1,0.1-0.2,0.1-0.3,0.2c0,0.2,0,0.4,0.1,0.5c0.1,0.2,0.5,0.2,0.7,0.2c0,0,0.6,0,0.8,0c1.6,0,1.7,0.3,2.1,1.4
			c0.1,0.2,0.1,0.4,0.2,0.7c0.6,1.6,1.1,3.2,1.5,4.5c0.1,0.2,0.2,0.4,0.3,0.6c0.3,0.6,0.5,1.2,0.3,1.8C27.6,32,27,32,26.8,32
			c-0.1,0-0.3,0-0.4,0c-0.1,0-0.3,0-0.4,0c-0.1,0-0.2,0-0.3,0c-0.4,0.2-0.6,0.3-0.5,0.5c0,0.1,0.1,0.2,0.3,0.3
			c0.1,0,0.2,0.1,0.3,0.1c0.4,0.1,0.9,0.2,1.3,0.2c0.2,0,0.4,0,0.6,0c0.7-0.1,1.1-0.3,1.3-0.6C29.2,32.1,29.2,31.6,29,31.1z"/>
		<path d="M14.6,20.9l0.3,0.7l0,0.1c0.4,1,0.8,2,1.2,3c0.4,1,1,1.4,1.8,1.4h0c0.9,0,1.4-0.4,1.9-1.4c0.1-0.3,0.3-0.7,0.4-1
			c0.3-0.7,0.5-1.4,1-2.1c0,0,0,0,0-0.1c0.1-0.5,0.3-1,0.4-1.4l0.1-0.3c0.2-0.4,0.4-0.9,0.5-1.3c0.5-1.3,1.1-2.6,1.5-4
			c0.4-1.4,0.3-2.7-0.3-4c-0.3-0.7-0.7-1.3-1.3-1.8C21.2,7.6,19.7,7,18,6.9c-2.1,0-3.9,0.9-5,2.5c-1.1,1.6-1.4,3.8-0.6,5.9
			C13.1,17.2,13.8,19.1,14.6,20.9z M19,23.7L19,23.9c-0.1,0.4-0.3,1-1,1h0c-0.6,0-0.8-0.6-1-1c0-0.1-0.1-0.1-0.1-0.2l-0.8-2
			c-0.9-2.2-1.8-4.5-2.7-6.8c-0.9-2.3-0.4-4.6,1.3-5.8C15.7,8.4,16.9,8,18,8c1,0,2,0.3,2.9,0.9c1.4,0.9,2,2.2,2,4
			c0,0.7-0.1,1.5-0.4,2.2c-0.7,1.8-1.5,3.6-2.2,5.5L19,23.7z"/>
		<path d="M18,10.8c-1.3,0-2.5,1.2-2.5,2.4c0,0.7,0.3,1.3,0.7,1.8c0.5,0.5,1.1,0.8,1.8,0.8h0c1.3,0,2.5-1.2,2.5-2.5
			C20.5,12,19.3,10.8,18,10.8z M16.6,13.2c0-0.8,0.6-1.3,1.4-1.3h0c0.4,0,1.2,0.2,1.3,1.5c-0.2,0.8-0.6,1.2-1.4,1.2c0,0,0,0,0,0
			C17.1,14.6,16.6,14,16.6,13.2z"/>
	</g>
</g>
</svg>
