<?xml version="1.0" encoding="utf-8"?>
<!-- Generator: Adobe Illustrator 16.0.0, SVG Export Plug-In . SVG Version: 6.00 Build 0)  -->
<!DOCTYPE svg PUBLIC "-//W3C//DTD SVG 1.1//EN" "http://www.w3.org/Graphics/SVG/1.1/DTD/svg11.dtd">
<svg version="1.1" id="Medical" xmlns="http://www.w3.org/2000/svg" xmlns:xlink="http://www.w3.org/1999/xlink" x="0px" y="0px"
	 width="36px" height="40px" viewBox="0 0 36 40" enable-background="new 0 0 36 40" xml:space="preserve">
<g>
	<path d="M13.383,33.863c-0.253,0-0.46-0.207-0.46-0.461v-8.326H4.598c-0.254,0-0.461-0.205-0.461-0.459v-9.234
		c0-0.254,0.207-0.46,0.461-0.46h8.325V6.597c0-0.254,0.207-0.46,0.46-0.46h9.234c0.254,0,0.46,0.206,0.46,0.46v8.326h8.325
		c0.255,0,0.461,0.206,0.461,0.46v9.234c0,0.254-0.206,0.459-0.461,0.459h-8.325v8.326c0,0.254-0.206,0.461-0.46,0.461H13.383z"/>
	<path fill="#FFFFFF" d="M5.057,24.156h8.326c0.253,0,0.46,0.207,0.46,0.461v8.326h8.314v-8.326c0-0.254,0.206-0.461,0.46-0.461
		h8.326v-8.313h-8.326c-0.254,0-0.46-0.207-0.46-0.46V7.057h-8.314v8.326c0,0.253-0.207,0.46-0.46,0.46H5.057V24.156L5.057,24.156z"
		/>
</g>
</svg>
