<?xml version="1.0" encoding="utf-8"?>
<!-- Generator: Adobe Illustrator 25.1.0, SVG Export Plug-In . SVG Version: 6.00 Build 0)  -->
<svg version="1.1" id="marker" xmlns="http://www.w3.org/2000/svg" xmlns:xlink="http://www.w3.org/1999/xlink" x="0px" y="0px"
	 viewBox="0 0 30 40" style="enable-background:new 0 0 30 40;" xml:space="preserve">
<style type="text/css">
	.st0{fill:#005EA2;}
	.st1{fill:#FFFFFF;}
</style>
<g>
	<g>
		<path class="st0" d="M15,1.11C7.66,1.11,1.68,7.3,1.68,14.9c0,3.13,2.41,8.31,6.97,14.98c2.54,3.71,5.11,6.93,6.34,8.45
			c1.24-1.51,3.8-4.74,6.34-8.45c4.56-6.67,6.97-11.84,6.97-14.98C28.32,7.3,22.34,1.11,15,1.11z"/>
		<path d="M15,0.11C7.09,0.11,0.68,6.73,0.68,14.9S15,39.89,15,39.89S29.32,23.06,29.32,14.9S22.91,0.11,15,0.11z M1.68,14.9
			C1.68,7.3,7.66,1.11,15,1.11S28.32,7.3,28.32,14.9c0,3.13-2.41,8.31-6.97,14.98c-2.54,3.71-5.11,6.93-6.34,8.45
			c-1.24-1.51-3.8-4.74-6.34-8.45C4.09,23.21,1.68,18.03,1.68,14.9z"/>
	</g>
	<g>
		<path d="M11.33,27.08c-0.2,0-0.37-0.16-0.37-0.37V20.1H4.35c-0.2,0-0.37-0.16-0.37-0.36v-7.34c0-0.2,0.16-0.37,0.37-0.37h6.62
			V5.41c0-0.2,0.16-0.37,0.37-0.37h7.34c0.2,0,0.37,0.16,0.37,0.37v6.62h6.62c0.2,0,0.37,0.16,0.37,0.37v7.34
			c0,0.2-0.16,0.36-0.37,0.36h-6.62v6.62c0,0.2-0.16,0.37-0.37,0.37H11.33z"/>
		<path class="st1" d="M4.71,19.37h6.62c0.2,0,0.37,0.16,0.37,0.37v6.62h6.61v-6.62c0-0.2,0.16-0.37,0.37-0.37h6.62v-6.61h-6.62
			c-0.2,0-0.37-0.16-0.37-0.37V5.78H11.7v6.62c0,0.2-0.16,0.37-0.37,0.37H4.71V19.37L4.71,19.37z"/>
	</g>
</g>
</svg>
