<?xml version="1.0" encoding="utf-8"?>
<!-- Generator: Adobe Illustrator 16.0.0, SVG Export Plug-In . SVG Version: 6.00 Build 0)  -->
<!DOCTYPE svg PUBLIC "-//W3C//DTD SVG 1.1//EN" "http://www.w3.org/Graphics/SVG/1.1/DTD/svg11.dtd">
<svg version="1.1" id="Mental_Health" xmlns="http://www.w3.org/2000/svg" xmlns:xlink="http://www.w3.org/1999/xlink" x="0px"
	 y="0px" width="36px" height="40px" viewBox="0 0 36 40" enable-background="new 0 0 36 40" xml:space="preserve">
<g>
	<path fill="#FFFFFF" d="M30.991,21.172c-0.287-0.445-0.673-0.798-1.023-1.118c-0.159-0.16-0.319-0.289-0.479-0.448
		c-0.223-0.224-0.734-0.832-0.575-1.408c0.032-0.16,0.129-0.319,0.226-0.479c0.063-0.097,0.127-0.225,0.19-0.32
		c0.513-1.057,0.353-2.272,0.129-3.232c-0.256-1.119-0.642-2.24-1.12-3.296c-0.544-1.185-1.089-2.048-1.761-2.752
		c-0.543-0.544-1.216-1.024-2.08-1.504c-4-2.208-8.959-2.4-13.022-0.512C10.513,6.55,9.778,7.031,9.169,7.575
		C8.496,8.183,7.983,8.951,7.537,9.59c-0.992,1.504-2.208,3.521-2.656,5.76c-0.608,2.945,0.097,6.207,1.92,9.214l0.16,0.258
		c0.287,0.479,0.576,0.928,0.703,1.406c0.129,0.447,0.129,0.93,0.097,1.346c-0.031,1.504-0.224,2.977-0.576,4.447
		C7.15,32.165,7.3,32.513,7.563,32.578c4.202,1.041,8.791,2.193,13.104,2.626c0.067,0.007,0.125-0.004,0.178-0.019
		c0.003,0,0.005,0.002,0.007,0.002h0.031c0.225,0,0.447-0.19,0.48-0.416c0.031-0.19,0.031-0.383,0-0.574v-0.129
		c-0.033-0.19-0.064-0.385-0.098-0.545c-0.097-0.574-0.16-0.928,0.031-1.215c0.288-0.386,1.021-0.319,1.695-0.289
		c0.929,0.063,1.889,0.033,2.814-0.16c0.705-0.127,1.696-0.416,2.307-1.185c0.352-0.446,0.512-1.088,0.414-1.631
		c-0.031-0.226-0.096-0.416-0.225-0.608c0.096-0.063,0.16-0.16,0.256-0.256c0.256-0.384,0.289-0.992-0.096-1.313
		c0.225-0.192,0.607-0.544,0.447-1.023c-0.031-0.097-0.096-0.191-0.191-0.257c-0.225-0.159-0.32-0.446-0.32-0.672
		c0-0.224,0.098-0.513,0.354-0.64c0.19-0.099,0.448-0.129,0.704-0.16c0.416-0.063,0.861-0.096,1.248-0.416
		C31.504,23.124,31.473,21.939,30.991,21.172z M23.952,15.541c-0.351,0.128-0.705,0.224-1.121,0.224
		c0.129,0.513,0.035,1.057-0.317,1.504c-0.451,0.608-1.248,0.929-2.082,0.831c-0.576-0.031-1.088-0.192-1.602-0.383
		c-0.416,0.767-1.12,1.375-2.016,1.695c-0.416,0.161-0.896,0.225-1.375,0.225c-0.45,0-0.866-0.064-1.313-0.192
		c-0.16,0.449-0.448,0.865-0.864,1.12c-0.382,0.223-0.767,0.319-1.15,0.319c-0.545,0-1.057-0.159-1.377-0.288
		c-0.287-0.127-0.703-0.351-0.959-0.735c-0.033,0-0.033-0.032-0.033-0.063c-0.096,0.031-0.191,0.031-0.287,0.031H9.424
		c-0.384,0-0.704-0.065-0.96-0.224c-0.416-0.224-0.639-0.673-0.607-1.089c0.034-0.256,0.127-0.447,0.224-0.575
		c0.129-0.193,0.289-0.353,0.448-0.513c-0.321-0.447-0.609-0.895-0.768-1.439c-0.289-0.832-0.16-1.664,0.287-2.271
		c0.191-0.289,0.48-0.481,0.736-0.672c0.127-0.097,0.256-0.16,0.416-0.257c0,0,0,0,0-0.032c0-0.832,0.287-1.664,0.832-2.304
		c0.543-0.609,1.313-1.056,2.144-1.152c0.194-0.032,0.353,0,0.513,0c0-0.512,0.127-0.96,0.447-1.28
		c0.191-0.224,0.48-0.416,0.864-0.512c0.672-0.192,1.345-0.159,1.887,0.129c0.288,0.16,0.512,0.352,0.703,0.607
		c0.16-0.16,0.321-0.32,0.512-0.448c0.576-0.352,1.28-0.416,1.856-0.128c0.287,0.128,0.513,0.352,0.64,0.608
		c0.576-0.352,1.312-0.448,1.952-0.192c0.865,0.352,1.57,1.184,1.761,2.24c0.035,0.191,0,0.351-0.063,0.448
		c0.129,0.159,0.226,0.32,0.289,0.512c0.063,0.192,0.096,0.384,0.127,0.576c0.832,0.224,1.633,0.96,1.603,1.92
		C25.23,14.517,24.721,15.222,23.952,15.541z"/>
	<path d="M30.991,21.172c-0.287-0.445-0.673-0.798-1.023-1.118c-0.159-0.16-0.319-0.289-0.479-0.448
		c-0.223-0.224-0.734-0.832-0.575-1.408c0.032-0.16,0.129-0.319,0.226-0.479c0.063-0.097,0.127-0.225,0.19-0.32
		c0.513-1.057,0.353-2.272,0.129-3.232c-0.256-1.119-0.642-2.24-1.12-3.296c-0.544-1.185-1.089-2.048-1.761-2.752
		c-0.543-0.544-1.216-1.024-2.08-1.504c-4-2.208-8.959-2.4-13.022-0.512C10.513,6.55,9.778,7.031,9.169,7.575
		C8.496,8.183,7.983,8.951,7.537,9.59c-0.992,1.504-2.208,3.521-2.656,5.76c-0.608,2.945,0.097,6.207,1.92,9.214l0.16,0.258
		c0.287,0.479,0.576,0.928,0.703,1.406c0.129,0.447,0.129,0.93,0.097,1.346c-0.031,1.504-0.224,2.977-0.576,4.447
		c-0.063,0.256,0.098,0.513,0.354,0.574c0.256,0.064,0.512-0.096,0.576-0.352c0.352-1.504,0.543-3.072,0.607-4.607
		c0-0.479,0.031-1.057-0.129-1.633c-0.16-0.607-0.479-1.15-0.8-1.664l-0.16-0.256c-1.728-2.816-2.368-5.854-1.823-8.542
		c0.416-2.079,1.567-4,2.527-5.407C8.753,9.527,9.233,8.823,9.81,8.279c0.512-0.48,1.184-0.896,2.049-1.312
		c3.774-1.76,8.448-1.568,12.127,0.448c0.801,0.448,1.408,0.864,1.854,1.344c0.575,0.608,1.089,1.376,1.567,2.464
		c0.447,0.992,0.801,2.047,1.057,3.136c0.191,0.8,0.354,1.792-0.031,2.592c-0.031,0.097-0.097,0.192-0.158,0.256
		c-0.129,0.192-0.258,0.416-0.32,0.704c-0.191,0.736,0.096,1.6,0.8,2.336c0.159,0.16,0.353,0.319,0.513,0.51
		c0.319,0.289,0.641,0.576,0.863,0.929c0.256,0.416,0.32,1.024-0.031,1.28c-0.191,0.128-0.449,0.159-0.77,0.224
		c-0.318,0.033-0.672,0.098-1.023,0.258c-0.512,0.256-0.832,0.83-0.863,1.472c-0.031,0.479,0.127,0.929,0.416,1.248
		c-0.031,0-0.031,0.032-0.031,0.032c-0.189,0.158-0.703,0.574-0.354,1.119c0.096,0.16,0.256,0.225,0.32,0.287l0,0
		c0,0.033,0,0.033-0.031,0.063c-0.063,0.097-0.257,0.192-0.416,0.288c-0.16,0.064-0.257,0.225-0.257,0.416
		c0,0.16,0.063,0.354,0.224,0.416c0.192,0.128,0.256,0.32,0.289,0.447c0.063,0.289-0.033,0.642-0.225,0.896
		c-0.32,0.416-0.863,0.672-1.76,0.832c-0.864,0.16-1.729,0.225-2.592,0.127c-0.801-0.063-1.922-0.16-2.529,0.672
		c-0.447,0.608-0.318,1.313-0.191,1.953c0.032,0.191,0.064,0.383,0.096,0.543v0.449c0,0.256,0.193,0.447,0.449,0.479h0.031
		c0.225,0,0.447-0.19,0.48-0.416c0.031-0.19,0.031-0.383,0-0.574v-0.129l0,0c-0.033-0.19-0.064-0.385-0.098-0.545
		c-0.097-0.574-0.16-0.928,0.031-1.215c0.288-0.386,1.021-0.319,1.695-0.289c0.929,0.063,1.889,0.033,2.814-0.16
		c0.705-0.127,1.696-0.416,2.307-1.185c0.352-0.446,0.512-1.088,0.414-1.631c-0.031-0.226-0.096-0.416-0.225-0.608
		c0.096-0.063,0.16-0.16,0.256-0.256c0.256-0.384,0.289-0.992-0.096-1.313c0.225-0.192,0.607-0.544,0.447-1.023
		c-0.031-0.097-0.096-0.191-0.191-0.257c-0.225-0.159-0.32-0.446-0.32-0.672c0-0.224,0.098-0.513,0.354-0.64
		c0.19-0.099,0.448-0.129,0.704-0.16c0.416-0.063,0.861-0.096,1.248-0.416C31.504,23.124,31.473,21.939,30.991,21.172z"/>
	<path d="M23.663,11.861c-0.031-0.192-0.063-0.384-0.127-0.576c-0.063-0.192-0.16-0.353-0.289-0.512
		c0.063-0.097,0.099-0.257,0.063-0.448c-0.19-1.056-0.896-1.888-1.761-2.24c-0.641-0.256-1.376-0.16-1.952,0.192
		c-0.127-0.256-0.353-0.48-0.64-0.608c-0.576-0.288-1.28-0.224-1.856,0.128c-0.191,0.128-0.352,0.288-0.512,0.448
		c-0.191-0.255-0.415-0.447-0.703-0.607C15.345,7.35,14.672,7.317,14,7.509c-0.384,0.096-0.673,0.288-0.864,0.512
		c-0.32,0.32-0.447,0.768-0.447,1.28c-0.16,0-0.319-0.032-0.513,0c-0.831,0.096-1.601,0.543-2.144,1.152
		C9.487,11.093,9.2,11.925,9.2,12.757c0,0.032,0,0.032,0,0.032c-0.16,0.097-0.289,0.16-0.416,0.257
		c-0.256,0.191-0.545,0.383-0.736,0.672c-0.447,0.607-0.576,1.439-0.287,2.271c0.159,0.544,0.447,0.992,0.768,1.439
		c-0.159,0.16-0.319,0.32-0.448,0.513c-0.097,0.128-0.19,0.319-0.224,0.575c-0.032,0.416,0.191,0.865,0.607,1.089
		c0.256,0.159,0.576,0.224,0.96,0.224h0.032c0.096,0,0.191,0,0.287-0.031c0,0.031,0,0.063,0.033,0.063
		c0.256,0.384,0.672,0.608,0.959,0.735c0.32,0.129,0.832,0.288,1.377,0.288c0.383,0,0.768-0.097,1.15-0.319
		c0.416-0.254,0.704-0.67,0.864-1.12c0.447,0.128,0.863,0.192,1.313,0.192c0.479,0,0.959-0.064,1.375-0.225
		c0.896-0.32,1.6-0.928,2.016-1.695c0.514,0.191,1.025,0.352,1.602,0.383c0.834,0.098,1.631-0.223,2.082-0.831
		c0.353-0.447,0.446-0.991,0.317-1.504c0.416,0,0.771-0.096,1.121-0.224c0.769-0.319,1.278-1.024,1.313-1.76
		C25.296,12.821,24.495,12.085,23.663,11.861z M24.193,14.003l-0.032-0.031c-0.128-0.064-0.288-0.064-0.416-0.032
		c-0.16-0.063-0.354-0.257-0.513-0.448c-0.159-0.191-0.479-0.225-0.674-0.031c-0.189,0.159-0.223,0.479-0.029,0.672
		c0.16,0.191,0.416,0.479,0.769,0.64c-0.319,0.096-0.735,0.096-1.248,0.032c-0.225-0.032-0.416,0.096-0.513,0.287
		c-0.096,0.192-0.032,0.416,0.128,0.545c0.288,0.224,0.288,0.735,0.032,1.088c-0.256,0.352-0.77,0.543-1.346,0.512
		c-0.496-0.065-1.072-0.287-1.617-0.511c-0.127-0.064-0.255-0.064-0.384,0c-0.127,0.063-0.224,0.16-0.256,0.287
		c-0.16,0.449-0.479,0.865-0.896,1.185c-0.032,0-0.064-0.032-0.097-0.032l-0.289-0.256c-0.16-0.128-0.319-0.256-0.383-0.384
		c-0.033-0.032-0.033-0.097-0.033-0.16c-0.03-0.288,0.033-0.608,0.192-0.864c0.128-0.224,0.097-0.512-0.128-0.64
		c-0.225-0.128-0.512-0.097-0.641,0.128c-0.287,0.448-0.416,0.992-0.319,1.504c0.032,0.16,0.063,0.288,0.128,0.416
		c0.16,0.352,0.416,0.576,0.641,0.736c-0.641,0.16-1.345,0.128-2.049-0.096c-0.063-0.385-0.256-0.736-0.512-0.992
		c-0.191-0.192-0.48-0.192-0.672,0c-0.191,0.191-0.191,0.479,0,0.672c0.225,0.224,0.32,0.544,0.287,0.863
		c-0.031,0.32-0.225,0.608-0.479,0.769c-0.576,0.353-1.345,0.063-1.664-0.063c-0.097-0.033-0.225-0.097-0.354-0.192
		c0.416-0.192,0.801-0.448,1.121-0.8c0.191-0.192,0.16-0.48-0.032-0.672c-0.192-0.192-0.479-0.16-0.673,0.031
		c-0.447,0.48-1.088,0.768-1.76,0.768c-0.225,0-0.385-0.031-0.512-0.096c-0.097-0.063-0.129-0.127-0.129-0.191
		c0-0.032,0.032-0.064,0.063-0.16c0.385-0.607,1.217-0.928,1.92-0.736c0.257,0.064,0.513-0.096,0.575-0.32
		c0.064-0.256-0.096-0.512-0.352-0.575c-0.576-0.16-1.184-0.097-1.695,0.128c-0.289-0.385-0.545-0.768-0.672-1.217
		c-0.16-0.543-0.097-1.088,0.16-1.407c0.127-0.16,0.319-0.32,0.512-0.448c0.353-0.225,0.8-0.512,1.248-0.512
		c0.319,0,0.672,0.191,0.735,0.48c0,0.031,0.032,0.096,0.032,0.127c0,0.064,0.031,0.129,0.064,0.192
		c0.127,0.224,0.446,0.288,0.672,0.16c0.224-0.128,0.318-0.416,0.224-0.64c-0.032-0.064-0.063-0.097-0.097-0.129
		c-0.225-0.735-0.959-1.119-1.664-1.119c-0.127,0-0.256,0.031-0.383,0.031c0.063-0.512,0.256-0.992,0.574-1.344
		c0.385-0.447,0.961-0.768,1.568-0.832c0.288-0.031,0.512,0,0.607,0.128c0.031,0.063,0.097,0.097,0.16,0.128
		c0.127,0.256,0.287,0.48,0.447,0.672c0.096,0.129,0.225,0.192,0.385,0.192c0.096,0,0.191-0.032,0.287-0.097
		c0.225-0.159,0.256-0.447,0.096-0.672c-0.256-0.352-0.512-0.703-0.606-1.056c-0.097-0.352-0.032-0.672,0.128-0.864
		c0.096-0.096,0.256-0.192,0.448-0.256c0.446-0.128,0.862-0.096,1.184,0.064c0.32,0.16,0.576,0.512,0.544,0.832
		c0,0.224,0.16,0.416,0.385,0.48c0.225,0.063,0.447-0.064,0.545-0.289c0.127-0.288,0.352-0.704,0.703-0.928
		c0.287-0.192,0.672-0.224,0.928-0.096c0.225,0.128,0.385,0.416,0.289,0.64c-0.099,0.224,0.03,0.513,0.256,0.608
		c0.224,0.096,0.512,0,0.606-0.256c0.226-0.48,0.962-0.736,1.505-0.544c0.512,0.192,0.928,0.671,1.118,1.281
		c-0.19-0.033-0.353,0-0.512,0c-0.416,0.063-0.8,0.159-1.187,0.319c-0.256,0.097-0.352,0.384-0.256,0.608
		c0.098,0.224,0.385,0.352,0.608,0.256c0.288-0.129,0.608-0.225,0.929-0.256c0.127-0.032,0.354-0.032,0.479,0.031
		c0.097,0.064,0.193,0.16,0.225,0.32c0.032,0.064,0.032,0.16,0.064,0.225c-0.992,0.159-1.89,0.896-2.176,1.887
		c-0.064,0.257,0.096,0.513,0.317,0.576c0.256,0.064,0.515-0.096,0.576-0.319c0.19-0.769,1.057-1.312,1.823-1.216
		c0.513,0.063,1.057,0.512,1.023,1.023C24.256,13.843,24.223,13.907,24.193,14.003z"/>
	<path d="M18.864,14.42c0-0.32,0.03-0.703-0.257-1.056c-0.289-0.354-0.735-0.479-1.28-0.354c-0.031-0.096-0.031-0.191-0.063-0.287
		c-0.097-0.32-0.289-0.576-0.513-0.736c-0.448-0.352-1.024-0.288-1.44-0.225c-1.088,0.192-1.854,0.608-2.271,1.248
		c-0.129,0.225-0.063,0.513,0.128,0.641c0.225,0.128,0.512,0.064,0.641-0.128c0.256-0.416,0.832-0.704,1.633-0.832
		c0.223-0.032,0.543-0.063,0.734,0.063c0.063,0.064,0.129,0.16,0.192,0.289c0.063,0.159,0.063,0.319,0.063,0.512
		c-0.033,0.032-0.033,0.065-0.033,0.128c-0.063,0.16-0.031,0.353,0.096,0.513c0.097,0.16,0.289,0.224,0.48,0.192
		c0.191-0.032,0.319-0.16,0.352-0.353c0.289-0.096,0.513-0.096,0.576-0.032s0.063,0.256,0.031,0.448c0,0.032,0,0.032,0,0.063
		c-0.031-0.031-0.063,0.033-0.063,0.097c-0.032,0.16,0.031,0.319,0.16,0.416c0.096,0.128,0.224,0.224,0.416,0.224h0.031
		c0.255,0,0.447-0.224,0.447-0.447c0-0.032,0-0.064,0-0.096C18.864,14.614,18.864,14.517,18.864,14.42z"/>
	<path d="M13.584,14.485c-0.224-0.032-0.479,0-0.673,0.16c-0.063,0.031-0.127,0.096-0.191,0.128
		c-0.063-0.032-0.128-0.097-0.225-0.128c-0.159-0.064-0.287-0.064-0.416-0.032c-0.543,0.032-1.055,0.256-1.471,0.64
		c-0.193,0.192-0.193,0.48,0,0.672c0.096,0.097,0.223,0.16,0.352,0.16c0.128,0,0.225-0.031,0.32-0.128
		c0.224-0.224,0.543-0.352,0.896-0.384c0,0.032,0.032,0.032,0.063,0.064c0.064,0.063,0.129,0.16,0.256,0.256
		c0.097,0.096,0.257,0.096,0.385,0.096c0.128-0.032,0.256-0.096,0.32-0.225c0.063-0.127,0.16-0.256,0.256-0.319
		c0.16,0.128,0.384,0.128,0.544,0.032c0.128-0.096,0.192-0.225,0.192-0.353c0.063-0.159,0.031-0.319-0.064-0.479
		C14,14.454,13.776,14.42,13.584,14.485z"/>
	<path d="M15.632,10.965c0.288,0.127,0.576,0.191,0.896,0.191c0.256,0,0.543-0.064,0.768-0.16c0.447-0.191,0.832-0.544,1.023-0.992
		c0.16-0.16,0.16-0.479,0.031-0.672c-0.096-0.128-0.287-0.192-0.447-0.192c-0.16,0.032-0.319,0.16-0.385,0.32
		c-0.095,0.289-0.318,0.513-0.607,0.64c-0.287,0.129-0.607,0.097-0.863-0.031c-0.225-0.128-0.512-0.032-0.641,0.225
		C15.28,10.549,15.376,10.836,15.632,10.965z"/>
</g>
</svg>
