<?xml version="1.0" encoding="utf-8"?>
<!-- Generator: Adobe Illustrator 16.0.0, SVG Export Plug-In . SVG Version: 6.00 Build 0)  -->
<!DOCTYPE svg PUBLIC "-//W3C//DTD SVG 1.1//EN" "http://www.w3.org/Graphics/SVG/1.1/DTD/svg11.dtd">
<svg version="1.1" id="Mental_Health" xmlns="http://www.w3.org/2000/svg" xmlns:xlink="http://www.w3.org/1999/xlink" x="0px"
	 y="0px" width="36px" height="40px" viewBox="0 0 36 40" enable-background="new 0 0 36 40" xml:space="preserve">
<g>
	<path d="M30.991,21.172c-0.287-0.446-0.672-0.798-1.023-1.118c-0.16-0.16-0.32-0.289-0.48-0.448
		c-0.223-0.224-0.734-0.832-0.575-1.408c0.032-0.16,0.129-0.319,0.226-0.479c0.063-0.097,0.127-0.225,0.19-0.32
		c0.513-1.057,0.353-2.272,0.129-3.232c-0.256-1.119-0.642-2.24-1.12-3.296c-0.544-1.185-1.089-2.048-1.761-2.752
		c-0.543-0.544-1.216-1.024-2.08-1.504c-4-2.208-8.959-2.4-13.022-0.512C10.513,6.55,9.778,7.031,9.169,7.575
		C8.496,8.183,7.983,8.951,7.537,9.59c-0.992,1.504-2.208,3.521-2.656,5.76c-0.608,2.945,0.097,6.207,1.92,9.215l0.16,0.257
		c0.287,0.479,0.576,0.928,0.703,1.407c0.129,0.447,0.129,0.929,0.097,1.345c-0.031,1.504-0.224,2.977-0.576,4.448
		c-0.063,0.256,0.098,0.512,0.354,0.574c0.256,0.064,0.512-0.096,0.576-0.352c0.352-1.504,0.543-3.072,0.607-4.607
		c0-0.479,0.031-1.057-0.129-1.633c-0.16-0.607-0.479-1.15-0.8-1.664l-0.16-0.256c-1.728-2.816-2.368-5.854-1.823-8.542
		c0.416-2.079,1.567-4,2.527-5.407C8.753,9.527,9.233,8.823,9.81,8.279c0.512-0.48,1.184-0.896,2.049-1.312
		c3.774-1.76,8.447-1.568,12.127,0.448c0.801,0.448,1.408,0.864,1.855,1.344c0.575,0.608,1.088,1.376,1.567,2.464
		c0.448,0.992,0.801,2.047,1.057,3.136c0.191,0.8,0.353,1.792-0.032,2.592c-0.031,0.097-0.096,0.192-0.158,0.256
		c-0.129,0.192-0.258,0.416-0.32,0.704c-0.191,0.736,0.096,1.6,0.8,2.336c0.159,0.16,0.353,0.32,0.513,0.51
		c0.319,0.289,0.64,0.576,0.863,0.929c0.256,0.416,0.32,1.024-0.031,1.28c-0.192,0.128-0.449,0.159-0.77,0.224
		c-0.318,0.033-0.672,0.097-1.023,0.257c-0.512,0.256-0.832,0.831-0.863,1.472c-0.032,0.48,0.127,0.928,0.416,1.248
		c-0.032,0-0.032,0.032-0.032,0.032c-0.19,0.159-0.703,0.575-0.353,1.12c0.096,0.16,0.256,0.224,0.32,0.287l0,0
		c0,0.033,0,0.033-0.031,0.063c-0.063,0.097-0.257,0.192-0.416,0.288c-0.16,0.064-0.257,0.225-0.257,0.416
		c0,0.16,0.063,0.354,0.224,0.416c0.192,0.128,0.256,0.32,0.289,0.448c0.063,0.288-0.033,0.641-0.225,0.896
		c-0.32,0.416-0.863,0.672-1.76,0.832c-0.864,0.16-1.729,0.225-2.592,0.127c-0.801-0.063-1.922-0.16-2.529,0.672
		c-0.447,0.608-0.318,1.313-0.191,1.953c0.032,0.191,0.064,0.383,0.096,0.543v0.449c0,0.256,0.193,0.447,0.449,0.479h0.031
		c0.225,0,0.447-0.191,0.48-0.416c0.031-0.191,0.031-0.383,0-0.575v-0.128l0,0c-0.033-0.191-0.064-0.385-0.098-0.545
		c-0.096-0.575-0.16-0.928,0.032-1.215c0.288-0.386,1.022-0.32,1.695-0.289c0.929,0.063,1.889,0.033,2.815-0.16
		c0.705-0.127,1.696-0.416,2.306-1.185c0.352-0.446,0.512-1.088,0.415-1.631c-0.032-0.226-0.096-0.416-0.225-0.608
		c0.096-0.063,0.16-0.16,0.256-0.256c0.256-0.384,0.289-0.992-0.096-1.313c0.225-0.192,0.607-0.544,0.447-1.023
		c-0.031-0.097-0.096-0.191-0.191-0.257c-0.225-0.159-0.32-0.446-0.32-0.672c0-0.224,0.097-0.513,0.354-0.64
		c0.191-0.098,0.448-0.129,0.704-0.16c0.416-0.063,0.862-0.096,1.248-0.416C31.504,23.124,31.472,21.94,30.991,21.172z"/>
	<path d="M22.513,17.269c0.353-0.447,0.447-0.991,0.318-1.504c0.416,0,0.77-0.096,1.121-0.224c0.768-0.319,1.279-1.024,1.313-1.76
		c0.031-0.96-0.77-1.696-1.602-1.92c-0.031-0.192-0.063-0.384-0.127-0.576c-0.064-0.192-0.16-0.353-0.289-0.512
		c0.064-0.097,0.098-0.257,0.064-0.448c-0.191-1.056-0.896-1.888-1.761-2.24c-0.641-0.256-1.376-0.16-1.952,0.192
		c-0.127-0.256-0.353-0.48-0.64-0.608c-0.576-0.288-1.28-0.224-1.856,0.128c-0.191,0.128-0.352,0.288-0.512,0.448
		c-0.191-0.255-0.415-0.447-0.703-0.607C15.345,7.35,14.672,7.317,14,7.509c-0.384,0.096-0.673,0.288-0.864,0.512
		c-0.32,0.32-0.447,0.768-0.447,1.28c-0.16,0-0.319-0.032-0.513,0c-0.831,0.096-1.601,0.543-2.144,1.152
		C9.487,11.093,9.2,11.925,9.2,12.757c0,0.032,0,0.032,0,0.032c-0.16,0.097-0.289,0.16-0.416,0.257
		c-0.256,0.191-0.545,0.383-0.736,0.672c-0.447,0.607-0.576,1.439-0.287,2.271c0.159,0.544,0.447,0.992,0.768,1.439
		c-0.159,0.16-0.319,0.32-0.448,0.513c-0.097,0.128-0.19,0.319-0.224,0.575c-0.032,0.416,0.191,0.865,0.607,1.089
		c0.256,0.159,0.576,0.224,0.96,0.224h0.032c0.096,0,0.191,0,0.287-0.031c0,0.031,0,0.063,0.033,0.063
		c0.256,0.384,0.672,0.608,0.959,0.735c0.32,0.129,0.832,0.288,1.377,0.288c0.383,0,0.768-0.097,1.15-0.319
		c0.416-0.255,0.704-0.671,0.864-1.12c0.447,0.128,0.863,0.192,1.313,0.192c0.479,0,0.959-0.064,1.375-0.225
		c0.896-0.32,1.6-0.928,2.016-1.695c0.514,0.191,1.025,0.352,1.602,0.383C21.265,18.198,22.063,17.877,22.513,17.269z
		 M18.735,16.726c-0.127-0.064-0.256-0.064-0.385,0c-0.127,0.063-0.224,0.16-0.256,0.287c-0.16,0.449-0.479,0.865-0.896,1.185
		c-0.032,0-0.064-0.032-0.097-0.032l-0.289-0.256c-0.16-0.128-0.319-0.256-0.383-0.384c-0.033-0.032-0.033-0.097-0.033-0.16
		c-0.03-0.288,0.033-0.608,0.192-0.864c0.128-0.224,0.097-0.512-0.128-0.64c-0.225-0.128-0.512-0.097-0.641,0.128
		c-0.287,0.448-0.416,0.992-0.319,1.504c0.032,0.16,0.063,0.288,0.128,0.416c0.16,0.352,0.416,0.576,0.641,0.736
		c-0.641,0.16-1.345,0.128-2.049-0.096c-0.063-0.385-0.256-0.736-0.512-0.992c-0.191-0.192-0.48-0.192-0.672,0
		c-0.191,0.191-0.191,0.479,0,0.672c0.225,0.224,0.32,0.544,0.287,0.863c-0.031,0.32-0.225,0.608-0.479,0.769
		c-0.576,0.353-1.345,0.063-1.664-0.063c-0.097-0.033-0.225-0.097-0.354-0.192c0.416-0.192,0.801-0.448,1.121-0.8
		c0.191-0.192,0.16-0.48-0.032-0.672c-0.192-0.192-0.479-0.16-0.673,0.031c-0.447,0.48-1.088,0.768-1.76,0.768
		c-0.225,0-0.385-0.031-0.512-0.096c-0.097-0.063-0.129-0.127-0.129-0.191c0-0.032,0.032-0.064,0.063-0.16
		c0.385-0.607,1.217-0.928,1.92-0.736c0.257,0.064,0.513-0.096,0.575-0.32c0.064-0.256-0.096-0.512-0.352-0.575
		c-0.576-0.16-1.184-0.097-1.695,0.128c-0.289-0.385-0.545-0.768-0.672-1.217c-0.16-0.543-0.097-1.088,0.16-1.407
		c0.127-0.16,0.319-0.32,0.512-0.448c0.353-0.225,0.8-0.512,1.248-0.512l0,0c0.319,0,0.672,0.191,0.735,0.48
		c0,0.031,0.032,0.096,0.032,0.127c0,0.064,0.031,0.129,0.064,0.192c0.127,0.224,0.446,0.288,0.672,0.16
		c0.224-0.128,0.318-0.416,0.224-0.64c-0.032-0.064-0.063-0.097-0.097-0.129c-0.225-0.735-0.959-1.119-1.664-1.119
		c-0.127,0-0.256,0.031-0.383,0.031c0.063-0.512,0.256-0.992,0.574-1.344c0.385-0.447,0.961-0.768,1.568-0.832
		c0.288-0.031,0.512,0,0.607,0.128c0.031,0.063,0.097,0.097,0.16,0.128c0.127,0.256,0.287,0.48,0.447,0.672
		c0.096,0.129,0.225,0.192,0.385,0.192c0.096,0,0.191-0.032,0.287-0.097c0.225-0.159,0.256-0.447,0.096-0.672
		c-0.256-0.352-0.512-0.703-0.606-1.056c-0.097-0.352-0.032-0.672,0.128-0.864c0.096-0.096,0.256-0.192,0.448-0.256
		c0.446-0.128,0.862-0.096,1.184,0.064c0.32,0.16,0.576,0.512,0.544,0.832c0,0.224,0.16,0.416,0.385,0.48
		c0.225,0.063,0.447-0.064,0.545-0.289c0.127-0.288,0.352-0.704,0.703-0.928c0.287-0.192,0.672-0.224,0.928-0.096
		c0.225,0.128,0.385,0.416,0.289,0.64c-0.098,0.224,0.031,0.513,0.256,0.608c0.224,0.096,0.512,0,0.607-0.256
		c0.225-0.48,0.961-0.736,1.504-0.544c0.512,0.192,0.928,0.671,1.119,1.281l0,0c-0.191-0.033-0.352,0-0.512,0
		c-0.416,0.063-0.8,0.159-1.186,0.319c-0.256,0.097-0.352,0.384-0.256,0.608c0.097,0.224,0.385,0.352,0.608,0.256
		c0.288-0.129,0.608-0.225,0.929-0.256c0.127-0.032,0.353-0.032,0.479,0.031c0.096,0.064,0.192,0.16,0.224,0.32
		c0.032,0.064,0.032,0.16,0.064,0.225c-0.992,0.159-1.889,0.896-2.176,1.887c-0.064,0.257,0.096,0.513,0.318,0.576
		c0.256,0.064,0.514-0.096,0.576-0.319c0.191-0.769,1.057-1.312,1.823-1.216c0.513,0.063,1.057,0.512,1.024,1.023
		c0,0.096-0.033,0.16-0.063,0.256l-0.032-0.031c-0.128-0.064-0.288-0.064-0.416-0.032c-0.16-0.063-0.354-0.257-0.513-0.448
		c-0.159-0.191-0.479-0.225-0.673-0.031c-0.19,0.159-0.223,0.479-0.03,0.672c0.16,0.191,0.416,0.479,0.769,0.64
		c-0.32,0.096-0.736,0.096-1.248,0.032c-0.225-0.032-0.416,0.096-0.513,0.287c-0.096,0.192-0.032,0.416,0.128,0.545
		c0.288,0.224,0.288,0.735,0.032,1.088c-0.256,0.352-0.769,0.543-1.345,0.512C19.856,17.172,19.28,16.95,18.735,16.726z"/>
	<path d="M18.864,14.42c0-0.32,0.031-0.703-0.256-1.056c-0.289-0.353-0.736-0.479-1.281-0.353c-0.031-0.096-0.031-0.191-0.063-0.287
		c-0.097-0.32-0.289-0.576-0.513-0.736c-0.448-0.352-1.024-0.288-1.44-0.225c-1.088,0.192-1.854,0.608-2.271,1.248
		c-0.129,0.225-0.063,0.513,0.128,0.641c0.225,0.128,0.512,0.064,0.641-0.128c0.256-0.416,0.832-0.704,1.633-0.832
		c0.223-0.032,0.543-0.063,0.734,0.063c0.063,0.064,0.129,0.16,0.192,0.289c0.063,0.159,0.063,0.319,0.063,0.512
		c-0.033,0.032-0.033,0.065-0.033,0.128c-0.063,0.16-0.031,0.353,0.096,0.513c0.097,0.16,0.289,0.224,0.48,0.192
		c0.191-0.032,0.319-0.16,0.352-0.353c0.289-0.096,0.513-0.096,0.576-0.032s0.063,0.256,0.031,0.448c0,0.032,0,0.032,0,0.063
		c-0.031-0.031-0.063,0.033-0.063,0.097c-0.032,0.16,0.031,0.319,0.16,0.416c0.096,0.128,0.224,0.224,0.416,0.224h0.031
		c0.256,0,0.447-0.224,0.447-0.447c0-0.032,0-0.064,0-0.096C18.864,14.614,18.864,14.517,18.864,14.42z"/>
	<path d="M13.584,14.485c-0.224-0.032-0.479,0-0.673,0.16c-0.063,0.031-0.127,0.096-0.191,0.128
		c-0.063-0.032-0.128-0.097-0.225-0.128c-0.159-0.064-0.287-0.064-0.416-0.032c-0.543,0.032-1.055,0.256-1.471,0.64
		c-0.193,0.192-0.193,0.48,0,0.672c0.096,0.097,0.223,0.16,0.352,0.16c0.128,0,0.225-0.031,0.32-0.128
		c0.224-0.224,0.543-0.352,0.896-0.384c0,0.032,0.032,0.032,0.063,0.064c0.064,0.063,0.129,0.16,0.256,0.256
		c0.097,0.096,0.257,0.096,0.385,0.096c0.128-0.032,0.256-0.096,0.32-0.225c0.063-0.127,0.16-0.256,0.256-0.319
		c0.16,0.128,0.384,0.128,0.544,0.032c0.128-0.096,0.192-0.225,0.192-0.353c0.063-0.159,0.031-0.319-0.064-0.479
		C14,14.454,13.776,14.42,13.584,14.485z"/>
	<path d="M15.632,10.965c0.288,0.127,0.576,0.191,0.896,0.191c0.256,0,0.543-0.064,0.768-0.16c0.447-0.191,0.832-0.544,1.023-0.992
		c0.16-0.16,0.16-0.479,0.031-0.672c-0.096-0.128-0.287-0.192-0.447-0.192c-0.16,0.032-0.319,0.16-0.385,0.32
		C17.423,9.749,17.2,9.973,16.911,10.1c-0.287,0.129-0.607,0.097-0.863-0.031c-0.225-0.128-0.512-0.032-0.641,0.225
		C15.28,10.549,15.376,10.836,15.632,10.965z"/>
</g>
</svg>
