<?xml version="1.0" encoding="utf-8"?>
<!-- Generator: Adobe Illustrator 25.1.0, SVG Export Plug-In . SVG Version: 6.00 Build 0)  -->
<svg version="1.1" id="marker" xmlns="http://www.w3.org/2000/svg" xmlns:xlink="http://www.w3.org/1999/xlink" x="0px" y="0px"
	 viewBox="0 0 30 40" style="enable-background:new 0 0 30 40;" xml:space="preserve">
<style type="text/css">
	.st0{fill:#005EA2;}
	.st1{fill:#FFFFFF;}
</style>
<g>
	<g>
		<path class="st0" d="M15,1.11C7.66,1.11,1.68,7.3,1.68,14.9c0,3.13,2.41,8.31,6.97,14.98c2.54,3.71,5.11,6.93,6.34,8.45
			c1.24-1.51,3.8-4.74,6.34-8.45c4.56-6.67,6.97-11.84,6.97-14.98C28.32,7.3,22.34,1.11,15,1.11z"/>
		<path d="M15,0.11C7.09,0.11,0.68,6.73,0.68,14.9S15,39.89,15,39.89S29.32,23.06,29.32,14.9S22.91,0.11,15,0.11z M1.68,14.9
			C1.68,7.3,7.66,1.11,15,1.11S28.32,7.3,28.32,14.9c0,3.13-2.41,8.31-6.97,14.98c-2.54,3.71-5.11,6.93-6.34,8.45
			c-1.24-1.51-3.8-4.74-6.34-8.45C4.09,23.21,1.68,18.03,1.68,14.9z"/>
	</g>
	<g>
		<path class="st1" d="M25.27,17.14c-0.22-0.34-0.51-0.61-0.78-0.85c-0.12-0.12-0.24-0.22-0.36-0.34c-0.17-0.17-0.56-0.63-0.44-1.07
			c0.02-0.12,0.1-0.24,0.17-0.36c0.05-0.07,0.1-0.17,0.14-0.24c0.39-0.8,0.27-1.73,0.1-2.46c-0.19-0.85-0.49-1.71-0.85-2.51
			c-0.41-0.9-0.83-1.56-1.34-2.1c-0.41-0.41-0.93-0.78-1.58-1.15c-3.05-1.68-6.82-1.83-9.92-0.39C9.67,6,9.11,6.37,8.65,6.78
			c-0.51,0.46-0.9,1.05-1.24,1.53C6.65,9.46,5.73,11,5.38,12.7c-0.46,2.24,0.07,4.73,1.46,7.02l0.12,0.2
			c0.22,0.36,0.44,0.71,0.54,1.07c0.1,0.34,0.1,0.71,0.07,1.03c-0.02,1.15-0.17,2.27-0.44,3.39c-0.03,0.11,0.09,0.37,0.29,0.42
			c3.2,0.79,6.69,1.67,9.98,2c0.05,0.01,0.1,0,0.14-0.01c0,0,0,0,0.01,0h0.02c0.17,0,0.34-0.14,0.37-0.32
			c0.02-0.14,0.02-0.29,0-0.44v-0.1c-0.03-0.14-0.05-0.29-0.07-0.42c-0.07-0.44-0.12-0.71,0.02-0.93c0.22-0.29,0.78-0.24,1.29-0.22
			c0.71,0.05,1.44,0.03,2.14-0.12c0.54-0.1,1.29-0.32,1.76-0.9c0.27-0.34,0.39-0.83,0.32-1.24c-0.02-0.17-0.07-0.32-0.17-0.46
			c0.07-0.05,0.12-0.12,0.19-0.19c0.19-0.29,0.22-0.76-0.07-1c0.17-0.15,0.46-0.41,0.34-0.78c-0.02-0.07-0.07-0.15-0.15-0.2
			c-0.17-0.12-0.24-0.34-0.24-0.51c0-0.17,0.07-0.39,0.27-0.49c0.14-0.08,0.34-0.1,0.54-0.12c0.32-0.05,0.66-0.07,0.95-0.32
			C25.66,18.62,25.63,17.72,25.27,17.14z M19.91,12.85c-0.27,0.1-0.54,0.17-0.85,0.17c0.1,0.39,0.03,0.8-0.24,1.15
			c-0.34,0.46-0.95,0.71-1.59,0.63c-0.44-0.02-0.83-0.15-1.22-0.29c-0.32,0.58-0.85,1.05-1.54,1.29c-0.32,0.12-0.68,0.17-1.05,0.17
			c-0.34,0-0.66-0.05-1-0.15c-0.12,0.34-0.34,0.66-0.66,0.85c-0.29,0.17-0.58,0.24-0.88,0.24c-0.42,0-0.8-0.12-1.05-0.22
			c-0.22-0.1-0.54-0.27-0.73-0.56c-0.03,0-0.03-0.02-0.03-0.05c-0.07,0.02-0.15,0.02-0.22,0.02H8.84c-0.29,0-0.54-0.05-0.73-0.17
			c-0.32-0.17-0.49-0.51-0.46-0.83c0.03-0.19,0.1-0.34,0.17-0.44c0.1-0.15,0.22-0.27,0.34-0.39c-0.24-0.34-0.46-0.68-0.58-1.1
			c-0.22-0.63-0.12-1.27,0.22-1.73c0.15-0.22,0.37-0.37,0.56-0.51c0.1-0.07,0.19-0.12,0.32-0.2c0,0,0,0,0-0.02
			c0-0.63,0.22-1.27,0.63-1.75c0.41-0.46,1-0.8,1.63-0.88c0.15-0.02,0.27,0,0.39,0c0-0.39,0.1-0.73,0.34-0.97
			c0.15-0.17,0.37-0.32,0.66-0.39c0.51-0.15,1.02-0.12,1.44,0.1c0.22,0.12,0.39,0.27,0.54,0.46c0.12-0.12,0.24-0.24,0.39-0.34
			c0.44-0.27,0.97-0.32,1.41-0.1c0.22,0.1,0.39,0.27,0.49,0.46c0.44-0.27,1-0.34,1.49-0.15c0.66,0.27,1.2,0.9,1.34,1.71
			c0.03,0.15,0,0.27-0.05,0.34c0.1,0.12,0.17,0.24,0.22,0.39c0.05,0.15,0.07,0.29,0.1,0.44c0.63,0.17,1.24,0.73,1.22,1.46
			C20.88,12.07,20.49,12.6,19.91,12.85z"/>
		<path d="M25.27,17.14c-0.22-0.34-0.51-0.61-0.78-0.85c-0.12-0.12-0.24-0.22-0.36-0.34c-0.17-0.17-0.56-0.63-0.44-1.07
			c0.02-0.12,0.1-0.24,0.17-0.36c0.05-0.07,0.1-0.17,0.14-0.24c0.39-0.8,0.27-1.73,0.1-2.46c-0.19-0.85-0.49-1.71-0.85-2.51
			c-0.41-0.9-0.83-1.56-1.34-2.1c-0.41-0.41-0.93-0.78-1.58-1.15c-3.05-1.68-6.82-1.83-9.92-0.39C9.67,6,9.11,6.37,8.65,6.78
			c-0.51,0.46-0.9,1.05-1.24,1.53C6.65,9.46,5.73,11,5.38,12.7c-0.46,2.24,0.07,4.73,1.46,7.02l0.12,0.2
			c0.22,0.36,0.44,0.71,0.54,1.07c0.1,0.34,0.1,0.71,0.07,1.03c-0.02,1.15-0.17,2.27-0.44,3.39c-0.05,0.19,0.07,0.39,0.27,0.44
			c0.19,0.05,0.39-0.07,0.44-0.27c0.27-1.15,0.41-2.34,0.46-3.51c0-0.36,0.02-0.8-0.1-1.24c-0.12-0.46-0.36-0.88-0.61-1.27
			l-0.12-0.19c-1.32-2.14-1.8-4.46-1.39-6.5c0.32-1.58,1.19-3.05,1.92-4.12c0.32-0.46,0.68-1,1.12-1.41c0.39-0.37,0.9-0.68,1.56-1
			c2.87-1.34,6.43-1.19,9.24,0.34c0.61,0.34,1.07,0.66,1.41,1.02c0.44,0.46,0.83,1.05,1.19,1.88c0.34,0.76,0.61,1.56,0.8,2.39
			c0.15,0.61,0.27,1.36-0.02,1.97c-0.02,0.07-0.07,0.15-0.12,0.19c-0.1,0.15-0.2,0.32-0.24,0.54c-0.15,0.56,0.07,1.22,0.61,1.78
			c0.12,0.12,0.27,0.24,0.39,0.39c0.24,0.22,0.49,0.44,0.66,0.71c0.19,0.32,0.24,0.78-0.02,0.97c-0.15,0.1-0.34,0.12-0.59,0.17
			c-0.24,0.03-0.51,0.07-0.78,0.2c-0.39,0.19-0.63,0.63-0.66,1.12c-0.02,0.36,0.1,0.71,0.32,0.95c-0.02,0-0.02,0.02-0.02,0.02
			c-0.14,0.12-0.54,0.44-0.27,0.85c0.07,0.12,0.19,0.17,0.24,0.22l0,0c0,0.03,0,0.03-0.02,0.05c-0.05,0.07-0.2,0.15-0.32,0.22
			c-0.12,0.05-0.2,0.17-0.2,0.32c0,0.12,0.05,0.27,0.17,0.32c0.15,0.1,0.19,0.24,0.22,0.34c0.05,0.22-0.03,0.49-0.17,0.68
			c-0.24,0.32-0.66,0.51-1.34,0.63c-0.66,0.12-1.32,0.17-1.97,0.1c-0.61-0.05-1.46-0.12-1.93,0.51c-0.34,0.46-0.24,1-0.15,1.49
			c0.02,0.15,0.05,0.29,0.07,0.41v0.34c0,0.19,0.15,0.34,0.34,0.36h0.02c0.17,0,0.34-0.14,0.37-0.32c0.02-0.14,0.02-0.29,0-0.44
			v-0.1l0,0c-0.03-0.14-0.05-0.29-0.07-0.42c-0.07-0.44-0.12-0.71,0.02-0.93c0.22-0.29,0.78-0.24,1.29-0.22
			c0.71,0.05,1.44,0.03,2.14-0.12c0.54-0.1,1.29-0.32,1.76-0.9c0.27-0.34,0.39-0.83,0.32-1.24c-0.02-0.17-0.07-0.32-0.17-0.46
			c0.07-0.05,0.12-0.12,0.19-0.19c0.19-0.29,0.22-0.76-0.07-1c0.17-0.15,0.46-0.41,0.34-0.78c-0.02-0.07-0.07-0.15-0.15-0.2
			c-0.17-0.12-0.24-0.34-0.24-0.51c0-0.17,0.07-0.39,0.27-0.49c0.14-0.08,0.34-0.1,0.54-0.12c0.32-0.05,0.66-0.07,0.95-0.32
			C25.66,18.62,25.63,17.72,25.27,17.14z"/>
		<path d="M19.69,10.05c-0.02-0.15-0.05-0.29-0.1-0.44c-0.05-0.15-0.12-0.27-0.22-0.39c0.05-0.07,0.08-0.2,0.05-0.34
			c-0.14-0.8-0.68-1.44-1.34-1.71c-0.49-0.19-1.05-0.12-1.49,0.15c-0.1-0.19-0.27-0.37-0.49-0.46c-0.44-0.22-0.97-0.17-1.41,0.1
			c-0.15,0.1-0.27,0.22-0.39,0.34c-0.15-0.19-0.32-0.34-0.54-0.46c-0.41-0.22-0.92-0.24-1.44-0.1c-0.29,0.07-0.51,0.22-0.66,0.39
			c-0.24,0.24-0.34,0.58-0.34,0.97c-0.12,0-0.24-0.02-0.39,0c-0.63,0.07-1.22,0.41-1.63,0.88c-0.42,0.49-0.63,1.12-0.63,1.75
			c0,0.02,0,0.02,0,0.02c-0.12,0.07-0.22,0.12-0.32,0.2c-0.19,0.15-0.42,0.29-0.56,0.51c-0.34,0.46-0.44,1.1-0.22,1.73
			c0.12,0.41,0.34,0.76,0.58,1.1c-0.12,0.12-0.24,0.24-0.34,0.39c-0.07,0.1-0.14,0.24-0.17,0.44c-0.02,0.32,0.15,0.66,0.46,0.83
			c0.19,0.12,0.44,0.17,0.73,0.17h0.02c0.07,0,0.15,0,0.22-0.02c0,0.02,0,0.05,0.03,0.05c0.19,0.29,0.51,0.46,0.73,0.56
			c0.24,0.1,0.63,0.22,1.05,0.22c0.29,0,0.58-0.07,0.88-0.24c0.32-0.19,0.54-0.51,0.66-0.85c0.34,0.1,0.66,0.15,1,0.15
			c0.36,0,0.73-0.05,1.05-0.17c0.68-0.24,1.22-0.71,1.54-1.29c0.39,0.15,0.78,0.27,1.22,0.29c0.64,0.07,1.24-0.17,1.59-0.63
			c0.27-0.34,0.34-0.75,0.24-1.15c0.32,0,0.59-0.07,0.85-0.17c0.59-0.24,0.97-0.78,1-1.34C20.93,10.78,20.32,10.22,19.69,10.05z
			 M20.09,11.68l-0.02-0.02c-0.1-0.05-0.22-0.05-0.32-0.02c-0.12-0.05-0.27-0.2-0.39-0.34s-0.36-0.17-0.51-0.02
			c-0.14,0.12-0.17,0.36-0.02,0.51c0.12,0.15,0.32,0.36,0.59,0.49c-0.24,0.07-0.56,0.07-0.95,0.02c-0.17-0.02-0.32,0.07-0.39,0.22
			c-0.07,0.15-0.02,0.32,0.1,0.42c0.22,0.17,0.22,0.56,0.02,0.83c-0.19,0.27-0.59,0.41-1.03,0.39c-0.38-0.05-0.82-0.22-1.23-0.39
			c-0.1-0.05-0.19-0.05-0.29,0c-0.1,0.05-0.17,0.12-0.19,0.22c-0.12,0.34-0.36,0.66-0.68,0.9c-0.02,0-0.05-0.02-0.07-0.02
			l-0.22-0.19c-0.12-0.1-0.24-0.19-0.29-0.29c-0.03-0.02-0.03-0.07-0.03-0.12c-0.02-0.22,0.03-0.46,0.15-0.66
			c0.1-0.17,0.07-0.39-0.1-0.49c-0.17-0.1-0.39-0.07-0.49,0.1c-0.22,0.34-0.32,0.76-0.24,1.15c0.02,0.12,0.05,0.22,0.1,0.32
			c0.12,0.27,0.32,0.44,0.49,0.56c-0.49,0.12-1.02,0.1-1.56-0.07c-0.05-0.29-0.19-0.56-0.39-0.76c-0.15-0.15-0.37-0.15-0.51,0
			c-0.15,0.15-0.15,0.36,0,0.51c0.17,0.17,0.24,0.41,0.22,0.66c-0.02,0.24-0.17,0.46-0.36,0.59c-0.44,0.27-1.02,0.05-1.27-0.05
			c-0.07-0.03-0.17-0.07-0.27-0.15c0.32-0.15,0.61-0.34,0.85-0.61c0.15-0.15,0.12-0.37-0.02-0.51c-0.15-0.15-0.36-0.12-0.51,0.02
			c-0.34,0.37-0.83,0.58-1.34,0.58c-0.17,0-0.29-0.02-0.39-0.07c-0.07-0.05-0.1-0.1-0.1-0.15c0-0.02,0.02-0.05,0.05-0.12
			c0.29-0.46,0.93-0.71,1.46-0.56c0.2,0.05,0.39-0.07,0.44-0.24c0.05-0.19-0.07-0.39-0.27-0.44c-0.44-0.12-0.9-0.07-1.29,0.1
			c-0.22-0.29-0.42-0.58-0.51-0.93c-0.12-0.41-0.07-0.83,0.12-1.07c0.1-0.12,0.24-0.24,0.39-0.34c0.27-0.17,0.61-0.39,0.95-0.39
			c0.24,0,0.51,0.15,0.56,0.37c0,0.02,0.02,0.07,0.02,0.1c0,0.05,0.02,0.1,0.05,0.15c0.1,0.17,0.34,0.22,0.51,0.12
			c0.17-0.1,0.24-0.32,0.17-0.49c-0.02-0.05-0.05-0.07-0.07-0.1c-0.17-0.56-0.73-0.85-1.27-0.85c-0.1,0-0.19,0.02-0.29,0.02
			c0.05-0.39,0.19-0.76,0.44-1.02c0.29-0.34,0.73-0.58,1.19-0.63c0.22-0.02,0.39,0,0.46,0.1c0.02,0.05,0.07,0.07,0.12,0.1
			c0.1,0.19,0.22,0.37,0.34,0.51c0.07,0.1,0.17,0.15,0.29,0.15c0.07,0,0.15-0.02,0.22-0.07c0.17-0.12,0.19-0.34,0.07-0.51
			c-0.19-0.27-0.39-0.54-0.46-0.8c-0.07-0.27-0.02-0.51,0.1-0.66c0.07-0.07,0.19-0.15,0.34-0.19c0.34-0.1,0.66-0.07,0.9,0.05
			c0.24,0.12,0.44,0.39,0.41,0.63c0,0.17,0.12,0.32,0.29,0.37c0.17,0.05,0.34-0.05,0.42-0.22c0.1-0.22,0.27-0.54,0.54-0.71
			c0.22-0.15,0.51-0.17,0.71-0.07c0.17,0.1,0.29,0.32,0.22,0.49c-0.08,0.17,0.02,0.39,0.19,0.46c0.17,0.07,0.39,0,0.46-0.19
			c0.17-0.37,0.73-0.56,1.15-0.41c0.39,0.15,0.71,0.51,0.85,0.98c-0.14-0.03-0.27,0-0.39,0c-0.32,0.05-0.61,0.12-0.9,0.24
			c-0.19,0.07-0.27,0.29-0.19,0.46c0.07,0.17,0.29,0.27,0.46,0.19c0.22-0.1,0.46-0.17,0.71-0.19c0.1-0.02,0.27-0.02,0.36,0.02
			c0.07,0.05,0.15,0.12,0.17,0.24c0.02,0.05,0.02,0.12,0.05,0.17c-0.76,0.12-1.44,0.68-1.66,1.44c-0.05,0.2,0.07,0.39,0.24,0.44
			c0.19,0.05,0.39-0.07,0.44-0.24c0.14-0.59,0.8-1,1.39-0.93c0.39,0.05,0.8,0.39,0.78,0.78C20.14,11.55,20.11,11.6,20.09,11.68z"/>
		<path d="M16.03,11.99c0-0.24,0.02-0.54-0.2-0.8c-0.22-0.27-0.56-0.36-0.97-0.27c-0.02-0.07-0.02-0.15-0.05-0.22
			c-0.07-0.24-0.22-0.44-0.39-0.56c-0.34-0.27-0.78-0.22-1.1-0.17c-0.83,0.15-1.41,0.46-1.73,0.95c-0.1,0.17-0.05,0.39,0.1,0.49
			c0.17,0.1,0.39,0.05,0.49-0.1c0.19-0.32,0.63-0.54,1.24-0.63c0.17-0.02,0.41-0.05,0.56,0.05c0.05,0.05,0.1,0.12,0.15,0.22
			c0.05,0.12,0.05,0.24,0.05,0.39c-0.03,0.02-0.03,0.05-0.03,0.1c-0.05,0.12-0.02,0.27,0.07,0.39c0.07,0.12,0.22,0.17,0.37,0.15
			c0.15-0.02,0.24-0.12,0.27-0.27c0.22-0.07,0.39-0.07,0.44-0.02c0.05,0.05,0.05,0.19,0.02,0.34c0,0.02,0,0.02,0,0.05
			c-0.02-0.02-0.05,0.03-0.05,0.07c-0.02,0.12,0.02,0.24,0.12,0.32c0.07,0.1,0.17,0.17,0.32,0.17h0.02c0.19,0,0.34-0.17,0.34-0.34
			c0-0.02,0-0.05,0-0.07C16.03,12.14,16.03,12.07,16.03,11.99z"/>
		<path d="M12.01,12.04c-0.17-0.02-0.36,0-0.51,0.12c-0.05,0.02-0.1,0.07-0.15,0.1c-0.05-0.02-0.1-0.07-0.17-0.1
			c-0.12-0.05-0.22-0.05-0.32-0.02c-0.41,0.02-0.8,0.19-1.12,0.49c-0.15,0.15-0.15,0.37,0,0.51c0.07,0.07,0.17,0.12,0.27,0.12
			c0.1,0,0.17-0.02,0.24-0.1c0.17-0.17,0.41-0.27,0.68-0.29c0,0.02,0.02,0.02,0.05,0.05c0.05,0.05,0.1,0.12,0.19,0.19
			c0.07,0.07,0.2,0.07,0.29,0.07c0.1-0.02,0.19-0.07,0.24-0.17c0.05-0.1,0.12-0.19,0.19-0.24c0.12,0.1,0.29,0.1,0.41,0.02
			c0.1-0.07,0.15-0.17,0.15-0.27c0.05-0.12,0.02-0.24-0.05-0.36C12.33,12.02,12.16,11.99,12.01,12.04z"/>
		<path d="M13.57,9.36c0.22,0.1,0.44,0.15,0.68,0.15c0.19,0,0.41-0.05,0.58-0.12c0.34-0.15,0.63-0.41,0.78-0.76
			c0.12-0.12,0.12-0.36,0.02-0.51c-0.07-0.1-0.22-0.15-0.34-0.15C15.18,8,15.06,8.09,15.01,8.22c-0.07,0.22-0.24,0.39-0.46,0.49
			c-0.22,0.1-0.46,0.07-0.66-0.02c-0.17-0.1-0.39-0.02-0.49,0.17C13.3,9.05,13.38,9.26,13.57,9.36z"/>
	</g>
</g>
</svg>
