<?xml version="1.0" encoding="utf-8"?>
<!-- Generator: Adobe Illustrator 25.2.1, SVG Export Plug-In . SVG Version: 6.00 Build 0)  -->
<svg version="1.1" id="Layer_1" xmlns="http://www.w3.org/2000/svg" xmlns:xlink="http://www.w3.org/1999/xlink" x="0px" y="0px"
	 width="150px" height="200px" viewBox="0 0 150 200" enable-background="new 0 0 150 200" xml:space="preserve">
<g>
	<path d="M124.1,126c-4.3-4.6-8.7-9.1-13.4-13.3c-5.5-5.1-10.5-4.9-16.1,0.2c-2.4,2.2-4.4,4.9-7,6.7c-1.5,1-4.2,1.6-5.7,1
		c-9.4-4.2-17.6-9.9-23-19.1c-6.3-10.7-6.5-10.6,2.2-19.6c6.9-7.1,6.8-12-0.2-19.3C56.6,58.1,47.9,49,47.8,49
		c-2.7-2.3-4.4-2.6-7.9-2.4c-1.8,0.1-3.5,1.1-5.1,2.4c-0.1,0-1,0.8-1.3,1.2c-0.8,0.8-1.5,1.6-2.2,2.5c-0.5,0.6-1.1,1.2-1.6,1.8
		c-8.3,9.7-10.1,20.2-5.1,32.2c7,16.9,16.1,32.6,30.5,43.9c8.2,6.4,16.6,11.9,26.4,16.9c0,0,7.1,3.8,7.4,3.8
		c3.3,1.2,7.1,2.2,11.1,2.1c10.5-0.3,20.8-8.5,22.4-9.7C129.3,138.5,129.8,132.1,124.1,126z M120.7,138c-6.1,5.1-12.6,9.7-22.3,10.1
		c-3.3-0.1-4.8-0.9-7.6-2c-30.6-12-51-33.9-62.1-64.7c-4.1-11.4,1.4-19.5,8.9-27.1c0.3-0.3,0.6-0.6,1-0.8c0.3-0.2,0.6-0.3,1-0.5
		c1.9-0.7,3.9,0.1,5.7,1.8c4.5,4.4,9,8.9,13.4,13.4c2.8,2.8,2.7,5.8,0,8.6c-2.5,2.6-5,5.3-7.8,7.8c-3,2.7-3.5,5.6-2,9.3
		c6.2,15.6,17.3,26.3,32.6,32.8c3.7,1.6,6.6,1,9.3-2c2.3-2.6,4.9-4.9,7.3-7.3c3.1-3.2,6.3-3.4,9.5-0.2c4.3,4.3,8.6,8.6,12.9,12.9
		C122.9,132.5,123.5,135.6,120.7,138z"/>
	<path fill="#FFFFFF" d="M107.4,117c-3.2-3.2-6.4-3-9.5,0.2c-2.4,2.5-5,4.8-7.3,7.3c-2.7,3-5.6,3.6-9.3,2
		C66,120,54.9,109.4,48.8,93.7c-1.5-3.7-1-6.6,2-9.3c2.7-2.4,5.2-5.1,7.8-7.8c2.7-2.8,2.8-5.8,0-8.6c-4.4-4.5-8.9-9-13.4-13.4
		c-1.7-1.7-3.7-2.5-5.7-1.8c-0.3,0.1-0.6,0.3-1,0.5c-0.3,0.2-0.7,0.5-1,0.8c-7.5,7.6-13,15.8-8.9,27.1C39.8,112.1,60.2,134,90.8,146
		c2.8,1.1,4.3,1.8,7.6,2c9.8-0.3,16.2-5,22.3-10.1c2.8-2.3,2.2-5.5-0.3-8C116.1,125.6,111.7,121.3,107.4,117z"/>
</g>
</svg>
