<?xml version="1.0" encoding="utf-8"?>
<!-- Generator: Adobe Illustrator 25.2.1, SVG Export Plug-In . SVG Version: 6.00 Build 0)  -->
<svg version="1.1" id="Legal" xmlns="http://www.w3.org/2000/svg" xmlns:xlink="http://www.w3.org/1999/xlink" x="0px" y="0px"
	 width="150px" height="200px" viewBox="0 0 150 200" enable-background="new 0 0 150 200" xml:space="preserve">
<g>
	<path d="M55.3,152.4c-1.3,0-2.4-1.1-2.4-2.4v-4.5c0-1.3,1.1-2.4,2.4-2.4h3.6l6.2-6.2v-5.1c0-1.3,1.1-2.4,2.4-2.4h2.2V64.4H37.2
		l15.4,37.8l0.3,0.1c1,0.3,1.7,1.2,1.7,2.3v4.5c0,1.3-1.1,2.4-2.3,2.4H52l-0.5,0.2l-5.2,5.2c-0.4,0.4-1,0.7-1.7,0.7H24.9
		c-0.6,0-1.2-0.3-1.7-0.7l-5.4-5.4h-0.3c-1.6,0-2.6-1-2.6-2.4v-4.5c0-1,0.7-2,1.7-2.3l0.3-0.1l15.4-37.8h-7.5c-1.3,0-2.4-1-2.4-2.4
		v-3c0-1.2,0.9-2.2,2-2.3l43.7-5.8l0.2-0.2c1.6-2,4-3.1,6.5-3.1c2.5,0,4.9,1.1,6.5,3.1l0.2,0.2l43.7,5.8c1.2,0.2,2,1.2,2,2.3v3
		c0,1.3-1.1,2.4-2.4,2.4h-7.5l15.4,37.8l0.3,0.1c1,0.3,1.7,1.2,1.7,2.3v4.5c0,1.3-1.1,2.4-2.4,2.4h-0.3l-0.5,0.2l-5.2,5.2
		c-0.4,0.4-1,0.7-1.7,0.7h-19.7c-0.6,0-1.2-0.3-1.7-0.7l-5.4-5.4H98c-1.6,0-2.6-1-2.6-2.4v-4.5c0-1,0.7-2,1.7-2.3l0.3-0.1l15.4-37.8
		H80.4v65.1h2.2c1.3,0,2.4,1.1,2.4,2.4v5.1l6.2,6.2h3.6c1.3,0,2.3,1,2.3,2.3v4.6c0,1.3-1,2.4-2.3,2.4L55.3,152.4L55.3,152.4z
		 M100.9,102.2h28.6L115.2,67L100.9,102.2z M20.5,102.2h28.6L34.8,67L20.5,102.2z"/>
	<polygon fill="#FFFFFF" points="67.6,138.9 61.5,145 56.1,146.5 56.1,149.2 93.9,149.2 93.9,146.5 88.2,144.9 82.2,138.8 
		81.7,137.6 81.7,132.7 68.3,132.7 68.3,137.9 67.8,138.7 67.8,138.7 	"/>
	<path fill="#FFFFFF" d="M72.8,129.4h4.4V62.6l-0.8,0.2c-0.5,0.1-0.9,0.1-1.4,0.1c-0.5,0-0.9-0.1-1.4-0.1l-0.8-0.2L72.8,129.4
		L72.8,129.4z"/>
	<polygon fill="#FFFFFF" points="98.6,107.9 101,109.7 105.7,114.3 124.7,114.3 129.5,109.6 131.8,107.9 131.8,105.4 98.6,105.4 
		98.6,107.9 	"/>
	<polygon fill="#FFFFFF" points="18.2,107.9 20.6,109.7 25.3,114.3 44.3,114.3 49.1,109.6 51.4,107.9 51.4,105.4 18.2,105.4 	"/>
	<path fill="#FFFFFF" d="M81.8,55c0.1,0.3,0.1,0.7,0.1,1c0,1.5-0.5,2.9-1.4,4.1l-0.8,1.1h44.6V60l-0.6-0.3l-42-5.6L81.8,55z"/>
	<circle fill="#FFFFFF" cx="75" cy="56" r="5.2"/>
	<path fill="#FFFFFF" d="M25.8,59.8V61l0.7,0.2h43.9l-0.8-1.1c-0.9-1.2-1.4-2.7-1.4-4.1c0-0.4,0.1-0.7,0.1-1l0.1-0.9L25.8,59.8z"/>
</g>
</svg>
