<?xml version="1.0" encoding="utf-8"?>
<!-- Generator: Adobe Illustrator 25.2.1, SVG Export Plug-In . SVG Version: 6.00 Build 0)  -->
<svg version="1.1" id="Layer_1" xmlns="http://www.w3.org/2000/svg" xmlns:xlink="http://www.w3.org/1999/xlink" x="0px" y="0px"
	 width="150px" height="200px" viewBox="0 0 150 200" enable-background="new 0 0 150 200" xml:space="preserve">
<g>
	<g>
		<path fill="#FFFFFF" d="M124.7,106.2c3.1-3.2,5.1-6.7,3.2-11.2c-2-4.8-5.6-6.9-10.9-7.1c-9-0.2-17.9-0.9-27.2-1.5
			c0.4-1.7,0.8-3,1.1-4.3c1.9-9.5,2.2-18.9-1.5-28c-1.6-4.1-4.4-7.3-9.1-7.4c-4.8-0.1-6.4,3.8-7.5,7.5c-2.5,8.1-4.5,16.3-6.7,24.5
			c-2.5,9.3-8,15.8-17.5,18c-4.1,1-4.8,3-4.7,6.6c0.2,11.2,0.2,22.3,0.2,33.5c0,7.8,6.1,14.1,14,14.5c16.8,0.7,33.6,1.3,50.4,1.8
			c6.2,0.2,10.6-5,9.5-11.2c-0.3-1.6-0.9-3.1-1.5-4.9c4.6-3.3,7.9-7.1,3.9-12.8c7.5-6.7,7.7-7.8,3.5-16.9
			C124.1,107.1,124.3,106.6,124.7,106.2z"/>
		<path fill="#FFFFFF" d="M40.6,111.5c-0.2-15.6,2.4-13.1-14-13.4c-4-0.1-5.3,1.7-5.2,5.4c0.2,5.8,0,11.7,0,17.5c0,3.3,0,6.7,0,10
			c0.2,15.5-2.1,13.1,13.6,13.5c4.6,0.1,5.7-1.9,5.6-6C40.5,129.5,40.7,120.5,40.6,111.5z"/>
	</g>
	<g>
		<path d="M89.8,86.5C99.1,87,108,87.8,117,88c5.3,0.1,8.9,2.2,10.9,7.1c1.9,4.5-0.2,8-3.2,11.2c-0.3,0.3-0.5,0.8-0.8,1.2
			c4.2,9.1,4,10.2-3.5,16.9c4,5.7,0.7,9.5-3.9,12.8c0.5,1.8,1.2,3.3,1.5,4.9c1.1,6.1-3.3,11.4-9.5,11.2c-16.8-0.5-33.6-1.1-50.4-1.8
			c-7.9-0.3-14-6.7-14-14.5c-0.1-11.2,0-22.3-0.2-33.5c-0.1-3.7,0.7-5.7,4.7-6.6c9.4-2.3,15-8.8,17.5-18c2.2-8.2,4.3-16.4,6.7-24.5
			c1.1-3.6,2.7-7.6,7.5-7.5c4.7,0.1,7.5,3.4,9.1,7.4c3.7,9.1,3.4,18.5,1.5,28C90.6,83.5,90.2,84.8,89.8,86.5z M80.1,50.8
			c-1.4,3.6-2.4,5.6-3.1,7.8c-2.3,7.8-4.4,15.7-6.5,23.5c-2.5,9.4-8.5,15.7-17.5,19c-3.2,1.2-3.9,2.8-3.8,5.8
			c0.2,9.2,0.2,18.3,0.2,27.5c0,8,2.7,11,10.8,11.4c15.6,0.7,31.3,1.2,46.9,1.7c1.6,0,4.1-0.6,4.6-1.7c0.7-1.5,0.6-4.3-0.4-5.5
			c-3.9-4.2-2.1-6.2,2.2-7.9c2.8-1.1,4.1-3.3,1.7-5.8c-4.1-4.3-1.8-5.9,2.4-7.7c4.4-1.9,4.8-5.4,0.9-7.9c-4.3-2.8-3.7-4.4,0-7.1
			c2-1.5,3.9-3.1,4.3-7c-0.8-3.1-5-3-7.6-3.3c-9.4-0.8-18.9-1-28.4-1.6c-4.9-0.3-5.7-1.8-3.6-6c4.7-9.3,3.9-19,1.6-28.7
			C83.6,52.1,82.3,50.1,80.1,50.8z"/>
		<path d="M21.4,121c0-5.8,0.1-11.7,0-17.5c-0.1-3.7,1.2-5.5,5.2-5.4c16.4,0.3,13.8-2.2,14,13.4c0.1,9-0.1,18,0.1,27
			c0.1,4.1-1.1,6.1-5.6,6c-15.7-0.4-13.4,2-13.6-13.5C21.4,127.6,21.4,124.3,21.4,121z M27.4,103.8c0,11.7,0,23,0,34.6
			c2.6,0,4.8,0,7.3,0c0-11.7,0-23,0-34.6C32.1,103.8,29.9,103.8,27.4,103.8z"/>
	</g>
</g>
</svg>
