<?xml version="1.0" encoding="utf-8"?>
<!-- Generator: Adobe Illustrator 25.1.0, SVG Export Plug-In . SVG Version: 6.00 Build 0)  -->
<svg version="1.1" id="marker" xmlns="http://www.w3.org/2000/svg" xmlns:xlink="http://www.w3.org/1999/xlink" x="0px" y="0px"
	 viewBox="0 0 30 40" style="enable-background:new 0 0 30 40;" xml:space="preserve">
<style type="text/css">
	.st0{fill:#005EA2;}
	.st1{fill:#FFFFFF;}
</style>
<g>
	<path class="st0" d="M15,1.11C7.66,1.11,1.68,7.3,1.68,14.9c0,3.13,2.41,8.31,6.97,14.98c2.54,3.71,5.11,6.93,6.34,8.45
		c1.24-1.51,3.8-4.74,6.34-8.45c4.56-6.67,6.97-11.84,6.97-14.98C28.32,7.3,22.34,1.11,15,1.11z"/>
	<path d="M15,0.11C7.09,0.11,0.68,6.73,0.68,14.9S15,39.89,15,39.89S29.32,23.06,29.32,14.9S22.91,0.11,15,0.11z M1.68,14.9
		C1.68,7.3,7.66,1.11,15,1.11S28.32,7.3,28.32,14.9c0,3.13-2.41,8.31-6.97,14.98c-2.54,3.71-5.11,6.93-6.34,8.45
		c-1.24-1.51-3.8-4.74-6.34-8.45C4.09,23.21,1.68,18.03,1.68,14.9z"/>
</g>
<g>
	<path d="M22.38,4.83H7.56c-0.52,0-0.94,0.42-0.94,0.94v0.7h-0.7c-0.16,0-0.29,0.13-0.29,0.29c0,0.16,0.13,0.29,0.29,0.29h0.7v1.9
		h-0.7c-0.16,0-0.29,0.13-0.29,0.29c0,0.16,0.13,0.29,0.29,0.29h0.7v1.9h-0.7c-0.16,0-0.29,0.13-0.29,0.29
		c0,0.16,0.13,0.29,0.29,0.29h0.7v1.9h-0.7c-0.16,0-0.29,0.13-0.29,0.29c0,0.16,0.13,0.29,0.29,0.29h0.7v1.9h-0.7
		c-0.16,0-0.29,0.13-0.29,0.29s0.13,0.29,0.29,0.29h0.7v1.9h-0.7c-0.16,0-0.29,0.13-0.29,0.29c0,0.16,0.13,0.29,0.29,0.29h0.7v1.9
		h-0.7c-0.16,0-0.29,0.13-0.29,0.29c0,0.16,0.13,0.29,0.29,0.29h0.7v1.9h-0.7c-0.16,0-0.29,0.13-0.29,0.29
		c0,0.16,0.13,0.29,0.29,0.29h0.7v0.87c0,0.52,0.42,0.94,0.94,0.94h14.82c0.52,0,0.94-0.42,0.94-0.94V5.77
		C23.33,5.25,22.9,4.83,22.38,4.83z M9.09,25.58H7.56c-0.21,0-0.37-0.17-0.37-0.37v-0.87h0h0.37c0.16,0,0.29-0.13,0.29-0.29
		c0-0.16-0.13-0.29-0.29-0.29H7.19v-1.9h0.37c0.16,0,0.29-0.13,0.29-0.29c0-0.16-0.13-0.29-0.29-0.29H7.19v-1.9h0.37
		c0.16,0,0.29-0.13,0.29-0.29c0-0.16-0.13-0.29-0.29-0.29H7.19v-1.9h0.37c0.16,0,0.29-0.13,0.29-0.29c0-0.16-0.13-0.29-0.29-0.29
		H7.19v-1.9h0.37c0.16,0,0.29-0.13,0.29-0.29s-0.13-0.29-0.29-0.29H7.19v-1.9h0.37c0.16,0,0.29-0.13,0.29-0.29
		c0-0.16-0.13-0.29-0.29-0.29H7.19v-1.9h0.37c0.16,0,0.29-0.13,0.29-0.29S7.72,8.94,7.56,8.94H7.19v-1.9h0.37
		c0.16,0,0.29-0.13,0.29-0.29c0-0.16-0.13-0.29-0.29-0.29H7.19v-0.7c0-0.21,0.17-0.37,0.37-0.37h1.53V25.58z M22.76,25.21
		c0,0.21-0.17,0.37-0.38,0.37H9.65V5.4h12.73c0.21,0,0.38,0.17,0.38,0.37V25.21z"/>
	<path class="st1" d="M22.38,5.4H9.65v20.18h12.73c0.21,0,0.38-0.17,0.38-0.37V5.77C22.76,5.57,22.59,5.4,22.38,5.4z M16.12,11.09
		c1.25,0,2.26,1.02,2.26,2.26c0,1.25-1.02,2.26-2.26,2.26c-1.25,0-2.26-1.01-2.26-2.26C13.86,12.1,14.88,11.09,16.12,11.09z
		 M20.53,19.61c0,0.16-0.13,0.29-0.29,0.29h-8.24c-0.16,0-0.29-0.13-0.29-0.29v-1.45c0-1.4,1.14-2.54,2.54-2.54
		c0.07,0,0.13,0.02,0.18,0.07c0.47,0.39,1.07,0.6,1.68,0.6c0.61,0,1.21-0.21,1.68-0.6c0.05-0.04,0.12-0.07,0.18-0.07
		c1.4,0,2.54,1.14,2.54,2.54V19.61z"/>
	<path class="st1" d="M7.19,5.77v0.7h0.37c0.16,0,0.29,0.13,0.29,0.29c0,0.16-0.13,0.29-0.29,0.29H7.19v1.9h0.37
		c0.16,0,0.29,0.13,0.29,0.29S7.72,9.51,7.56,9.51H7.19v1.9h0.37c0.16,0,0.29,0.13,0.29,0.29s-0.13,0.29-0.29,0.29H7.19v1.9h0.37
		c0.16,0,0.29,0.13,0.29,0.29s-0.13,0.29-0.29,0.29H7.19v1.9h0.37c0.16,0,0.29,0.13,0.29,0.29s-0.13,0.29-0.29,0.29H7.19v1.9h0.37
		c0.16,0,0.29,0.13,0.29,0.29c0,0.16-0.13,0.28-0.29,0.28H7.19v1.9h0.37c0.16,0,0.29,0.13,0.29,0.29c0,0.16-0.13,0.29-0.29,0.29
		H7.19v1.9h0.37c0.16,0,0.29,0.13,0.29,0.29c0,0.16-0.13,0.29-0.29,0.29H7.19h0v0.87c0,0.21,0.17,0.37,0.37,0.37h1.53V5.4H7.56
		C7.35,5.4,7.19,5.56,7.19,5.77z"/>
	<path d="M17.99,15.62c-0.07,0-0.13,0.02-0.18,0.07c-0.47,0.39-1.07,0.6-1.68,0.6c-0.61,0-1.21-0.21-1.68-0.6
		c-0.05-0.04-0.12-0.07-0.18-0.07c-1.4,0-2.54,1.14-2.54,2.54v1.45c0,0.16,0.13,0.29,0.29,0.29h8.24c0.16,0,0.29-0.13,0.29-0.29
		v-1.45C20.53,16.76,19.39,15.62,17.99,15.62z M19.96,19.32h-7.67v-1.17c0-1.04,0.84-1.92,1.87-1.97c0.56,0.43,1.25,0.66,1.96,0.66
		c0.71,0,1.4-0.24,1.96-0.66c1.04,0.05,1.87,0.92,1.87,1.97L19.96,19.32L19.96,19.32z"/>
	<path d="M16.12,15.61c1.25,0,2.26-1.01,2.26-2.26c0-1.25-1.02-2.26-2.26-2.26c-1.25,0-2.26,1.02-2.26,2.26
		C13.86,14.6,14.88,15.61,16.12,15.61z M16.12,11.66c0.93,0,1.69,0.76,1.69,1.69c0,0.93-0.76,1.69-1.69,1.69
		c-0.93,0-1.69-0.76-1.69-1.69C14.43,12.42,15.19,11.66,16.12,11.66z"/>
</g>
</svg>
