<?xml version="1.0" encoding="utf-8"?>
<!-- Generator: Adobe Illustrator 25.2.1, SVG Export Plug-In . SVG Version: 6.00 Build 0)  -->
<svg version="1.1"
	 id="Layer_1" xmlns:cc="http://creativecommons.org/ns#" xmlns:dc="http://purl.org/dc/elements/1.1/" xmlns:rdf="http://www.w3.org/1999/02/22-rdf-syntax-ns#"
	 xmlns="http://www.w3.org/2000/svg" xmlns:xlink="http://www.w3.org/1999/xlink" x="0px" y="0px" width="150px" height="200px"
	 viewBox="0 0 150 200" enable-background="new 0 0 150 200" xml:space="preserve">
<g>
	<path fill="none" d="M75,70.1c-12.2,0-22,9.9-22,22c0,12.2,9.9,22,22,22c12.1,0,22-9.9,22-22c0-5.9-2.3-11.4-6.5-15.6
		S80.9,70.1,75,70.1z"/>
	<path fill="#FFFFFF" d="M96.9,36.1v9.7h15.8L95.5,63.1C89.7,59,82.6,56.6,75,56.6c-7.6,0-14.7,2.4-20.5,6.5l-2.6-2.6l7.3-7.3
		l-7.3-7.3l-7.3,7.3l-7.3-7.3h7.3v-9.7H20.3v24.3H30v-7.3l7.3,7.3L30,67.8l7.3,7.3l7.3-7.3l2.4,2.4c-4.8,6.1-7.7,13.8-7.7,22.1
		c0,17.8,13.1,32.7,30.2,35.3l0,12.6h-14v10.9h14v12.8h10.9v-12.8h14v-10.9h-14v-12.6v0c17.1-2.6,30.2-17.5,30.2-35.3
		c0-8.3-2.9-16-7.7-22.1l17-17V69h9.7V36.1H96.9z M75,117.7c-14.1,0-25.5-11.4-25.5-25.5C49.5,78,60.9,66.6,75,66.6
		c14.1,0,25.5,11.4,25.5,25.6C100.5,106.2,89.1,117.7,75,117.7z"/>
	<g>
		<path d="M129.7,32.6H96.9h-3.5v3.5v9.7v3.5h3.5h7.4L95,58.6C89,55,82.1,53.1,75,53.1c-4.5,0-8.8,0.8-13,2.2l2.1-2.1l-2.5-2.5
			l-7.3-7.3l-2.5-2.5l-2.5,2.5l-1.3,1.3v-8.6v-3.5h-3.5H20.3h-3.5v3.5v24.3V64h3.5h8.6l-1.3,1.3L25,67.8l2.5,2.5l7.3,7.3l2.5,2.5
			l0.7-0.7c-1.5,4.1-2.2,8.5-2.2,13c0,9.4,3.4,18.5,9.5,25.6c5.4,6.3,12.7,10.7,20.7,12.5l0,6.2H55.5H52v3.5v10.9v3.5h3.5H66v9.3
			v3.5h3.5h10.9H84v-3.5v-9.3h10.5H98v-3.5v-10.9v-3.5h-3.5H84v-6.2c8-1.9,15.2-6.3,20.7-12.5c6.2-7.1,9.6-16.2,9.6-25.6
			c0-7.8-2.3-15.3-6.6-21.7l8.9-8.9V69v3.5h3.5h9.7h3.5V69V36.1v-3.5H129.7z M129.7,69H120V53.2l-17,17c4.8,6.1,7.7,13.8,7.7,22.1
			c0,17.8-13.1,32.6-30.2,35.3v0v12.6h14v10.9h-14v12.8H69.5v-12.8h-14v-10.9h14l0-12.6c-17.1-2.6-30.2-17.5-30.2-35.3
			c0-8.3,2.9-16,7.7-22.1l-2.4-2.4l-7.3,7.3L30,67.8l7.3-7.3L30,53.2v7.3h-9.7V36.1h24.3v9.7h-7.3l7.3,7.3l7.3-7.3l7.3,7.3l-7.3,7.3
			l2.6,2.6c5.8-4.1,12.9-6.5,20.5-6.5c7.6,0,14.7,2.4,20.5,6.5l17.2-17.2H96.9v-9.7h32.8V69z"/>
		<path d="M75,66.6c-14.1,0-25.5,11.4-25.5,25.5c0,14.1,11.4,25.5,25.5,25.5c14.1,0,25.5-11.4,25.5-25.5C100.5,78,89.1,66.6,75,66.6
			z M75,114.2c-12.2,0-22-9.9-22-22c0-12.2,9.9-22,22-22c5.9,0,11.4,2.3,15.6,6.5S97,86.2,97,92.1C97,104.3,87.1,114.2,75,114.2z"/>
	</g>
</g>
</svg>
