<?xml version="1.0" encoding="utf-8"?>
<!-- Generator: Adobe Illustrator 25.2.0, SVG Export Plug-In . SVG Version: 6.00 Build 0)  -->
<svg version="1.1" id="marker" xmlns="http://www.w3.org/2000/svg" xmlns:xlink="http://www.w3.org/1999/xlink" x="0px" y="0px"
	 width="30px" height="40px" viewBox="0 0 30 40" enable-background="new 0 0 30 40" xml:space="preserve">
<g>
	<path fill="#005EA2" d="M15,1.1C7.7,1.1,1.7,7.3,1.7,14.9c0,3.1,2.4,8.3,7,15c2.5,3.7,5.1,6.9,6.3,8.4c1.2-1.5,3.8-4.7,6.3-8.5
		c4.6-6.7,7-11.8,7-15C28.3,7.3,22.3,1.1,15,1.1z"/>
	<path d="M15,0.1C7.1,0.1,0.7,6.7,0.7,14.9s14.3,25,14.3,25s14.3-16.8,14.3-25S22.9,0.1,15,0.1z M1.7,14.9c0-7.6,6-13.8,13.3-13.8
		s13.3,6.2,13.3,13.8c0,3.1-2.4,8.3-7,15c-2.5,3.7-5.1,6.9-6.3,8.4c-1.2-1.5-3.8-4.7-6.3-8.5C4.1,23.2,1.7,18,1.7,14.9z"/>
</g>
</svg>
