<?xml version="1.0" encoding="utf-8"?>
<!-- Generator: Adobe Illustrator 25.1.0, SVG Export Plug-In . SVG Version: 6.00 Build 0)  -->
<svg version="1.1" id="marker" xmlns="http://www.w3.org/2000/svg" xmlns:xlink="http://www.w3.org/1999/xlink" x="0px" y="0px"
	 viewBox="0 0 30 40" style="enable-background:new 0 0 30 40;" xml:space="preserve">
<style type="text/css">
	.st0{fill:#005EA2;}
	.st1{fill:#FFFFFF;}
</style>
<g>
	<g>
		<path class="st0" d="M15,1.11C7.66,1.11,1.68,7.3,1.68,14.9c0,3.13,2.41,8.31,6.97,14.98c2.54,3.71,5.11,6.93,6.34,8.45
			c1.24-1.51,3.8-4.74,6.34-8.45c4.56-6.67,6.97-11.84,6.97-14.98C28.32,7.3,22.34,1.11,15,1.11z"/>
		<path d="M15,0.11C7.09,0.11,0.68,6.73,0.68,14.9S15,39.89,15,39.89S29.32,23.06,29.32,14.9S22.91,0.11,15,0.11z M1.68,14.9
			C1.68,7.3,7.66,1.11,15,1.11S28.32,7.3,28.32,14.9c0,3.13-2.41,8.31-6.97,14.98c-2.54,3.71-5.11,6.93-6.34,8.45
			c-1.24-1.51-3.8-4.74-6.34-8.45C4.09,23.21,1.68,18.03,1.68,14.9z"/>
	</g>
	<g>
		<path d="M23.72,14.79h-0.18c0.29-0.3,0.47-0.71,0.47-1.16c0-0.92-0.75-1.67-1.67-1.67c-0.92,0-1.67,0.75-1.67,1.67
			c0,0.45,0.18,0.85,0.47,1.15c-0.07-0.01-0.17-0.01-0.3-0.03l-0.94-3.28c-0.55-1.93-2.19-1.98-2.38-1.98c-0.01,0-0.03,0-0.04,0
			h-0.5c0.41-0.38,0.68-0.92,0.68-1.52c0-1.14-0.93-2.07-2.07-2.07c-1.14,0-2.07,0.93-2.07,2.07c0,0.6,0.26,1.14,0.67,1.52h-0.16h0
			c-0.18,0-1.57,0.05-2.23,1.54c-0.62-1.4-1.86-1.53-2.16-1.54c0.41-0.38,0.68-0.92,0.68-1.52c0-1.15-0.94-2.08-2.1-2.08
			c-1.15,0-2.09,0.93-2.09,2.08c0,0.6,0.26,1.14,0.68,1.52C6.44,9.52,5,9.7,4.49,11.48L3.4,15.26c-0.1,0.34-0.07,0.69,0.1,0.98
			c0.16,0.3,0.45,0.52,0.79,0.62c0.12,0.04,0.25,0.05,0.37,0.05c0.07,0,0.14-0.01,0.21-0.02l-0.35,1.45c-0.05,0.21,0,0.44,0.13,0.61
			c0.14,0.17,0.34,0.27,0.56,0.27h0.65v3.82c0,0.77,0.62,1.39,1.39,1.39c0.37,0,0.71-0.15,0.96-0.39c0.25,0.24,0.59,0.39,0.96,0.39
			c0.77,0,1.4-0.62,1.4-1.39v-3.82h0.62c0.22,0,0.43-0.1,0.56-0.27c0.14-0.17,0.19-0.4,0.13-0.61l-0.35-1.47
			c0.07,0.01,0.15,0.02,0.23,0.02c0,0,0.01,0,0.02,0h0.02c0.42,0,0.8-0.2,1.04-0.53c0.1-0.13,0.17-0.27,0.21-0.44l0.1-0.36v7.34
			c0,0.84,0.68,1.51,1.52,1.51c0.43,0,0.82-0.18,1.09-0.47c0.28,0.29,0.66,0.47,1.09,0.47c0.84,0,1.52-0.68,1.52-1.51v-7.34
			l0.12,0.44c0.13,0.42,0.44,0.72,0.86,0.84c0.04,0.01,0.08,0.02,0.11,0.03c0.04,0.01,0.31,0.08,0.86,0.24v6.15
			c0,0.7,0.57,1.28,1.28,1.28c0.29,0,0.56-0.1,0.78-0.26c0.21,0.17,0.48,0.26,0.78,0.26c0.71,0,1.28-0.57,1.28-1.28v-3
			c0.04,0.01,0.09,0.01,0.13,0.01c0.62,0,1.13-0.51,1.13-1.14v-2.41C25.71,15.68,24.8,14.79,23.72,14.79z"/>
		<path class="st1" d="M22.35,12.68c0.53,0,0.95,0.43,0.95,0.95c0,0.53-0.43,0.95-0.95,0.95c-0.53,0-0.95-0.43-0.95-0.95
			C21.39,13.11,21.82,12.68,22.35,12.68z"/>
		<path class="st1" d="M15.59,6.62c0.75,0,1.36,0.61,1.36,1.36c0,0.75-0.61,1.36-1.36,1.36c-0.75,0-1.36-0.61-1.36-1.36
			C14.24,7.23,14.85,6.62,15.59,6.62z"/>
		<path class="st1" d="M8.23,6.61c0.76,0,1.38,0.61,1.38,1.37c0,0.76-0.62,1.37-1.38,1.37c-0.76,0-1.38-0.61-1.38-1.37
			C6.85,7.22,7.47,6.61,8.23,6.61z"/>
		<path class="st1" d="M24.99,19.14c0,0.23-0.18,0.42-0.41,0.42s-0.42-0.19-0.42-0.42c0-0.27,0-2.12,0-2.12h-0.43c0,0,0,5.79,0,6.25
			c0,0.31-0.25,0.56-0.56,0.56c-0.31,0-0.56-0.25-0.56-0.56c0-0.46,0-3.34,0-3.34h-0.44c0,0,0,2.88,0,3.34
			c0,0.31-0.25,0.56-0.56,0.56c-0.31,0-0.56-0.25-0.56-0.56c0-0.42,0-5.69,0-6.69c-0.55-0.16-1.29-0.37-1.45-0.4
			c-0.01,0-0.01-0.01-0.02-0.01c-0.18-0.04-0.33-0.16-0.39-0.35l-1.01-3.69l-0.51,0c0,0,0,10.13,0,10.78c0,0.44-0.36,0.8-0.8,0.8
			c-0.44,0-0.79-0.36-0.79-0.8c0-0.65,0-6.13,0-6.13h-0.59c0,0,0,5.48,0,6.13c0,0.44-0.36,0.8-0.8,0.8c-0.44,0-0.8-0.36-0.8-0.8
			c0-0.65,0-10.78,0-10.78l-0.47,0l-1.04,3.63c-0.02,0.07-0.05,0.13-0.09,0.19c-0.1,0.15-0.27,0.23-0.46,0.23c-0.01,0-0.01,0-0.02,0
			c-0.01,0-0.01,0-0.02,0c-0.19,0-0.36-0.09-0.46-0.23c-0.04-0.05-0.07-0.11-0.08-0.17l-1.05-3.65l-0.51,0l1.53,6.38H9.87v0v4.53
			c0,0.37-0.3,0.68-0.68,0.68c-0.37,0-0.68-0.3-0.68-0.68v-4.53H7.94v4.53c0,0.37-0.31,0.68-0.68,0.68c-0.37,0-0.68-0.3-0.68-0.68
			v-4.53v0H5.23l1.54-6.38l-0.51,0L5.2,15.82c-0.06,0.23-0.28,0.37-0.53,0.37c-0.06,0-0.12-0.01-0.18-0.02
			c-0.31-0.09-0.5-0.36-0.4-0.71l1.09-3.78c0.41-1.42,1.56-1.46,1.69-1.46c0.01,0,0.01,0,0.01,0h1.35h1.35c0,0,0,0,0.01,0
			c0.13,0,1.28,0.04,1.69,1.46c0,0,0.39,1.41,0.53,1.41c0.14,0,0.53-1.41,0.53-1.41c0.41-1.42,1.56-1.46,1.69-1.46
			c0.01,0,0.01,0,0.01,0h1.71h1.77c0,0,0,0,0.01,0c0.13,0,1.28,0.04,1.69,1.46l1.08,3.75c0,0,0.85,0.08,0.86,0.08
			c0.33,0,2.23,0,2.57,0c0.68,0,1.27,0.55,1.27,1.22C24.99,17.08,24.99,18.91,24.99,19.14z"/>
	</g>
</g>
</svg>
