<?xml version="1.0" encoding="utf-8"?>
<!-- Generator: Adobe Illustrator 16.0.0, SVG Export Plug-In . SVG Version: 6.00 Build 0)  -->
<!DOCTYPE svg PUBLIC "-//W3C//DTD SVG 1.1//EN" "http://www.w3.org/Graphics/SVG/1.1/DTD/svg11.dtd">
<svg version="1.1" id="Socal_Services" xmlns="http://www.w3.org/2000/svg" xmlns:xlink="http://www.w3.org/1999/xlink" x="0px"
	 y="0px" width="36px" height="40px" viewBox="0 0 36 40" enable-background="new 0 0 36 40" xml:space="preserve">
<path d="M31.859,19.357h-0.272c0.438-0.453,0.71-1.066,0.71-1.745c0-1.388-1.129-2.517-2.516-2.517
	c-1.389,0-2.518,1.129-2.518,2.517c0,0.677,0.271,1.287,0.707,1.739c-0.1-0.008-0.261-0.022-0.447-0.04l-1.418-4.943
	c-0.836-2.906-3.307-2.99-3.584-2.99c-0.015,0-0.045,0-0.059,0.001h-0.747c0.621-0.572,1.017-1.384,1.017-2.293
	c0-1.725-1.401-3.127-3.127-3.127c-1.723,0-3.125,1.402-3.125,3.127c0,0.909,0.396,1.721,1.016,2.293H17.25h-0.001
	c-0.276,0-2.373,0.074-3.36,2.326c-0.93-2.114-2.809-2.308-3.254-2.322c0.625-0.574,1.021-1.388,1.021-2.298
	c0-1.732-1.417-3.142-3.16-3.142c-1.74,0-3.156,1.409-3.156,3.142c0,0.91,0.396,1.723,1.02,2.297
	c-0.557,0.026-2.725,0.3-3.495,2.987l-1.636,5.698c-0.149,0.512-0.099,1.038,0.145,1.479c0.247,0.448,0.673,0.779,1.198,0.931
	c0.183,0.053,0.372,0.08,0.563,0.08c0.108,0,0.216-0.009,0.32-0.025l-0.53,2.189c-0.078,0.321-0.004,0.66,0.201,0.922
	c0.205,0.26,0.518,0.412,0.85,0.412H4.95v5.754c0,1.156,0.94,2.1,2.098,2.1c0.563,0,1.076-0.223,1.454-0.583
	c0.376,0.36,0.887,0.583,1.449,0.583c1.16,0,2.104-0.942,2.104-2.1v-5.754h0.94c0.331,0,0.644-0.152,0.849-0.412
	c0.204-0.26,0.279-0.599,0.202-0.92l-0.528-2.209c0.11,0.02,0.225,0.028,0.34,0.028c0.006,0,0.021,0,0.035,0h0.027
	c0.631,0,1.212-0.295,1.563-0.793c0.146-0.19,0.25-0.412,0.311-0.658l0.154-0.539v11.058c0,1.259,1.025,2.283,2.285,2.283
	c0.646,0,1.229-0.271,1.646-0.703c0.415,0.433,0.998,0.703,1.645,0.703c1.262,0,2.289-1.024,2.289-2.283V20.541l0.181,0.657
	c0.19,0.626,0.667,1.081,1.289,1.263c0.058,0.021,0.116,0.037,0.172,0.047c0.063,0.016,0.466,0.124,1.301,0.361v9.266
	c0,1.061,0.864,1.922,1.927,1.922c0.441,0,0.849-0.148,1.174-0.399c0.324,0.251,0.731,0.399,1.174,0.399
	c1.063,0,1.927-0.861,1.927-1.922v-4.527c0.065,0.009,0.131,0.013,0.198,0.013c0.938,0,1.701-0.769,1.701-1.711v-3.632
	C34.852,20.695,33.48,19.357,31.859,19.357z M29.781,16.177c0.793,0,1.436,0.643,1.436,1.438c0,0.793-0.643,1.436-1.436,1.436
	c-0.795,0-1.438-0.643-1.438-1.436C28.346,16.819,28.986,16.177,29.781,16.177z M19.605,7.038c1.131,0,2.047,0.918,2.047,2.047
	c0,1.132-0.914,2.049-2.047,2.049c-1.129,0-2.045-0.917-2.045-2.049C17.561,7.957,18.477,7.038,19.605,7.038z M8.497,7.022
	c1.147,0,2.08,0.922,2.08,2.062c0,1.141-0.933,2.062-2.08,2.062c-1.146,0-2.076-0.92-2.076-2.062
	C6.421,7.944,7.352,7.022,8.497,7.022z M33.771,25.908c0,0.35-0.275,0.631-0.621,0.631s-0.631-0.281-0.631-0.631
	c0-0.402,0-3.189,0-3.189h-0.647c0,0,0,8.725,0,9.416c0,0.465-0.382,0.842-0.847,0.842c-0.467,0-0.844-0.377-0.844-0.842
	c0-0.691,0-5.037,0-5.037H29.52c0,0,0,4.346,0,5.037c0,0.465-0.379,0.842-0.842,0.842c-0.466,0-0.847-0.377-0.847-0.842
	c0-0.627,0-8.582,0-10.08c-0.823-0.236-1.944-0.555-2.187-0.609c-0.012-0.002-0.019-0.008-0.029-0.012
	c-0.273-0.067-0.501-0.248-0.585-0.521l-1.525-5.557l-0.776-0.001c0,0,0,15.272,0,16.254c0,0.666-0.543,1.203-1.209,1.203
	c-0.66,0-1.198-0.537-1.198-1.203c0-0.98,0-9.246,0-9.246h-0.89c0,0,0,8.266,0,9.246c0,0.666-0.537,1.203-1.201,1.203
	c-0.662,0-1.205-0.537-1.205-1.203c0-0.98,0-16.254,0-16.254l-0.715,0.001l-1.567,5.473c-0.026,0.104-0.069,0.2-0.136,0.282
	c-0.148,0.224-0.402,0.352-0.689,0.352c-0.011,0-0.021-0.001-0.031-0.001c-0.011,0-0.021,0.001-0.031,0.001
	c-0.287,0-0.543-0.13-0.691-0.354c-0.055-0.074-0.098-0.16-0.123-0.256l-1.576-5.496l-0.771-0.001l2.302,9.618h-2.021v0.004v6.83
	c0,0.563-0.459,1.021-1.023,1.021c-0.563,0-1.018-0.457-1.018-1.021v-6.834H8.072v6.834c0,0.563-0.461,1.021-1.023,1.021
	s-1.018-0.457-1.018-1.021v-6.83v-0.004H3.975l2.326-9.618l-0.775,0.001l-1.594,5.557c-0.097,0.343-0.428,0.563-0.797,0.563
	c-0.087,0-0.176-0.013-0.265-0.037c-0.468-0.135-0.759-0.539-0.604-1.072l1.637-5.699c0.615-2.146,2.349-2.208,2.545-2.208
	c0.012,0,0.018,0,0.018,0h2.029h2.033c0,0,0.007,0,0.019,0c0.197,0,1.925,0.062,2.543,2.208c0,0,0.589,2.131,0.8,2.131
	c0.209,0,0.801-2.131,0.801-2.131c0.615-2.146,2.346-2.208,2.541-2.208c0.013,0,0.019,0,0.019,0h2.579h2.673c0,0,0.006,0,0.019,0
	c0.196,0,1.93,0.062,2.547,2.208l1.621,5.655c0,0,1.278,0.116,1.297,0.116c0.49,0,3.367,0,3.873,0c1.018,0,1.912,0.826,1.912,1.84
	C33.771,22.799,33.771,25.563,33.771,25.908z"/>
</svg>
