<?xml version="1.0" encoding="utf-8"?>
<!-- Generator: Adobe Illustrator 25.2.1, SVG Export Plug-In . SVG Version: 6.00 Build 0)  -->
<svg version="1.1" id="Layer_1" xmlns="http://www.w3.org/2000/svg" xmlns:xlink="http://www.w3.org/1999/xlink" x="0px" y="0px"
	 width="150px" height="200px" viewBox="0 0 150 200" enable-background="new 0 0 150 200" xml:space="preserve">
<g>
	<path d="M102.6,57.3c0-4.3,0-8.6,0-12.9c0-12.2-5.9-16.3-17.5-11.9c-2.9-4.5-6.9-7.2-12.5-5.8c-6,1.5-7.7,6.3-7.9,12
		c-1.1-0.2-1.7-0.4-2.3-0.5c-8.3-2.5-14.1,1.4-14.2,10c-0.2,13-0.1,25.9-0.1,39.2C35,87.6,31.5,90.8,32,103.1
		c0.5,11.3,1.3,22.6,3,33.8c2.7,18.4,15.3,32.2,31.3,35.6c27.5,5.8,51-12.8,51.4-41.1c0.3-20.3,0.2-40.7,0.3-61
		C118.1,59.2,114.3,55.8,102.6,57.3z M113.8,134c-0.5,19.4-15.4,34.4-34.8,36c-18.7,1.5-36.2-11.1-39.4-30.2
		c-2.3-13.2-2.8-26.8-3.6-40.2c-0.1-2.4,1.7-6,3.7-7.3c5.2-3.2,9.6-0.5,9.8,5.6c0.2,5.5,0.1,11,0,16.5c0,2.3,0.4,3.8,2.8,4.1
		c0.1-0.2,0.3-0.4,0.4-0.5c0.4-0.7,0.5-1.3,0.6-2.2c0-0.9,0-1.8,0-2.7c-0.1-0.3-0.2-0.6-0.2-0.8c-0.5-21.3-0.9-42.5-1.2-63.8
		c-0.1-5.3,3.8-8.5,8.3-7.2c3.8,1.1,4.8,4,4.8,7.7c0,13,0,26,0.1,39c0,1.8,0.5,3.7,0.8,5.5c0.6,0,1.3,0.1,1.9,0.1
		c0.3-1.8,0.9-3.7,0.9-5.5c0.1-16.7,0-33.3,0-50c0-5,2.3-7.9,6.2-8.1c4.1-0.2,6.9,2.8,6.9,7.8c0,16.3-0.1,32.6-0.1,49
		c0,1.8,0.4,3.7,0.7,5.5c0.6,0.1,1.3,0.1,1.9,0.2c0.4-1.8,1-3.6,1-5.5c0.2-15,0.2-30,0.3-45c0.1-5.2,2.7-8.1,7-7.7
		c4.5,0.4,6.1,3.3,6.1,7.6c-0.1,16-0.2,32-0.2,48c0,0.8-0.2,1.7,0,2.5c0.5,1.6,1.1,3.1,1.7,4.6c0.6-1.5,1.8-3,1.8-4.6
		c0.3-8.2,0.2-16.3,0.4-24.5c0.1-3.6,0.4-7.3,5.3-7.4c4.2-0.1,6.6,2.5,6.5,7.6C114.3,90,114.4,112,113.8,134z"/>
	<path fill="#FFFFFF" d="M107.7,60.5c-4.9,0.1-5.2,3.8-5.3,7.4c-0.2,8.2-0.1,16.3-0.4,24.5c0,1.6-1.2,3.1-1.8,4.6
		c-0.6-1.5-1.2-3-1.7-4.6c-0.2-0.8,0-1.7,0-2.5c0-16,0.1-32,0.2-48c0-4.3-1.6-7.2-6.1-7.6c-4.3-0.4-6.9,2.5-7,7.7
		c-0.1,15-0.1,30-0.3,45c0,1.9-0.6,3.7-1,5.5c-0.6-0.1-1.3-0.1-1.9-0.2c-0.3-1.8-0.7-3.7-0.7-5.5c0-16.4,0.1-32.7,0.1-49
		c0-5-2.8-8-6.9-7.8c-3.9,0.2-6.2,3.1-6.2,8.1c0,16.7,0.1,33.3,0,50c0,1.8-0.6,3.7-0.9,5.5c-0.6,0-1.3-0.1-1.9-0.1
		c-0.3-1.8-0.8-3.7-0.8-5.5C65,75,65,62,65,49c0-3.7-1-6.6-4.8-7.7c-4.5-1.3-8.4,1.9-8.3,7.2c0.3,21.3,0.7,42.5,1.2,63.8
		c0,0.2,0.1,0.5,0.2,0.8c0,0.9,0,1.8,0,2.7c-0.1,0.9-0.2,1.5-0.6,2.2c-0.1,0.1-0.3,0.3-0.4,0.5c-2.4-0.3-2.8-1.8-2.8-4.1
		c0.1-5.5,0.2-11,0-16.5c-0.2-6.1-4.6-8.8-9.8-5.6c-2,1.3-3.8,4.9-3.7,7.3c0.8,13.4,1.3,27,3.6,40.2c3.2,19.1,20.7,31.7,39.4,30.2
		c19.4-1.6,34.3-16.6,34.8-36c0.6-22,0.5-44,0.4-65.9C114.3,63,111.9,60.4,107.7,60.5z M81.1,149.9v0.2L81,150c0,0,0,0.1-0.1,0.1
		v-0.2c-8.5-9.9-18.4-20.5-22.1-33.3c-2.4-12.6,14.7-18.6,22.3-9c4.7-4.7,11-6.8,16.8-3C114.5,115.8,89.3,139.7,81.1,149.9z"/>
	<path d="M97.9,104.6c-5.8-3.8-12.1-1.7-16.8,3c-7.6-9.6-24.7-3.6-22.3,9c3.7,12.8,13.6,23.4,22.1,33.3v0.2c0.1,0,0.1-0.1,0.1-0.1
		l0.1,0.1v-0.2C89.3,139.7,114.5,115.8,97.9,104.6z M99.3,118.2c-4.3,9-9.8,16-16.1,24.2c0-0.1-0.1-0.2-0.1-0.3
		c-0.6,0.8-1.2,1.5-2.1,2c-0.9-0.5-1.5-1.2-2.1-2c0,0.1-0.1,0.2-0.1,0.3c-6.3-8.2-11.8-15.1-16.1-24.2C59,106.6,75,99.9,80.9,115.7
		v0.4c0-0.1,0.1-0.1,0.1-0.2c0,0.1,0.1,0.1,0.1,0.2v-0.4C87.1,99.9,103.2,106.6,99.3,118.2z"/>
</g>
</svg>
