<?xml version="1.0" encoding="utf-8"?>
<!-- Generator: Adobe Illustrator 16.0.0, SVG Export Plug-In . SVG Version: 6.00 Build 0)  -->
<!DOCTYPE svg PUBLIC "-//W3C//DTD SVG 1.1//EN" "http://www.w3.org/Graphics/SVG/1.1/DTD/svg11.dtd">
<svg version="1.1" id="Substance_Abuse" xmlns="http://www.w3.org/2000/svg" xmlns:xlink="http://www.w3.org/1999/xlink" x="0px"
	 y="0px" width="36px" height="40px" viewBox="0 0 36 40" enable-background="new 0 0 36 40" xml:space="preserve">
<g>
	<polygon fill="none" points="26.43,33.777 28.354,33.782 28.373,30.523 26.451,30.52 	"/>
	<path d="M18.333,33.833l-5.181-1.467V19.895L22.7,8.309c0.139-0.14,0.167-0.365,0.075-0.568l2.69-1.797
		c0.146-0.074,0.25-0.202,0.283-0.354c0.033-0.142-0.002-0.286-0.079-0.381c-0.089-0.148-0.253-0.237-0.438-0.237
		c-0.104,0-0.203,0.026-0.299,0.085l-3.537,2.368H2.955c-0.207,0-0.391,0.111-0.48,0.292c-0.12,0.242-0.004,0.471,0.054,0.578
		l9.559,11.6v12.472L6.92,33.829c-0.258,0.053-0.447,0.336-0.396,0.597c0.053,0.26,0.265,0.434,0.529,0.434H18.19
		c0.248,0,0.479-0.189,0.526-0.433C18.766,34.197,18.607,33.943,18.333,33.833z M17.733,11.22c-0.151,0.396-0.453,0.736-0.854,0.967
		c-0.351,0.216-0.752,0.335-1.132,0.335c-0.402,0-0.717-0.136-0.861-0.373c-0.141-0.227-0.146-0.521-0.017-0.832
		c0.151-0.396,0.454-0.738,0.858-0.971c0.337-0.224,0.746-0.353,1.117-0.353c0.403,0,0.721,0.144,0.874,0.399
		C17.909,10.679,17.833,10.996,17.733,11.22z M18.82,11.387c0.076-0.26,0.1-0.509,0.068-0.754h0.551L18.82,11.387z M4.074,8.489
		h15.77l-1.501,1.023c-0.36-0.357-0.875-0.553-1.468-0.553c-0.586,0-1.156,0.171-1.68,0.499c-0.069,0.034-0.129,0.086-0.186,0.142
		H4.993L4.074,8.489z M9.858,15.174l-0.152,0.118l-3.839-4.659h8.211c-0.053,0.097-0.104,0.194-0.152,0.296
		c-0.117,0.281-0.173,0.586-0.162,0.875c-0.3-0.146-0.615-0.219-0.951-0.219c-0.586,0-1.156,0.171-1.699,0.51
		c-0.602,0.39-1.057,0.907-1.284,1.462C9.608,14.124,9.621,14.704,9.858,15.174z M13.722,13.682
		c-0.082,0.418-0.432,0.863-0.908,1.162c-0.352,0.216-0.754,0.335-1.133,0.335c-0.402,0-0.716-0.137-0.861-0.374
		c-0.14-0.225-0.147-0.518-0.015-0.83c0.15-0.396,0.452-0.738,0.859-0.972c0.337-0.225,0.744-0.354,1.115-0.354
		c0.404,0,0.721,0.143,0.867,0.387C13.814,13.34,13.751,13.59,13.722,13.682z M10.357,16.123l0.222-0.145
		c0.354,0.192,0.708,0.288,1.081,0.288c0.587,0,1.156-0.171,1.693-0.508c0.713-0.439,1.22-1.11,1.395-1.843
		c0.04-0.18,0.057-0.358,0.051-0.533c0.286,0.132,0.602,0.195,0.957,0.195c0.572,0,1.129-0.163,1.657-0.484l-4.763,5.782
		L10.357,16.123z M10.902,33.794l1.75-0.498l1.75,0.498H10.902z"/>
	<polygon fill="#FFFFFF" points="10.902,33.794 14.402,33.794 12.652,33.296 	"/>
	<path fill="#FFFFFF" d="M18.82,11.387l0.619-0.754h-0.551C18.92,10.878,18.896,11.127,18.82,11.387z"/>
	<path fill="#FFFFFF" d="M11.114,12.095c0.543-0.339,1.113-0.51,1.699-0.51c0.336,0,0.651,0.073,0.951,0.219
		c-0.011-0.289,0.045-0.594,0.162-0.875c0.048-0.102,0.099-0.199,0.152-0.296H5.867l3.839,4.659l0.152-0.118
		c-0.237-0.47-0.25-1.05-0.028-1.617C10.057,13.002,10.512,12.485,11.114,12.095z"/>
	<path fill="#FFFFFF" d="M17.413,13.093c-0.528,0.321-1.085,0.484-1.657,0.484c-0.355,0-0.671-0.063-0.957-0.195
		c0.006,0.175-0.011,0.353-0.051,0.533c-0.175,0.733-0.682,1.404-1.395,1.843c-0.537,0.337-1.106,0.508-1.693,0.508
		c-0.373,0-0.727-0.096-1.081-0.288l-0.222,0.145l2.293,2.752L17.413,13.093z"/>
	<path d="M32.982,29.354l-2.563-0.021l0.08-13.927c0.01-1.465-0.996-2.671-2.372-2.983l0.034-5.289
		c-0.002-0.329-0.245-0.631-0.593-0.647c-0.346-0.021-0.648,0.26-0.633,0.609L26.9,12.419c-1.402,0.271-2.467,1.495-2.479,2.96
		l-0.08,13.93l-2.487-0.013c-0.33,0.002-0.615,0.267-0.613,0.595c0.002,0.33,0.265,0.613,0.595,0.611l3.386,0.016l-0.019,3.26
		h-1.354c-0.33,0.002-0.613,0.266-0.613,0.596c0.002,0.328,0.266,0.613,0.613,0.598l7.063,0.059
		c0.329-0.002,0.614-0.264,0.612-0.594s-0.266-0.612-0.594-0.61h-1.355l0.019-3.259l3.371-0.006c0.33,0,0.614-0.266,0.613-0.594
		C33.577,29.635,33.314,29.352,32.982,29.354z M28.354,33.782l-1.924-0.005l0.021-3.258l1.922,0.004L28.354,33.782z M29.509,29.311
		l-4.247-0.017l0.03-4.394l1.207,0.021c0.33,0,0.614-0.263,0.612-0.593s-0.264-0.615-0.594-0.613l-1.207-0.02l0.01-1.465l2.562,0.02
		c0.331-0.002,0.616-0.266,0.615-0.596c-0.003-0.329-0.265-0.612-0.595-0.612l-2.563-0.019l0.011-1.462l1.207,0.018
		c0.33,0,0.613-0.262,0.612-0.593c-0.001-0.33-0.265-0.614-0.595-0.612l-1.206-0.02l-0.028-2.988
		c0.016-1.17,0.979-2.111,2.131-2.116c1.172,0.017,2.111,0.978,2.116,2.132L29.509,29.311z"/>
	<path fill="#FFFFFF" d="M27.471,13.25c-1.152,0.005-2.115,0.946-2.131,2.116l0.028,2.988l1.206,0.02
		c0.33-0.002,0.594,0.282,0.595,0.612c0.001,0.331-0.282,0.593-0.612,0.593l-1.207-0.018l-0.011,1.462l2.563,0.019
		c0.33,0,0.592,0.283,0.595,0.612c0.001,0.33-0.284,0.594-0.615,0.596l-2.562-0.02l-0.01,1.465l1.207,0.02
		c0.33-0.002,0.592,0.283,0.594,0.613s-0.282,0.593-0.612,0.593L25.292,24.9l-0.03,4.394l4.247,0.017l0.078-13.929
		C29.582,14.228,28.643,13.267,27.471,13.25z"/>
</g>
</svg>
