<?xml version="1.0" encoding="utf-8"?>
<!-- Generator: Adobe Illustrator 25.2.0, SVG Export Plug-In . SVG Version: 6.00 Build 0)  -->
<svg version="1.1" id="Layer_2" xmlns="http://www.w3.org/2000/svg" xmlns:xlink="http://www.w3.org/1999/xlink" x="0px" y="0px"
	 viewBox="0 0 36 40" style="enable-background:new 0 0 36 40;" xml:space="preserve">
<style type="text/css">
	.st0{fill:#FFFFFF;}
</style>
<g>
	<path class="st0" d="M16.3,36.9l-0.3,0c-0.2,0-0.4,0-0.6-0.1c-0.4-0.1-0.8-0.2-1.1-0.3c-0.5-0.2-0.9-0.5-1.2-0.8
		c-0.2-0.2-0.2-0.4-0.2-0.5c0-1.4,0-2.9,0-4.3l0-1.5c0-0.8,0-1.5,0-2.3l0-3.3c0-1.8,0-3.6,0-5.3c0-1.2,0.1-2.1,0.4-3
		c0.4-1.3,1.3-2.1,2-2.6c0.1-0.1,0.3-0.1,0.4-0.2c0-0.2,0-0.3,0-0.5c0-0.9,0.1-1.8,0.1-2.7l0-0.7c0-0.6,0-1.1,0.1-1.7l0-0.3
		c0-0.6,0-1.2-0.1-1.8c-0.1-0.4,0-1,0.3-1.4c0.2-0.3,0.5-0.4,0.8-0.4c0.1,0,0.2,0,0.3,0c0.1,0,0.2,0,0.2,0c0.1,0,0.3,0,0.4,0
		c0.2,0,0.3,0,0.5,0c0.2,0,0.6,0,1,0.2l0.1,0.1l0.2,0.2C20,3.7,20,3.9,20,3.9c0,0.8,0,1.6,0,2.4c0,0.5,0,1,0,1.5c0,0.3,0,0.5,0,0.8
		c0,0.2,0,0.5,0,0.8c0,0.3,0,0.6,0,0.8c0,0.7,0.1,1.3,0.1,2l0,0.5c0.8,0.4,1.5,1,2,1.9c0.3,0.6,0.5,1.3,0.6,2.1
		c0.1,0.8,0.1,1.4,0.1,2c0,2.2,0,4.4,0,6.6l0,4.8c0,1.1,0,2.2,0,3.3l0,1.8c0,0.5-0.2,0.9-0.7,1c-0.6,0.2-1.3,0.4-2.2,0.4
		c-0.5,0-0.9,0.1-1.4,0.1l-0.6,0l-0.1,0l-0.1,0H16.3z"/>
	<path d="M17.1,3.6c0.2,0,0.4,0.1,0.6,0.1c0,0,0,0,0,0c0.3,0,0.6,0,0.9,0c0.3,0,0.6,0,0.8,0.1c0,0,0.1,0,0.1,0.1c0,0,0,0.1,0,0.1
		c0,0.8,0,1.6,0,2.4c0,0.8,0.1,1.6,0.1,2.3c0,0.5,0,1.1,0,1.6c0,0.9,0.1,1.8,0.1,2.7c1,0.3,1.6,1,2.1,1.8c0.3,0.6,0.5,1.2,0.6,1.9
		c0.1,0.7,0.1,1.3,0.1,2c0,3.8,0,7.6,0.1,11.4c0,1.7,0,3.4,0.1,5.1c0,0.3-0.1,0.4-0.4,0.5c-0.7,0.2-1.3,0.3-2,0.4
		c-0.7,0.1-1.3,0.1-2,0.1c0,0-0.1,0-0.1,0h-1.9c-0.3,0-0.6,0-0.8-0.1c-0.4-0.1-0.7-0.1-1.1-0.2c-0.4-0.1-0.7-0.4-1-0.7
		c0,0,0-0.1,0-0.1c0-1.4,0-2.9,0-4.3c0-1.3,0-2.6,0-3.8c0-2.9,0-5.8,0-8.7c0-1,0.1-1.9,0.4-2.9c0.3-1,1-1.7,1.8-2.3
		c0.2-0.1,0.4-0.2,0.6-0.2c0-0.3,0-0.5,0.1-0.8c0-0.9,0.1-1.8,0.1-2.7c0-0.8,0.1-1.6,0.1-2.4c0-0.7,0.1-1.5-0.1-2.2
		c-0.1-0.3,0-0.7,0.2-1C16.8,3.7,16.9,3.6,17.1,3.6 M17.1,2.6L17.1,2.6c-0.5,0-0.9,0.2-1.2,0.5c-0.5,0.6-0.6,1.3-0.5,1.9
		c0.1,0.5,0.1,1.1,0.1,1.7l0,0.3c0,0.6,0,1.1-0.1,1.7l0,0.7c0,0.9-0.1,1.8-0.1,2.7c0,0.1,0,0.1,0,0.2c-0.1,0-0.1,0.1-0.2,0.1
		c-0.7,0.5-1.8,1.4-2.2,2.8c-0.3,0.9-0.4,1.9-0.4,3.1c0,1.8,0,3.6,0,5.3c0,1.1,0,2.2,0,3.4c0,0.8,0,1.5,0,2.3c0,0.5,0,1,0,1.5
		c0,1.4,0,2.9,0,4.3c0,0.3,0.1,0.6,0.3,0.8c0.4,0.4,0.8,0.8,1.4,1c0.4,0.1,0.8,0.2,1.2,0.3c0.2,0,0.5,0.1,0.7,0.1c0.1,0,0.2,0,0.2,0
		l0,0h0h1.9h0.1l0.1,0l0.5,0c0.5,0,0.9-0.1,1.4-0.1c0.9-0.1,1.6-0.2,2.3-0.5c0.7-0.2,1.1-0.8,1.1-1.5l0-1.7c0-1.1,0-2.2,0-3.4
		c0-1.6,0-3.2,0-4.8c0-2.2,0-4.4,0-6.6c0-0.6,0-1.2-0.1-2.1c-0.1-0.9-0.3-1.7-0.7-2.3c-0.5-0.9-1.2-1.6-2-2l0-0.2
		c0-0.6-0.1-1.3-0.1-1.9c0-0.3,0-0.6,0-0.8c0-0.3,0-0.5,0-0.8c0-0.3,0-0.6,0-0.8c0-0.5-0.1-1,0-1.4c0-0.9,0-1.7,0-2.5
		c0-0.1,0-0.4-0.2-0.7c-0.1-0.2-0.3-0.3-0.6-0.4c-0.5-0.2-0.9-0.2-1.2-0.2c-0.2,0-0.4,0-0.5,0c-0.1,0-0.2,0-0.4,0c0,0,0,0,0,0
		c-0.1,0-0.1,0-0.2,0C17.3,2.7,17.2,2.6,17.1,2.6L17.1,2.6z"/>
</g>
</svg>
