<?xml version="1.0" encoding="utf-8"?>
<!-- Generator: Adobe Illustrator 16.0.0, SVG Export Plug-In . SVG Version: 6.00 Build 0)  -->
<!DOCTYPE svg PUBLIC "-//W3C//DTD SVG 1.1//EN" "http://www.w3.org/Graphics/SVG/1.1/DTD/svg11.dtd">
<svg version="1.1" id="Substance_Abuse" xmlns="http://www.w3.org/2000/svg" xmlns:xlink="http://www.w3.org/1999/xlink" x="0px"
	 y="0px" width="36px" height="40px" viewBox="0 0 36 40" enable-background="new 0 0 36 40" xml:space="preserve">
<g>
	<path d="M25.67,5.209c-0.089-0.148-0.253-0.237-0.438-0.237c-0.104,0-0.203,0.026-0.299,0.085l-3.537,2.368H2.955
		c-0.207,0-0.391,0.111-0.48,0.292C2.355,7.959,2.471,8.188,2.529,8.295l9.559,11.6v12.472L6.92,33.829
		c-0.258,0.053-0.447,0.336-0.396,0.597c0.053,0.259,0.265,0.433,0.529,0.433h11.137c0.248,0,0.479-0.189,0.526-0.432
		c0.05-0.23-0.108-0.484-0.383-0.594l-5.181-1.467V19.895L22.7,8.309c0.139-0.14,0.167-0.365,0.075-0.568l2.691-1.797
		c0.146-0.074,0.25-0.202,0.283-0.354C25.782,5.448,25.747,5.304,25.67,5.209z M10.902,33.794l1.75-0.498l1.75,0.498H10.902z
		 M19.844,8.489l-1.501,1.023c-0.36-0.357-0.875-0.553-1.468-0.553c-0.586,0-1.156,0.171-1.68,0.499
		c-0.069,0.034-0.129,0.086-0.186,0.142H4.993L4.074,8.489H19.844z M18.889,10.633h0.551l-0.619,0.754
		C18.896,11.127,18.92,10.878,18.889,10.633z M16.844,9.993c0.403,0,0.721,0.144,0.874,0.399c0.191,0.287,0.115,0.604,0.015,0.828
		c-0.151,0.396-0.453,0.736-0.854,0.967c-0.351,0.216-0.752,0.335-1.132,0.335c-0.402,0-0.717-0.136-0.861-0.373
		c-0.141-0.227-0.146-0.521-0.017-0.832c0.151-0.396,0.454-0.738,0.858-0.971C16.064,10.122,16.473,9.993,16.844,9.993z
		 M10.805,13.975c0.15-0.396,0.452-0.738,0.859-0.972c0.337-0.225,0.744-0.354,1.115-0.354c0.404,0,0.721,0.143,0.867,0.387
		c0.168,0.304,0.105,0.554,0.076,0.646c-0.082,0.418-0.432,0.863-0.908,1.162c-0.352,0.216-0.754,0.335-1.133,0.335
		c-0.402,0-0.716-0.137-0.861-0.374C10.68,14.58,10.673,14.287,10.805,13.975z M14.078,10.633c-0.053,0.097-0.104,0.194-0.152,0.296
		c-0.117,0.281-0.173,0.586-0.162,0.875c-0.3-0.146-0.615-0.219-0.951-0.219c-0.586,0-1.156,0.171-1.699,0.51
		c-0.602,0.39-1.057,0.907-1.284,1.462c-0.222,0.567-0.209,1.147,0.028,1.617l-0.152,0.118l-3.839-4.659H14.078z M10.579,15.978
		c0.354,0.192,0.708,0.288,1.081,0.288c0.587,0,1.156-0.171,1.693-0.508c0.713-0.439,1.22-1.11,1.395-1.843
		c0.04-0.18,0.057-0.358,0.051-0.533c0.286,0.132,0.602,0.195,0.957,0.195c0.572,0,1.129-0.163,1.657-0.484l-4.763,5.782
		l-2.293-2.752L10.579,15.978z"/>
	<path d="M32.982,29.353l-2.563-0.02l0.08-13.927c0.01-1.465-0.996-2.671-2.372-2.983l0.034-5.289
		c-0.002-0.329-0.245-0.631-0.592-0.647c-0.346-0.021-0.649,0.26-0.633,0.609L26.9,12.419c-1.402,0.271-2.467,1.495-2.479,2.96
		l-0.08,13.929l-2.488-0.012c-0.33,0.002-0.615,0.266-0.613,0.594c0.002,0.33,0.265,0.614,0.595,0.612l3.386,0.015l-0.019,3.26
		h-1.354c-0.33,0.002-0.613,0.266-0.613,0.596c0.002,0.328,0.265,0.613,0.613,0.598l7.063,0.059
		c0.329-0.002,0.614-0.264,0.612-0.594s-0.265-0.613-0.594-0.611h-1.355l0.019-3.258l3.371-0.006c0.33,0,0.614-0.266,0.613-0.594
		C33.577,29.635,33.314,29.351,32.982,29.353z M28.354,33.782l-1.924-0.004l0.021-3.258l1.922,0.004L28.354,33.782z M29.509,29.31
		l-4.247-0.016l0.03-4.393l1.207,0.02c0.33,0,0.614-0.263,0.612-0.593s-0.264-0.615-0.594-0.613l-1.207-0.019l0.01-1.465
		l2.562,0.019c0.331-0.002,0.616-0.265,0.615-0.595c-0.003-0.33-0.265-0.613-0.595-0.613l-2.563-0.018l0.011-1.463l1.207,0.018
		c0.329,0,0.613-0.262,0.612-0.593c-0.001-0.33-0.265-0.614-0.595-0.612l-1.206-0.02l-0.028-2.988
		c0.016-1.17,0.979-2.111,2.131-2.116c1.172,0.017,2.111,0.978,2.116,2.132L29.509,29.31z"/>
</g>
</svg>
