<?xml version="1.0" encoding="utf-8"?>
<!-- Generator: Adobe Illustrator 25.2.0, SVG Export Plug-In . SVG Version: 6.00 Build 0)  -->
<svg version="1.1" id="Layer_4" xmlns="http://www.w3.org/2000/svg" xmlns:xlink="http://www.w3.org/1999/xlink" x="0px" y="0px"
	 viewBox="0 0 30 40" style="enable-background:new 0 0 30 40;" xml:space="preserve">
<style type="text/css">
	.st0{fill:#005EA2;}
	.st1{fill:#FFFFFF;}
</style>
<g>
	<g>
		<path class="st0" d="M15,1.1C7.7,1.1,1.7,7.3,1.7,14.9c0,3.1,2.4,8.3,7,15c2.5,3.7,5.1,6.9,6.3,8.4c1.2-1.5,3.8-4.7,6.3-8.4
			c4.6-6.7,7-11.8,7-15C28.3,7.3,22.3,1.1,15,1.1z"/>
		<path d="M15,0.1C7.1,0.1,0.7,6.7,0.7,14.9s14.3,25,14.3,25s14.3-16.8,14.3-25S22.9,0.1,15,0.1z M1.7,14.9c0-7.6,6-13.8,13.3-13.8
			s13.3,6.2,13.3,13.8c0,3.1-2.4,8.3-7,15c-2.5,3.7-5.1,6.9-6.3,8.4c-1.2-1.5-3.8-4.7-6.3-8.4C4.1,23.2,1.7,18,1.7,14.9z"/>
	</g>
	<g>
		<path class="st1" d="M13.4,32h-0.3c-0.2,0-0.3,0-0.5-0.1c-0.3-0.1-0.7-0.2-1-0.3c-0.4-0.2-0.8-0.4-1-0.7c-0.2-0.2-0.2-0.3-0.2-0.4
			c0-1.2,0-2.5,0-3.7v-1.3c0-0.7,0-1.3,0-2v-2.9c0-1.6,0-3.1,0-4.6c0-1,0.1-1.8,0.3-2.6c0.3-1.1,1.1-1.8,1.7-2.3
			c0.1-0.1,0.3-0.1,0.3-0.2c0-0.2,0-0.3,0-0.4c0-0.8,0.1-1.6,0.1-2.4V7.6c0-0.5,0-1,0.1-1.5V5.8c0-0.5,0-1-0.1-1.6
			c-0.1-0.3,0-0.9,0.3-1.2c0.2-0.3,0.4-0.3,0.7-0.3c0.1,0,0.2,0,0.3,0c0.1,0,0.2,0,0.2,0c0.1,0,0.3,0,0.3,0c0.2,0,0.3,0,0.4,0
			s0.5,0,0.9,0.2l0.1,0.1l0.2,0.2c0.3,0,0.3,0.2,0.3,0.2c0,0.7,0,1.4,0,2.1c0,0.4,0,0.9,0,1.3c0,0.3,0,0.4,0,0.7c0,0.2,0,0.4,0,0.7
			c0,0.3,0,0.5,0,0.7c0,0.6,0.1,1.1,0.1,1.7v0.4c0.7,0.3,1.3,0.9,1.7,1.7c0.3,0.5,0.4,1.1,0.5,1.8c0.1,0.7,0.1,1.2,0.1,1.7
			c0,1.9,0,3.8,0,5.7v4.2c0,1,0,1.9,0,2.9v1.6c0,0.4-0.2,0.8-0.6,0.9c-0.5,0.2-1.1,0.3-1.9,0.3c-0.4,0-0.8,0.1-1.2,0.1h-0.5h-0.1
			h-0.1h-1.2V32z"/>
		<path d="M14.1,3c0.2,0,0.3,0.1,0.5,0.1l0,0c0.3,0,0.5,0,0.8,0c0.3,0,0.5,0,0.7,0.1c0,0,0.1,0,0.1,0.1v0.1c0,0.7,0,1.4,0,2.1
			s0.1,1.4,0.1,2c0,0.4,0,1,0,1.4c0,0.8,0.1,1.6,0.1,2.4c0.9,0.3,1.4,0.9,1.8,1.6c0.3,0.5,0.4,1,0.5,1.7s0.1,1.1,0.1,1.7
			c0,3.3,0,6.6,0.1,9.9c0,1.5,0,3,0.1,4.4c0,0.3-0.1,0.3-0.3,0.4c-0.6,0.2-1.1,0.3-1.7,0.3c-0.6,0.1-1.1,0.1-1.7,0.1h-0.1h-1.7
			c-0.3,0-0.5,0-0.7-0.1c-0.3-0.1-0.6-0.1-1-0.2c-0.3-0.1-0.6-0.3-0.9-0.6v-0.1c0-1.2,0-2.5,0-3.7c0-1.1,0-2.3,0-3.3
			c0-2.5,0-5,0-7.6c0-0.9,0.1-1.7,0.3-2.5c0.3-0.9,0.9-1.5,1.6-2c0.2-0.1,0.3-0.2,0.5-0.2c0-0.3,0-0.4,0.1-0.7
			c0-0.8,0.1-1.6,0.1-2.4c0-0.7,0.1-1.4,0.1-2.1c0-0.6,0.1-1.3-0.1-1.9c-0.1-0.3,0-0.6,0.2-0.9C13.9,3.1,14,3,14.1,3 M14.1,2.2
			L14.1,2.2c-0.4,0-0.8,0.2-1,0.4c-0.4,0.5-0.5,1.1-0.4,1.7c0.1,0.4,0.1,1,0.1,1.5V6c0,0.5,0,1-0.1,1.5v0.6c0,0.8-0.1,1.6-0.1,2.4
			c0,0.1,0,0.1,0,0.2c-0.1,0-0.1,0.1-0.2,0.1c-0.6,0.4-1.6,1.2-1.9,2.4c-0.3,0.8-0.3,1.7-0.3,2.7c0,1.6,0,3.1,0,4.6c0,1,0,1.9,0,3
			c0,0.7,0,1.3,0,2c0,0.4,0,0.9,0,1.3c0,1.2,0,2.5,0,3.7c0,0.3,0.1,0.5,0.3,0.7c0.3,0.3,0.7,0.7,1.2,0.9c0.3,0.1,0.7,0.2,1,0.3
			c0.2,0,0.4,0.1,0.6,0.1c0.1,0,0.2,0,0.2,0l0,0l0,0h1.7h0.1h0.1h0.4c0.4,0,0.8-0.1,1.2-0.1c0.8-0.1,1.4-0.2,2-0.4
			c0.6-0.2,1-0.7,1-1.3v-1.5c0-1,0-1.9,0-3c0-1.4,0-2.8,0-4.2c0-1.9,0-3.8,0-5.7c0-0.5,0-1-0.1-1.8s-0.3-1.5-0.6-2
			c-0.4-0.8-1-1.4-1.7-1.7v-0.2c0-0.5-0.1-1.1-0.1-1.7c0-0.3,0-0.5,0-0.7c0-0.3,0-0.4,0-0.7s0-0.5,0-0.7c0-0.4-0.1-0.9,0-1.2
			c0-0.8,0-1.5,0-2.2c0-0.1,0-0.3-0.2-0.6c-0.1-0.2-0.3-0.3-0.5-0.3c-0.4-0.2-0.8-0.2-1-0.2c-0.2,0-0.3,0-0.4,0s-0.2,0-0.3,0l0,0
			c-0.1,0-0.1,0-0.2,0C14.3,2.2,14.2,2.2,14.1,2.2L14.1,2.2z"/>
	</g>
</g>
</svg>
