<?xml version="1.0" encoding="utf-8"?>
<!-- Generator: Adobe Illustrator 25.1.0, SVG Export Plug-In . SVG Version: 6.00 Build 0)  -->
<svg version="1.1" id="marker" xmlns="http://www.w3.org/2000/svg" xmlns:xlink="http://www.w3.org/1999/xlink" x="0px" y="0px"
	 viewBox="0 0 30 40" style="enable-background:new 0 0 30 40;" xml:space="preserve">
<style type="text/css">
	.st0{fill:#005EA2;}
	.st1{fill:none;}
	.st2{fill:#FFFFFF;}
</style>
<g>
	<g>
		<path class="st0" d="M15,1.11C7.66,1.11,1.68,7.3,1.68,14.9c0,3.13,2.41,8.31,6.97,14.98c2.54,3.71,5.11,6.93,6.34,8.45
			c1.24-1.51,3.8-4.74,6.34-8.45c4.56-6.67,6.97-11.84,6.97-14.98C28.32,7.3,22.34,1.11,15,1.11z"/>
		<path d="M15,0.11C7.09,0.11,0.68,6.73,0.68,14.9S15,39.89,15,39.89S29.32,23.06,29.32,14.9S22.91,0.11,15,0.11z M1.68,14.9
			C1.68,7.3,7.66,1.11,15,1.11S28.32,7.3,28.32,14.9c0,3.13-2.41,8.31-6.97,14.98c-2.54,3.71-5.11,6.93-6.34,8.45
			c-1.24-1.51-3.8-4.74-6.34-8.45C4.09,23.21,1.68,18.03,1.68,14.9z"/>
	</g>
	<g>
		<polygon class="st1" points="19.91,25.66 21.16,25.67 21.17,23.55 19.93,23.55 		"/>
		<path d="M14.65,25.7l-3.36-0.95v-8.1l6.2-7.52c0.09-0.09,0.11-0.24,0.05-0.37l1.75-1.17c0.09-0.05,0.16-0.13,0.18-0.23
			c0.02-0.09,0-0.19-0.05-0.25c-0.06-0.1-0.16-0.15-0.28-0.15c-0.07,0-0.13,0.02-0.19,0.06l-2.3,1.54H4.67
			c-0.13,0-0.25,0.07-0.31,0.19c-0.08,0.16,0,0.31,0.04,0.38l6.21,7.53v8.1L7.24,25.7c-0.17,0.03-0.29,0.22-0.26,0.39
			c0.03,0.17,0.17,0.28,0.34,0.28h7.23c0.16,0,0.31-0.12,0.34-0.28C14.93,25.94,14.83,25.77,14.65,25.7z M14.26,11.02
			c-0.1,0.26-0.29,0.48-0.55,0.63c-0.23,0.14-0.49,0.22-0.74,0.22c-0.26,0-0.47-0.09-0.56-0.24c-0.09-0.15-0.09-0.34-0.01-0.54
			c0.1-0.26,0.29-0.48,0.56-0.63c0.22-0.15,0.48-0.23,0.73-0.23c0.26,0,0.47,0.09,0.57,0.26C14.38,10.66,14.33,10.87,14.26,11.02z
			 M14.97,11.12c0.05-0.17,0.06-0.33,0.04-0.49h0.36L14.97,11.12z M5.39,9.24h10.24l-0.97,0.66c-0.23-0.23-0.57-0.36-0.95-0.36
			c-0.38,0-0.75,0.11-1.09,0.32c-0.04,0.02-0.08,0.06-0.12,0.09h-6.5L5.39,9.24z M9.15,13.58l-0.1,0.08l-2.49-3.03h5.33
			c-0.03,0.06-0.07,0.13-0.1,0.19c-0.08,0.18-0.11,0.38-0.11,0.57c-0.19-0.09-0.4-0.14-0.62-0.14c-0.38,0-0.75,0.11-1.1,0.33
			c-0.39,0.25-0.69,0.59-0.83,0.95C8.99,12.9,9,13.28,9.15,13.58z M11.66,12.61c-0.05,0.27-0.28,0.56-0.59,0.75
			c-0.23,0.14-0.49,0.22-0.74,0.22c-0.26,0-0.46-0.09-0.56-0.24c-0.09-0.15-0.1-0.34-0.01-0.54c0.1-0.26,0.29-0.48,0.56-0.63
			c0.22-0.15,0.48-0.23,0.72-0.23c0.26,0,0.47,0.09,0.56,0.25C11.72,12.39,11.68,12.56,11.66,12.61z M9.47,14.2l0.14-0.09
			c0.23,0.12,0.46,0.19,0.7,0.19c0.38,0,0.75-0.11,1.1-0.33c0.46-0.29,0.79-0.72,0.91-1.2c0.03-0.12,0.04-0.23,0.03-0.35
			c0.19,0.09,0.39,0.13,0.62,0.13c0.37,0,0.73-0.11,1.08-0.31l-3.09,3.75L9.47,14.2z M9.83,25.68l1.14-0.32l1.14,0.32H9.83z"/>
		<polygon class="st2" points="9.83,25.68 12.1,25.68 10.96,25.35 		"/>
		<path class="st2" d="M14.97,11.12l0.4-0.49h-0.36C15.03,10.79,15.02,10.96,14.97,11.12z"/>
		<path class="st2" d="M9.97,11.58c0.35-0.22,0.72-0.33,1.1-0.33c0.22,0,0.42,0.05,0.62,0.14c-0.01-0.19,0.03-0.39,0.11-0.57
			c0.03-0.07,0.06-0.13,0.1-0.19H6.56l2.49,3.03l0.1-0.08C9,13.28,8.99,12.9,9.13,12.53C9.28,12.17,9.57,11.84,9.97,11.58z"/>
		<path class="st2" d="M14.06,12.23c-0.34,0.21-0.7,0.31-1.08,0.31c-0.23,0-0.44-0.04-0.62-0.13c0,0.11-0.01,0.23-0.03,0.35
			c-0.11,0.48-0.44,0.91-0.91,1.2c-0.35,0.22-0.72,0.33-1.1,0.33c-0.24,0-0.47-0.06-0.7-0.19L9.47,14.2l1.49,1.79L14.06,12.23z"/>
		<path d="M24.17,22.79l-1.66-0.01l0.05-9.04c0.01-0.95-0.65-1.73-1.54-1.94l0.02-3.43c0-0.21-0.16-0.41-0.39-0.42
			c-0.22-0.01-0.42,0.17-0.41,0.4l-0.02,3.46c-0.91,0.18-1.6,0.97-1.61,1.92l-0.05,9.05l-1.62-0.01c-0.21,0-0.4,0.17-0.4,0.39
			c0,0.21,0.17,0.4,0.39,0.4l2.2,0.01l-0.01,2.12h-0.88c-0.21,0-0.4,0.17-0.4,0.39c0,0.21,0.17,0.4,0.4,0.39l4.59,0.04
			c0.21,0,0.4-0.17,0.4-0.39c0-0.21-0.17-0.4-0.39-0.4h-0.88l0.01-2.12l2.19,0c0.21,0,0.4-0.17,0.4-0.39
			C24.55,22.97,24.38,22.79,24.17,22.79z M21.16,25.67l-1.25,0l0.01-2.12l1.25,0L21.16,25.67z M21.91,22.76l-2.76-0.01l0.02-2.85
			l0.78,0.01c0.21,0,0.4-0.17,0.4-0.39c0-0.21-0.17-0.4-0.39-0.4l-0.78-0.01l0.01-0.95l1.66,0.01c0.21,0,0.4-0.17,0.4-0.39
			c0-0.21-0.17-0.4-0.39-0.4l-1.66-0.01l0.01-0.95l0.78,0.01c0.21,0,0.4-0.17,0.4-0.39c0-0.21-0.17-0.4-0.39-0.4l-0.78-0.01
			l-0.02-1.94c0.01-0.76,0.64-1.37,1.38-1.37c0.76,0.01,1.37,0.64,1.37,1.38L21.91,22.76z"/>
		<path class="st2" d="M20.59,12.33c-0.75,0-1.37,0.61-1.38,1.37l0.02,1.94l0.78,0.01c0.21,0,0.39,0.18,0.39,0.4
			c0,0.21-0.18,0.39-0.4,0.39l-0.78-0.01l-0.01,0.95l1.66,0.01c0.21,0,0.38,0.18,0.39,0.4c0,0.21-0.18,0.39-0.4,0.39l-1.66-0.01
			l-0.01,0.95l0.78,0.01c0.21,0,0.38,0.18,0.39,0.4c0,0.21-0.18,0.39-0.4,0.39l-0.78-0.01l-0.02,2.85l2.76,0.01l0.05-9.05
			C21.96,12.97,21.35,12.35,20.59,12.33z"/>
	</g>
</g>
</svg>
