<?xml version="1.0" encoding="utf-8"?>
<!-- Generator: Adobe Illustrator 25.4.1, SVG Export Plug-In . SVG Version: 6.00 Build 0)  -->
<svg version="1.1" id="Layer_1" xmlns="http://www.w3.org/2000/svg" xmlns:xlink="http://www.w3.org/1999/xlink" x="0px" y="0px"
	 width="78px" height="78px" viewBox="0 0 78 78" style="enable-background:new 0 0 78 78;" xml:space="preserve">
<g>
	<path style="fill:#FFFFFF;" d="M56.7,13c-7.7-0.6-15.5,6.5-16.1,7.3c-0.2,0.2-0.5,0.4-0.8,0.4c-0.3,0-0.6,0-0.8-0.2
		c-9.1-8-15.4-9.5-22.5-5.6c-0.7,0.4-1.4,0.9-2.1,1.3c2.7,2.3,6,2.4,10.1,1.9c0.2,0,0.5-0.1,0.7-0.1c2-0.3,5-0.7,5.7,2.2
		c0.2,0.9,0.1,1.8-0.3,2.4c-0.8,1.3-2.4,1.6-3.8,1.9c-0.3,0.1-0.6,0.1-0.8,0.2c-0.3,0.1-0.8,0.1-1.7,0.2c0.4,0.4,0.9,0.8,1.3,1.2
		c2.3,2.1,4.6,4.3,6.8,6.5c1.4,1.4,2,2.9,2,4.6c-0.1,2.3-1.5,4.7-4.3,7.2c0,0,0,0,0,0c0,0,0,0,0,0c-1.8,1.5-4.2,2.6-6.4,2.9
		c-0.1,0-0.3,0-0.4,0c-1.5,0-3.2-0.9-4.2-1.9c-2.9-2.7-5.7-5.5-8.4-8.3c-0.4-0.4-0.9-0.9-1.3-1.3c0.9,5.1,2.6,9,5.6,13
		c5.1,6.7,11.4,11.8,18.8,15.2c5.2,2.4,8.9,0.7,13.2-1.7c1.3-0.7,2.6-1.5,3.8-2.4c-0.2-0.1-0.4-0.1-0.6-0.1c-1.8-0.5-3.9-1-5.2-0.8
		c-2.4,0.4-4.6,0.5-6.4-2.6c-0.2-0.3-0.2-0.6-0.1-0.9c0.1-0.3,0.3-0.5,0.6-0.7l6.5-2.9c-0.6-0.6-1.2-1.2-1.8-1.8
		c-2.3-2.3-4.5-4.5-6.7-6.7c-1.2-1.2-1.6-2.8-1.1-4.2c0.4-0.9,1.1-1.5,2-1.9c-0.6-1.1-0.7-1.9-0.5-2.7c0.7-2.1,3.4-4,6.5-4.7
		c3.3-0.7,6.2,0,8.2,2.1c3.5,3.7,7,7.5,10.4,11.2l2.1,2.3c0,0,0,0,0,0c1.7-2.8,3-5.7,4-8.9c1.7-5.2,1.3-10.8-1-15.3
		C64.7,16.2,61.1,13.3,56.7,13z"/>
	<path d="M69.4,20.5c-3.2-6.2-7.6-9.5-13-9.8C49,10.4,42,15.9,39.6,18.2c-9.4-8-16.4-9.5-24.2-5.2C8.1,17,5.1,24.2,6.8,33.1
		c0,0,0,0,0,0.1c0,0.1,0,0.3,0,0.4c0.9,6.9,2.7,11.7,6.4,16.6c5.3,7,11.9,12.4,19.6,15.9c2.1,0.9,4,1.3,5.7,1.3
		c3.5,0,6.4-1.5,9.4-3.1c2.2-1.2,4.2-2.5,6.1-3.9c0,0,0,0,0,0c8-5.9,13.5-13.6,16.5-22.7C72.4,31.8,72,25.6,69.4,20.5z M8.8,32.5
		c-1.1-6.2,0.2-11.2,3.9-14.9c3.5,3.2,7.8,3.2,12,2.6c0.3,0,0.5-0.1,0.8-0.1c2.5-0.3,3.1-0.2,3.3,0.6c0.1,0.3,0.1,0.6,0,0.8
		c-0.3,0.5-1.5,0.7-2.4,0.9c-0.3,0.1-0.6,0.1-0.9,0.2c-0.2,0-0.9,0.1-1.5,0.2c-1.3,0.2-2,0.2-2.4,0.4c0,0,0,0,0,0
		c-0.1,0-0.1,0.1-0.2,0.1c-0.1,0-0.1,0.1-0.2,0.1c0,0,0,0,0,0c0,0-0.1,0.1-0.1,0.1c0,0-0.1,0.1-0.1,0.1c0,0.1-0.1,0.2-0.1,0.3
		c0,0,0,0,0,0.1c0,0.1,0,0.3,0,0.4c0,0,0,0,0,0c0,0,0,0,0,0c0,0.1,0.1,0.2,0.1,0.3c0,0,0,0,0,0.1c0,0,0.1,0.1,0.1,0.1
		c1,0.9,2,1.9,3,2.8c2.2,2.1,4.5,4.2,6.7,6.4c0.9,0.9,1.4,1.9,1.3,3c0,0.3-0.1,0.7-0.2,1c-1.2-1.2-2.4-2.6-3.6-3.9
		c-1.5-1.7-3.1-3.4-4.7-4.9c-0.4-0.4-1.1-0.4-1.5,0c-0.4,0.4-0.4,1.1,0,1.5c1.5,1.4,3.1,3.1,4.5,4.8c1.4,1.5,2.8,3.1,4.2,4.5
		c-0.4,0.6-0.9,1.2-1.6,1.9c-2.3-2.5-7.4-7.8-8.9-9.4c-0.4-0.4-1.1-0.4-1.5,0c-0.4,0.4-0.4,1.1,0,1.5c1.5,1.5,6.6,6.8,8.8,9.3
		c-0.5,0.3-1,0.6-1.6,0.9L18.4,36c-0.4-0.4-1.1-0.5-1.5-0.1c-0.4,0.4-0.5,1.1-0.1,1.5l7.2,7.7c-0.2,0-0.4,0.1-0.6,0.1
		c-0.7,0.1-2-0.5-2.9-1.3c-2.8-2.7-5.7-5.5-8.4-8.2c-1-1-2-2-3-3.1C9,32.6,8.9,32.6,8.8,32.5z M53.1,58.3c-0.7-0.1-1.5-0.3-2.4-0.6
		c-2.1-0.6-4.4-1.1-6.1-0.8c-1.7,0.3-2.6,0.3-3.5-0.6l6.7-3c0.3-0.1,0.6-0.4,0.6-0.8c0.1-0.4,0-0.7-0.3-1c-1-1-2-2-2.9-2.9
		c-2.3-2.3-4.5-4.5-6.8-6.7c-0.7-0.7-0.7-1.4-0.6-1.8c0.2-0.4,0.6-0.7,1.2-0.7c0,0,0,0,0,0c0.2,0.2,0.3,0.4,0.5,0.7
		c1.4,1.8,3,3.5,4.6,5.1c0.6,0.7,1.3,1.4,1.9,2c0.2,0.2,0.5,0.3,0.8,0.3c0.3,0,0.5-0.1,0.7-0.3c0.4-0.4,0.5-1.1,0.1-1.5
		c-0.6-0.7-1.3-1.4-1.9-2.1c-1.5-1.6-3.1-3.3-4.5-5c-2-2.5-1.9-3.2-1.9-3.2c0.2-0.5,0.6-1,1.1-1.5c0,0.1,0.1,0.1,0.1,0.2l8.7,9.8
		c0.2,0.2,0.5,0.4,0.8,0.4c0.3,0,0.5-0.1,0.7-0.3c0.4-0.4,0.5-1.1,0.1-1.5l-8.6-9.6c0.6-0.3,1.2-0.5,1.9-0.6c0,0,0,0,0.1,0
		c0,0.1,0.1,0.1,0.1,0.2l8.1,9.4c0.2,0.2,0.5,0.4,0.8,0.4c0.3,0,0.5-0.1,0.7-0.3c0.5-0.4,0.5-1.1,0.1-1.5L47,32.1
		c1.1,0.1,2.4,0.6,3.3,1.6c3.5,3.7,7,7.5,10.4,11.2l2.1,2.3c0.1,0.2,0.3,0.2,0.5,0.3C60.7,51.6,57.2,55.2,53.1,58.3z M68.5,36.9
		c-1,3.2-2.4,6.1-4,8.9c0,0,0,0,0,0l-2.1-2.3c-3.4-3.7-6.9-7.5-10.4-11.2c-1.9-2-4.9-2.8-8.2-2.1c-3.1,0.7-5.8,2.6-6.5,4.7
		c-0.2,0.7-0.1,1.6,0.5,2.7c-0.9,0.3-1.6,1-2,1.9c-0.6,1.4-0.1,3,1.1,4.2c2.3,2.2,4.4,4.4,6.7,6.7c0.6,0.6,1.2,1.2,1.8,1.8L39,54.9
		c-0.3,0.1-0.5,0.4-0.6,0.7c-0.1,0.3-0.1,0.6,0.1,0.9c1.9,3.2,4,3.1,6.4,2.6c1.3-0.2,3.4,0.3,5.2,0.8c0.2,0.1,0.4,0.1,0.6,0.1
		c-1.2,0.8-2.5,1.6-3.8,2.4c-4.3,2.4-8,4.1-13.2,1.7c-7.4-3.3-13.7-8.5-18.8-15.2c-3-3.9-4.7-7.8-5.6-13c0.4,0.4,0.9,0.9,1.3,1.3
		c2.7,2.8,5.5,5.6,8.4,8.3c1,0.9,2.7,1.9,4.2,1.9c0.1,0,0.3,0,0.4,0c2.2-0.3,4.6-1.4,6.4-2.9c0,0,0,0,0,0c0,0,0,0,0,0
		c2.8-2.5,4.2-4.9,4.3-7.2c0-1.7-0.6-3.2-2-4.6c-2.2-2.2-4.5-4.4-6.8-6.5c-0.4-0.4-0.9-0.8-1.3-1.2c0.8-0.1,1.4-0.2,1.7-0.2
		c0.3-0.1,0.5-0.1,0.8-0.2c1.4-0.3,3-0.6,3.8-1.9c0.4-0.7,0.5-1.5,0.3-2.4c-0.7-2.9-3.7-2.5-5.7-2.2c-0.3,0-0.5,0.1-0.7,0.1
		c-4.1,0.5-7.4,0.3-10.1-1.9c0.6-0.5,1.3-0.9,2.1-1.3c7.1-3.9,13.4-2.4,22.5,5.6c0.2,0.2,0.5,0.3,0.8,0.2c0.3,0,0.6-0.2,0.8-0.4
		c0.6-0.8,8.4-8,16.1-7.3c4.4,0.4,8,3.3,10.7,8.6C69.8,26.1,70.2,31.7,68.5,36.9z"/>
</g>
</svg>
