<?xml version="1.0" encoding="utf-8"?>
<!-- Generator: Adobe Illustrator 25.2.3, SVG Export Plug-In . SVG Version: 6.00 Build 0)  -->
<svg version="1.1" id="Layer_1" xmlns="http://www.w3.org/2000/svg" xmlns:xlink="http://www.w3.org/1999/xlink" x="0px" y="0px"
	 width="32px" height="32px" viewBox="0 0 32 32" style="enable-background:new 0 0 32 32;" xml:space="preserve">
<g>
	<g>
		
			<linearGradient id="SVGID_1_" gradientUnits="userSpaceOnUse" x1="-7.8531" y1="1449.4664" x2="0.4507" y2="1441.2981" gradientTransform="matrix(-1 0 0 1 5.0759 -1438)">
			<stop  offset="0" style="stop-color:#00A968"/>
			<stop  offset="0.2145" style="stop-color:#03AA68"/>
			<stop  offset="0.3585" style="stop-color:#0CAE69"/>
			<stop  offset="0.4817" style="stop-color:#1BB46B"/>
			<stop  offset="0.5934" style="stop-color:#30BD6E"/>
			<stop  offset="0.6972" style="stop-color:#4CC871"/>
			<stop  offset="0.7951" style="stop-color:#6ED675"/>
			<stop  offset="0.8886" style="stop-color:#97E77A"/>
			<stop  offset="0.9762" style="stop-color:#C4F97F"/>
			<stop  offset="1" style="stop-color:#D2FF81"/>
		</linearGradient>
		<path style="fill:url(#SVGID_1_);" d="M16,17.1c0-0.1-0.3-0.4-0.3-0.4c-0.2-0.2-0.4-0.5-0.5-0.7c-0.1-0.2-1.2-1.9-1.1-1.9
			c-1.3,0.8-2.9,0.8-4.3,0.3c-1.8-0.6-3.4-1.8-4.3-3.6C4.7,9.2,4,7.6,3.5,5.9C3.3,5,3.1,4.1,2.9,3.2C2.8,2.7,2.7,2.1,2.6,1.6
			c0-0.3,0-0.6,0-0.9C2.7,0.5,2.9,0.2,2.8,0c0,0.4,0.1,0.8,0.2,1.2c0.1,0.5,0.2,0.9,0.4,1.1c0.1,0.1,0.3,0.2,0.5,0.2
			C4.3,2.6,4.6,2.7,5,2.7c0.8,0.2,1.7,0.3,2.5,0.4c2.1,0.3,4.2,0.4,6,1.8c0.4,0.3,0.8,0.6,1.1,1.1c0.4,0.6,1,1.3,1.1,2.1
			c0.2,0.7,0.2,1.4,0.2,2.2c-0.1,0.4-0.2,1.4-0.7,1.9c-0.1,0.1-0.2-0.5-0.2-0.6c-0.3-1.2-0.7-2.2-1.6-3.2c-0.5-0.6-1-1.1-1.7-1.5
			c-0.7-0.4-1.5-0.6-2.3-0.9C8,5.5,6.7,4.9,5.3,4.5C6.5,4.9,7.8,5.4,9,6c1.3,0.6,2.5,1.6,3.6,2.7c0.4,0.4,0.8,0.8,1.2,1.4
			c0.3,0.5,0.5,1,0.7,1.6l0.3,1.3c0.1,0.2,0.1,0.3,0.2,0.5c0.5,0.7,1.1,1.6,1.7,2.2L16,17.1z"/>
	</g>
	<g>
		
			<linearGradient id="SVGID_2_" gradientUnits="userSpaceOnUse" x1="-412.5653" y1="1141.7465" x2="-407.8389" y2="1137.0972" gradientTransform="matrix(-3.884000e-02 -0.9992 -0.9992 3.884000e-02 1147.9016 -442.6118)">
			<stop  offset="0" style="stop-color:#00A968"/>
			<stop  offset="0.2145" style="stop-color:#03AA68"/>
			<stop  offset="0.3585" style="stop-color:#0CAE69"/>
			<stop  offset="0.4817" style="stop-color:#1BB46B"/>
			<stop  offset="0.5934" style="stop-color:#30BD6E"/>
			<stop  offset="0.6972" style="stop-color:#4CC871"/>
			<stop  offset="0.7951" style="stop-color:#6ED675"/>
			<stop  offset="0.8886" style="stop-color:#97E77A"/>
			<stop  offset="0.9762" style="stop-color:#C4F97F"/>
			<stop  offset="1" style="stop-color:#D2FF81"/>
		</linearGradient>
		<path style="fill:url(#SVGID_2_);" d="M20,15.9c0,0,0.2-0.2,0.2-0.2c0.1-0.1,0.2-0.2,0.4-0.3c0.1-0.1,1-0.7,1.1-0.7
			c-0.5-0.7-0.5-1.6-0.2-2.4c0.3-1,1-2,1.9-2.5c0.9-0.5,1.8-0.9,2.7-1.2c0.5-0.2,1-0.3,1.5-0.4C27.9,8,28.2,8,28.5,7.9
			c0.2,0,0.3,0,0.5,0c0.1,0,0.3,0.1,0.4,0.1c-0.2,0-0.5,0.1-0.7,0.1c-0.3,0.1-0.5,0.1-0.6,0.3C28,8.5,28,8.6,28,8.7
			c0,0.2-0.1,0.4-0.1,0.6c-0.1,0.5-0.1,0.9-0.2,1.4c-0.1,1.2-0.1,2.4-0.9,3.5c-0.2,0.2-0.3,0.4-0.6,0.6c-0.4,0.2-0.7,0.6-1.2,0.7
			c-0.4,0.1-0.8,0.2-1.2,0.1c-0.2,0-0.8-0.1-1.1-0.4c0,0,0.3-0.1,0.3-0.1c0.7-0.2,1.2-0.4,1.8-1c0.3-0.3,0.6-0.6,0.8-1
			c0.2-0.4,0.3-0.9,0.4-1.3c0.2-0.8,0.5-1.6,0.7-2.4c-0.2,0.7-0.4,1.4-0.7,2.1c-0.3,0.8-0.9,1.5-1.4,2.1c-0.2,0.2-0.4,0.5-0.7,0.7
			c-0.3,0.2-0.6,0.3-0.9,0.4L22.3,15c-0.1,0-0.2,0.1-0.3,0.1c-0.4,0.3-0.9,0.6-1.2,1L20,15.9z"/>
	</g>
	<path style="fill:#00A968;" d="M21.4,15.6l-0.8-0.2c-0.5,0.3-1.5,1-2.3,3.1c-0.3-1.7-1.2-2.6-2.2-3.5l-0.4,1.6
		c0.9,1.6,2.9,3.4-0.9,15.5l1.6-1c0.9-3.2,1.5-5.6,1.8-7.5h0c0-0.1,0-0.1,0-0.2c0.1-0.7,0.2-1.4,0.2-1.9
		C19.2,17.4,21.3,15.6,21.4,15.6z"/>
</g>
</svg>
