<?xml version="1.0" encoding="utf-8"?>
<!-- Generator: Adobe Illustrator 25.2.3, SVG Export Plug-In . SVG Version: 6.00 Build 0)  -->
<svg version="1.1" id="Layer_1" xmlns="http://www.w3.org/2000/svg" xmlns:xlink="http://www.w3.org/1999/xlink" x="0px" y="0px"
	 width="100.1px" height="117.7px" viewBox="0 0 100.1 117.7" style="enable-background:new 0 0 100.1 117.7;" xml:space="preserve"
	>
<g>
	
		<linearGradient id="SVGID_1_" gradientUnits="userSpaceOnUse" x1="220.2335" y1="-921.6507" x2="250.179" y2="-892.1936" gradientTransform="matrix(-1 0 0 -1 259.0759 -878)">
		<stop  offset="0" style="stop-color:#00A968"/>
		<stop  offset="0.2145" style="stop-color:#03AA68"/>
		<stop  offset="0.3585" style="stop-color:#0CAE69"/>
		<stop  offset="0.4817" style="stop-color:#1BB46B"/>
		<stop  offset="0.5934" style="stop-color:#30BD6E"/>
		<stop  offset="0.6972" style="stop-color:#4CC871"/>
		<stop  offset="0.7951" style="stop-color:#6ED675"/>
		<stop  offset="0.8886" style="stop-color:#97E77A"/>
		<stop  offset="0.9762" style="stop-color:#C4F97F"/>
		<stop  offset="1" style="stop-color:#D2FF81"/>
	</linearGradient>
	<path style="fill:url(#SVGID_1_);" d="M50,63.9c0.1-0.2-1-1.4-1.1-1.5c-0.6-0.9-1.3-1.7-1.9-2.6c-0.4-0.6-4.3-6.7-4.1-6.8
		c-4.8,3-10.4,2.8-15.5,1.1C21,52,15.1,47.5,11.9,41.2c-2.8-5.7-5.2-11.6-7-17.7C4,20.4,3.3,17.2,2.7,14c-0.3-2-0.8-4-1-6
		C1.6,6.9,1.6,5.8,1.8,4.8C2,4,2.5,3.1,2.4,2.3C2.5,3.8,2.6,5.2,3,6.7c0.5,1.9,0.7,3.1,1.5,4c0.5,0.5,1.1,0.6,1.8,0.7
		c1.3,0.2,2.6,0.6,3.9,0.8c3,0.6,6,1.1,9,1.5c7.6,1,15.3,1.5,21.7,6.5c1.5,1.2,2.8,2.2,4,3.9c1.5,2.3,3.6,4.8,4.1,7.5
		c0.6,2.5,0.8,5.2,0.6,7.8c-0.2,1.5-0.8,5.1-2.6,6.7c-0.2,0.2-0.7-1.9-0.8-2.2c-1-4.2-2.6-7.8-5.8-11.7c-1.8-2.1-3.7-4.1-6.1-5.4
		c-2.7-1.5-5.5-2.3-8.3-3.2c-5-1.4-9.8-3.5-14.8-5c4.5,1.5,9,3.2,13.3,5.3c4.8,2.3,9.1,5.9,13,9.6c1.5,1.5,3,3,4.2,4.9
		c1.2,1.8,1.9,3.7,2.5,5.7l1.2,4.6c0.2,0.6,0.4,1.2,0.7,1.7c1.9,2.7,3.8,5.7,6.1,7.8L50,63.9z"/>
</g>
<g>
	
		<linearGradient id="SVGID_2_" gradientUnits="userSpaceOnUse" x1="-58.5333" y1="-910.5791" x2="-41.4887" y2="-893.8125" gradientTransform="matrix(-3.884000e-02 -0.9992 0.9992 -3.884000e-02 983.0719 -41.1779)">
		<stop  offset="0" style="stop-color:#00A968"/>
		<stop  offset="0.2145" style="stop-color:#03AA68"/>
		<stop  offset="0.3585" style="stop-color:#0CAE69"/>
		<stop  offset="0.4817" style="stop-color:#1BB46B"/>
		<stop  offset="0.5934" style="stop-color:#30BD6E"/>
		<stop  offset="0.6972" style="stop-color:#4CC871"/>
		<stop  offset="0.7951" style="stop-color:#6ED675"/>
		<stop  offset="0.8886" style="stop-color:#97E77A"/>
		<stop  offset="0.9762" style="stop-color:#C4F97F"/>
		<stop  offset="1" style="stop-color:#D2FF81"/>
	</linearGradient>
	<path style="fill:url(#SVGID_2_);" d="M64.2,59.5c0.1,0,0.8-0.6,0.9-0.6c0.5-0.4,0.9-0.8,1.4-1.2c0.3-0.2,3.7-2.6,3.8-2.5
		c-1.8-2.6-1.8-5.8-0.9-8.8c1.1-3.7,3.5-7.1,7-9.1c3.2-1.7,6.5-3.2,9.9-4.3c1.7-0.6,3.6-1.1,5.3-1.5c1.1-0.2,2.3-0.5,3.4-0.7
		c0.6-0.1,1.2-0.1,1.8,0c0.5,0.1,1,0.3,1.4,0.3c-0.8,0.1-1.7,0.2-2.5,0.4c-1.1,0.3-1.7,0.5-2.2,1c-0.3,0.3-0.3,0.7-0.4,1
		c-0.1,0.7-0.3,1.5-0.4,2.2c-0.3,1.7-0.5,3.4-0.7,5.1c-0.4,4.3-0.5,8.7-3.2,12.5c-0.7,0.9-1.2,1.6-2.1,2.3c-1.3,0.9-2.6,2.1-4.2,2.5
		c-1.4,0.4-2.9,0.6-4.4,0.5c-0.9-0.1-2.9-0.3-3.9-1.3c-0.1-0.1,1.1-0.5,1.2-0.5c2.4-0.6,4.4-1.6,6.5-3.6c1.2-1.1,2.3-2.2,2.9-3.6
		c0.8-1.6,1.2-3.2,1.6-4.8c0.7-2.9,1.8-5.6,2.5-8.5c-0.7,2.6-1.6,5.2-2.7,7.7C85,46.8,83,49.3,81,51.6c-0.8,0.9-1.6,1.8-2.7,2.5
		c-1,0.7-2.1,1.1-3.2,1.6l-2.6,0.8c-0.4,0.1-0.7,0.3-1,0.5c-1.5,1.2-3.1,2.3-4.3,3.6L64.2,59.5z"/>
</g>
<path style="fill:#00A968;" d="M69.3,58.7l-2.9-0.8c-1.9,1.1-5.4,3.6-8.3,11c-1.2-6.1-4.3-9.2-8.1-12.8l-1.6,5.6
	c3.2,5.8,10.3,12.1-3.3,56l5.8-3.7c3.3-11.4,5.4-20.2,6.5-27.1l0.1,0c0-0.2,0-0.4,0-0.7c0.4-2.6,0.7-4.9,0.9-7
	C61.3,65.2,69.2,58.7,69.3,58.7z"/>
</svg>
