<?xml version="1.0" encoding="utf-8"?>
<!-- Generator: Adobe Illustrator 25.1.0, SVG Export Plug-In . SVG Version: 6.00 Build 0)  -->
<svg version="1.1" id="marker" xmlns="http://www.w3.org/2000/svg" xmlns:xlink="http://www.w3.org/1999/xlink" x="0px" y="0px"
	 viewBox="0 0 30 40" style="enable-background:new 0 0 30 40;" xml:space="preserve">
<style type="text/css">
	.st0{fill:#005EA2;}
	.st1{fill:#FFFFFF;}
</style>
<g>
	<g>
		<path class="st0" d="M15,1.11C7.66,1.11,1.68,7.3,1.68,14.9c0,3.13,2.41,8.31,6.97,14.98c2.54,3.71,5.11,6.93,6.34,8.45
			c1.24-1.51,3.8-4.74,6.34-8.45c4.56-6.67,6.97-11.84,6.97-14.98C28.32,7.3,22.34,1.11,15,1.11z"/>
		<path d="M15,0.11C7.09,0.11,0.68,6.73,0.68,14.9S15,39.89,15,39.89S29.32,23.06,29.32,14.9S22.91,0.11,15,0.11z M1.68,14.9
			C1.68,7.3,7.66,1.11,15,1.11S28.32,7.3,28.32,14.9c0,3.13-2.41,8.31-6.97,14.98c-2.54,3.71-5.11,6.93-6.34,8.45
			c-1.24-1.51-3.8-4.74-6.34-8.45C4.09,23.21,1.68,18.03,1.68,14.9z"/>
	</g>
	<g>
		<path d="M27.68,15.57c0-0.16-0.08-0.32-0.16-0.47c-0.63-1.34-1.89-2.37-3.39-2.6c-0.39-0.08-0.79-0.16-1.1-0.24l-0.55-0.08
			c-0.32-0.08-0.63-0.24-0.87-0.47c-0.32-0.32-0.63-0.55-0.87-0.87l-0.08-0.08c-0.87-0.79-1.81-1.5-2.84-1.97
			c-1.5-0.63-3.08-1.03-4.66-1.03c-0.24,0-0.47,0-0.71,0c-0.87,0-1.66,0.08-2.45,0.16C9.29,8,8.58,8.23,7.87,8.63
			C7.24,9.02,6.61,9.42,5.98,9.97c-0.32,0.32-0.79,0.47-1.18,0.55H4.48c-1.18,0.32-1.97,1.26-1.97,2.45v3c0,1.5,1.26,2.76,2.76,2.76
			h0.16c0,0.08,0,0.16,0.08,0.16c0.47,1.42,2.05,2.21,3.47,1.74c0.87-0.32,1.58-1.03,1.81-1.89h8.52c0.39,1.5,1.89,2.29,3.39,1.89
			c0.95-0.24,1.66-0.95,1.89-1.89h1.1c1.1,0,2.05-0.87,2.05-2.05c0-0.08,0-0.16,0-0.24c0,0,0,0,0-0.08v-0.47v-0.08v-0.08
			C27.75,15.65,27.75,15.65,27.68,15.57z"/>
		<path class="st1" d="M26.97,15.34c-0.55-1.18-1.66-2.05-2.92-2.29c-0.55-0.08-1.1-0.24-1.66-0.32c-0.47-0.08-0.87-0.32-1.18-0.63
			c-0.32-0.32-0.63-0.63-0.95-0.95c-0.79-0.79-1.66-1.34-2.68-1.81c-1.42-0.63-2.92-0.95-4.42-0.95c-0.24,0-0.47,0-0.71,0
			c-0.79,0-1.58,0.08-2.37,0.16C9.37,8.63,8.74,8.86,8.11,9.18c-0.63,0.39-1.26,0.79-1.74,1.26c-0.47,0.39-0.95,0.63-1.58,0.71l0,0
			c-0.95,0-1.66,0.79-1.66,1.74v3c0,1.18,0.95,2.13,2.13,2.13h0.08c0-1.18,0.71-2.29,1.89-2.68c0.16-0.08,0.32-0.08,0.39-0.08
			s0.32,0,0.47,0h0.08c1.5,0,2.76,1.26,2.68,2.84h8.36c0-0.24,0-0.55,0.08-0.79c0.16-0.71,0.63-1.26,1.26-1.66
			c0.39-0.24,0.87-0.39,1.34-0.39c0.95,0,1.89,0.55,2.37,1.34c0.24,0.47,0.39,0.95,0.39,1.5h1.03c0.79,0,1.42-0.63,1.42-1.42
			c0-0.08,0-0.24,0-0.32v-0.08l0,0v-0.32v-0.08C27.04,15.73,27.04,15.49,26.97,15.34z"/>
		<circle class="st1" cx="8.11" cy="18.02" r="2.21"/>
		<circle class="st1" cx="21.92" cy="18.02" r="2.21"/>
	</g>
</g>
</svg>
