<?xml version="1.0" encoding="utf-8"?>
<!-- Generator: Adobe Illustrator 16.0.0, SVG Export Plug-In . SVG Version: 6.00 Build 0)  -->
<!DOCTYPE svg PUBLIC "-//W3C//DTD SVG 1.1//EN" "http://www.w3.org/Graphics/SVG/1.1/DTD/svg11.dtd">
<svg version="1.1" id="Transportation" xmlns="http://www.w3.org/2000/svg" xmlns:xlink="http://www.w3.org/1999/xlink" x="0px"
	 y="0px" width="36px" height="40px" viewBox="0 0 36 40" enable-background="new 0 0 36 40" xml:space="preserve">
<path d="M34,22.619v-0.602l-0.039-0.105v-0.021l-0.025-0.074c0-0.061-0.031-0.129-0.051-0.198c-0.047-0.22-0.115-0.433-0.209-0.64
	c-0.791-1.741-2.387-2.984-4.268-3.327c-0.477-0.097-0.961-0.184-1.428-0.266l-0.701-0.125c-0.404-0.072-0.775-0.271-1.059-0.57
	c-0.367-0.381-0.754-0.745-1.123-1.101l-0.059-0.077c-1.053-1.018-2.268-1.851-3.598-2.463c-1.859-0.82-3.865-1.256-5.898-1.281
	c-0.319,0-0.64,0-0.938,0c-1.054-0.009-2.104,0.071-3.144,0.24c-0.937,0.148-1.844,0.445-2.687,0.881
	c-0.842,0.48-1.631,1.048-2.354,1.692L6.4,14.601c-0.435,0.379-0.974,0.617-1.545,0.682L4.49,15.325l-0.026,0.038
	C3.049,15.601,2.011,16.819,2,18.252v3.838c0.007,1.938,1.581,3.509,3.52,3.509h0.176c0.022,0.08,0.046,0.155,0.072,0.235
	c0.602,1.828,2.57,2.822,4.398,2.222c1.128-0.371,1.988-1.291,2.285-2.441l10.813,0.021c0.512,1.855,2.43,2.947,4.285,2.437
	c1.184-0.324,2.109-1.25,2.436-2.437h1.424c1.426,0.003,2.584-1.147,2.592-2.571c0-0.119,0-0.244,0-0.365c0-0.006,0-0.01,0-0.016
	V22.619L34,22.619z M11.763,24.83c-0.008,0.266-0.056,0.529-0.141,0.781c-0.057,0.16-0.125,0.313-0.209,0.461
	c-0.105,0.188-0.234,0.367-0.385,0.525c-0.09,0.094-0.188,0.184-0.291,0.266c-0.068,0.055-0.141,0.104-0.213,0.152l-0.157,0.094
	c-0.147,0.082-0.302,0.147-0.461,0.201l0,0l-0.122,0.035H9.747l-0.083,0.02H9.623h-0.09H9.498H9.375H9.359H9.253H8.966H8.845h-0.02
	H8.722H8.683H8.605H8.562L8.476,27.35H8.445c-0.039,0-0.077-0.021-0.115-0.029l0,0l-0.104-0.031H8.191l-0.076-0.033H8.076
	l-0.08-0.035H7.964L7.859,27.17l0,0l-0.096-0.051L7.732,27.1l-0.098-0.066L7.603,27.01l-0.074-0.047l-0.024-0.02l-0.099-0.07l0,0
	l-0.09-0.074l-0.025-0.021l-0.064-0.059l-0.031-0.006L7.13,26.652l-0.009-0.039l-0.083-0.09l0,0l-0.073-0.09l-0.039-0.041
	c-0.019-0.021-0.036-0.045-0.051-0.07l-0.024-0.031l-0.052-0.064l-0.022-0.028c-0.02-0.035-0.041-0.07-0.063-0.105l0,0l-0.057-0.104
	L6.64,25.953l-0.039-0.08l-0.019-0.039c0-0.029-0.022-0.055-0.032-0.082c-0.006-0.012-0.011-0.023-0.016-0.035l-0.038-0.109l0,0l0,0
	C6.353,25.18,6.32,24.725,6.4,24.284c0.025-0.13,0.06-0.259,0.1-0.382c0.036-0.11,0.08-0.217,0.131-0.319
	c0.016-0.035,0.032-0.067,0.051-0.101c0.133-0.248,0.303-0.475,0.506-0.668c0.029-0.032,0.062-0.063,0.096-0.09
	c0.133-0.121,0.277-0.229,0.432-0.32c0.158-0.09,0.326-0.163,0.5-0.221l0.121-0.039h0.039l0.086-0.021h0.041h0.087h0.038h0.122
	h0.017h0.105h0.287h0.121l0,0h0.105h0.038h0.084h0.037l0.09,0.021h0.029l0.118,0.03l0,0l0.107,0.035h0.033l0.082,0.029h0.033
	l0.086,0.034h0.025l0.108,0.052l0,0l0.103,0.057l0.029,0.019l0.075,0.045l0.032,0.018l0.077,0.053h0.022
	c0.066,0.047,0.131,0.096,0.191,0.146l0.025,0.021l0.063,0.059l0.027,0.029l0.064,0.061l0.022,0.025
	c0.055,0.057,0.108,0.117,0.159,0.182c0.01,0.01,0.017,0.02,0.022,0.029l0.052,0.065l0.051,0.063l0.049,0.07l0.02,0.03
	c0.021,0.035,0.045,0.07,0.063,0.104l0,0l0.058,0.109c0.006,0.012,0.012,0.023,0.016,0.035l0.039,0.076c0,0,0,0.029,0.017,0.041
	c0.014,0.027,0.024,0.053,0.034,0.08l0.017,0.039l0.042,0.119c0.071,0.217,0.116,0.44,0.132,0.668
	C11.767,24.656,11.771,24.744,11.763,24.83z M29.264,25.316c-0.02,0.084-0.041,0.168-0.066,0.25
	c-0.08,0.248-0.195,0.483-0.342,0.701c-0.172,0.258-0.391,0.483-0.641,0.666c-0.074,0.055-0.152,0.104-0.234,0.149l0,0l-0.145,0.08
	l-0.045,0.021l-0.107,0.051l-0.045,0.02L27.5,27.301l0,0l-0.148,0.045l-0.072,0.006l-0.113,0.027h-0.049L26.988,27.4h-0.029h-0.156
	h-0.361h-0.156h-0.039c-0.041,0-0.08,0-0.117-0.021H26.08l-0.125-0.028h-0.029l-0.146-0.043h-0.041l-0.109-0.043h-0.045
	l-0.125-0.056h-0.02l-0.141-0.071l-0.037-0.023l-0.1-0.082l-0.041-0.025l-0.115-0.08l0,0c-0.045-0.033-0.084-0.063-0.125-0.1
	l-0.035-0.029l-0.088-0.08l-0.035-0.061l-0.105-0.109l0,0c-0.035-0.037-0.07-0.082-0.102-0.125l-0.049-0.031
	c-0.025-0.031-0.051-0.063-0.072-0.1c-0.012-0.012-0.02-0.027-0.025-0.041c-0.033-0.045-0.063-0.094-0.09-0.141
	c-0.047-0.08-0.09-0.162-0.129-0.246c-0.029-0.07-0.059-0.139-0.082-0.209c0-0.016,0-0.031,0-0.045
	c-0.045-0.125-0.078-0.256-0.102-0.387c-0.02-0.117-0.031-0.234-0.037-0.353c0-0.043,0-0.084,0-0.125
	c-0.002-0.017-0.002-0.033,0-0.049c0.004-0.216,0.035-0.431,0.09-0.64l0.039-0.123c0.023-0.082,0.055-0.164,0.088-0.242
	c0.229-0.539,0.627-0.987,1.133-1.28l0.148-0.076l0.045-0.021l0.107-0.049l0.045-0.021l0.135-0.052h0.016l0.154-0.045h0.041
	l0.115-0.028h0.049l0.131-0.021h0.025l0.156-0.016h0.352h0.154h0.041l0.115,0.02h0.053l0.121,0.029h0.029l0.148,0.045h0.041
	L27.6,22.23l0.045,0.021l0.121,0.051h0.021l0.137,0.07l0.039,0.024l0.102,0.06l0.041,0.026l0.115,0.08l0,0l0.119,0.101l0.035,0.032
	l0.09,0.08l0.035,0.035l0.105,0.107l0,0c0.037,0.043,0.068,0.084,0.104,0.125l0.029,0.039c0.025,0.031,0.047,0.066,0.07,0.1
	l0.027,0.041c0.033,0.047,0.063,0.092,0.09,0.146C29.281,23.953,29.402,24.648,29.264,25.316z M33.219,22.553l-0.02,0.115
	c0.014,0.127,0.02,0.26,0.02,0.393c-0.004,0.998-0.813,1.808-1.811,1.81h-1.307c0.025-0.654-0.135-1.306-0.461-1.871
	c-0.627-1.076-1.777-1.739-3.023-1.744c-0.611,0.003-1.211,0.165-1.74,0.472c-0.801,0.457-1.387,1.217-1.627,2.106
	c-0.092,0.332-0.137,0.676-0.131,1.021L12.56,24.831c0.045-1.929-1.481-3.529-3.41-3.575c-0.029,0-0.06-0.001-0.088-0.001
	c-0.187,0.001-0.371,0.017-0.555,0.045s-0.363,0.073-0.541,0.132c-1.455,0.481-2.425,1.854-2.394,3.389H5.519
	c-1.502-0.006-2.718-1.223-2.723-2.723v-3.841c0-1.164,0.92-2.119,2.083-2.166c0.013-0.012,0.021-0.026,0.029-0.041
	c0.729-0.08,1.419-0.377,1.978-0.854c0.689-0.616,1.44-1.16,2.241-1.622c0.771-0.396,1.599-0.667,2.453-0.801
	c0.995-0.161,2.002-0.238,3.009-0.23c0.305,0,0.611,0,0.915,0.016c1.929,0.023,3.832,0.43,5.601,1.197
	c1.25,0.578,2.393,1.361,3.379,2.32c0.398,0.384,0.805,0.765,1.189,1.162c0.396,0.416,0.914,0.695,1.48,0.797
	c0.697,0.127,1.396,0.239,2.092,0.383c1.645,0.296,3.035,1.381,3.723,2.903c0.09,0.229,0.16,0.464,0.215,0.703
	c0.01,0.041,0.021,0.082,0.037,0.121v0.408H33.219z"/>
</svg>
