<?xml version="1.0" encoding="utf-8"?>
<!-- Generator: Adobe Illustrator 25.0.0, SVG Export Plug-In . SVG Version: 6.00 Build 0)  -->
<svg version="1.1" id="Transportation" xmlns="http://www.w3.org/2000/svg" xmlns:xlink="http://www.w3.org/1999/xlink" x="0px"
	 y="0px" viewBox="0 0 36 40" style="enable-background:new 0 0 36 40;" xml:space="preserve">
<style type="text/css">
	.st0{fill:#FFFFFF;}
</style>
<g>
	<path d="M33.9,21.6c0-0.2-0.1-0.4-0.2-0.6c-0.8-1.7-2.4-3-4.3-3.3c-0.5-0.1-1-0.2-1.4-0.3l-0.7-0.1c-0.4-0.1-0.8-0.3-1.1-0.6
		c-0.4-0.4-0.8-0.7-1.1-1.1L25,15.5c-1.1-1-2.3-1.9-3.6-2.5c-1.9-0.8-3.9-1.3-5.9-1.3c-0.3,0-0.6,0-0.9,0c-1.1,0-2.1,0.1-3.1,0.2
		c-0.9,0.1-1.8,0.4-2.7,0.9c-0.8,0.5-1.6,1-2.4,1.7c-0.4,0.4-1,0.6-1.5,0.7H4.5C3,15.6,2,16.8,2,18.3v3.8c0,1.9,1.6,3.5,3.5,3.5h0.2
		c0,0.1,0,0.2,0.1,0.2c0.6,1.8,2.6,2.8,4.4,2.2c1.1-0.4,2-1.3,2.3-2.4h10.8c0.5,1.9,2.4,2.9,4.3,2.4c1.2-0.3,2.1-1.2,2.4-2.4h1.4
		c1.4,0,2.6-1.1,2.6-2.6c0-0.1,0-0.2,0-0.3c0,0,0,0,0-0.1V22v-0.1v-0.1C34,21.7,34,21.7,33.9,21.6z"/>
	<path class="st0" d="M33,21.3c-0.7-1.5-2.1-2.6-3.7-2.9c-0.7-0.1-1.4-0.3-2.1-0.4c-0.6-0.1-1.1-0.4-1.5-0.8s-0.8-0.8-1.2-1.2
		c-1-1-2.1-1.7-3.4-2.3c-1.8-0.8-3.7-1.2-5.6-1.2c-0.3,0-0.6,0-0.9,0c-1,0-2,0.1-3,0.2c-0.9,0.1-1.7,0.4-2.5,0.8
		c-0.8,0.5-1.6,1-2.2,1.6c-0.6,0.5-1.2,0.8-2,0.9l0,0c-1.2,0-2.1,1-2.1,2.2V22c0,1.5,1.2,2.7,2.7,2.7h0.1c0-1.5,0.9-2.9,2.4-3.4
		c0.2-0.1,0.4-0.1,0.5-0.1s0.4,0,0.6,0h0.1c1.9,0,3.5,1.6,3.4,3.6h10.6c0-0.3,0-0.7,0.1-1c0.2-0.9,0.8-1.6,1.6-2.1
		c0.5-0.3,1.1-0.5,1.7-0.5c1.2,0,2.4,0.7,3,1.7c0.3,0.6,0.5,1.2,0.5,1.9h1.3c1,0,1.8-0.8,1.8-1.8c0-0.1,0-0.3,0-0.4v-0.1l0,0v-0.4
		V22C33.1,21.8,33.1,21.5,33,21.3z"/>
	<circle class="st0" cx="9.1" cy="24.7" r="2.8"/>
	<circle class="st0" cx="26.6" cy="24.7" r="2.8"/>
</g>
</svg>
