<?xml version="1.0" encoding="utf-8"?>
<!-- Generator: Adobe Illustrator 16.0.0, SVG Export Plug-In . SVG Version: 6.00 Build 0)  -->
<!DOCTYPE svg PUBLIC "-//W3C//DTD SVG 1.1//EN" "http://www.w3.org/Graphics/SVG/1.1/DTD/svg11.dtd">
<svg version="1.1" id="Transportation" xmlns="http://www.w3.org/2000/svg" xmlns:xlink="http://www.w3.org/1999/xlink" x="0px"
	 y="0px" width="36px" height="40px" viewBox="0 0 36 40" enable-background="new 0 0 36 40" xml:space="preserve">
<g>
	<path d="M34,22.619v-0.602l-0.039-0.105v-0.021l-0.025-0.074c0-0.061-0.031-0.129-0.051-0.197
		c-0.047-0.221-0.115-0.434-0.209-0.641c-0.791-1.741-2.387-2.983-4.268-3.327c-0.477-0.097-0.961-0.184-1.428-0.266l-0.701-0.125
		c-0.404-0.072-0.775-0.271-1.059-0.57c-0.367-0.381-0.755-0.745-1.123-1.101l-0.06-0.077c-1.054-1.018-2.269-1.851-3.599-2.463
		c-1.858-0.82-3.864-1.256-5.897-1.281c-0.319,0-0.64,0-0.938,0c-1.054-0.009-2.104,0.071-3.144,0.24
		c-0.937,0.148-1.844,0.445-2.687,0.881c-0.842,0.48-1.631,1.048-2.354,1.692L6.4,14.601c-0.435,0.379-0.974,0.617-1.545,0.682
		L4.49,15.325l-0.026,0.038C3.049,15.601,2.011,16.819,2,18.252v3.838c0.007,1.938,1.581,3.51,3.52,3.51h0.176
		c0.022,0.08,0.046,0.154,0.072,0.234c0.602,1.828,2.57,2.822,4.398,2.223c1.128-0.371,1.988-1.291,2.285-2.441l10.813,0.021
		c0.512,1.855,2.43,2.947,4.285,2.438c1.184-0.324,2.109-1.25,2.436-2.438h1.425c1.426,0.003,2.584-1.146,2.592-2.571
		c0-0.119,0-0.244,0-0.364c0-0.007,0-0.011,0-0.017L34,22.619L34,22.619z M11.622,25.611c-0.057,0.16-0.125,0.313-0.209,0.461
		c-0.105,0.188-0.234,0.367-0.385,0.525c-0.09,0.094-0.188,0.184-0.291,0.266c-0.068,0.055-0.141,0.104-0.213,0.152l-0.157,0.094
		c-0.147,0.082-0.302,0.146-0.461,0.201l-0.122,0.035H9.747l-0.083,0.02H9.623h-0.09H9.498H9.375H9.359H9.253H8.966H8.845h-0.02
		H8.722H8.683H8.605H8.562L8.476,27.35H8.445c-0.039,0-0.077-0.021-0.115-0.029l-0.104-0.03H8.191l-0.076-0.033H8.076l-0.08-0.034
		H7.964L7.859,27.17l-0.096-0.051L7.732,27.1l-0.098-0.065L7.603,27.01l-0.074-0.047l-0.024-0.02l-0.099-0.07l-0.09-0.074
		l-0.025-0.021l-0.064-0.059l-0.031-0.006L7.13,26.652l-0.009-0.039l-0.083-0.09l-0.073-0.09l-0.039-0.041
		c-0.019-0.021-0.036-0.045-0.051-0.07l-0.024-0.031l-0.052-0.064l-0.022-0.027c-0.02-0.035-0.041-0.07-0.063-0.105L6.657,25.99
		L6.64,25.953l-0.039-0.08l-0.019-0.039c0-0.029-0.022-0.055-0.032-0.082c-0.006-0.012-0.011-0.023-0.016-0.035l-0.038-0.109
		C6.353,25.18,6.32,24.725,6.4,24.284c0.025-0.13,0.06-0.259,0.1-0.382c0.036-0.11,0.08-0.217,0.131-0.319
		c0.016-0.035,0.032-0.067,0.051-0.101c0.133-0.248,0.303-0.476,0.506-0.668c0.029-0.032,0.062-0.063,0.096-0.09
		c0.133-0.121,0.277-0.229,0.432-0.32c0.158-0.09,0.326-0.163,0.5-0.221l0.121-0.039h0.039l0.086-0.021h0.041H8.59h0.038H8.75h0.017
		h0.105h0.287H9.28h0.105h0.038h0.084h0.037l0.09,0.021h0.029l0.118,0.029l0.107,0.035h0.033l0.082,0.029h0.033l0.086,0.033h0.025
		l0.108,0.053l0.103,0.057l0.029,0.02l0.075,0.045l0.032,0.018l0.077,0.053h0.022c0.066,0.047,0.131,0.096,0.191,0.146l0.025,0.021
		l0.063,0.059l0.027,0.029l0.064,0.061l0.022,0.025c0.055,0.057,0.108,0.117,0.159,0.182c0.01,0.01,0.017,0.02,0.022,0.029
		l0.052,0.064l0.051,0.063l0.049,0.07l0.02,0.03c0.021,0.035,0.045,0.07,0.063,0.104l0.058,0.108
		c0.006,0.013,0.012,0.023,0.016,0.035l0.039,0.076c0,0,0,0.028,0.017,0.041c0.014,0.026,0.024,0.053,0.034,0.08l0.017,0.038
		l0.042,0.119c0.071,0.218,0.116,0.44,0.132,0.668c0.011,0.09,0.015,0.178,0.007,0.264C11.755,25.096,11.707,25.359,11.622,25.611z
		 M29.264,25.316c-0.02,0.084-0.041,0.168-0.065,0.25c-0.08,0.248-0.195,0.482-0.343,0.701c-0.172,0.258-0.391,0.482-0.641,0.666
		c-0.074,0.055-0.152,0.104-0.234,0.148l-0.145,0.08l-0.045,0.021l-0.107,0.051l-0.045,0.02L27.5,27.301l-0.148,0.045l-0.072,0.006
		l-0.112,0.027h-0.049l-0.13,0.021h-0.029h-0.156h-0.361h-0.155h-0.039c-0.041,0-0.08,0-0.117-0.021h-0.05l-0.125-0.027h-0.029
		l-0.146-0.043h-0.04l-0.109-0.043h-0.045l-0.125-0.057h-0.021l-0.141-0.07l-0.037-0.023l-0.1-0.082l-0.041-0.025l-0.115-0.08
		c-0.045-0.033-0.084-0.063-0.125-0.1l-0.035-0.029l-0.088-0.08l-0.035-0.061l-0.104-0.109c-0.035-0.037-0.07-0.082-0.103-0.125
		l-0.049-0.031c-0.025-0.031-0.051-0.063-0.072-0.1c-0.012-0.012-0.02-0.027-0.024-0.041c-0.033-0.045-0.063-0.094-0.091-0.141
		c-0.047-0.08-0.09-0.162-0.129-0.246c-0.028-0.07-0.059-0.139-0.082-0.209c0-0.016,0-0.031,0-0.045
		c-0.045-0.125-0.077-0.256-0.102-0.387c-0.02-0.117-0.031-0.234-0.037-0.354c0-0.043,0-0.084,0-0.125
		c-0.002-0.018-0.002-0.033,0-0.049c0.004-0.217,0.035-0.432,0.09-0.641l0.039-0.123c0.023-0.082,0.056-0.164,0.088-0.242
		c0.229-0.539,0.627-0.986,1.133-1.279l0.148-0.076l0.045-0.021l0.107-0.049l0.045-0.021l0.135-0.052h0.016l0.154-0.045h0.041
		l0.115-0.028h0.049l0.131-0.021h0.025l0.156-0.017h0.352h0.154h0.041l0.115,0.021h0.053l0.121,0.028h0.029l0.147,0.045h0.041
		L27.6,22.23l0.045,0.021l0.121,0.051h0.021l0.137,0.07l0.039,0.024l0.102,0.06l0.041,0.026l0.115,0.08l0.119,0.101l0.035,0.032
		l0.09,0.08l0.035,0.035l0.105,0.106c0.037,0.043,0.067,0.084,0.104,0.125l0.029,0.039c0.025,0.03,0.047,0.065,0.07,0.101
		l0.026,0.041c0.033,0.047,0.063,0.092,0.09,0.146C29.281,23.953,29.402,24.648,29.264,25.316z M33.221,22.553h-0.002l-0.02,0.115
		c0.014,0.127,0.02,0.26,0.02,0.393c-0.004,0.998-0.813,1.809-1.811,1.811h-1.307c0.024-0.654-0.136-1.307-0.461-1.871
		c-0.627-1.076-1.777-1.739-3.023-1.744c-0.611,0.003-1.211,0.165-1.74,0.473c-0.801,0.457-1.387,1.217-1.627,2.105
		c-0.092,0.332-0.137,0.676-0.131,1.021L12.56,24.831c0.045-1.929-1.481-3.529-3.41-3.575c-0.029,0-0.06-0.001-0.088-0.001
		c-0.187,0.001-0.371,0.017-0.555,0.045c-0.184,0.028-0.363,0.073-0.541,0.132c-1.455,0.481-2.425,1.854-2.394,3.389H5.519
		c-1.502-0.006-2.718-1.223-2.723-2.723v-3.841c0-1.164,0.92-2.119,2.083-2.166c0.013-0.012,0.021-0.026,0.029-0.041
		c0.729-0.08,1.419-0.377,1.978-0.854c0.689-0.616,1.44-1.16,2.241-1.622c0.771-0.396,1.599-0.667,2.453-0.801
		c0.995-0.161,2.002-0.238,3.009-0.23c0.305,0,0.611,0,0.915,0.016c1.929,0.023,3.832,0.43,5.602,1.197
		c1.25,0.578,2.393,1.361,3.379,2.32c0.397,0.384,0.805,0.765,1.188,1.162c0.396,0.416,0.914,0.695,1.479,0.797
		c0.697,0.127,1.396,0.239,2.093,0.383c1.646,0.296,3.034,1.381,3.723,2.902c0.091,0.229,0.16,0.465,0.216,0.703
		c0.01,0.041,0.021,0.082,0.037,0.121V22.553z"/>
	<path fill="#FFFFFF" d="M32.968,21.32c-0.688-1.521-2.077-2.606-3.723-2.902c-0.696-0.144-1.396-0.256-2.093-0.383
		c-0.565-0.102-1.084-0.381-1.479-0.797c-0.384-0.397-0.791-0.778-1.188-1.162c-0.986-0.959-2.129-1.742-3.379-2.32
		c-1.77-0.767-3.672-1.174-5.602-1.197c-0.304-0.016-0.61-0.016-0.915-0.016c-1.007-0.008-2.014,0.069-3.009,0.23
		c-0.854,0.134-1.682,0.405-2.453,0.801c-0.801,0.462-1.552,1.006-2.241,1.622c-0.559,0.477-1.249,0.774-1.978,0.854
		c-0.008,0.015-0.016,0.029-0.029,0.041c-1.163,0.047-2.083,1.002-2.083,2.166v3.841c0.005,1.5,1.221,2.717,2.723,2.723h0.053
		c-0.031-1.534,0.939-2.907,2.394-3.389c0.178-0.059,0.357-0.104,0.541-0.132c0.184-0.028,0.368-0.044,0.555-0.045
		c0.028,0,0.059,0.001,0.088,0.001c1.929,0.046,3.455,1.646,3.41,3.575l10.559,0.024c-0.006-0.346,0.039-0.689,0.131-1.021
		c0.24-0.889,0.826-1.648,1.627-2.105c0.529-0.308,1.129-0.47,1.74-0.473c1.246,0.005,2.396,0.668,3.023,1.744
		c0.325,0.564,0.485,1.217,0.461,1.871h1.307c0.998-0.002,1.807-0.813,1.811-1.811c0-0.133-0.006-0.266-0.02-0.393l0.02-0.115h0.002
		v-0.408c-0.017-0.039-0.027-0.08-0.037-0.121C33.128,21.785,33.059,21.55,32.968,21.32z"/>
</g>
</svg>
