<?xml version="1.0" encoding="utf-8"?>
<!-- Generator: Adobe Illustrator 25.2.3, SVG Export Plug-In . SVG Version: 6.00 Build 0)  -->
<svg version="1.1" id="Layer_1" xmlns="http://www.w3.org/2000/svg" xmlns:xlink="http://www.w3.org/1999/xlink" x="0px" y="0px"
	 width="36px" height="40px" viewBox="0 0 36 40" style="enable-background:new 0 0 36 40;" xml:space="preserve">
<style type="text/css">
	.st0{fill:none;}
	.st1{fill:#FFFFFF;}
</style>
<g>
	<path class="st0" d="M10.7,22.3c0.2,0.2,0.5,0.5,0.8,0.2c0.2-0.3-0.1-0.5-0.2-0.7C10.5,21,9.7,20.3,9,19.5
		c-0.2-0.2-0.4-0.5-0.2-0.7c0.3-0.4,0.6,0,0.8,0.2c0.9,0.8,1.7,1.7,2.6,2.6c0.3,0.3,0.7,1.1,1.2,0.5c0.5-0.5-0.3-0.9-0.6-1.3
		c-0.6-0.7-1.3-1.2-1.9-1.9c-0.4-0.4-1.3-0.8-0.8-1.3c0.5-0.6,0.9,0.4,1.3,0.7c0.8,0.7,1.6,1.6,2.4,2.3c0.3,0.3,0.6,0.8,1,0.3
		c0.4-0.5-0.1-0.8-0.4-1c-0.7-0.8-1.5-1.5-2.2-2.3c-0.4-0.4-1.3-0.8-0.8-1.3c0.5-0.5,0.9,0.4,1.3,0.7c0.6,0.5,1.1,1.1,1.7,1.7
		c0.3,0.3,0.6,0.9,1,0.5c0.5-0.5-0.2-0.8-0.5-1.1c-1-1-2-1.9-2.9-3c-0.5-0.5-1.5-0.9-1.2-1.7c0.2-0.6,1.2-0.2,1.7-0.4
		c0.1-0.1,0.3-0.1,0.5-0.1c0.4-0.2,1-0.2,0.9-0.8c-0.1-0.4-0.6-0.2-1-0.2C11,12,9.1,12,7.4,11.2c-0.5-0.3-0.8,0-1,0.4
		c-0.8,1.2-1.2,2.6-1.4,4.2c0,0.3,0.2,0.6,0.4,1C7,18.8,8.9,20.5,10.7,22.3z"/>
	<path class="st0" d="M22.4,17.1c-0.2-0.2-0.4-0.4-0.7-0.2c-0.3,0.3-0.1,0.5,0.1,0.7c0.7,0.7,1.4,1.4,2.1,2.2
		c0.2,0.2,0.7,0.5,0.3,0.9c-0.4,0.4-0.6-0.2-0.9-0.4c-0.8-0.8-1.7-1.7-2.5-2.5c-0.3-0.3-0.7-1-1.1-0.5c-0.6,0.5,0.1,0.9,0.5,1.3
		c0.8,0.9,1.7,1.7,2.6,2.6c0.2,0.2,0.5,0.5,0.1,0.8c-0.3,0.2-0.5-0.1-0.7-0.2c-1-1-2-1.9-2.9-2.9c-0.3-0.3-0.6-0.7-1.1-0.3
		c-0.5,0.4,0,0.8,0.3,1c0.8,0.9,1.7,1.7,2.6,2.6c0.3,0.3,1,0.6,0.5,1.1c-0.5,0.4-0.8-0.3-1.1-0.6c-0.7-0.6-1.3-1.3-1.9-1.9
		c-0.3-0.3-0.6-0.8-1-0.4c-0.4,0.4,0.2,0.7,0.5,1c1.3,1.3,2.6,2.5,3.8,3.8c0.2,0.2,0.7,0.5,0.5,0.9c-0.2,0.3-0.6,0.2-0.9,0.2
		c-0.6,0-1.3,0.1-1.8,0.5c-0.2,0.1-0.5,0.3-0.5,0.6c0.1,0.3,0.4,0.2,0.7,0.2c1.4,0,2.8-0.2,4.2,0.1c0.9,0.1,4.2-3.1,4.1-4.1
		c0-0.2-0.2-0.5-0.4-0.7C26.3,20.7,24.2,19,22.4,17.1z"/>
	<path class="st1" d="M30.7,14c-1.4-5-6.7-6.8-10.9-3.7c-1.9,1.4-1.9,1.4-3.8,0c-0.4-0.3-0.8-0.6-1.2-0.8c-2.1-1-4.2-1.1-6.3,0
		c-0.3,0.2-0.8,0.3-0.8,0.7c0,0.5,0.6,0.5,1,0.6c1.3,0.4,2.6,0.3,4,0.2c0.8,0,2-0.3,2.2,0.8c0.2,1-0.9,1.4-1.7,1.8
		c0,0-0.1,0.1-0.1,0.1c-1.3,0.2-0.7,0.6-0.2,1.1c1,1,2,2,2.9,2.9c0.5,0.5,0.8,1,0.6,1.7c-0.5,1.3-1.2,2.5-2.4,3.3
		c-1,0.8-3.3,0.7-4.3-0.3c-1.4-1.4-2.9-2.8-4.4-4.3c0,0.2,0,0.4,0,0.5c1.9,6.2,6.1,10.1,12,12.3c0.4,0.2,0.8,0.2,1.2,0.1
		c1.7-0.6,3.3-1.3,4.9-2.6c-1.1-0.6-2.2-0.1-3.2-0.2c-0.8,0-1.8,0.2-2.1-0.8c-0.2-1,0.7-1.4,1.5-1.8c0.1-0.1,0.3-0.2,0.4-0.2
		c0.9-0.1,0.7-0.5,0.2-1c-1-1-2-2-3-3c-0.5-0.5-0.8-1-0.5-1.7c0.5-1.2,1.1-2.4,2.2-3.3c1-0.8,3.3-0.8,4.3,0.1c1.3,1.3,2.7,2.6,3.9,4
		c2,2.1,1.9,2.2,3-0.6C31,18.2,31.3,16.1,30.7,14z"/>
	<path d="M28,8.9c-2.6-1.6-6.1-1.1-9,1.2c-0.7,0.6-1.2,0.6-1.9,0c-1.5-1.4-3.3-2.2-5.4-2c-1.5-0.1-3,0.3-4.2,1.2
		c-2.9,2.3-3.9,5.5-3.1,9c1.6,6.9,6.3,11.2,12.7,13.6c0.5,0.2,1,0.2,1.6,0c6.6-2.5,11.3-6.9,12.9-14C32.4,14.4,30.8,10.6,28,8.9z
		 M27.1,20.8c-1.3-1.4-2.6-2.7-3.9-4C22.3,15.9,20,16,19,16.8c-1.1,0.8-1.7,2-2.2,3.3c-0.3,0.7,0.1,1.2,0.5,1.7c1,1,2,2,3,3
		c0.5,0.5,0.7,0.8-0.2,1c-0.2,0-0.3,0.1-0.4,0.2c-0.8,0.4-1.7,0.8-1.5,1.8c0.2,0.9,1.3,0.7,2.1,0.8c1,0,2.1-0.4,3.2,0.2
		c-1.5,1.2-3.2,1.9-4.9,2.6c-0.4,0.2-0.8,0.1-1.2-0.1c-5.9-2.2-10.1-6.2-12-12.3c0-0.1,0-0.3,0-0.5c1.5,1.5,2.9,2.9,4.4,4.3
		c1,0.9,3.2,1,4.3,0.3c1.2-0.9,1.9-2,2.4-3.3c0.3-0.7-0.1-1.2-0.6-1.7c-1-1-1.9-2-2.9-2.9c-0.5-0.5-1.1-1,0.2-1.1
		c0.1,0,0.1,0,0.1-0.1c0.8-0.4,1.9-0.8,1.7-1.8c-0.2-1.1-1.4-0.8-2.2-0.8c-1.3,0.1-2.7,0.2-4-0.2c-0.4-0.1-1-0.1-1-0.6
		c0-0.4,0.5-0.5,0.8-0.7c2.1-1.1,4.2-1,6.3,0c0.4,0.2,0.8,0.5,1.2,0.8c2,1.4,2,1.4,3.8,0c4.2-3.1,9.5-1.3,10.9,3.7
		c0.6,2.2,0.2,4.2-0.6,6.2C29.1,23,29.1,23,27.1,20.8z M6.3,11.6c0.2-0.4,0.5-0.7,1-0.4C9.1,12,11,12,12.8,11.9c0.3,0,0.9-0.2,1,0.2
		c0.1,0.5-0.5,0.6-0.9,0.8c-0.1,0.1-0.3,0.1-0.5,0.1c-0.6,0.3-1.5-0.2-1.7,0.4c-0.2,0.8,0.8,1.2,1.2,1.7c0.9,1,2,2,2.9,3
		c0.3,0.3,1,0.6,0.5,1.1c-0.4,0.4-0.7-0.2-1-0.5c-0.6-0.6-1.1-1.2-1.7-1.7c-0.4-0.3-0.8-1.3-1.3-0.7c-0.5,0.5,0.5,0.9,0.8,1.3
		c0.7,0.8,1.5,1.5,2.2,2.3c0.3,0.3,0.8,0.6,0.4,1c-0.4,0.5-0.8,0-1-0.3c-0.8-0.8-1.6-1.6-2.4-2.3C11,18,10.6,17,10.1,17.6
		c-0.5,0.5,0.5,0.9,0.8,1.3c0.6,0.7,1.3,1.3,1.9,1.9c0.3,0.4,1.1,0.7,0.6,1.3c-0.5,0.6-0.9-0.2-1.2-0.5c-0.9-0.8-1.7-1.7-2.6-2.6
		c-0.2-0.2-0.5-0.6-0.8-0.2c-0.2,0.2,0,0.5,0.2,0.7c0.7,0.8,1.5,1.5,2.2,2.3c0.2,0.2,0.4,0.4,0.2,0.7c-0.3,0.4-0.6,0.1-0.8-0.2
		c-1.8-1.8-3.7-3.5-5.3-5.5c-0.3-0.3-0.5-0.7-0.4-1C5.1,14.2,5.5,12.8,6.3,11.6z M24.1,27.7c-1.5-0.3-2.9-0.1-4.2-0.1
		c-0.2,0-0.6,0.1-0.7-0.2c-0.1-0.3,0.2-0.4,0.5-0.6c0.6-0.3,1.2-0.4,1.8-0.5c0.3,0,0.7,0.1,0.9-0.2c0.2-0.4-0.2-0.7-0.5-0.9
		c-1.3-1.3-2.6-2.5-3.8-3.8c-0.3-0.3-0.8-0.6-0.5-1c0.4-0.5,0.7,0.1,1,0.4c0.7,0.6,1.3,1.3,1.9,1.9c0.3,0.3,0.6,1,1.1,0.6
		c0.5-0.4-0.2-0.8-0.5-1.1c-0.8-0.9-1.7-1.7-2.6-2.6c-0.3-0.3-0.8-0.6-0.3-1c0.4-0.4,0.8,0.1,1.1,0.3c1,1,2,1.9,2.9,2.9
		c0.2,0.2,0.4,0.4,0.7,0.2c0.4-0.3,0.1-0.6-0.1-0.8c-0.9-0.9-1.7-1.7-2.6-2.6c-0.3-0.4-1-0.7-0.5-1.3c0.5-0.4,0.8,0.2,1.1,0.5
		c0.8,0.8,1.7,1.7,2.5,2.5c0.2,0.2,0.5,0.7,0.9,0.4c0.4-0.4-0.1-0.7-0.3-0.9c-0.7-0.7-1.4-1.4-2.1-2.2c-0.2-0.2-0.4-0.4-0.1-0.7
		c0.3-0.3,0.5,0,0.7,0.2c1.8,1.9,3.9,3.6,5.4,5.8c0.2,0.2,0.3,0.4,0.4,0.7C28.3,24.6,25,27.8,24.1,27.7z"/>
</g>
</svg>
